<?xml version="1.0" encoding="UTF-8"?>
<!DOCTYPE svg PUBLIC "-//W3C//DTD SVG 1.0//EN" "http://www.w3.org/TR/2001/REC-SVG-20010904/DTD/svg10.dtd">
<!-- Creator: CorelDRAW 2021 (64-Bit) -->
<svg xmlns="http://www.w3.org/2000/svg" xml:space="preserve" width="165px" height="47px" version="1.0" shape-rendering="geometricPrecision" text-rendering="geometricPrecision" image-rendering="optimizeQuality" fill-rule="evenodd" clip-rule="evenodd"
viewBox="0 0 165 47"
 xmlns:xlink="http://www.w3.org/1999/xlink"
 xmlns:xodm="http://www.corel.com/coreldraw/odm/2003">
 <g id="Layer_x0020_1">
  <metadata id="CorelCorpID_0Corel-Layer"/>
  <g id="_2731092709440">
   <path fill="#DF1219" stroke="#DF1219" stroke-width="0.9" stroke-miterlimit="22.9256" d="M15.28 19.75l0 -7.58 7.58 0 0 -9.51 14.8 6.38 0 5.78 6.3 3.4 0 25.65 1.18 0 0 1.47 -2.65 0 0 -26.25 -4.83 -2.6 0 28.85 -5.85 0 0 -33.65 4.38 2.35 0 -4.03 -11.84 -5.12 0 7.28 4.36 0 0 33.17 -5.85 0 0 -31.7 -6.11 0 0 6.11 4.37 0 0 25.59 -5.84 0 0 -24.12 -4.33 0 0 24.12 -4.03 0 0 -1.47 2.57 0 0 -24.12 5.79 0zm11.97 24.12l0 -30.23 -2.9 0 0 30.23 2.9 0zm-7.6 0l0 -22.65 -2.9 0 0 22.65 2.9 0zm16.54 -28.17l-2.91 -1.56 0 29.73 2.91 0 0 -28.17z"/>
   <path fill="white" fill-rule="nonzero" d="M60.14 35l0 -21.29 8.52 0c1.52,0 2.74,0.31 3.68,0.92 0.94,0.6 1.62,1.36 2.06,2.27 0.43,0.92 0.65,1.85 0.65,2.78 0,1.2 -0.27,2.19 -0.82,2.98 -0.53,0.78 -1.26,1.31 -2.2,1.58l0 -0.74c1.33,0.27 2.33,0.89 2.99,1.85 0.67,0.95 1,2.02 1,3.21 0,1.27 -0.23,2.38 -0.71,3.35 -0.46,0.97 -1.17,1.73 -2.13,2.28 -0.95,0.54 -2.16,0.81 -3.6,0.81l-9.44 0zm4.08 -3.78l4.94 0c0.54,0 1.03,-0.12 1.45,-0.34 0.43,-0.24 0.75,-0.57 0.99,-0.98 0.25,-0.42 0.37,-0.92 0.37,-1.49 0,-0.51 -0.1,-0.95 -0.31,-1.35 -0.21,-0.39 -0.52,-0.7 -0.95,-0.93 -0.41,-0.24 -0.93,-0.35 -1.55,-0.35l-4.94 0 0 5.44zm0 -9.2l4.38 0c0.45,0 0.86,-0.08 1.21,-0.24 0.36,-0.16 0.64,-0.4 0.85,-0.72 0.2,-0.34 0.31,-0.77 0.31,-1.29 0,-0.65 -0.21,-1.19 -0.61,-1.64 -0.4,-0.44 -0.99,-0.66 -1.76,-0.66l-4.38 0 0 4.55zm19.81 13.45c-1.25,0 -2.27,-0.21 -3.06,-0.63 -0.79,-0.43 -1.41,-0.96 -1.85,-1.61 -0.43,-0.65 -0.74,-1.33 -0.93,-2.03 -0.19,-0.71 -0.3,-1.35 -0.34,-1.94 -0.04,-0.58 -0.06,-1 -0.06,-1.27l0 -8.96 4.08 0 0 7.54c0,0.37 0.02,0.84 0.06,1.41 0.04,0.56 0.16,1.13 0.37,1.7 0.2,0.57 0.54,1.05 1,1.43 0.48,0.39 1.14,0.58 2,0.58 0.34,0 0.71,-0.06 1.11,-0.16 0.39,-0.11 0.76,-0.32 1.11,-0.62 0.34,-0.32 0.62,-0.78 0.84,-1.38 0.23,-0.61 0.34,-1.41 0.34,-2.39l2.31 1.09c0,1.26 -0.26,2.44 -0.77,3.55 -0.52,1.1 -1.29,1.99 -2.32,2.67 -1.03,0.68 -2.33,1.02 -3.89,1.02zm5.17 -0.47l0 -5.29 -0.5 0 0 -10.68 4.05 0 0 15.97 -3.55 0zm7.09 -18.18l0 -3.55 4.02 0 0 3.55 -4.02 0zm0 18.18l0 -15.97 4.02 0 0 15.97 -4.02 0zm7.86 0l0 -21.73 4.03 0 0 21.73 -4.03 0zm17.15 0c-1.1,0.21 -2.19,0.3 -3.25,0.27 -1.05,-0.02 -2,-0.21 -2.84,-0.55 -0.83,-0.35 -1.46,-0.92 -1.89,-1.7 -0.4,-0.73 -0.6,-1.47 -0.62,-2.22 -0.02,-0.76 -0.03,-1.61 -0.03,-2.57l0 -13.63 4.02 0 0 13.39c0,0.62 0.01,1.19 0.01,1.69 0.02,0.49 0.13,0.89 0.31,1.18 0.36,0.56 0.93,0.87 1.7,0.92 0.78,0.05 1.65,0.01 2.59,-0.12l0 3.34zm-11.35 -12.86l0 -3.11 11.35 0 0 3.11 -11.35 0z"/>
   <path fill="#DF1219" fill-rule="nonzero" d="M129.92 35.47c-1.26,0 -2.27,-0.21 -3.06,-0.63 -0.79,-0.43 -1.41,-0.96 -1.85,-1.61 -0.44,-0.65 -0.75,-1.33 -0.93,-2.03 -0.19,-0.71 -0.3,-1.35 -0.34,-1.94 -0.04,-0.58 -0.06,-1 -0.06,-1.27l0 -8.96 4.08 0 0 7.54c0,0.37 0.02,0.84 0.06,1.41 0.04,0.56 0.16,1.13 0.37,1.7 0.2,0.57 0.54,1.05 1,1.43 0.48,0.39 1.14,0.58 2,0.58 0.34,0 0.71,-0.06 1.11,-0.16 0.39,-0.11 0.76,-0.32 1.11,-0.62 0.34,-0.32 0.62,-0.78 0.84,-1.38 0.23,-0.61 0.34,-1.41 0.34,-2.39l2.31 1.09c0,1.26 -0.26,2.44 -0.77,3.55 -0.52,1.1 -1.29,1.99 -2.32,2.67 -1.03,0.68 -2.33,1.02 -3.89,1.02zm5.17 -0.47l0 -5.29 -0.5 0 0 -10.68 4.05 0 0 15.97 -3.55 0zm14.63 0.44c-1.59,0 -2.91,-0.36 -3.98,-1.1 -1.06,-0.74 -1.86,-1.75 -2.4,-3.02 -0.54,-1.27 -0.8,-2.71 -0.8,-4.3 0,-1.6 0.26,-3.03 0.8,-4.31 0.53,-1.27 1.31,-2.27 2.35,-3.01 1.03,-0.74 2.31,-1.11 3.82,-1.11 1.53,0 2.86,0.36 4,1.09 1.13,0.73 2.01,1.73 2.63,3.01 0.63,1.26 0.95,2.7 0.95,4.33 0,1.59 -0.32,3.03 -0.94,4.3 -0.61,1.27 -1.47,2.28 -2.57,3.02 -1.1,0.74 -2.39,1.1 -3.86,1.1zm-7.86 6.66l0 -23.07 3.54 0 0 10.94 0.51 0 0 12.13 -4.05 0zm7.21 -10.23c0.87,0 1.58,-0.22 2.13,-0.65 0.55,-0.44 0.96,-1.02 1.23,-1.75 0.26,-0.74 0.4,-1.56 0.4,-2.45 0,-0.89 -0.14,-1.7 -0.42,-2.43 -0.27,-0.74 -0.7,-1.32 -1.28,-1.76 -0.58,-0.44 -1.31,-0.66 -2.21,-0.66 -0.83,0 -1.51,0.2 -2.04,0.6 -0.51,0.41 -0.88,0.97 -1.12,1.7 -0.24,0.73 -0.36,1.58 -0.36,2.55 0,0.96 0.12,1.81 0.36,2.54 0.24,0.73 0.62,1.3 1.15,1.7 0.54,0.4 1.26,0.61 2.16,0.61z"/>
  </g>
 </g>
</svg>
