<?xml version="1.0" encoding="UTF-8"?>
<!DOCTYPE svg PUBLIC "-//W3C//DTD SVG 1.0//EN" "http://www.w3.org/TR/2001/REC-SVG-20010904/DTD/svg10.dtd">
<!-- Creator: CorelDRAW 2021 (64-Bit) -->
<svg xmlns="http://www.w3.org/2000/svg" xml:space="preserve" width="744px" height="272px" version="1.0" shape-rendering="geometricPrecision" text-rendering="geometricPrecision" image-rendering="optimizeQuality" fill-rule="evenodd" clip-rule="evenodd"
viewBox="0 0 744 271.62"
 xmlns:xlink="http://www.w3.org/1999/xlink"
 xmlns:xodm="http://www.corel.com/coreldraw/odm/2003">
 <g id="Layer_x0020_1">
  <metadata id="CorelCorpID_0Corel-Layer"/>
  <path fill="#DF1219" stroke="#DF1219" stroke-width="0.9" stroke-miterlimit="22.9256" d="M54.2 111.55l0 -43.28 43.29 0 0 -54.32 84.47 36.43 0 33.01 35.96 19.41 0 146.5 6.74 0 0 8.37 -15.11 0 0 -149.92 -27.59 -14.84 0 164.76 -33.39 0 0 -192.16 25.02 13.41 0 -23.02 -67.64 -29.2 0 41.57 24.93 0 0 189.4 -33.39 0 0 -181.03 -34.91 0 0 34.91 24.92 0 0 146.12 -33.3 0 0 -137.75 -24.73 0 0 137.75 -23.05 0 0 -8.37 14.68 0 0 -137.75 33.1 0zm68.3 137.75l0 -172.66 -16.55 0 0 172.66 16.55 0zm-43.37 0l0 -129.38 -16.55 0 0 129.38 16.55 0zm94.46 -160.86l-16.65 -8.95 0 169.81 16.65 0 0 -160.86z"/>
  <path fill="white" fill-rule="nonzero" d="M307.51 182.68l0 -92.35 36.94 0c6.58,0 11.91,1.32 15.97,3.98 4.06,2.6 7.03,5.9 8.91,9.87 1.88,3.98 2.82,8 2.82,12.06 0,5.17 -1.17,9.47 -3.52,12.89 -2.31,3.42 -5.5,5.71 -9.56,6.86l0 -3.2c5.77,1.19 10.09,3.86 12.95,8.01 2.91,4.15 4.37,8.79 4.37,13.92 0,5.51 -1.03,10.37 -3.08,14.56 -2.01,4.19 -5.09,7.48 -9.24,9.87 -4.14,2.35 -9.36,3.53 -15.65,3.53l-40.91 0zm17.7 -16.42l21.42 0c2.35,0 4.45,-0.49 6.28,-1.47 1.84,-1.03 3.28,-2.44 4.3,-4.24 1.07,-1.83 1.6,-3.99 1.6,-6.47 0,-2.18 -0.44,-4.13 -1.34,-5.84 -0.9,-1.71 -2.27,-3.06 -4.11,-4.04 -1.79,-1.03 -4.04,-1.54 -6.73,-1.54l-21.42 0 0 23.6zm0 -39.89l18.98 0c1.97,0 3.72,-0.34 5.26,-1.02 1.54,-0.69 2.76,-1.74 3.66,-3.15 0.9,-1.45 1.35,-3.31 1.35,-5.58 0,-2.82 -0.88,-5.19 -2.64,-7.12 -1.75,-1.92 -4.29,-2.88 -7.63,-2.88l-18.98 0 0 19.75zm85.9 58.36c-5.43,0 -9.85,-0.92 -13.28,-2.76 -3.41,-1.83 -6.09,-4.17 -8.01,-6.99 -1.88,-2.82 -3.23,-5.75 -4.04,-8.78 -0.81,-3.08 -1.31,-5.88 -1.48,-8.4 -0.17,-2.53 -0.25,-4.36 -0.25,-5.52l0 -38.86 17.7 0 0 32.7c0,1.59 0.08,3.62 0.25,6.1 0.17,2.43 0.71,4.89 1.61,7.37 0.9,2.48 2.35,4.55 4.36,6.22 2.05,1.67 4.94,2.5 8.66,2.5 1.49,0 3.09,-0.23 4.8,-0.7 1.72,-0.47 3.32,-1.37 4.82,-2.7 1.49,-1.36 2.71,-3.35 3.65,-5.96 0.98,-2.65 1.48,-6.11 1.48,-10.39l10 4.75c0,5.47 -1.11,10.6 -3.34,15.39 -2.22,4.79 -5.57,8.66 -10.06,11.61 -4.45,2.95 -10.07,4.42 -16.87,4.42zm22.44 -2.05l0 -22.96 -2.17 0 0 -46.3 17.57 0 0 69.26 -15.4 0zm30.76 -78.88l0 -15.39 17.44 0 0 15.39 -17.44 0zm0 78.88l0 -69.26 17.44 0 0 69.26 -17.44 0zm34.1 0l0 -94.27 17.44 0 0 94.27 -17.44 0zm74.38 0c-4.79,0.9 -9.49,1.28 -14.11,1.15 -4.57,-0.08 -8.68,-0.87 -12.31,-2.37 -3.59,-1.54 -6.33,-4 -8.21,-7.37 -1.71,-3.17 -2.61,-6.38 -2.69,-9.62 -0.09,-3.3 -0.13,-7.02 -0.13,-11.16l0 -59.13 17.44 0 0 58.1c0,2.69 0.02,5.13 0.07,7.31 0.08,2.14 0.53,3.85 1.34,5.13 1.54,2.44 4,3.76 7.38,3.98 3.37,0.21 7.11,0.04 11.22,-0.51l0 14.49zm-49.25 -55.8l0 -13.46 49.25 0 0 13.46 -49.25 0z"/>
  <path fill="#DF1219" fill-rule="nonzero" stroke="#DF1219" stroke-width="0.9" stroke-miterlimit="22.9256" d="M610.16 184.73c-5.43,0 -9.86,-0.92 -13.28,-2.76 -3.42,-1.83 -6.09,-4.17 -8.01,-6.99 -1.88,-2.82 -3.23,-5.75 -4.04,-8.78 -0.82,-3.08 -1.31,-5.88 -1.48,-8.4 -0.17,-2.53 -0.25,-4.36 -0.25,-5.52l0 -38.86 17.69 0 0 32.7c0,1.59 0.09,3.62 0.26,6.1 0.17,2.43 0.71,4.89 1.61,7.37 0.89,2.48 2.34,4.55 4.35,6.22 2.06,1.67 4.94,2.5 8.66,2.5 1.5,0 3.1,-0.23 4.81,-0.7 1.71,-0.47 3.32,-1.37 4.81,-2.7 1.5,-1.36 2.72,-3.35 3.66,-5.96 0.98,-2.65 1.47,-6.11 1.47,-10.39l10.01 4.75c0,5.47 -1.11,10.6 -3.34,15.39 -2.22,4.79 -5.58,8.66 -10.07,11.61 -4.44,2.95 -10.06,4.42 -16.86,4.42zm22.44 -2.05l0 -22.96 -2.18 0 0 -46.3 17.57 0 0 69.26 -15.39 0zm63.46 1.92c-6.88,0 -12.63,-1.6 -17.25,-4.81 -4.62,-3.2 -8.1,-7.56 -10.45,-13.08 -2.31,-5.51 -3.47,-11.74 -3.47,-18.66 0,-6.93 1.16,-13.15 3.47,-18.66 2.31,-5.52 5.7,-9.88 10.19,-13.09 4.49,-3.2 10.03,-4.81 16.61,-4.81 6.63,0 12.4,1.59 17.32,4.75 4.91,3.16 8.72,7.5 11.41,13.02 2.74,5.47 4.11,11.73 4.11,18.79 0,6.92 -1.35,13.15 -4.04,18.66 -2.65,5.52 -6.37,9.88 -11.16,13.08 -4.79,3.21 -10.37,4.81 -16.74,4.81zm-34.12 28.86l0 -100.04 15.39 0 0 47.45 2.18 0 0 52.59 -17.57 0zm31.3 -44.38c3.76,0 6.84,-0.94 9.23,-2.82 2.4,-1.88 4.17,-4.4 5.32,-7.57 1.16,-3.2 1.74,-6.75 1.74,-10.64 0,-3.85 -0.6,-7.36 -1.8,-10.52 -1.19,-3.21 -3.06,-5.75 -5.58,-7.63 -2.48,-1.92 -5.66,-2.89 -9.55,-2.89 -3.64,0 -6.59,0.88 -8.85,2.63 -2.23,1.76 -3.85,4.21 -4.88,7.38 -1.02,3.16 -1.54,6.84 -1.54,11.03 0,4.19 0.52,7.86 1.54,11.03 1.03,3.16 2.7,5.62 5.01,7.37 2.35,1.76 5.47,2.63 9.36,2.63z"/>
 </g>
</svg>
