<svg width="36" height="36" viewBox="0 0 36 36" fill="none" xmlns="http://www.w3.org/2000/svg">
<path d="M16.625 23.5L11.125 18M11.125 18L16.625 12.5M11.125 18H24.875M1.5 18C1.5 20.1668 1.92678 22.3124 2.75599 24.3143C3.58519 26.3161 4.80057 28.1351 6.33274 29.6673C7.86491 31.1994 9.68385 32.4148 11.6857 33.244C13.6876 34.0732 15.8332 34.5 18 34.5C20.1668 34.5 22.3124 34.0732 24.3143 33.244C26.3161 32.4148 28.1351 31.1994 29.6673 29.6673C31.1994 28.1351 32.4148 26.3161 33.244 24.3143C34.0732 22.3124 34.5 20.1668 34.5 18C34.5 13.6239 32.7616 9.42709 29.6673 6.33274C26.5729 3.23839 22.3761 1.5 18 1.5C13.6239 1.5 9.42709 3.23839 6.33274 6.33274C3.23839 9.42709 1.5 13.6239 1.5 18Z" stroke="white" stroke-width="1.5" stroke-linecap="round" stroke-linejoin="round"/>
</svg>
