<svg width="41" height="40" viewBox="0 0 41 40" fill="none" xmlns="http://www.w3.org/2000/svg">
<g clip-path="url(#clip0_357_16076)">
<mask id="path-1-outside-1_357_16076" maskUnits="userSpaceOnUse" x="-0.046875" y="-0.751953" width="42" height="41" fill="black">
<rect fill="white" x="-0.046875" y="-0.751953" width="42" height="41"/>
<path fill-rule="evenodd" clip-rule="evenodd" d="M21.5027 0.510955C21.1852 0.663064 17.9695 2.16267 14.3565 3.8433C10.7435 5.524 7.7575 6.92541 7.72094 6.95744C7.64165 7.02697 5.63977 14.4228 5.6393 14.6478C5.63915 14.7334 6.2718 16.1594 7.04524 17.8167L8.45149 20.83V22.7281C8.45149 24.5066 8.44289 24.6222 8.31477 24.5656C8.23961 24.5324 7.91438 24.4911 7.59211 24.4738C7.05 24.4445 6.97946 24.4593 6.64899 24.6715C6.43782 24.807 6.23672 25.0168 6.15696 25.1848L6.02219 25.4688L5.78399 25.3457C5.45266 25.1744 4.64454 25.1799 4.27336 25.356C3.98047 25.495 3.52961 26.0215 3.52961 26.2246C3.52961 26.3156 3.4968 26.3156 3.31477 26.2239C2.77094 25.9501 1.91579 26.0279 1.485 26.3904C0.956723 26.8349 0.955083 26.8477 0.953208 30.647C0.951723 33.5603 0.96938 34.1104 1.07243 34.3568C1.28946 34.8763 1.65196 35.1635 2.22102 35.2665L2.51399 35.3195V36.6075C2.51399 37.5126 2.5454 37.9707 2.61954 38.1482C2.74625 38.4515 3.21602 38.881 3.51149 38.9637C3.62891 38.9965 4.90266 39.0234 6.34211 39.0234C8.91336 39.0234 8.96516 39.0203 9.29125 38.846C9.47383 38.7485 9.71868 38.5245 9.83532 38.3481C10.0291 38.0553 10.0511 37.9444 10.0894 37.066C10.1355 36.0063 10.2023 35.8381 10.7163 35.4882C10.9667 35.3178 11.0329 35.3124 12.8966 35.3113C13.9538 35.3108 14.8979 35.2891 14.9947 35.2631C15.1479 35.222 15.1948 35.2703 15.3562 35.6353C16.0899 37.2943 16.511 38.0546 16.9645 38.5394C18.0518 39.7017 19.4934 40.0336 20.8134 39.4256C21.0398 39.3213 23.1163 38.3532 25.428 37.2742L29.6309 35.3124H30.2797C30.8238 35.3124 30.97 35.3408 31.1866 35.4882C31.7006 35.8381 31.7675 36.0063 31.8136 37.066C31.8519 37.9444 31.8738 38.0553 32.0677 38.3481C32.1843 38.5245 32.4291 38.7485 32.6117 38.846C32.9378 39.0203 32.9896 39.0234 35.5609 39.0234C37.0003 39.0234 38.2741 38.9965 38.3915 38.9637C38.687 38.881 39.1567 38.4515 39.2834 38.1482C39.3576 37.9707 39.389 37.5126 39.389 36.6075V35.3195L39.682 35.2665C40.2614 35.1616 40.5788 34.9027 40.8647 34.3017C41.0247 33.9653 41.0296 33.8535 41.0296 30.5275C41.0296 28.6424 41.0009 27.1179 40.9657 27.1396C40.9306 27.1613 40.8588 27.0603 40.8063 26.9152C40.5379 26.173 39.3961 25.8171 38.5882 26.2239C38.4062 26.3156 38.3734 26.3156 38.3734 26.2246C38.3734 26.0215 37.9225 25.495 37.6296 25.356C37.2556 25.1785 36.4503 25.1743 36.1143 25.3481C35.8791 25.4697 35.8692 25.468 35.8029 25.2954C35.7069 25.0454 35.394 24.7263 35.0913 24.5699C34.8966 24.4692 34.701 24.4455 34.2799 24.4717C33.9746 24.4906 33.6661 24.5321 33.5943 24.5638C33.4745 24.6166 33.4615 24.46 33.4381 22.6817C33.4166 21.0567 33.3915 20.7041 33.2831 20.5078C32.9909 19.9781 32.4631 19.6874 31.7932 19.6874H31.3799L26.896 10.0585C24.4298 4.7626 22.358 0.385721 22.2919 0.331971C22.132 0.202127 22.1608 0.195564 21.5027 0.510955ZM15.1725 4.14728C11.4998 5.86416 8.47086 7.29455 8.44133 7.3258C8.41188 7.35713 8.93008 8.54705 9.59297 9.9701C10.2665 11.416 10.7782 12.6096 10.7529 12.6757C10.7279 12.7408 9.74047 13.2449 8.55852 13.7959C7.37665 14.3469 6.39868 14.8169 6.38532 14.8403C6.36438 14.8768 7.31625 16.9539 8.49047 19.4343L8.8329 20.1578L9.11883 19.9637C9.46758 19.727 9.82727 19.6528 10.3345 19.7129C10.7 19.7562 10.7147 19.7508 10.6355 19.6028C10.5897 19.5172 10.572 19.3849 10.5961 19.3088C10.6517 19.1337 24.8938 12.476 25.0837 12.5363C25.2129 12.5774 27.3577 17.0732 27.3577 17.3031C27.3577 17.4566 27.2294 17.5285 25.6688 18.2492L24.3313 18.8669L24.8484 19.2137C25.1328 19.4045 25.6164 19.817 25.923 20.1306L26.4804 20.7007L27.4318 20.2562C28.1783 19.9074 28.4116 19.8294 28.515 19.8942C28.6819 19.9988 28.7247 20.2623 28.592 20.3674C28.5197 20.4246 26.9766 21.1628 26.8371 21.2068C26.8301 21.2091 26.9781 21.5246 27.1659 21.9081C27.5205 22.6321 27.8265 23.7321 27.8265 24.2829V24.6011L28.2286 24.6248C28.9588 24.6677 28.9746 25.1602 28.2482 25.2343L27.8656 25.2734L27.8136 25.7443C27.7493 26.3269 27.5619 27.0627 27.3546 27.5463C27.2682 27.7478 27.2073 27.9207 27.2191 27.9305C27.2309 27.9403 27.9261 27.6254 28.764 27.2308L30.2874 26.5132L30.3265 23.5434L30.3656 20.5735L30.5804 20.2919C30.6985 20.137 30.7942 19.9817 30.7931 19.9466C30.7881 19.8016 21.9998 1.06439 21.9281 1.0458C21.8851 1.0347 18.8451 2.43033 15.1725 4.14728ZM17.4554 8.95971C12.8059 11.1311 12.6702 11.2006 12.6702 11.4122C12.6702 11.5629 12.7194 11.6456 12.8297 11.6806C12.9434 11.7167 14.3428 11.0999 17.7002 9.53408C20.2913 8.32572 22.452 7.29627 22.5017 7.24658C22.6395 7.10885 22.6097 6.88986 22.441 6.79955C22.3579 6.7551 22.2788 6.7201 22.2652 6.72181C22.2516 6.72353 20.0873 7.73056 17.4554 8.95971ZM7.22461 11.1132C6.79321 12.7138 6.45165 14.0363 6.46547 14.052C6.49493 14.0856 9.8661 12.5172 9.96071 12.426C10.0227 12.3661 8.14571 8.21033 8.05438 8.20549C8.02938 8.20416 7.65594 9.5126 7.22461 11.1132ZM21.1925 10.7299C19.8856 11.3414 18.7784 11.9019 18.732 11.9755C18.6356 12.1283 18.7457 12.3683 18.9286 12.404C18.9884 12.4157 20.1273 11.9174 21.4593 11.2968C23.4287 10.3792 23.8859 10.1372 23.9067 10.0017C23.9345 9.8201 23.797 9.60674 23.6568 9.61369C23.6083 9.61611 22.4994 10.1184 21.1925 10.7299ZM12.7093 14.6794C10.3396 15.7965 9.26375 16.3418 9.24586 16.4349C9.21297 16.6055 9.36782 16.7968 9.53875 16.7968C9.61055 16.7968 11.2322 16.0661 13.1424 15.173C16.575 13.5681 16.6156 13.5464 16.6156 13.3175C16.6156 12.8684 16.368 12.9547 12.7093 14.6794ZM18.1109 16.3606C14.5077 18.0463 11.5042 19.4604 11.4366 19.5031C11.3306 19.5699 11.4363 19.843 12.198 21.4699C12.6845 22.5091 13.1108 23.3593 13.1455 23.3593C13.1801 23.3593 13.4653 23.2409 13.7792 23.0961L14.3499 22.8329L14.5702 22.2774C15.1376 20.847 16.3988 19.4754 17.8034 18.7612C18.5619 18.3755 19.7023 18.0501 20.3029 18.048L20.6308 18.0468L20.6545 17.6447C20.6978 16.9055 21.2044 16.8961 21.2481 17.6337L21.2714 18.0248L21.795 18.0693C22.0831 18.0938 22.6082 18.2056 22.962 18.3178L23.6054 18.5217L24.7198 18.0011C25.3328 17.7148 26.0148 17.3963 26.2355 17.2933L26.6366 17.1061L25.7545 15.2132C25.2695 14.172 24.8253 13.3147 24.7675 13.308C24.7097 13.3013 21.7143 14.6749 18.1109 16.3606ZM19.3906 18.8334C17.3091 19.3783 15.6033 20.9903 14.9734 23.0078C14.8661 23.3515 14.7492 23.8525 14.7138 24.121L14.6492 24.6093H15.4068H16.1644L16.2148 24.1795C16.4407 22.2579 18.2824 20.4117 20.1981 20.1865L20.639 20.1347V19.4032V18.6718L20.307 18.6761C20.1243 18.6785 19.712 18.7492 19.3906 18.8334ZM21.264 19.4032V20.1347L21.7048 20.1865C23.4373 20.3901 25.1332 21.9316 25.6012 23.7281C25.6649 23.9731 25.7171 24.2715 25.7171 24.3913V24.6093H26.4593H27.2015V24.3093C27.2015 23.8848 26.926 22.8601 26.6577 22.2867C26.0358 20.9576 24.9142 19.8368 23.5826 19.2137C23.0127 18.947 21.9874 18.6718 21.564 18.6718H21.264V19.4032ZM9.49688 20.4617C9.36282 20.5434 9.21344 20.7242 9.16485 20.8636C9.10625 21.0315 9.07649 21.9559 9.07649 23.6038V26.0907L8.86899 26.1427C8.62836 26.2031 8.45149 26.0245 8.45149 25.7212C8.45149 25.6187 8.34875 25.432 8.22313 25.3064C8.02547 25.1088 7.93633 25.0781 7.56032 25.0781C7.19079 25.0781 7.08766 25.1121 6.87071 25.3058L6.61555 25.5336L6.58993 26.6919C6.56399 27.866 6.51961 28.0468 6.25719 28.0468C6.02844 28.0468 5.95149 27.795 5.95149 27.0469C5.95149 26.4613 5.92571 26.3163 5.79102 26.1452C5.50555 25.7822 4.85282 25.7103 4.41508 25.9935C4.17329 26.15 4.12915 26.286 4.08063 27.0231C4.04711 27.5315 4.00665 27.6984 3.90071 27.7649C3.69696 27.8928 3.50594 27.7356 3.43196 27.3794C3.35149 26.9921 3.1875 26.8159 2.81407 26.7153C2.3725 26.5964 1.92313 26.737 1.72946 27.0547C1.58461 27.2923 1.57704 27.4705 1.57704 30.664C1.57704 33.8538 1.58477 34.036 1.72899 34.2725C1.88782 34.533 2.25149 34.6862 2.71321 34.687C3.12469 34.6878 3.13899 34.7449 3.13899 36.3888V37.9026L3.36063 38.1242C3.66649 38.4301 3.90039 38.4518 6.57649 38.4231C9.51336 38.3916 9.39618 38.4531 9.46446 36.9079C9.50329 36.0303 9.52274 35.9375 9.74258 35.5818C9.88899 35.3451 10.1246 35.1093 10.3612 34.9629L10.7433 34.7265L12.8982 34.6874C15.2209 34.6453 15.3093 34.6296 15.521 34.2202C15.6813 33.9103 15.6809 32.8076 15.5205 32.4974C15.2948 32.0611 15.1352 32.0312 13.0303 32.0312C11.5854 32.0312 11.1015 32.0073 11.0538 31.9335C11.019 31.8799 10.9823 29.3925 10.9724 26.4062C10.9624 23.4199 10.9351 20.8963 10.9117 20.7983C10.8095 20.3703 9.97297 20.1713 9.49688 20.4617ZM31.3245 20.4342C30.9008 20.6642 30.9138 20.4824 30.9 26.3828C30.8931 29.3993 30.8645 31.9042 30.8366 31.9492C30.8035 32.0028 30.1232 32.0312 28.8727 32.0312C26.7678 32.0312 26.6081 32.0611 26.3825 32.4974C26.2194 32.8128 26.2218 33.9106 26.3863 34.2287C26.6033 34.6481 26.8287 34.6875 28.988 34.6831C30.596 34.6798 30.9882 34.7007 31.2327 34.8028C31.7113 35.0028 32.0155 35.2806 32.2325 35.7162C32.4104 36.0733 32.4359 36.2212 32.4359 36.898C32.4359 37.4238 32.4734 37.7507 32.5531 37.9185C32.7777 38.3921 32.7991 38.396 35.3265 38.4231C38.0026 38.4518 38.2365 38.4301 38.5423 38.1242L38.764 37.9026V36.3888C38.764 34.7449 38.7783 34.6878 39.1898 34.687C39.6515 34.6862 40.0152 34.533 40.174 34.2725C40.3182 34.036 40.3259 33.8538 40.3259 30.664C40.3259 27.4705 40.3184 27.2923 40.1735 27.0547C39.9798 26.737 39.5305 26.5964 39.0889 26.7153C38.7155 26.8159 38.5515 26.9921 38.471 27.3794C38.397 27.7356 38.206 27.8928 38.0023 27.7649C37.8963 27.6984 37.8559 27.5315 37.8223 27.0231C37.7738 26.286 37.7297 26.15 37.4879 25.9935C37.0502 25.7103 36.3974 25.7822 36.112 26.1452C35.9773 26.3163 35.9515 26.4613 35.9515 27.0469C35.9515 27.795 35.8745 28.0468 35.6458 28.0468C35.3834 28.0468 35.339 27.866 35.3131 26.6919L35.2874 25.5336L35.0323 25.3058C34.8153 25.1121 34.7122 25.0781 34.3427 25.0781C33.9666 25.0781 33.8775 25.1088 33.6798 25.3064C33.5542 25.432 33.4515 25.6187 33.4515 25.7212C33.4515 26.0245 33.2746 26.2031 33.034 26.1427L32.8265 26.0907V23.5897C32.8265 20.8324 32.8013 20.659 32.3677 20.4348C32.0731 20.2824 31.6048 20.2821 31.3245 20.4342ZM19.6234 20.9642C18.7045 21.2895 17.9446 21.885 17.422 22.6896C17.1077 23.1734 16.8109 23.996 16.8109 24.3831V24.6093H17.5444H18.2778L18.332 24.3206C18.5041 23.4032 19.4326 22.4745 20.3497 22.3024L20.639 22.2481V21.5147V20.7812L20.3851 20.7828C20.2455 20.7838 19.9027 20.8654 19.6234 20.9642ZM21.264 21.5147V22.2481L21.557 22.3025C22.4579 22.4695 23.4009 23.4142 23.5709 24.32L23.6252 24.6093H24.3586H25.0921V24.3831C25.0921 23.9956 24.7952 23.1731 24.4806 22.6896C24.1328 22.1549 23.563 21.6012 23.0597 21.3089C22.622 21.0547 21.814 20.7812 21.5009 20.7812H21.264V21.5147ZM11.5772 23.9101L11.5779 26.0546L12.8127 28.7109L14.0474 31.3671L14.6284 31.411C15.8025 31.4995 16.2644 32.0327 16.2635 33.2982C16.2631 34.0597 16.1708 34.4442 15.916 34.747L15.7303 34.9678L16.3002 36.1866C16.8921 37.4523 17.1865 37.9423 17.5648 38.2913C18.1763 38.8555 19.1127 39.1997 19.7684 39.1014C20.7927 38.9478 21.5252 38.1754 21.733 37.0301C21.8364 36.4594 21.7943 36.0456 21.5559 35.2919C21.4104 34.8318 21.4034 34.7502 21.5022 34.6602C21.5645 34.6033 22.5207 34.1379 23.627 33.626C25.5191 32.7505 25.6435 32.6801 25.7235 32.4394C25.7704 32.2986 25.8977 32.0776 26.0066 31.9483C26.3474 31.5431 26.6078 31.4559 27.6312 31.4036L28.5687 31.3557L29.4281 30.9317L30.2874 30.5078L30.3085 28.8867C30.3234 27.7446 30.3042 27.2656 30.2435 27.2656C30.1961 27.2656 29.4021 27.6171 28.479 28.0468C27.5559 28.4765 26.7733 28.8281 26.7398 28.8281C26.7064 28.8281 26.5088 29.0403 26.3006 29.2998C25.2153 30.653 23.5019 31.5933 21.774 31.7839L21.3031 31.8359L21.264 32.2185C21.2387 32.4667 21.1769 32.6314 21.0882 32.6869C20.8562 32.8323 20.6832 32.652 20.639 32.2185L20.5999 31.8359L20.129 31.7839C17.0147 31.4403 14.433 28.8586 14.0894 25.7443L14.0374 25.2734L13.6548 25.2343C12.9332 25.1606 12.9434 24.6678 13.6673 24.625L14.0625 24.6017L14.0929 24.1563C14.1096 23.9113 14.1116 23.6951 14.0973 23.6758C14.0831 23.6565 13.8434 23.7532 13.5647 23.8906C13.2859 24.0281 13.0102 24.1406 12.9518 24.1406C12.7847 24.1406 12.6753 23.965 12.1825 22.9058C11.9287 22.3603 11.6885 21.8806 11.6488 21.8398C11.6045 21.7942 11.5768 22.5945 11.5772 23.9101ZM20.0921 23.0531C19.637 23.2592 19.3418 23.5436 19.1083 24.0013C18.8283 24.5499 18.8477 24.5977 19.3613 24.6249C19.6788 24.6418 19.8266 24.6867 19.8883 24.7851C20.0458 25.036 19.8556 25.1924 19.3613 25.2187C18.8544 25.2456 18.8346 25.2883 19.084 25.8188C19.2743 26.2236 19.732 26.664 20.139 26.8341C20.5931 27.0238 20.6286 27.0016 20.6546 26.512C20.6809 26.0178 20.8373 25.8275 21.0882 25.985C21.1866 26.0467 21.2315 26.1945 21.2484 26.512C21.2743 27.0007 21.3104 27.0236 21.7594 26.836C22.1698 26.6645 22.5759 26.2767 22.7924 25.8494C23.0746 25.2926 23.0561 25.246 22.5416 25.2187C22.0474 25.1924 21.8572 25.036 22.0147 24.7851C22.0764 24.6867 22.2242 24.6418 22.5416 24.6249C23.0553 24.5977 23.0747 24.5499 22.7947 24.0013C22.5612 23.5436 22.266 23.2592 21.8109 23.0531C21.299 22.8214 21.2748 22.8334 21.2484 23.3317C21.2315 23.6491 21.1866 23.7969 21.0882 23.8586C20.8373 24.0161 20.6809 23.8259 20.6546 23.3317C20.6281 22.8334 20.604 22.8214 20.0921 23.0531ZM14.7015 25.5343C14.7015 26.0445 14.9956 27.0359 15.3772 27.8124C15.6931 28.4553 15.8474 28.6596 16.5303 29.3395C17.1495 29.956 17.4527 30.1927 17.9437 30.443C18.7268 30.8423 19.4411 31.0778 20.1154 31.159L20.639 31.222V30.4547V29.6874H20.3738C19.5987 29.6874 18.3038 29.054 17.5616 28.3117C16.8193 27.5695 16.1859 26.2746 16.1859 25.4995V25.2343H15.4437H14.7015V25.5343ZM16.8109 25.4605C16.8109 26.1015 17.3133 27.1516 17.9316 27.8028C18.5664 28.4713 19.7308 29.0624 20.4128 29.0624H20.639V28.3203C20.639 27.6029 20.6331 27.5781 20.4632 27.5773C20.1654 27.576 19.4455 27.1953 19.0895 26.851C18.7138 26.4876 18.4145 25.9628 18.332 25.523L18.2778 25.2343H17.5444H16.8109V25.4605ZM23.5709 25.523C23.4884 25.9628 23.1891 26.4876 22.8135 26.851C22.4575 27.1953 21.7376 27.576 21.4398 27.5773C21.2698 27.5781 21.264 27.6029 21.264 28.3203V29.0624H21.4902C22.1312 29.0624 23.1813 28.56 23.8324 27.9417C24.501 27.3069 25.0921 26.1425 25.0921 25.4605V25.2343H24.3586H23.6252L23.5709 25.523ZM25.6881 25.6641C25.5341 26.9744 24.6034 28.3421 23.3751 29.0632C22.8143 29.3924 21.942 29.6874 21.5292 29.6874H21.264V30.4547V31.222L21.7843 31.1594C23.7657 30.9208 25.6253 29.5967 26.5394 27.7734C26.908 27.0382 27.2015 26.0456 27.2015 25.5343V25.2343H26.4701H25.7386L25.6881 25.6641ZM0.987427 30.664C0.987427 32.5976 0.997583 33.3774 1.01 32.397C1.02243 31.4165 1.02243 29.8345 1.01 28.8813C0.997583 27.9282 0.987427 28.7304 0.987427 30.664ZM11.5765 29.5181V31.4062H12.473H13.3695L13.3005 31.2304C13.1892 30.9473 11.6589 27.7125 11.6158 27.6694C11.5941 27.6478 11.5765 28.4798 11.5765 29.5181ZM30.014 31.3281C29.9227 31.387 29.9442 31.4041 30.1116 31.405C30.2298 31.4056 30.3265 31.371 30.3265 31.3281C30.3265 31.2293 30.1669 31.2293 30.014 31.3281ZM23.8937 34.1899C22.9552 34.6289 22.1742 35.0011 22.1582 35.0171C22.1422 35.0331 22.1843 35.2204 22.2519 35.4333C22.4328 36.0038 22.4187 37.1141 22.2232 37.6799C22.1239 37.9676 22.1001 38.1206 22.1582 38.0983C22.2085 38.079 23.5623 37.4531 25.1665 36.7074L28.0833 35.3515L27.3817 35.3015C26.6487 35.2492 26.3371 35.1386 26.0589 34.8316C25.7972 34.5428 25.6936 34.2909 25.6451 33.8249L25.5999 33.392L23.8937 34.1899Z"/>
</mask>
<path fill-rule="evenodd" clip-rule="evenodd" d="M21.5027 0.510955C21.1852 0.663064 17.9695 2.16267 14.3565 3.8433C10.7435 5.524 7.7575 6.92541 7.72094 6.95744C7.64165 7.02697 5.63977 14.4228 5.6393 14.6478C5.63915 14.7334 6.2718 16.1594 7.04524 17.8167L8.45149 20.83V22.7281C8.45149 24.5066 8.44289 24.6222 8.31477 24.5656C8.23961 24.5324 7.91438 24.4911 7.59211 24.4738C7.05 24.4445 6.97946 24.4593 6.64899 24.6715C6.43782 24.807 6.23672 25.0168 6.15696 25.1848L6.02219 25.4688L5.78399 25.3457C5.45266 25.1744 4.64454 25.1799 4.27336 25.356C3.98047 25.495 3.52961 26.0215 3.52961 26.2246C3.52961 26.3156 3.4968 26.3156 3.31477 26.2239C2.77094 25.9501 1.91579 26.0279 1.485 26.3904C0.956723 26.8349 0.955083 26.8477 0.953208 30.647C0.951723 33.5603 0.96938 34.1104 1.07243 34.3568C1.28946 34.8763 1.65196 35.1635 2.22102 35.2665L2.51399 35.3195V36.6075C2.51399 37.5126 2.5454 37.9707 2.61954 38.1482C2.74625 38.4515 3.21602 38.881 3.51149 38.9637C3.62891 38.9965 4.90266 39.0234 6.34211 39.0234C8.91336 39.0234 8.96516 39.0203 9.29125 38.846C9.47383 38.7485 9.71868 38.5245 9.83532 38.3481C10.0291 38.0553 10.0511 37.9444 10.0894 37.066C10.1355 36.0063 10.2023 35.8381 10.7163 35.4882C10.9667 35.3178 11.0329 35.3124 12.8966 35.3113C13.9538 35.3108 14.8979 35.2891 14.9947 35.2631C15.1479 35.222 15.1948 35.2703 15.3562 35.6353C16.0899 37.2943 16.511 38.0546 16.9645 38.5394C18.0518 39.7017 19.4934 40.0336 20.8134 39.4256C21.0398 39.3213 23.1163 38.3532 25.428 37.2742L29.6309 35.3124H30.2797C30.8238 35.3124 30.97 35.3408 31.1866 35.4882C31.7006 35.8381 31.7675 36.0063 31.8136 37.066C31.8519 37.9444 31.8738 38.0553 32.0677 38.3481C32.1843 38.5245 32.4291 38.7485 32.6117 38.846C32.9378 39.0203 32.9896 39.0234 35.5609 39.0234C37.0003 39.0234 38.2741 38.9965 38.3915 38.9637C38.687 38.881 39.1567 38.4515 39.2834 38.1482C39.3576 37.9707 39.389 37.5126 39.389 36.6075V35.3195L39.682 35.2665C40.2614 35.1616 40.5788 34.9027 40.8647 34.3017C41.0247 33.9653 41.0296 33.8535 41.0296 30.5275C41.0296 28.6424 41.0009 27.1179 40.9657 27.1396C40.9306 27.1613 40.8588 27.0603 40.8063 26.9152C40.5379 26.173 39.3961 25.8171 38.5882 26.2239C38.4062 26.3156 38.3734 26.3156 38.3734 26.2246C38.3734 26.0215 37.9225 25.495 37.6296 25.356C37.2556 25.1785 36.4503 25.1743 36.1143 25.3481C35.8791 25.4697 35.8692 25.468 35.8029 25.2954C35.7069 25.0454 35.394 24.7263 35.0913 24.5699C34.8966 24.4692 34.701 24.4455 34.2799 24.4717C33.9746 24.4906 33.6661 24.5321 33.5943 24.5638C33.4745 24.6166 33.4615 24.46 33.4381 22.6817C33.4166 21.0567 33.3915 20.7041 33.2831 20.5078C32.9909 19.9781 32.4631 19.6874 31.7932 19.6874H31.3799L26.896 10.0585C24.4298 4.7626 22.358 0.385721 22.2919 0.331971C22.132 0.202127 22.1608 0.195564 21.5027 0.510955ZM15.1725 4.14728C11.4998 5.86416 8.47086 7.29455 8.44133 7.3258C8.41188 7.35713 8.93008 8.54705 9.59297 9.9701C10.2665 11.416 10.7782 12.6096 10.7529 12.6757C10.7279 12.7408 9.74047 13.2449 8.55852 13.7959C7.37665 14.3469 6.39868 14.8169 6.38532 14.8403C6.36438 14.8768 7.31625 16.9539 8.49047 19.4343L8.8329 20.1578L9.11883 19.9637C9.46758 19.727 9.82727 19.6528 10.3345 19.7129C10.7 19.7562 10.7147 19.7508 10.6355 19.6028C10.5897 19.5172 10.572 19.3849 10.5961 19.3088C10.6517 19.1337 24.8938 12.476 25.0837 12.5363C25.2129 12.5774 27.3577 17.0732 27.3577 17.3031C27.3577 17.4566 27.2294 17.5285 25.6688 18.2492L24.3313 18.8669L24.8484 19.2137C25.1328 19.4045 25.6164 19.817 25.923 20.1306L26.4804 20.7007L27.4318 20.2562C28.1783 19.9074 28.4116 19.8294 28.515 19.8942C28.6819 19.9988 28.7247 20.2623 28.592 20.3674C28.5197 20.4246 26.9766 21.1628 26.8371 21.2068C26.8301 21.2091 26.9781 21.5246 27.1659 21.9081C27.5205 22.6321 27.8265 23.7321 27.8265 24.2829V24.6011L28.2286 24.6248C28.9588 24.6677 28.9746 25.1602 28.2482 25.2343L27.8656 25.2734L27.8136 25.7443C27.7493 26.3269 27.5619 27.0627 27.3546 27.5463C27.2682 27.7478 27.2073 27.9207 27.2191 27.9305C27.2309 27.9403 27.9261 27.6254 28.764 27.2308L30.2874 26.5132L30.3265 23.5434L30.3656 20.5735L30.5804 20.2919C30.6985 20.137 30.7942 19.9817 30.7931 19.9466C30.7881 19.8016 21.9998 1.06439 21.9281 1.0458C21.8851 1.0347 18.8451 2.43033 15.1725 4.14728ZM17.4554 8.95971C12.8059 11.1311 12.6702 11.2006 12.6702 11.4122C12.6702 11.5629 12.7194 11.6456 12.8297 11.6806C12.9434 11.7167 14.3428 11.0999 17.7002 9.53408C20.2913 8.32572 22.452 7.29627 22.5017 7.24658C22.6395 7.10885 22.6097 6.88986 22.441 6.79955C22.3579 6.7551 22.2788 6.7201 22.2652 6.72181C22.2516 6.72353 20.0873 7.73056 17.4554 8.95971ZM7.22461 11.1132C6.79321 12.7138 6.45165 14.0363 6.46547 14.052C6.49493 14.0856 9.8661 12.5172 9.96071 12.426C10.0227 12.3661 8.14571 8.21033 8.05438 8.20549C8.02938 8.20416 7.65594 9.5126 7.22461 11.1132ZM21.1925 10.7299C19.8856 11.3414 18.7784 11.9019 18.732 11.9755C18.6356 12.1283 18.7457 12.3683 18.9286 12.404C18.9884 12.4157 20.1273 11.9174 21.4593 11.2968C23.4287 10.3792 23.8859 10.1372 23.9067 10.0017C23.9345 9.8201 23.797 9.60674 23.6568 9.61369C23.6083 9.61611 22.4994 10.1184 21.1925 10.7299ZM12.7093 14.6794C10.3396 15.7965 9.26375 16.3418 9.24586 16.4349C9.21297 16.6055 9.36782 16.7968 9.53875 16.7968C9.61055 16.7968 11.2322 16.0661 13.1424 15.173C16.575 13.5681 16.6156 13.5464 16.6156 13.3175C16.6156 12.8684 16.368 12.9547 12.7093 14.6794ZM18.1109 16.3606C14.5077 18.0463 11.5042 19.4604 11.4366 19.5031C11.3306 19.5699 11.4363 19.843 12.198 21.4699C12.6845 22.5091 13.1108 23.3593 13.1455 23.3593C13.1801 23.3593 13.4653 23.2409 13.7792 23.0961L14.3499 22.8329L14.5702 22.2774C15.1376 20.847 16.3988 19.4754 17.8034 18.7612C18.5619 18.3755 19.7023 18.0501 20.3029 18.048L20.6308 18.0468L20.6545 17.6447C20.6978 16.9055 21.2044 16.8961 21.2481 17.6337L21.2714 18.0248L21.795 18.0693C22.0831 18.0938 22.6082 18.2056 22.962 18.3178L23.6054 18.5217L24.7198 18.0011C25.3328 17.7148 26.0148 17.3963 26.2355 17.2933L26.6366 17.1061L25.7545 15.2132C25.2695 14.172 24.8253 13.3147 24.7675 13.308C24.7097 13.3013 21.7143 14.6749 18.1109 16.3606ZM19.3906 18.8334C17.3091 19.3783 15.6033 20.9903 14.9734 23.0078C14.8661 23.3515 14.7492 23.8525 14.7138 24.121L14.6492 24.6093H15.4068H16.1644L16.2148 24.1795C16.4407 22.2579 18.2824 20.4117 20.1981 20.1865L20.639 20.1347V19.4032V18.6718L20.307 18.6761C20.1243 18.6785 19.712 18.7492 19.3906 18.8334ZM21.264 19.4032V20.1347L21.7048 20.1865C23.4373 20.3901 25.1332 21.9316 25.6012 23.7281C25.6649 23.9731 25.7171 24.2715 25.7171 24.3913V24.6093H26.4593H27.2015V24.3093C27.2015 23.8848 26.926 22.8601 26.6577 22.2867C26.0358 20.9576 24.9142 19.8368 23.5826 19.2137C23.0127 18.947 21.9874 18.6718 21.564 18.6718H21.264V19.4032ZM9.49688 20.4617C9.36282 20.5434 9.21344 20.7242 9.16485 20.8636C9.10625 21.0315 9.07649 21.9559 9.07649 23.6038V26.0907L8.86899 26.1427C8.62836 26.2031 8.45149 26.0245 8.45149 25.7212C8.45149 25.6187 8.34875 25.432 8.22313 25.3064C8.02547 25.1088 7.93633 25.0781 7.56032 25.0781C7.19079 25.0781 7.08766 25.1121 6.87071 25.3058L6.61555 25.5336L6.58993 26.6919C6.56399 27.866 6.51961 28.0468 6.25719 28.0468C6.02844 28.0468 5.95149 27.795 5.95149 27.0469C5.95149 26.4613 5.92571 26.3163 5.79102 26.1452C5.50555 25.7822 4.85282 25.7103 4.41508 25.9935C4.17329 26.15 4.12915 26.286 4.08063 27.0231C4.04711 27.5315 4.00665 27.6984 3.90071 27.7649C3.69696 27.8928 3.50594 27.7356 3.43196 27.3794C3.35149 26.9921 3.1875 26.8159 2.81407 26.7153C2.3725 26.5964 1.92313 26.737 1.72946 27.0547C1.58461 27.2923 1.57704 27.4705 1.57704 30.664C1.57704 33.8538 1.58477 34.036 1.72899 34.2725C1.88782 34.533 2.25149 34.6862 2.71321 34.687C3.12469 34.6878 3.13899 34.7449 3.13899 36.3888V37.9026L3.36063 38.1242C3.66649 38.4301 3.90039 38.4518 6.57649 38.4231C9.51336 38.3916 9.39618 38.4531 9.46446 36.9079C9.50329 36.0303 9.52274 35.9375 9.74258 35.5818C9.88899 35.3451 10.1246 35.1093 10.3612 34.9629L10.7433 34.7265L12.8982 34.6874C15.2209 34.6453 15.3093 34.6296 15.521 34.2202C15.6813 33.9103 15.6809 32.8076 15.5205 32.4974C15.2948 32.0611 15.1352 32.0312 13.0303 32.0312C11.5854 32.0312 11.1015 32.0073 11.0538 31.9335C11.019 31.8799 10.9823 29.3925 10.9724 26.4062C10.9624 23.4199 10.9351 20.8963 10.9117 20.7983C10.8095 20.3703 9.97297 20.1713 9.49688 20.4617ZM31.3245 20.4342C30.9008 20.6642 30.9138 20.4824 30.9 26.3828C30.8931 29.3993 30.8645 31.9042 30.8366 31.9492C30.8035 32.0028 30.1232 32.0312 28.8727 32.0312C26.7678 32.0312 26.6081 32.0611 26.3825 32.4974C26.2194 32.8128 26.2218 33.9106 26.3863 34.2287C26.6033 34.6481 26.8287 34.6875 28.988 34.6831C30.596 34.6798 30.9882 34.7007 31.2327 34.8028C31.7113 35.0028 32.0155 35.2806 32.2325 35.7162C32.4104 36.0733 32.4359 36.2212 32.4359 36.898C32.4359 37.4238 32.4734 37.7507 32.5531 37.9185C32.7777 38.3921 32.7991 38.396 35.3265 38.4231C38.0026 38.4518 38.2365 38.4301 38.5423 38.1242L38.764 37.9026V36.3888C38.764 34.7449 38.7783 34.6878 39.1898 34.687C39.6515 34.6862 40.0152 34.533 40.174 34.2725C40.3182 34.036 40.3259 33.8538 40.3259 30.664C40.3259 27.4705 40.3184 27.2923 40.1735 27.0547C39.9798 26.737 39.5305 26.5964 39.0889 26.7153C38.7155 26.8159 38.5515 26.9921 38.471 27.3794C38.397 27.7356 38.206 27.8928 38.0023 27.7649C37.8963 27.6984 37.8559 27.5315 37.8223 27.0231C37.7738 26.286 37.7297 26.15 37.4879 25.9935C37.0502 25.7103 36.3974 25.7822 36.112 26.1452C35.9773 26.3163 35.9515 26.4613 35.9515 27.0469C35.9515 27.795 35.8745 28.0468 35.6458 28.0468C35.3834 28.0468 35.339 27.866 35.3131 26.6919L35.2874 25.5336L35.0323 25.3058C34.8153 25.1121 34.7122 25.0781 34.3427 25.0781C33.9666 25.0781 33.8775 25.1088 33.6798 25.3064C33.5542 25.432 33.4515 25.6187 33.4515 25.7212C33.4515 26.0245 33.2746 26.2031 33.034 26.1427L32.8265 26.0907V23.5897C32.8265 20.8324 32.8013 20.659 32.3677 20.4348C32.0731 20.2824 31.6048 20.2821 31.3245 20.4342ZM19.6234 20.9642C18.7045 21.2895 17.9446 21.885 17.422 22.6896C17.1077 23.1734 16.8109 23.996 16.8109 24.3831V24.6093H17.5444H18.2778L18.332 24.3206C18.5041 23.4032 19.4326 22.4745 20.3497 22.3024L20.639 22.2481V21.5147V20.7812L20.3851 20.7828C20.2455 20.7838 19.9027 20.8654 19.6234 20.9642ZM21.264 21.5147V22.2481L21.557 22.3025C22.4579 22.4695 23.4009 23.4142 23.5709 24.32L23.6252 24.6093H24.3586H25.0921V24.3831C25.0921 23.9956 24.7952 23.1731 24.4806 22.6896C24.1328 22.1549 23.563 21.6012 23.0597 21.3089C22.622 21.0547 21.814 20.7812 21.5009 20.7812H21.264V21.5147ZM11.5772 23.9101L11.5779 26.0546L12.8127 28.7109L14.0474 31.3671L14.6284 31.411C15.8025 31.4995 16.2644 32.0327 16.2635 33.2982C16.2631 34.0597 16.1708 34.4442 15.916 34.747L15.7303 34.9678L16.3002 36.1866C16.8921 37.4523 17.1865 37.9423 17.5648 38.2913C18.1763 38.8555 19.1127 39.1997 19.7684 39.1014C20.7927 38.9478 21.5252 38.1754 21.733 37.0301C21.8364 36.4594 21.7943 36.0456 21.5559 35.2919C21.4104 34.8318 21.4034 34.7502 21.5022 34.6602C21.5645 34.6033 22.5207 34.1379 23.627 33.626C25.5191 32.7505 25.6435 32.6801 25.7235 32.4394C25.7704 32.2986 25.8977 32.0776 26.0066 31.9483C26.3474 31.5431 26.6078 31.4559 27.6312 31.4036L28.5687 31.3557L29.4281 30.9317L30.2874 30.5078L30.3085 28.8867C30.3234 27.7446 30.3042 27.2656 30.2435 27.2656C30.1961 27.2656 29.4021 27.6171 28.479 28.0468C27.5559 28.4765 26.7733 28.8281 26.7398 28.8281C26.7064 28.8281 26.5088 29.0403 26.3006 29.2998C25.2153 30.653 23.5019 31.5933 21.774 31.7839L21.3031 31.8359L21.264 32.2185C21.2387 32.4667 21.1769 32.6314 21.0882 32.6869C20.8562 32.8323 20.6832 32.652 20.639 32.2185L20.5999 31.8359L20.129 31.7839C17.0147 31.4403 14.433 28.8586 14.0894 25.7443L14.0374 25.2734L13.6548 25.2343C12.9332 25.1606 12.9434 24.6678 13.6673 24.625L14.0625 24.6017L14.0929 24.1563C14.1096 23.9113 14.1116 23.6951 14.0973 23.6758C14.0831 23.6565 13.8434 23.7532 13.5647 23.8906C13.2859 24.0281 13.0102 24.1406 12.9518 24.1406C12.7847 24.1406 12.6753 23.965 12.1825 22.9058C11.9287 22.3603 11.6885 21.8806 11.6488 21.8398C11.6045 21.7942 11.5768 22.5945 11.5772 23.9101ZM20.0921 23.0531C19.637 23.2592 19.3418 23.5436 19.1083 24.0013C18.8283 24.5499 18.8477 24.5977 19.3613 24.6249C19.6788 24.6418 19.8266 24.6867 19.8883 24.7851C20.0458 25.036 19.8556 25.1924 19.3613 25.2187C18.8544 25.2456 18.8346 25.2883 19.084 25.8188C19.2743 26.2236 19.732 26.664 20.139 26.8341C20.5931 27.0238 20.6286 27.0016 20.6546 26.512C20.6809 26.0178 20.8373 25.8275 21.0882 25.985C21.1866 26.0467 21.2315 26.1945 21.2484 26.512C21.2743 27.0007 21.3104 27.0236 21.7594 26.836C22.1698 26.6645 22.5759 26.2767 22.7924 25.8494C23.0746 25.2926 23.0561 25.246 22.5416 25.2187C22.0474 25.1924 21.8572 25.036 22.0147 24.7851C22.0764 24.6867 22.2242 24.6418 22.5416 24.6249C23.0553 24.5977 23.0747 24.5499 22.7947 24.0013C22.5612 23.5436 22.266 23.2592 21.8109 23.0531C21.299 22.8214 21.2748 22.8334 21.2484 23.3317C21.2315 23.6491 21.1866 23.7969 21.0882 23.8586C20.8373 24.0161 20.6809 23.8259 20.6546 23.3317C20.6281 22.8334 20.604 22.8214 20.0921 23.0531ZM14.7015 25.5343C14.7015 26.0445 14.9956 27.0359 15.3772 27.8124C15.6931 28.4553 15.8474 28.6596 16.5303 29.3395C17.1495 29.956 17.4527 30.1927 17.9437 30.443C18.7268 30.8423 19.4411 31.0778 20.1154 31.159L20.639 31.222V30.4547V29.6874H20.3738C19.5987 29.6874 18.3038 29.054 17.5616 28.3117C16.8193 27.5695 16.1859 26.2746 16.1859 25.4995V25.2343H15.4437H14.7015V25.5343ZM16.8109 25.4605C16.8109 26.1015 17.3133 27.1516 17.9316 27.8028C18.5664 28.4713 19.7308 29.0624 20.4128 29.0624H20.639V28.3203C20.639 27.6029 20.6331 27.5781 20.4632 27.5773C20.1654 27.576 19.4455 27.1953 19.0895 26.851C18.7138 26.4876 18.4145 25.9628 18.332 25.523L18.2778 25.2343H17.5444H16.8109V25.4605ZM23.5709 25.523C23.4884 25.9628 23.1891 26.4876 22.8135 26.851C22.4575 27.1953 21.7376 27.576 21.4398 27.5773C21.2698 27.5781 21.264 27.6029 21.264 28.3203V29.0624H21.4902C22.1312 29.0624 23.1813 28.56 23.8324 27.9417C24.501 27.3069 25.0921 26.1425 25.0921 25.4605V25.2343H24.3586H23.6252L23.5709 25.523ZM25.6881 25.6641C25.5341 26.9744 24.6034 28.3421 23.3751 29.0632C22.8143 29.3924 21.942 29.6874 21.5292 29.6874H21.264V30.4547V31.222L21.7843 31.1594C23.7657 30.9208 25.6253 29.5967 26.5394 27.7734C26.908 27.0382 27.2015 26.0456 27.2015 25.5343V25.2343H26.4701H25.7386L25.6881 25.6641ZM0.987427 30.664C0.987427 32.5976 0.997583 33.3774 1.01 32.397C1.02243 31.4165 1.02243 29.8345 1.01 28.8813C0.997583 27.9282 0.987427 28.7304 0.987427 30.664ZM11.5765 29.5181V31.4062H12.473H13.3695L13.3005 31.2304C13.1892 30.9473 11.6589 27.7125 11.6158 27.6694C11.5941 27.6478 11.5765 28.4798 11.5765 29.5181ZM30.014 31.3281C29.9227 31.387 29.9442 31.4041 30.1116 31.405C30.2298 31.4056 30.3265 31.371 30.3265 31.3281C30.3265 31.2293 30.1669 31.2293 30.014 31.3281ZM23.8937 34.1899C22.9552 34.6289 22.1742 35.0011 22.1582 35.0171C22.1422 35.0331 22.1843 35.2204 22.2519 35.4333C22.4328 36.0038 22.4187 37.1141 22.2232 37.6799C22.1239 37.9676 22.1001 38.1206 22.1582 38.0983C22.2085 38.079 23.5623 37.4531 25.1665 36.7074L28.0833 35.3515L27.3817 35.3015C26.6487 35.2492 26.3371 35.1386 26.0589 34.8316C25.7972 34.5428 25.6936 34.2909 25.6451 33.8249L25.5999 33.392L23.8937 34.1899Z" fill="#FFB703"/>
<path fill-rule="evenodd" clip-rule="evenodd" d="M21.5027 0.510955C21.1852 0.663064 17.9695 2.16267 14.3565 3.8433C10.7435 5.524 7.7575 6.92541 7.72094 6.95744C7.64165 7.02697 5.63977 14.4228 5.6393 14.6478C5.63915 14.7334 6.2718 16.1594 7.04524 17.8167L8.45149 20.83V22.7281C8.45149 24.5066 8.44289 24.6222 8.31477 24.5656C8.23961 24.5324 7.91438 24.4911 7.59211 24.4738C7.05 24.4445 6.97946 24.4593 6.64899 24.6715C6.43782 24.807 6.23672 25.0168 6.15696 25.1848L6.02219 25.4688L5.78399 25.3457C5.45266 25.1744 4.64454 25.1799 4.27336 25.356C3.98047 25.495 3.52961 26.0215 3.52961 26.2246C3.52961 26.3156 3.4968 26.3156 3.31477 26.2239C2.77094 25.9501 1.91579 26.0279 1.485 26.3904C0.956723 26.8349 0.955083 26.8477 0.953208 30.647C0.951723 33.5603 0.96938 34.1104 1.07243 34.3568C1.28946 34.8763 1.65196 35.1635 2.22102 35.2665L2.51399 35.3195V36.6075C2.51399 37.5126 2.5454 37.9707 2.61954 38.1482C2.74625 38.4515 3.21602 38.881 3.51149 38.9637C3.62891 38.9965 4.90266 39.0234 6.34211 39.0234C8.91336 39.0234 8.96516 39.0203 9.29125 38.846C9.47383 38.7485 9.71868 38.5245 9.83532 38.3481C10.0291 38.0553 10.0511 37.9444 10.0894 37.066C10.1355 36.0063 10.2023 35.8381 10.7163 35.4882C10.9667 35.3178 11.0329 35.3124 12.8966 35.3113C13.9538 35.3108 14.8979 35.2891 14.9947 35.2631C15.1479 35.222 15.1948 35.2703 15.3562 35.6353C16.0899 37.2943 16.511 38.0546 16.9645 38.5394C18.0518 39.7017 19.4934 40.0336 20.8134 39.4256C21.0398 39.3213 23.1163 38.3532 25.428 37.2742L29.6309 35.3124H30.2797C30.8238 35.3124 30.97 35.3408 31.1866 35.4882C31.7006 35.8381 31.7675 36.0063 31.8136 37.066C31.8519 37.9444 31.8738 38.0553 32.0677 38.3481C32.1843 38.5245 32.4291 38.7485 32.6117 38.846C32.9378 39.0203 32.9896 39.0234 35.5609 39.0234C37.0003 39.0234 38.2741 38.9965 38.3915 38.9637C38.687 38.881 39.1567 38.4515 39.2834 38.1482C39.3576 37.9707 39.389 37.5126 39.389 36.6075V35.3195L39.682 35.2665C40.2614 35.1616 40.5788 34.9027 40.8647 34.3017C41.0247 33.9653 41.0296 33.8535 41.0296 30.5275C41.0296 28.6424 41.0009 27.1179 40.9657 27.1396C40.9306 27.1613 40.8588 27.0603 40.8063 26.9152C40.5379 26.173 39.3961 25.8171 38.5882 26.2239C38.4062 26.3156 38.3734 26.3156 38.3734 26.2246C38.3734 26.0215 37.9225 25.495 37.6296 25.356C37.2556 25.1785 36.4503 25.1743 36.1143 25.3481C35.8791 25.4697 35.8692 25.468 35.8029 25.2954C35.7069 25.0454 35.394 24.7263 35.0913 24.5699C34.8966 24.4692 34.701 24.4455 34.2799 24.4717C33.9746 24.4906 33.6661 24.5321 33.5943 24.5638C33.4745 24.6166 33.4615 24.46 33.4381 22.6817C33.4166 21.0567 33.3915 20.7041 33.2831 20.5078C32.9909 19.9781 32.4631 19.6874 31.7932 19.6874H31.3799L26.896 10.0585C24.4298 4.7626 22.358 0.385721 22.2919 0.331971C22.132 0.202127 22.1608 0.195564 21.5027 0.510955ZM15.1725 4.14728C11.4998 5.86416 8.47086 7.29455 8.44133 7.3258C8.41188 7.35713 8.93008 8.54705 9.59297 9.9701C10.2665 11.416 10.7782 12.6096 10.7529 12.6757C10.7279 12.7408 9.74047 13.2449 8.55852 13.7959C7.37665 14.3469 6.39868 14.8169 6.38532 14.8403C6.36438 14.8768 7.31625 16.9539 8.49047 19.4343L8.8329 20.1578L9.11883 19.9637C9.46758 19.727 9.82727 19.6528 10.3345 19.7129C10.7 19.7562 10.7147 19.7508 10.6355 19.6028C10.5897 19.5172 10.572 19.3849 10.5961 19.3088C10.6517 19.1337 24.8938 12.476 25.0837 12.5363C25.2129 12.5774 27.3577 17.0732 27.3577 17.3031C27.3577 17.4566 27.2294 17.5285 25.6688 18.2492L24.3313 18.8669L24.8484 19.2137C25.1328 19.4045 25.6164 19.817 25.923 20.1306L26.4804 20.7007L27.4318 20.2562C28.1783 19.9074 28.4116 19.8294 28.515 19.8942C28.6819 19.9988 28.7247 20.2623 28.592 20.3674C28.5197 20.4246 26.9766 21.1628 26.8371 21.2068C26.8301 21.2091 26.9781 21.5246 27.1659 21.9081C27.5205 22.6321 27.8265 23.7321 27.8265 24.2829V24.6011L28.2286 24.6248C28.9588 24.6677 28.9746 25.1602 28.2482 25.2343L27.8656 25.2734L27.8136 25.7443C27.7493 26.3269 27.5619 27.0627 27.3546 27.5463C27.2682 27.7478 27.2073 27.9207 27.2191 27.9305C27.2309 27.9403 27.9261 27.6254 28.764 27.2308L30.2874 26.5132L30.3265 23.5434L30.3656 20.5735L30.5804 20.2919C30.6985 20.137 30.7942 19.9817 30.7931 19.9466C30.7881 19.8016 21.9998 1.06439 21.9281 1.0458C21.8851 1.0347 18.8451 2.43033 15.1725 4.14728ZM17.4554 8.95971C12.8059 11.1311 12.6702 11.2006 12.6702 11.4122C12.6702 11.5629 12.7194 11.6456 12.8297 11.6806C12.9434 11.7167 14.3428 11.0999 17.7002 9.53408C20.2913 8.32572 22.452 7.29627 22.5017 7.24658C22.6395 7.10885 22.6097 6.88986 22.441 6.79955C22.3579 6.7551 22.2788 6.7201 22.2652 6.72181C22.2516 6.72353 20.0873 7.73056 17.4554 8.95971ZM7.22461 11.1132C6.79321 12.7138 6.45165 14.0363 6.46547 14.052C6.49493 14.0856 9.8661 12.5172 9.96071 12.426C10.0227 12.3661 8.14571 8.21033 8.05438 8.20549C8.02938 8.20416 7.65594 9.5126 7.22461 11.1132ZM21.1925 10.7299C19.8856 11.3414 18.7784 11.9019 18.732 11.9755C18.6356 12.1283 18.7457 12.3683 18.9286 12.404C18.9884 12.4157 20.1273 11.9174 21.4593 11.2968C23.4287 10.3792 23.8859 10.1372 23.9067 10.0017C23.9345 9.8201 23.797 9.60674 23.6568 9.61369C23.6083 9.61611 22.4994 10.1184 21.1925 10.7299ZM12.7093 14.6794C10.3396 15.7965 9.26375 16.3418 9.24586 16.4349C9.21297 16.6055 9.36782 16.7968 9.53875 16.7968C9.61055 16.7968 11.2322 16.0661 13.1424 15.173C16.575 13.5681 16.6156 13.5464 16.6156 13.3175C16.6156 12.8684 16.368 12.9547 12.7093 14.6794ZM18.1109 16.3606C14.5077 18.0463 11.5042 19.4604 11.4366 19.5031C11.3306 19.5699 11.4363 19.843 12.198 21.4699C12.6845 22.5091 13.1108 23.3593 13.1455 23.3593C13.1801 23.3593 13.4653 23.2409 13.7792 23.0961L14.3499 22.8329L14.5702 22.2774C15.1376 20.847 16.3988 19.4754 17.8034 18.7612C18.5619 18.3755 19.7023 18.0501 20.3029 18.048L20.6308 18.0468L20.6545 17.6447C20.6978 16.9055 21.2044 16.8961 21.2481 17.6337L21.2714 18.0248L21.795 18.0693C22.0831 18.0938 22.6082 18.2056 22.962 18.3178L23.6054 18.5217L24.7198 18.0011C25.3328 17.7148 26.0148 17.3963 26.2355 17.2933L26.6366 17.1061L25.7545 15.2132C25.2695 14.172 24.8253 13.3147 24.7675 13.308C24.7097 13.3013 21.7143 14.6749 18.1109 16.3606ZM19.3906 18.8334C17.3091 19.3783 15.6033 20.9903 14.9734 23.0078C14.8661 23.3515 14.7492 23.8525 14.7138 24.121L14.6492 24.6093H15.4068H16.1644L16.2148 24.1795C16.4407 22.2579 18.2824 20.4117 20.1981 20.1865L20.639 20.1347V19.4032V18.6718L20.307 18.6761C20.1243 18.6785 19.712 18.7492 19.3906 18.8334ZM21.264 19.4032V20.1347L21.7048 20.1865C23.4373 20.3901 25.1332 21.9316 25.6012 23.7281C25.6649 23.9731 25.7171 24.2715 25.7171 24.3913V24.6093H26.4593H27.2015V24.3093C27.2015 23.8848 26.926 22.8601 26.6577 22.2867C26.0358 20.9576 24.9142 19.8368 23.5826 19.2137C23.0127 18.947 21.9874 18.6718 21.564 18.6718H21.264V19.4032ZM9.49688 20.4617C9.36282 20.5434 9.21344 20.7242 9.16485 20.8636C9.10625 21.0315 9.07649 21.9559 9.07649 23.6038V26.0907L8.86899 26.1427C8.62836 26.2031 8.45149 26.0245 8.45149 25.7212C8.45149 25.6187 8.34875 25.432 8.22313 25.3064C8.02547 25.1088 7.93633 25.0781 7.56032 25.0781C7.19079 25.0781 7.08766 25.1121 6.87071 25.3058L6.61555 25.5336L6.58993 26.6919C6.56399 27.866 6.51961 28.0468 6.25719 28.0468C6.02844 28.0468 5.95149 27.795 5.95149 27.0469C5.95149 26.4613 5.92571 26.3163 5.79102 26.1452C5.50555 25.7822 4.85282 25.7103 4.41508 25.9935C4.17329 26.15 4.12915 26.286 4.08063 27.0231C4.04711 27.5315 4.00665 27.6984 3.90071 27.7649C3.69696 27.8928 3.50594 27.7356 3.43196 27.3794C3.35149 26.9921 3.1875 26.8159 2.81407 26.7153C2.3725 26.5964 1.92313 26.737 1.72946 27.0547C1.58461 27.2923 1.57704 27.4705 1.57704 30.664C1.57704 33.8538 1.58477 34.036 1.72899 34.2725C1.88782 34.533 2.25149 34.6862 2.71321 34.687C3.12469 34.6878 3.13899 34.7449 3.13899 36.3888V37.9026L3.36063 38.1242C3.66649 38.4301 3.90039 38.4518 6.57649 38.4231C9.51336 38.3916 9.39618 38.4531 9.46446 36.9079C9.50329 36.0303 9.52274 35.9375 9.74258 35.5818C9.88899 35.3451 10.1246 35.1093 10.3612 34.9629L10.7433 34.7265L12.8982 34.6874C15.2209 34.6453 15.3093 34.6296 15.521 34.2202C15.6813 33.9103 15.6809 32.8076 15.5205 32.4974C15.2948 32.0611 15.1352 32.0312 13.0303 32.0312C11.5854 32.0312 11.1015 32.0073 11.0538 31.9335C11.019 31.8799 10.9823 29.3925 10.9724 26.4062C10.9624 23.4199 10.9351 20.8963 10.9117 20.7983C10.8095 20.3703 9.97297 20.1713 9.49688 20.4617ZM31.3245 20.4342C30.9008 20.6642 30.9138 20.4824 30.9 26.3828C30.8931 29.3993 30.8645 31.9042 30.8366 31.9492C30.8035 32.0028 30.1232 32.0312 28.8727 32.0312C26.7678 32.0312 26.6081 32.0611 26.3825 32.4974C26.2194 32.8128 26.2218 33.9106 26.3863 34.2287C26.6033 34.6481 26.8287 34.6875 28.988 34.6831C30.596 34.6798 30.9882 34.7007 31.2327 34.8028C31.7113 35.0028 32.0155 35.2806 32.2325 35.7162C32.4104 36.0733 32.4359 36.2212 32.4359 36.898C32.4359 37.4238 32.4734 37.7507 32.5531 37.9185C32.7777 38.3921 32.7991 38.396 35.3265 38.4231C38.0026 38.4518 38.2365 38.4301 38.5423 38.1242L38.764 37.9026V36.3888C38.764 34.7449 38.7783 34.6878 39.1898 34.687C39.6515 34.6862 40.0152 34.533 40.174 34.2725C40.3182 34.036 40.3259 33.8538 40.3259 30.664C40.3259 27.4705 40.3184 27.2923 40.1735 27.0547C39.9798 26.737 39.5305 26.5964 39.0889 26.7153C38.7155 26.8159 38.5515 26.9921 38.471 27.3794C38.397 27.7356 38.206 27.8928 38.0023 27.7649C37.8963 27.6984 37.8559 27.5315 37.8223 27.0231C37.7738 26.286 37.7297 26.15 37.4879 25.9935C37.0502 25.7103 36.3974 25.7822 36.112 26.1452C35.9773 26.3163 35.9515 26.4613 35.9515 27.0469C35.9515 27.795 35.8745 28.0468 35.6458 28.0468C35.3834 28.0468 35.339 27.866 35.3131 26.6919L35.2874 25.5336L35.0323 25.3058C34.8153 25.1121 34.7122 25.0781 34.3427 25.0781C33.9666 25.0781 33.8775 25.1088 33.6798 25.3064C33.5542 25.432 33.4515 25.6187 33.4515 25.7212C33.4515 26.0245 33.2746 26.2031 33.034 26.1427L32.8265 26.0907V23.5897C32.8265 20.8324 32.8013 20.659 32.3677 20.4348C32.0731 20.2824 31.6048 20.2821 31.3245 20.4342ZM19.6234 20.9642C18.7045 21.2895 17.9446 21.885 17.422 22.6896C17.1077 23.1734 16.8109 23.996 16.8109 24.3831V24.6093H17.5444H18.2778L18.332 24.3206C18.5041 23.4032 19.4326 22.4745 20.3497 22.3024L20.639 22.2481V21.5147V20.7812L20.3851 20.7828C20.2455 20.7838 19.9027 20.8654 19.6234 20.9642ZM21.264 21.5147V22.2481L21.557 22.3025C22.4579 22.4695 23.4009 23.4142 23.5709 24.32L23.6252 24.6093H24.3586H25.0921V24.3831C25.0921 23.9956 24.7952 23.1731 24.4806 22.6896C24.1328 22.1549 23.563 21.6012 23.0597 21.3089C22.622 21.0547 21.814 20.7812 21.5009 20.7812H21.264V21.5147ZM11.5772 23.9101L11.5779 26.0546L12.8127 28.7109L14.0474 31.3671L14.6284 31.411C15.8025 31.4995 16.2644 32.0327 16.2635 33.2982C16.2631 34.0597 16.1708 34.4442 15.916 34.747L15.7303 34.9678L16.3002 36.1866C16.8921 37.4523 17.1865 37.9423 17.5648 38.2913C18.1763 38.8555 19.1127 39.1997 19.7684 39.1014C20.7927 38.9478 21.5252 38.1754 21.733 37.0301C21.8364 36.4594 21.7943 36.0456 21.5559 35.2919C21.4104 34.8318 21.4034 34.7502 21.5022 34.6602C21.5645 34.6033 22.5207 34.1379 23.627 33.626C25.5191 32.7505 25.6435 32.6801 25.7235 32.4394C25.7704 32.2986 25.8977 32.0776 26.0066 31.9483C26.3474 31.5431 26.6078 31.4559 27.6312 31.4036L28.5687 31.3557L29.4281 30.9317L30.2874 30.5078L30.3085 28.8867C30.3234 27.7446 30.3042 27.2656 30.2435 27.2656C30.1961 27.2656 29.4021 27.6171 28.479 28.0468C27.5559 28.4765 26.7733 28.8281 26.7398 28.8281C26.7064 28.8281 26.5088 29.0403 26.3006 29.2998C25.2153 30.653 23.5019 31.5933 21.774 31.7839L21.3031 31.8359L21.264 32.2185C21.2387 32.4667 21.1769 32.6314 21.0882 32.6869C20.8562 32.8323 20.6832 32.652 20.639 32.2185L20.5999 31.8359L20.129 31.7839C17.0147 31.4403 14.433 28.8586 14.0894 25.7443L14.0374 25.2734L13.6548 25.2343C12.9332 25.1606 12.9434 24.6678 13.6673 24.625L14.0625 24.6017L14.0929 24.1563C14.1096 23.9113 14.1116 23.6951 14.0973 23.6758C14.0831 23.6565 13.8434 23.7532 13.5647 23.8906C13.2859 24.0281 13.0102 24.1406 12.9518 24.1406C12.7847 24.1406 12.6753 23.965 12.1825 22.9058C11.9287 22.3603 11.6885 21.8806 11.6488 21.8398C11.6045 21.7942 11.5768 22.5945 11.5772 23.9101ZM20.0921 23.0531C19.637 23.2592 19.3418 23.5436 19.1083 24.0013C18.8283 24.5499 18.8477 24.5977 19.3613 24.6249C19.6788 24.6418 19.8266 24.6867 19.8883 24.7851C20.0458 25.036 19.8556 25.1924 19.3613 25.2187C18.8544 25.2456 18.8346 25.2883 19.084 25.8188C19.2743 26.2236 19.732 26.664 20.139 26.8341C20.5931 27.0238 20.6286 27.0016 20.6546 26.512C20.6809 26.0178 20.8373 25.8275 21.0882 25.985C21.1866 26.0467 21.2315 26.1945 21.2484 26.512C21.2743 27.0007 21.3104 27.0236 21.7594 26.836C22.1698 26.6645 22.5759 26.2767 22.7924 25.8494C23.0746 25.2926 23.0561 25.246 22.5416 25.2187C22.0474 25.1924 21.8572 25.036 22.0147 24.7851C22.0764 24.6867 22.2242 24.6418 22.5416 24.6249C23.0553 24.5977 23.0747 24.5499 22.7947 24.0013C22.5612 23.5436 22.266 23.2592 21.8109 23.0531C21.299 22.8214 21.2748 22.8334 21.2484 23.3317C21.2315 23.6491 21.1866 23.7969 21.0882 23.8586C20.8373 24.0161 20.6809 23.8259 20.6546 23.3317C20.6281 22.8334 20.604 22.8214 20.0921 23.0531ZM14.7015 25.5343C14.7015 26.0445 14.9956 27.0359 15.3772 27.8124C15.6931 28.4553 15.8474 28.6596 16.5303 29.3395C17.1495 29.956 17.4527 30.1927 17.9437 30.443C18.7268 30.8423 19.4411 31.0778 20.1154 31.159L20.639 31.222V30.4547V29.6874H20.3738C19.5987 29.6874 18.3038 29.054 17.5616 28.3117C16.8193 27.5695 16.1859 26.2746 16.1859 25.4995V25.2343H15.4437H14.7015V25.5343ZM16.8109 25.4605C16.8109 26.1015 17.3133 27.1516 17.9316 27.8028C18.5664 28.4713 19.7308 29.0624 20.4128 29.0624H20.639V28.3203C20.639 27.6029 20.6331 27.5781 20.4632 27.5773C20.1654 27.576 19.4455 27.1953 19.0895 26.851C18.7138 26.4876 18.4145 25.9628 18.332 25.523L18.2778 25.2343H17.5444H16.8109V25.4605ZM23.5709 25.523C23.4884 25.9628 23.1891 26.4876 22.8135 26.851C22.4575 27.1953 21.7376 27.576 21.4398 27.5773C21.2698 27.5781 21.264 27.6029 21.264 28.3203V29.0624H21.4902C22.1312 29.0624 23.1813 28.56 23.8324 27.9417C24.501 27.3069 25.0921 26.1425 25.0921 25.4605V25.2343H24.3586H23.6252L23.5709 25.523ZM25.6881 25.6641C25.5341 26.9744 24.6034 28.3421 23.3751 29.0632C22.8143 29.3924 21.942 29.6874 21.5292 29.6874H21.264V30.4547V31.222L21.7843 31.1594C23.7657 30.9208 25.6253 29.5967 26.5394 27.7734C26.908 27.0382 27.2015 26.0456 27.2015 25.5343V25.2343H26.4701H25.7386L25.6881 25.6641ZM0.987427 30.664C0.987427 32.5976 0.997583 33.3774 1.01 32.397C1.02243 31.4165 1.02243 29.8345 1.01 28.8813C0.997583 27.9282 0.987427 28.7304 0.987427 30.664ZM11.5765 29.5181V31.4062H12.473H13.3695L13.3005 31.2304C13.1892 30.9473 11.6589 27.7125 11.6158 27.6694C11.5941 27.6478 11.5765 28.4798 11.5765 29.5181ZM30.014 31.3281C29.9227 31.387 29.9442 31.4041 30.1116 31.405C30.2298 31.4056 30.3265 31.371 30.3265 31.3281C30.3265 31.2293 30.1669 31.2293 30.014 31.3281ZM23.8937 34.1899C22.9552 34.6289 22.1742 35.0011 22.1582 35.0171C22.1422 35.0331 22.1843 35.2204 22.2519 35.4333C22.4328 36.0038 22.4187 37.1141 22.2232 37.6799C22.1239 37.9676 22.1001 38.1206 22.1582 38.0983C22.2085 38.079 23.5623 37.4531 25.1665 36.7074L28.0833 35.3515L27.3817 35.3015C26.6487 35.2492 26.3371 35.1386 26.0589 34.8316C25.7972 34.5428 25.6936 34.2909 25.6451 33.8249L25.5999 33.392L23.8937 34.1899Z" stroke="#FFB703" stroke-width="0.2" mask="url(#path-1-outside-1_357_16076)"/>
</g>
<defs>
<clipPath id="clip0_357_16076">
<rect width="40" height="40" fill="white" transform="translate(0.951172)"/>
</clipPath>
</defs>
</svg>
