<svg width="41" height="40" viewBox="0 0 41 40" fill="none" xmlns="http://www.w3.org/2000/svg">
<path fill-rule="evenodd" clip-rule="evenodd" d="M12.8949 0.0684347C12.3086 0.2607 11.8216 0.689294 11.5967 1.21101C11.5012 1.43258 11.4519 1.81328 11.4273 2.51961L11.3926 3.5157H8.20929C6.40718 3.5157 4.84351 3.54976 4.60523 3.59422C3.57757 3.78601 2.71187 4.46742 2.24578 5.4514L1.99695 5.97664L1.97648 21.5569C1.95414 38.5494 1.93179 37.6278 2.38539 38.4019C2.62945 38.8183 3.12929 39.3141 3.55867 39.5658C4.34625 40.0273 3.39148 40.0038 20.4401 39.9815L36.0594 39.961L36.4891 39.7854C37.3108 39.4496 38.0575 38.6769 38.338 37.8721C38.4752 37.4787 38.4813 36.7854 38.4813 21.7188V5.97664L38.2325 5.4514C37.7664 4.46742 36.9007 3.78601 35.873 3.59422C35.6348 3.54976 34.0711 3.5157 32.269 3.5157H29.0857L29.051 2.51961C29.0123 1.41008 28.9126 1.0714 28.4969 0.637732C28.0812 0.20406 27.6975 0.0437472 27.0751 0.0437472C26.4512 0.0437472 26.0638 0.206169 25.658 0.637732C25.2022 1.12258 25.1334 1.34875 25.0976 2.48054L25.0648 3.5157H20.2391H15.4135L15.3807 2.48054C15.3554 1.68273 15.3155 1.38273 15.2066 1.17195C15.0097 0.790622 14.6305 0.405544 14.2682 0.218903C13.9333 0.0464035 13.2054 -0.0333622 12.8949 0.0684347ZM12.9544 1.23093C12.5291 1.49461 12.5048 1.65101 12.5048 4.1214C12.5048 6.34758 12.5076 6.38742 12.6833 6.64867C13.0091 7.13336 13.6389 7.18258 14.065 6.75672L14.2626 6.55922L14.2853 4.18047C14.3048 2.14843 14.2904 1.76734 14.1863 1.56625C13.9599 1.12836 13.3761 0.96945 12.9544 1.23093ZM26.6001 1.24109C26.1855 1.49398 26.1678 1.62281 26.1928 4.20234L26.2157 6.55922L26.4133 6.75672C26.8394 7.18258 27.4691 7.13336 27.795 6.64867C27.9707 6.38742 27.9735 6.34758 27.9735 4.1214C27.9735 2.18984 27.9548 1.82031 27.8458 1.59047C27.6207 1.11609 27.062 0.95945 26.6001 1.24109ZM4.49632 4.74984C3.95234 4.93797 3.5846 5.24148 3.31812 5.72242L3.0907 6.13289L3.06757 9.00398L3.04445 11.8751H20.2391H37.4338L37.4107 9.00398C37.3882 6.21343 37.3827 6.12383 37.2148 5.80992C36.9811 5.37289 36.6021 5.0082 36.1775 4.81164C35.8399 4.65539 35.6824 4.64758 32.4462 4.62586L29.0673 4.6032L29.0664 5.40711C29.0653 6.46164 29.0162 6.71969 28.7248 7.2057C28.0602 8.31375 26.4244 8.45297 25.5855 7.47289C25.2051 7.02836 25.0829 6.54734 25.0829 5.49367V4.60945H20.2391H15.3954V5.49367C15.3954 6.04539 15.3522 6.52289 15.2805 6.7632C14.7877 8.41492 12.4613 8.62218 11.6684 7.08508C11.4799 6.71969 11.456 6.57789 11.4261 5.64461L11.3929 4.60945L8.14023 4.61203C5.26257 4.61429 4.8425 4.63015 4.49632 4.74984ZM3.05164 25.0643C3.05164 38.7541 2.99718 37.6195 3.68664 38.2911C4.36289 38.9498 3.66257 38.9063 13.6142 38.9063H22.4302L23.6198 38.2994C27.3095 36.4171 30.1603 33.5948 31.9205 30.0817C32.4991 28.927 32.6244 28.8677 33.4064 29.3772C34.2036 29.8966 34.6738 30.0327 35.6688 30.0322C36.336 30.0319 36.6243 29.9965 36.9579 29.8741L37.3876 29.7163L37.4075 21.3426L37.4273 12.9688H20.2395H3.05164V25.0643ZM6.2157 15.6923C5.65273 16.0401 5.67125 15.9522 5.64593 18.3901C5.6232 20.5795 5.62406 20.5936 5.80374 20.8624C6.14906 21.3793 6.28492 21.4061 8.5607 21.4062C10.8376 21.4063 10.9831 21.3767 11.2938 20.8506C11.4397 20.6036 11.4501 20.4457 11.4501 18.4766C11.4501 15.4094 11.5874 15.5468 8.52164 15.5473C6.64156 15.5475 6.42843 15.5609 6.2157 15.6923ZM14.0212 15.6947C13.8886 15.7756 13.704 15.9384 13.6111 16.0565C13.4471 16.265 13.4423 16.3344 13.4423 18.4812V20.6912L13.6469 20.9344C14.0344 21.3949 14.0993 21.4063 16.3321 21.4063C18.6171 21.4063 18.7934 21.3708 19.1063 20.8473C19.2523 20.6033 19.2626 20.4468 19.2626 18.4766C19.2626 15.4128 19.3971 15.5468 16.3211 15.5473C14.4428 15.5475 14.2415 15.5604 14.0212 15.6947ZM21.8216 15.6755C21.6823 15.7441 21.4889 15.9279 21.3919 16.0838C21.2204 16.3598 21.2157 16.4233 21.2157 18.4766C21.2157 20.8516 21.2302 20.9195 21.8052 21.2427C22.0801 21.3972 22.2105 21.4063 24.1404 21.4063C26.3434 21.4063 26.4115 21.3954 26.8016 20.9777L26.9969 20.7687V18.4766V16.1845L26.8016 15.9755C26.4109 15.5573 26.3449 15.5468 24.1298 15.5487C22.407 15.5502 22.0341 15.5707 21.8216 15.6755ZM29.6129 15.6895C29.4438 15.778 29.2741 15.9618 29.1649 16.1748C28.9964 16.5034 28.9891 16.5987 28.9891 18.4766C28.9891 20.3546 28.9964 20.4499 29.1649 20.7785C29.4749 21.383 29.5773 21.4063 31.9176 21.4062C34.1899 21.4061 34.3296 21.3787 34.6712 20.8674C34.8447 20.6077 34.8485 20.5561 34.8482 18.4846C34.848 16.5096 34.8375 16.3502 34.6926 16.1127C34.6073 15.9726 34.4229 15.7882 34.2828 15.7028C34.0457 15.5582 33.8859 15.5475 31.9566 15.5473C30.103 15.5469 29.8565 15.562 29.6129 15.6895ZM6.72351 18.4766V20.3126H8.55945H10.3954V18.4766V16.6407H8.55945H6.72351V18.4766ZM14.4929 16.7402C14.4719 16.7949 14.4642 17.6123 14.4759 18.5566L14.4969 20.2735L16.3524 20.2945L18.2079 20.3154V18.478V16.6407H16.3695C14.9527 16.6407 14.5223 16.6635 14.4929 16.7402ZM22.2704 18.4766V20.3126H24.1063H25.9423V18.4766V16.6407H24.1063H22.2704V18.4766ZM30.0829 18.4766V20.3126H31.9188H33.7548V18.4766V16.6407H31.9188H30.0829V18.4766ZM6.2157 23.5048C5.65273 23.8526 5.67125 23.7647 5.64593 26.2026C5.6232 28.392 5.62406 28.4061 5.80374 28.6749C6.14796 29.1902 6.28976 29.2186 8.51523 29.2187C10.3357 29.2188 10.5291 29.2059 10.8216 29.0642C11.4231 28.773 11.4469 28.6744 11.4728 26.3673C11.495 24.382 11.4915 24.328 11.3166 23.9844C11.0092 23.3808 10.9147 23.3597 8.52039 23.3598C6.6414 23.36 6.42843 23.3734 6.2157 23.5048ZM14.0091 23.488C13.8698 23.5566 13.6837 23.7295 13.5955 23.872C13.4423 24.12 13.4363 24.2279 13.4584 26.3575L13.4813 28.5838L13.7124 28.8249C13.8396 28.9576 14.0681 29.1027 14.2202 29.1476C14.3912 29.198 15.2632 29.2197 16.5031 29.2045C18.7112 29.1773 18.6999 29.1798 19.1015 28.6419C19.2549 28.4363 19.2626 28.3255 19.2626 26.303C19.2626 23.2191 19.4014 23.3586 16.3341 23.3612C14.5959 23.3627 14.2218 23.3831 14.0091 23.488ZM21.8004 23.505C21.6507 23.5851 21.4579 23.7696 21.3719 23.9152C21.226 24.1623 21.2157 24.3201 21.2157 26.303C21.2157 28.3255 21.2234 28.4363 21.3768 28.6419C21.4654 28.7605 21.6348 28.9301 21.7534 29.0187C21.9567 29.1705 22.088 29.181 24.0533 29.2011C26.3877 29.225 26.5097 29.2023 26.8587 28.6799C27.0323 28.42 27.036 28.3695 27.036 26.2673C27.036 23.1982 27.197 23.3594 24.1323 23.3594C22.2726 23.3594 22.0462 23.3736 21.8004 23.505ZM6.72351 26.2891V28.1251H8.55945H10.3954V26.2891V24.4532H8.55945H6.72351V26.2891ZM14.4929 24.5527C14.4719 24.6074 14.4642 25.4248 14.4759 26.3691L14.4969 28.086L16.3524 28.107L18.2079 28.1279V26.2905V24.4532H16.3695C14.9527 24.4532 14.5223 24.476 14.4929 24.5527ZM22.2704 26.2891V28.1251H24.1063H25.9423V26.2891V24.4532H24.1063H22.2704V26.2891ZM32.5789 31.1719C31.1455 33.7519 29.2151 35.9015 26.6948 37.7239C26.2709 38.0305 25.9638 38.2813 26.0126 38.2813C26.1706 38.2813 27.916 37.6757 28.5985 37.3841C30.0525 36.7627 31.6717 35.8195 32.8954 34.8809C34.0598 33.9877 35.5293 32.5095 36.3616 31.3939L36.5749 31.108L35.9612 31.1502C35.1822 31.2035 34.2168 31.0178 33.5097 30.6785L32.9912 30.4298L32.5789 31.1719ZM6.18148 31.3147C5.65789 31.5955 5.62976 31.7367 5.62976 34.0848C5.62976 36.396 5.64343 36.4727 6.11687 36.8103C6.36921 36.9903 6.39531 36.9923 8.53414 36.9923C10.596 36.9923 10.7063 36.9848 10.9121 36.8312C11.0308 36.7426 11.2004 36.573 11.289 36.4544C11.4427 36.2486 11.4501 36.1384 11.4501 34.073C11.4501 31.6708 11.4453 31.6459 10.9185 31.3248C10.6873 31.1838 10.5124 31.1725 8.5582 31.1723C6.66296 31.1719 6.42046 31.1865 6.18148 31.3147ZM13.9344 31.3251C13.461 31.6137 13.4423 31.7187 13.4426 34.0782C13.443 37.1639 13.2721 36.9923 16.3433 36.9923C18.4087 36.9923 18.5189 36.9848 18.7247 36.8312C18.8434 36.7426 19.0129 36.573 19.1015 36.4544C19.2549 36.2488 19.2626 36.138 19.2626 34.1155C19.2626 31.7532 19.2401 31.6352 18.7314 31.3251C18.4994 31.1835 18.3262 31.1725 16.3329 31.1725C14.3395 31.1725 14.1664 31.1835 13.9344 31.3251ZM36.8277 32.5535C36.1429 33.3961 34.8039 34.7271 33.911 35.4527C32.4598 36.6322 30.3299 37.8766 28.5985 38.5564C28.1903 38.7167 27.8408 38.8619 27.8217 38.8791C27.8027 38.8963 29.6132 38.9007 31.8451 38.8888L35.9032 38.8673L36.2844 38.6726C36.494 38.5655 36.7829 38.3409 36.9262 38.1734C37.4092 37.6091 37.4311 37.4422 37.4082 34.5028L37.3876 31.8648L36.8277 32.5535ZM6.72351 34.1016V35.9376H8.55945H10.3954V34.1016V32.2657H8.55945H6.72351V34.1016ZM14.476 34.0821L14.4969 35.8985H16.3329H18.1688L18.1898 34.0821L18.2108 32.2657H16.3329H14.455L14.476 34.0821Z" fill="#FFB703"/>
</svg>
