<svg width="40" height="40" viewBox="0 0 40 40" fill="none" xmlns="http://www.w3.org/2000/svg">
<path fill-rule="evenodd" clip-rule="evenodd" d="M21.875 0.897648C25.0342 1.43866 27.7648 3.20101 29.5373 5.8428C30.4012 7.13054 30.9208 8.34812 31.2706 9.90515C31.4146 10.5458 31.4409 10.9015 31.4396 12.1875C31.4382 13.5367 31.4143 13.8226 31.2302 14.6875C30.2326 19.3726 26.5138 26.5276 21.0673 34.2403C20.0535 35.6759 19.9716 35.6757 18.8937 34.2344C17.2314 32.0116 15.3313 29.1701 13.8902 26.752C11.123 22.1091 9.4232 18.131 8.735 14.6875C8.48164 13.4197 8.47734 11.0297 8.72641 9.92085C9.07273 8.3789 9.61398 7.10843 10.4666 5.83585C12.2687 3.14655 15.114 1.34929 18.3353 0.865617C19.082 0.753507 21.1422 0.772101 21.875 0.897648ZM21.4062 1.92171C23.8022 2.34491 25.5389 3.18991 27.1734 4.72757C29.6702 7.07632 30.826 10.5714 30.2385 13.9962C29.5444 18.0426 26.4302 24.3648 21.6048 31.5234C20.1409 33.6951 20.0488 33.8244 19.9812 33.8054C19.7945 33.7528 16.7852 29.3543 15.4534 27.1875C12.5305 22.4323 10.5555 18.0549 9.88156 14.8383C9.60133 13.5009 9.53516 11.7526 9.72164 10.6178C10.326 6.94132 12.8412 3.85218 16.3281 2.50382C17.4316 2.0771 18.2437 1.93718 19.7656 1.91155C20.5605 1.8982 21.2988 1.90273 21.4062 1.92171ZM21.1927 5.74874C22.5802 5.99952 23.7875 6.67171 24.8314 7.7746C25.3379 8.30968 25.5462 8.60702 25.8594 9.24234C26.4159 10.3715 26.5795 11.0584 26.5795 12.2656C26.5795 13.4389 26.4177 14.1409 25.9038 15.1953C25.04 16.968 23.4141 18.2376 21.4062 18.7071C20.6559 18.8826 19.257 18.8642 18.4375 18.6682C16.0777 18.1037 14.2273 16.263 13.5789 13.8354C13.3555 12.9989 13.3576 11.5301 13.5835 10.6641C14.2435 8.13374 16.3319 6.18648 18.8579 5.74601C19.6916 5.60062 20.3779 5.6014 21.1927 5.74874ZM20.8779 6.79413C24.2898 7.4178 26.3252 10.8436 25.2023 14.0726C24.6646 15.6188 23.3912 16.8868 21.8061 17.4543C21.1712 17.6816 21.068 17.6953 20 17.6953C18.932 17.6953 18.8287 17.6816 18.1939 17.4543C16.6151 16.889 15.3317 15.6147 14.8045 14.0887C13.8874 11.4344 15.0454 8.57538 17.5391 7.33679C17.8828 7.16601 18.3574 6.97405 18.5938 6.91023C19.1238 6.76702 20.3802 6.70312 20.8779 6.79413ZM14.8633 31.7743C14.9384 31.858 15 32.0353 15 32.1684C15 32.5238 14.7288 32.7009 14.0857 32.7652C13.2591 32.848 11.3391 33.2534 10.4929 33.5238C9.20414 33.9357 8.35938 34.4398 8.35938 34.797C8.35938 35.4312 10.4197 36.2391 13.2422 36.7116C15.5203 37.093 16.3404 37.1456 20 37.1456C23.6603 37.1456 24.4829 37.0927 26.7578 36.7113C29.5529 36.2427 31.6406 35.4275 31.6406 34.8047C31.6406 34.2753 30.0387 33.5546 27.8516 33.1C27.3359 32.9928 26.7238 32.8801 26.4913 32.8498C25.779 32.7565 25.5132 32.3389 25.8885 31.9026L26.0739 31.687L26.9641 31.8201C28.1013 31.9901 29.7834 32.4142 30.5859 32.7334C32.076 33.326 32.7344 33.9634 32.7344 34.8134C32.7344 36.3824 29.9741 37.4958 24.6094 38.0909C23.0699 38.2616 18.6402 38.3294 16.9097 38.2087C10.8015 37.7826 7.26562 36.5346 7.26562 34.8047C7.26562 33.5027 9.03859 32.5468 12.7017 31.8738C13.1597 31.7897 13.8027 31.6987 14.1305 31.6716C14.6588 31.6279 14.7421 31.6395 14.8633 31.7743Z" fill="#FFB703"/>
</svg>
