<svg width="70" height="70" viewBox="0 0 70 70" fill="none" xmlns="http://www.w3.org/2000/svg">
<path fill-rule="evenodd" clip-rule="evenodd" d="M44.324 3.44532C44.208 3.56126 44.1599 4.35819 44.1599 6.1585C44.1599 8.45442 44.1848 8.73005 44.41 8.9339C44.7422 9.23454 45.0578 9.21936 45.3904 8.88673C45.6428 8.63434 45.6638 8.43104 45.6638 6.2512C45.6638 4.3344 45.6236 3.83169 45.451 3.58518C45.2165 3.25036 44.5959 3.17339 44.324 3.44532ZM31.5346 6.94929C31.4102 7.08682 31.3084 7.30011 31.3084 7.42329C31.3084 7.81458 33.6693 11.7802 33.9686 11.8917C34.365 12.0393 34.7746 11.8526 34.9149 11.4603C35.016 11.1772 34.8573 10.8138 33.9063 9.151C33.2856 8.06573 32.6836 7.07001 32.5688 6.93849C32.2976 6.62813 31.8208 6.63306 31.5346 6.94929ZM57.2584 6.87013C56.8964 7.15724 54.824 10.867 54.824 11.2279C54.824 11.4141 54.8978 11.6402 54.988 11.7305C55.2028 11.9453 55.8457 11.941 56.026 11.7236C56.4407 11.2241 58.3787 7.68702 58.3787 7.42999C58.3787 6.83157 57.7212 6.50304 57.2584 6.87013ZM37.0505 14.4557C36.5422 14.6508 28.9791 20.1716 28.9063 20.4008C28.8615 20.5423 28.9151 20.7933 29.0257 20.9589C29.3575 21.4558 44.4195 37.2896 44.6414 37.3748C44.7544 37.4182 44.9845 37.386 45.1528 37.3034C45.3211 37.2207 48.9041 33.5146 53.115 29.0674C59.7132 22.099 60.7712 20.9251 60.7712 20.5737C60.7712 20.198 60.5135 19.9809 57.49 17.8094C55.6853 16.5132 53.8453 15.2059 53.4013 14.9041L52.5937 14.3555L44.9247 14.3663C40.7067 14.3722 37.1633 14.4125 37.0505 14.4557ZM34.902 17.7499C33.457 18.7853 32.2318 19.6756 32.179 19.7284C32.1262 19.781 33.5016 19.8242 35.2353 19.8242H38.3875L39.633 17.9039C40.3181 16.8477 40.8787 15.9556 40.8787 15.9215C40.8787 15.8873 40.1251 15.8612 39.2039 15.8635L37.5291 15.8676L34.902 17.7499ZM42.6858 16.0303C42.6086 16.1243 42.0185 17.001 41.3744 17.9785L40.2034 19.7559L44.8003 19.7918C47.3285 19.8116 49.4209 19.8041 49.45 19.775C49.4791 19.746 48.9341 18.853 48.2392 17.7908L46.9754 15.8594H44.9008C43.4071 15.8594 42.7868 15.9072 42.6858 16.0303ZM49.0342 16.2499C49.1731 16.4646 49.7482 17.3567 50.312 18.2323L51.3371 19.8242H54.5384H57.7395L54.9607 17.8418L52.1819 15.8594H50.4817H48.7816L49.0342 16.2499ZM22.0673 16.4746C21.8656 16.7824 21.864 16.848 22.0513 17.1337C22.3142 17.535 26.0279 19.6875 26.457 19.6875C27.084 19.6875 27.4325 18.9758 27.0117 18.5549C26.6025 18.1457 22.9671 16.1328 22.6374 16.1328C22.419 16.1328 22.2085 16.259 22.0673 16.4746ZM65.2902 16.9637C62.6492 18.522 62.6169 18.5462 62.6169 18.971C62.6169 19.4431 62.838 19.6875 63.265 19.6875C63.6161 19.6875 67.3666 17.602 67.6414 17.2541C68.0296 16.7623 67.6679 16.1217 67.0164 16.147C66.8149 16.1548 66.0382 16.5223 65.2902 16.9637ZM32.1499 22.1423C33.2064 23.3194 42.7189 33.3316 42.7534 33.3028C42.7694 33.2895 41.7602 30.5897 40.5109 27.3034L38.2393 21.3281H34.8293H31.4191L32.1499 22.1423ZM39.9525 21.5674C40.0646 21.994 44.7378 34.245 44.8263 34.3438C44.8733 34.3964 45.9548 31.6894 47.2294 28.3281C48.5042 24.9669 49.6277 22.0168 49.7264 21.7725L49.9058 21.3281H44.8978C40.1955 21.3281 39.8936 21.3428 39.9525 21.5674ZM51.3318 21.7995C50.7767 23.128 47.0225 33.123 47.0633 33.1637C47.115 33.2154 58.1446 21.6252 58.2191 21.4409C58.2443 21.3789 56.7491 21.3281 54.8967 21.3281H51.5288L51.3318 21.7995ZM25.3901 38.8977C23.8713 39.2814 21.643 40.2489 17.9382 42.1339C15.8859 43.178 14.1486 43.9964 14.0777 43.9525C14.0067 43.9087 13.766 43.6074 13.5428 43.283C13.3197 42.9587 12.9142 42.5875 12.6419 42.4583C12.0633 42.1838 11.0983 42.1515 10.6419 42.3916C9.78226 42.8437 3.15646 47.5218 2.77077 47.9489C2.28296 48.4892 2.11029 49.1075 2.24577 49.8293C2.30443 50.142 4.1299 52.8991 7.60912 57.9299C10.5101 62.1246 13.0456 65.7334 13.2434 65.9494C13.9293 66.6982 15.0511 66.9315 15.8872 66.4992C16.2823 66.2948 22.6223 61.9404 23.3757 61.3561C23.8774 60.9669 24.1809 60.4379 24.2794 59.7815C24.3498 59.3122 24.2969 59.0543 24.0095 58.467C23.8129 58.0651 23.6521 57.6797 23.6521 57.6103C23.6521 57.3675 24.4944 56.4649 24.7211 56.4649C24.8469 56.4649 28.1493 57.4608 32.0598 58.6782C38.7818 60.7708 39.2293 60.8914 40.2634 60.888C43.4952 60.877 48.3033 58.3643 56.3279 52.4925C57.7942 51.4195 59.8552 49.9266 60.908 49.1747C63.8281 47.0891 64.4376 46.4256 64.817 44.9188C65.2562 43.1747 63.9908 41.2332 62.0017 40.5992C61.197 40.3427 59.6823 40.4014 58.6521 40.7289C58.0758 40.9121 55.7206 42.2078 51.9529 44.4142L46.1423 47.817L45.9955 47.1849C45.7796 46.2554 45.3542 45.5181 44.6697 44.8871C43.8526 44.1341 43.9006 44.1552 40.4365 43.0076C38.7623 42.4528 36.0696 41.4635 34.4529 40.8091C29.7461 38.9037 29.4219 38.805 27.6853 38.7476C26.6665 38.714 25.9261 38.7624 25.3901 38.8977ZM25.7502 40.4074C24.3609 40.7121 22.8124 41.3745 19.0037 43.293C17.011 44.2967 15.2945 45.1733 15.1892 45.2408C15.0401 45.3366 15.8362 46.5757 18.7997 50.861L22.6014 56.3582L23.0243 55.8663C23.4675 55.3506 24.2312 54.9609 24.7988 54.9609C24.9831 54.9609 28.415 55.9802 32.4252 57.226C39.3966 59.3917 39.7555 59.4881 40.6052 59.4233C41.8599 59.3275 43.4609 58.784 45.4157 57.7901C48.4491 56.2477 51.2106 54.4082 58.3992 49.1411C59.7263 48.1686 61.2146 47.0849 61.7065 46.7327C62.8892 45.8861 63.3528 45.1839 63.3619 44.2252C63.367 43.693 63.2921 43.3934 63.0829 43.111C62.1383 41.835 60.2048 41.5442 58.447 42.4136C58.1462 42.5623 55.2103 44.2534 51.9229 46.1714C46.3462 49.4252 45.9221 49.6992 45.5922 50.2621C44.7603 51.6818 43.4678 52.5029 41.9041 52.6054C41.001 52.6646 40.5968 52.5691 34.7425 50.9112C28.1588 49.0468 28.0032 48.9835 28.2327 48.2601C28.4463 47.5873 28.595 47.613 34.9615 49.4184C41.1243 51.166 41.8383 51.3073 42.6946 50.9485C44.3304 50.263 45.0668 48.287 44.2571 46.7559C43.7327 45.7641 43.2514 45.5026 39.9128 44.3948C38.2159 43.8318 35.3481 42.7792 33.5399 42.0558C28.8641 40.1853 27.7943 39.9589 25.7502 40.4074ZM11.3501 43.7143C11.0148 43.846 4.04636 48.6916 3.86206 48.9213C3.768 49.0384 3.69486 49.261 3.69923 49.4158C3.70374 49.5707 6.11943 53.1734 9.06763 57.4219C13.9929 64.5196 14.461 65.1492 14.8359 65.1796C15.1688 65.2066 15.9222 64.7414 18.932 62.6501C21.6047 60.7932 22.6553 59.988 22.7476 59.7255C22.8645 59.3931 22.4446 58.7407 17.6439 51.7959C14.7668 47.6339 12.2619 44.0902 12.0775 43.9209C11.7265 43.5988 11.6788 43.5853 11.3501 43.7143ZM15.2589 57.4718C13.8554 58.3214 13.657 60.3864 14.8801 61.4156C15.7801 62.1729 16.9419 62.2486 17.9031 61.6126C18.4914 61.2232 19.0037 60.3005 19.0037 59.6302C19.0037 59.1221 18.688 58.2999 18.3491 57.925C17.6266 57.1262 16.1803 56.914 15.2589 57.4718ZM15.812 58.9024C15.2686 59.5027 15.7295 60.5664 16.5327 60.5664C16.9899 60.5664 17.4998 60.0297 17.4998 59.5484C17.4998 58.7929 16.3197 58.3413 15.812 58.9024Z" fill="#FFB703"/>
</svg>
