<svg width="21" height="21" viewBox="0 0 21 21" fill="none" xmlns="http://www.w3.org/2000/svg">
<g clip-path="url(#clip0_925_354)">
<path d="M20.5625 9.625C20.321 9.625 20.125 9.429 20.125 9.1875C20.125 4.60425 16.3957 0.875 11.8125 0.875C11.571 0.875 11.375 0.679 11.375 0.4375C11.375 0.196 11.571 0 11.8125 0C16.8787 0 21 4.12125 21 9.1875C21 9.429 20.804 9.625 20.5625 9.625ZM17.5 9.1875C17.5 6.0515 14.9485 3.5 11.8125 3.5C11.571 3.5 11.375 3.696 11.375 3.9375C11.375 4.179 11.571 4.375 11.8125 4.375C14.4664 4.375 16.625 6.53363 16.625 9.1875C16.625 9.429 16.821 9.625 17.0625 9.625C17.304 9.625 17.5 9.429 17.5 9.1875ZM19.4547 19.4871L20.3105 18.5027C20.755 18.0582 21 17.4667 21 16.8385C21 16.2102 20.755 15.6179 20.2676 15.1366L18.1274 13.4977C17.2104 12.5807 15.7185 12.5799 14.7997 13.4951L13.4592 14.8024C10.2392 13.4907 7.616 10.8649 6.202 7.53725L7.504 6.20288C8.42188 5.285 8.42188 3.79137 7.54163 2.91637L5.8275 0.69125C4.93762 -0.198625 3.36613 -0.177625 2.52 0.671125L1.49275 1.56713C0.529375 2.52525 0 3.82637 0 5.229C0 12.0094 8.99063 21 15.771 21C17.1736 21 18.4739 20.4706 19.4547 19.4871ZM5.17037 1.26525L6.8845 3.49038C7.46113 4.067 7.46112 5.00588 6.881 5.58688L5.37425 7.13213C5.2535 7.25638 5.21675 7.44013 5.2815 7.60113C6.79437 11.368 9.75537 14.3281 13.4067 15.7211C13.566 15.7824 13.7462 15.7447 13.8679 15.6266L15.4131 14.1199C15.4131 14.1199 15.4157 14.1172 15.4166 14.1155C15.9757 13.5555 16.9076 13.5196 17.5516 14.1531L19.6919 15.792C20.2685 16.3686 20.2685 17.3066 19.6718 17.906L18.8151 18.8904C18.0206 19.6866 16.9391 20.125 15.771 20.125C9.506 20.125 0.875 11.494 0.875 5.229C0.875 4.06087 1.31338 2.97937 2.08863 2.205L3.11675 1.30813C3.41075 1.01413 3.79837 0.870625 4.17987 0.870625C4.5465 0.870625 4.907 1.00363 5.17125 1.26613L5.17037 1.26525Z" fill="white"/>
</g>
<defs>
<clipPath id="clip0_925_354">
<rect width="21" height="21" fill="white"/>
</clipPath>
</defs>
</svg>
