<svg width="70" height="70" viewBox="0 0 70 70" fill="none" xmlns="http://www.w3.org/2000/svg">
<path fill-rule="evenodd" clip-rule="evenodd" d="M34.2419 12.0935L33.9062 12.429V15.6242C33.9062 18.7875 33.9094 18.8225 34.2226 19.1168C34.6563 19.5241 35.4043 19.5151 35.7965 19.0977C36.084 18.7914 36.0938 18.678 36.0938 15.6051V12.429L35.7581 12.0935C35.5466 11.8818 35.2663 11.7578 35 11.7578C34.7337 11.7578 34.4534 11.8818 34.2419 12.0935ZM12.6465 16.298C12.0478 16.6413 11.8735 17.2222 12.1907 17.8166C12.4013 18.2113 15.1175 21.8385 15.5626 22.3193C16.2564 23.069 17.5 22.6394 17.5 21.6501C17.5 21.3341 17.0829 20.6816 15.715 18.8569C13.6682 16.1269 13.3734 15.8811 12.6465 16.298ZM56.37 16.3092C56.2051 16.4009 55.2668 17.5474 54.285 18.8569C52.3778 21.4009 52.2612 21.6712 52.7834 22.3351C53.185 22.8457 53.9571 22.8383 54.4374 22.3193C54.8825 21.8385 57.5987 18.2113 57.8093 17.8166C58.1327 17.2107 57.9467 16.6212 57.3284 16.2918C56.9559 16.0936 56.7513 16.0973 56.37 16.3092ZM31.4453 22.3703C29.9682 22.5455 27.9271 22.8931 26.7285 23.174C19.9321 24.7661 13.5972 28.4981 8.90777 33.6726C6.74734 36.0564 4.375 39.5023 4.375 40.2564C4.375 41.0673 7.17623 44.982 9.49238 47.4079C15.0469 53.2256 22.2004 56.8218 30.5566 57.9969C32.1669 58.2235 37.8331 58.2235 39.4434 57.9969C47.7656 56.8266 54.8532 53.2885 60.3631 47.5541C62.7856 45.0327 65.625 41.0948 65.625 40.2564C65.625 39.8033 64.595 38.0819 63.252 36.2903C58.4519 29.8877 51.7362 25.3723 44.031 23.367C40.9557 22.5667 39.5076 22.3933 35.5469 22.3517C33.5542 22.3307 31.7085 22.339 31.4453 22.3703ZM31.7188 24.6114C23.4686 25.4696 15.9768 29.1945 10.608 35.1077C9.38697 36.4525 7.53703 38.8829 7.0823 39.7398L6.78002 40.3096L7.53895 41.4487C12.1222 48.3282 19.4629 53.3608 27.5442 55.164C30.1217 55.7391 31.937 55.9259 34.9567 55.927C39.2191 55.9285 42.0202 55.495 45.7043 54.2638C52.4136 52.0215 58.3473 47.5187 62.3161 41.6575L63.2239 40.317L62.9196 39.7435C62.4803 38.9156 60.639 36.4852 59.4424 35.1537C54.5349 29.6927 47.4034 25.9153 39.9131 24.8093C38.2144 24.5584 33.3557 24.4411 31.7188 24.6114ZM32.8125 27.2694C29.8371 27.8198 27.3792 29.1665 25.3318 31.3678C23.6354 33.1918 22.3866 35.7833 22.0004 38.2812C21.7863 39.6659 21.9149 42.1783 22.2685 43.5154C23.2343 47.1685 25.7677 50.2981 29.0883 51.9401C31.34 53.0537 32.9127 53.3827 35.5116 53.2841C38.2473 53.1803 39.9905 52.6385 42.1786 51.2124C44.876 49.454 46.9139 46.6372 47.7258 43.5449C48.0851 42.1764 48.2152 39.6754 47.9996 38.2812C47.2034 33.132 43.3096 28.8185 38.29 27.525C36.6558 27.1038 34.301 26.994 32.8125 27.2694ZM32.5888 29.5904C29.4772 30.2978 26.6864 32.4927 25.2427 35.3682C25.0466 35.7585 24.7238 36.6198 24.5253 37.2822C24.2245 38.2854 24.1634 38.7602 24.1585 40.127C24.1546 41.2087 24.2297 42.0816 24.3787 42.6892C25.2874 46.3932 27.885 49.2892 31.3891 50.5049C37.536 52.6375 44.0597 49.055 45.6213 42.6892C45.7703 42.0816 45.8454 41.2087 45.8415 40.127C45.8329 37.7089 45.2223 35.8169 43.8056 33.8185C42.5734 32.0802 40.6135 30.6487 38.445 29.903C37.3904 29.5403 37.0393 29.4887 35.3418 29.4469C34.0387 29.4148 33.1599 29.4607 32.5888 29.5904ZM33.6476 33.7807C32.6285 33.9809 31.3432 34.6742 30.4994 35.4791C28.1788 37.6925 27.7689 41.1435 29.5072 43.8329C30.1906 44.8904 30.9962 45.5797 32.2656 46.1936C33.2772 46.6828 33.3141 46.6895 35.0071 46.6895H36.7232L37.8098 46.1539C40.1651 44.993 41.5655 42.7705 41.5609 40.2008C41.5535 36.0938 37.7173 32.9815 33.6476 33.7807ZM33.1543 36.346C31.5742 37.0947 30.7102 38.4569 30.702 40.2127C30.6975 41.1389 30.7501 41.3596 31.1737 42.1899C32.4696 44.7304 35.6424 45.3343 37.9034 43.4707C38.1899 43.2344 38.5983 42.6653 38.8544 42.1452C39.9476 39.9246 39.0737 37.4017 36.8457 36.346C36.1711 36.0263 35.8433 35.9573 35 35.9573C34.1567 35.9573 33.8289 36.0263 33.1543 36.346Z" fill="#FFB703"/>
</svg>
