<svg width="21" height="21" viewBox="0 0 21 21" fill="none" xmlns="http://www.w3.org/2000/svg">
<path fill-rule="evenodd" clip-rule="evenodd" d="M9.90951 0.0672588C9.45703 0.164261 9.16746 0.322007 8.26634 0.962384C7.80057 1.29338 7.35342 1.60904 7.27266 1.66383L7.12586 1.76346L5.39865 1.76412C3.68285 1.76481 3.67042 1.76543 3.50824 1.85726C3.41674 1.90911 3.30444 2.02141 3.25259 2.11291C3.16277 2.27148 3.1601 2.30909 3.15945 3.4291L3.15879 4.58205L1.63096 5.66343C0.79063 6.25816 0.080649 6.77294 0.0531685 6.80736C-0.0245561 6.90465 -0.0180346 20.0556 0.0598131 20.2739C0.15218 20.5328 0.320385 20.736 0.545766 20.8609L0.759376 20.9793H10.5006H20.2418L20.4578 20.8596C20.685 20.7337 20.9042 20.4607 20.9471 20.2504C20.9598 20.1879 20.9862 20.1268 21.0059 20.1147C21.0259 20.1023 21.0416 17.1765 21.0416 13.4481C21.0416 9.31891 21.027 6.81257 21.0031 6.82733C20.9819 6.84042 20.9496 6.82667 20.9313 6.79677C20.913 6.76691 20.2105 6.25578 19.3702 5.66097L17.8424 4.57947L17.8417 3.42783C17.8411 2.30917 17.8384 2.27148 17.7486 2.11291C17.6967 2.02141 17.5844 1.90911 17.4929 1.85726C17.3308 1.76543 17.3184 1.76481 15.6012 1.76412L13.8728 1.76346L13.1198 1.23067C11.9447 0.399198 11.7926 0.300515 11.5384 0.204825C10.9907 -0.00131926 10.4446 -0.0474619 9.90951 0.0672588ZM10.1725 0.725355C9.98018 0.757511 9.57806 0.904552 9.43311 0.99573C9.2017 1.14125 8.45214 1.68553 8.42692 1.72626C8.4133 1.74833 9.26716 1.76346 10.5255 1.76346C11.6924 1.76346 12.6394 1.75694 12.63 1.74902C12.4086 1.56183 11.5087 0.953853 11.3474 0.882526C10.9968 0.727487 10.5318 0.665267 10.1725 0.725355ZM3.85606 5.95883V9.45697L6.30149 11.4857C7.64647 12.6015 8.86 13.6121 8.99827 13.7315C9.50653 14.1705 9.91205 14.3328 10.5006 14.3328C11.1262 14.3329 11.4696 14.1823 12.1507 13.6091C12.293 13.4893 13.475 12.5071 14.7772 11.4264L17.1451 9.46144V5.96108V2.46073H10.5006H3.85606V5.95883ZM10.5826 3.83979C9.39378 3.96333 8.55723 4.33723 7.69606 5.12998C7.09026 5.68767 6.56181 6.53222 6.35075 7.28006C6.27491 7.54875 6.25797 7.7122 6.25736 8.18241C6.25641 8.87278 6.3174 9.1473 6.60365 9.741C7.12172 10.8154 7.99794 11.4413 9.38086 11.7248C11.3575 12.13 13.0919 11.7846 14.2334 10.7582C14.6716 10.3643 14.7901 10.079 14.5919 9.89538C14.5038 9.81368 14.4165 9.78743 14.2676 9.79781C14.2302 9.80039 14.0536 9.94735 13.8752 10.1243C13.2042 10.79 12.3529 11.1292 11.2184 11.1831C10.442 11.22 9.59467 11.1066 8.85996 10.8676C7.7751 10.5146 7.00503 9.49162 6.94273 8.32075C6.91598 7.81757 7.0006 7.41205 7.23689 6.91092C7.75824 5.80522 8.82768 4.91969 9.98789 4.63308C10.4423 4.52082 11.1473 4.51007 11.6042 4.60843C12.5896 4.8206 13.4052 5.62143 13.6359 6.6033C13.7167 6.94693 13.7177 7.62279 13.6379 7.93795C13.4921 8.51393 13.0865 9.09796 12.7154 9.26596C12.4601 9.38162 12.0502 9.38338 11.9361 9.26932C11.834 9.16719 11.8336 9.18101 11.9543 8.70252C12.0758 8.22096 12.5104 6.07367 12.5104 5.95464C12.5104 5.90788 12.4666 5.81872 12.4131 5.75658C12.3391 5.67049 12.2791 5.64354 12.1617 5.64354C11.9641 5.64354 11.8292 5.79128 11.7904 6.04992L11.7624 6.23638L11.5676 6.05415C10.5948 5.14417 9.15158 5.63226 8.42774 7.116C8.20859 7.56516 8.12307 7.91133 8.1223 8.35242C8.12053 9.31251 8.69401 9.98406 9.59246 10.074C10.0294 10.1177 10.6437 9.92651 11.0374 9.62427L11.2138 9.48888L11.3394 9.65593C11.4126 9.75334 11.559 9.87131 11.6903 9.93882C11.9012 10.0472 11.9418 10.0537 12.3258 10.0403C12.682 10.0278 12.7717 10.0092 13.0076 9.89833C13.3327 9.74555 13.5625 9.54601 13.8055 9.2055C14.0446 8.87048 14.2134 8.50126 14.3197 8.08073C14.3951 7.78258 14.404 7.65777 14.3857 7.15931C14.3634 6.55228 14.2982 6.24794 14.096 5.80621C13.7569 5.06567 13.0494 4.39149 12.2938 4.089C11.8772 3.92223 11.0079 3.79562 10.5826 3.83979ZM2.04362 6.22399C1.44159 6.64694 0.952477 7.00624 0.956702 7.02248C0.960967 7.03873 1.45357 7.45926 2.05137 7.95707L3.13828 8.86216L3.14936 7.99656C3.15547 7.52049 3.15547 6.75391 3.14936 6.29302L3.13828 5.45507L2.04362 6.22399ZM17.8424 7.1573C17.8424 8.79666 17.8453 8.86171 17.9166 8.81023C18.1185 8.6645 20.0569 7.04 20.0549 7.01814C20.053 6.99603 18.0479 5.5684 17.8997 5.48358C17.851 5.45573 17.8424 5.70769 17.8424 7.1573ZM10.1404 6.33322C9.62732 6.50015 9.08132 7.1573 8.87981 7.85042C8.78306 8.18335 8.80865 8.65002 8.9383 8.91507C9.12558 9.29807 9.55817 9.45992 10.0545 9.33273C10.3983 9.24467 10.6618 9.06892 10.9379 8.74338C11.3026 8.31357 11.3528 8.216 11.45 7.74776L11.5401 7.31423L11.4161 7.0491C11.1931 6.57271 10.9018 6.33039 10.5081 6.29384C10.4024 6.28408 10.237 6.30176 10.1404 6.33322ZM0.0206021 13.4939C0.0206021 17.1597 0.025442 18.6593 0.0313482 16.8264C0.0372545 14.9935 0.0372545 11.9943 0.0313482 10.1614C0.025442 8.3285 0.0206021 9.82816 0.0206021 13.4939ZM0.697852 13.8207C0.697852 19.5309 0.702077 19.899 0.767333 19.8461C1.72853 19.0673 7.97813 13.8496 7.97813 13.8259C7.97813 13.8075 6.37236 12.4585 4.40977 10.8282C2.44717 9.19799 0.809087 7.83599 0.769629 7.80158C0.701297 7.74206 0.697852 8.03213 0.697852 13.8207ZM16.6447 10.7814C14.6437 12.4425 13.0103 13.8141 13.0148 13.8295C13.0194 13.8448 14.6565 15.2144 16.6529 16.8729L20.2828 19.8883L20.2933 16.8552C20.2991 15.187 20.2991 12.4584 20.2933 10.7917L20.2828 7.76134L16.6447 10.7814ZM4.94752 17.2833L1.3427 20.282L5.92164 20.2924C8.44004 20.2982 12.5619 20.2982 15.0814 20.2924L19.6622 20.282L16.2811 17.475C14.4215 15.9312 12.7981 14.581 12.6736 14.4747L12.4473 14.2815L12.202 14.4681C11.6022 14.9241 10.8024 15.1302 10.0893 15.0124C9.57491 14.9274 9.18029 14.7499 8.67769 14.3774L8.55234 14.2846L4.94752 17.2833Z" fill="white"/>
</svg>
