<svg width="70" height="70" viewBox="0 0 70 70" fill="none" xmlns="http://www.w3.org/2000/svg">
<g clip-path="url(#clip0_392_16117)">
<path fill-rule="evenodd" clip-rule="evenodd" d="M33.0304 0.224684C31.5221 0.548024 30.5569 1.07384 27.5532 3.20843C26.0006 4.31175 24.5101 5.36394 24.2409 5.5466L23.7516 5.87869L17.9942 5.88088C12.2749 5.8832 12.2334 5.88525 11.6928 6.19136C11.3878 6.36418 11.0135 6.73851 10.8407 7.04353C10.5413 7.57209 10.5324 7.69746 10.5302 11.4308L10.528 15.274L5.43522 18.8786C2.63413 20.861 0.267528 22.577 0.175926 22.6917C-0.0831556 23.016 -0.0614173 66.8527 0.198075 67.5801C0.505965 68.4431 1.06665 69.1205 1.81792 69.5369L2.52995 69.9314H35.0007H67.4714L68.1915 69.5325C68.9487 69.1129 69.6795 68.2029 69.8222 67.5018C69.8646 67.2934 69.9528 67.0899 70.0183 67.0494C70.0851 67.0081 70.1374 57.2555 70.1374 44.8274C70.1374 31.0635 70.0888 22.709 70.009 22.7583C69.9384 22.8019 69.8308 22.7561 69.7697 22.6564C69.7088 22.5569 67.3672 20.8531 64.5661 18.8704L59.4733 15.2654L59.4711 11.4266C59.4689 7.69773 59.46 7.57209 59.1606 7.04353C58.9878 6.73851 58.6135 6.36418 58.3085 6.19136C57.7679 5.88525 57.7266 5.8832 52.0029 5.88088L46.2414 5.87869L43.7314 4.10271C39.8144 1.33115 39.3074 1.0022 38.4602 0.683239C36.6343 -0.00390927 34.8139 -0.157718 33.0304 0.224684ZM33.9069 2.41834C33.266 2.52552 31.9256 3.01566 31.4424 3.31959C30.671 3.80466 28.1725 5.61892 28.0884 5.75468C28.043 5.82824 30.8892 5.87869 35.0838 5.87869C38.9733 5.87869 42.13 5.85695 42.0987 5.83056C41.3607 5.20658 38.3609 3.18 37.8235 2.94224C36.6547 2.42545 35.1048 2.21804 33.9069 2.41834ZM12.8522 19.8632V31.5237L21.0037 38.2861C25.4869 42.0055 29.532 45.3743 29.9929 45.7721C31.6871 47.2354 33.0389 47.7764 35.0007 47.7766C37.0862 47.7767 38.2306 47.2747 40.5011 45.364C40.9754 44.9649 44.9152 41.6909 49.2562 38.0885L57.1491 31.5386V19.8708V8.20291H35.0007H12.8522V19.8632ZM35.2741 12.7998C31.3113 13.2116 28.5228 14.4579 25.6522 17.1004C23.6329 18.9594 21.8714 21.7746 21.1679 24.2674C20.9151 25.163 20.8586 25.7078 20.8566 27.2752C20.8534 29.5764 21.0567 30.4915 22.0109 32.4705C23.7378 36.052 26.6585 38.1383 31.2682 39.0833C37.8571 40.4339 43.6384 39.2824 47.4434 35.8612C48.904 34.5482 49.299 33.5972 48.6383 32.9851C48.3445 32.7128 48.0537 32.6252 47.5573 32.6598C47.4328 32.6685 46.8442 33.1583 46.2493 33.7483C44.0126 35.9672 41.1751 37.0979 37.3932 37.2775C34.8054 37.4004 31.9809 37.0225 29.5319 36.2257C25.9157 35.0493 23.3488 31.6392 23.1411 27.7363C23.052 26.0591 23.334 24.7073 24.1217 23.0369C25.8595 19.3512 29.4243 16.3995 33.2917 15.4441C34.8065 15.0699 37.1563 15.0341 38.6792 15.3619C41.964 16.0692 44.6828 18.7386 45.4518 22.0115C45.721 23.1569 45.7243 25.4098 45.4584 26.4603C44.9725 28.3803 43.6202 30.327 42.3835 30.887C41.5323 31.2726 40.166 31.2784 39.7858 30.8982C39.4454 30.5578 39.4439 30.6039 39.8464 29.0089C40.2515 27.4037 41.6999 20.2461 41.6999 19.8493C41.6999 19.6934 41.554 19.3962 41.3759 19.1891C41.1289 18.9021 40.9292 18.8123 40.5378 18.8123C39.8792 18.8123 39.4292 19.3047 39.3 20.1669L39.2068 20.7884L38.5574 20.181C35.3147 17.1477 30.504 18.7747 28.0912 23.7205C27.3607 25.2177 27.0756 26.3716 27.073 27.8419C27.0671 31.0422 28.9787 33.2807 31.9736 33.5804C33.4299 33.7261 35.4777 33.0889 36.7899 32.0814L37.3779 31.6301L37.7967 32.1869C38.0407 32.5116 38.5287 32.9048 38.9665 33.1299C39.6695 33.4912 39.8048 33.5128 41.0846 33.4681C42.272 33.4266 42.5709 33.3644 43.3573 32.9949C44.4411 32.4857 45.2071 31.8205 46.017 30.6855C46.814 29.5688 47.3766 28.338 47.7311 26.9362C47.9824 25.9424 48.0122 25.5264 47.9511 23.8649C47.8765 21.8414 47.6593 20.827 46.9853 19.3545C45.8552 16.8861 43.4968 14.6388 40.9781 13.6305C39.5895 13.0746 36.6916 12.6526 35.2741 12.7998ZM6.81075 20.7471C4.80399 22.157 3.17362 23.3546 3.1877 23.4088C3.20192 23.4629 4.84391 24.8647 6.83659 26.524L10.4596 29.541L10.4966 26.6557C10.5169 25.0688 10.5169 22.5135 10.4966 20.9772L10.4596 18.1841L6.81075 20.7471ZM59.4733 23.8582C59.4733 29.3227 59.483 29.5395 59.7208 29.3679C60.3937 28.8822 66.8552 23.4671 66.8485 23.3943C66.8419 23.3206 60.1583 18.5618 59.6644 18.2791C59.502 18.1862 59.4733 19.0261 59.4733 23.8582ZM33.8 21.1112C32.0898 21.6677 30.2698 23.8582 29.5981 26.1686C29.2756 27.2783 29.3609 28.8339 29.793 29.7174C30.4173 30.9941 31.8593 31.5336 33.5138 31.1096C34.6597 30.8161 35.538 30.2302 36.4585 29.1451C37.6739 27.7124 37.8413 27.3871 38.1654 25.8264L38.4657 24.3812L38.0522 23.4975C37.309 21.9095 36.3379 21.1018 35.0255 20.98C34.6735 20.9474 34.122 21.0063 33.8 21.1112ZM0.0673717 44.9803C0.0673717 57.1995 0.0835045 62.1982 0.103192 56.0886C0.12288 49.979 0.12288 39.9814 0.103192 33.8719C0.0835045 27.7622 0.0673717 32.761 0.0673717 44.9803ZM2.32487 46.0695C2.32487 65.1036 2.33895 66.3304 2.55647 66.1542C5.76048 63.5583 26.5924 46.1659 26.5924 46.0869C26.5924 46.0253 21.2399 41.5288 14.6979 36.0946C8.15593 30.6605 2.69565 26.1204 2.56413 26.0057C2.33636 25.8074 2.32487 26.7742 2.32487 46.0695ZM55.4811 35.9386C48.8112 41.4755 43.3663 46.0475 43.3815 46.0987C43.3965 46.1499 48.8537 50.7151 55.5085 56.2434L67.6081 66.295L67.6431 56.1845C67.6624 50.6237 67.6624 41.5285 67.6431 35.9728L67.6081 25.8716L55.4811 35.9386ZM16.4904 57.6114L4.47436 67.6072L19.7375 67.6419C28.1322 67.6611 41.8719 67.6611 50.2701 67.6419L65.5395 67.6072L54.2691 58.2505C48.0704 53.1044 42.6591 48.604 42.2441 48.2496L41.4896 47.6055L40.6719 48.2273C38.6728 49.7475 36.0066 50.4345 33.6298 50.0417C31.915 49.7584 30.5997 49.1669 28.9243 47.9253L28.5065 47.6158L16.4904 57.6114Z" fill="#FFB703"/>
</g>
<defs>
<clipPath id="clip0_392_16117">
<rect width="70" height="70" fill="white"/>
</clipPath>
</defs>
</svg>
