<svg width="71px" height="71px" viewBox="0 0 71 71" fill="none" xmlns="http://www.w3.org/2000/svg" transform="rotate(0) scale(1, 1)">
<g clip-path="url(#clip0_474_31)">
<path d="M68.901 32.5371C68.096 32.5371 67.4427 33.1997 67.4427 34.0161V47.3275H46.1715L29.526 30.4457V2.95619H36.8177C37.6227 2.95619 38.276 2.29358 38.276 1.47715C38.276 0.660715 37.6227 -0.00189633 36.8177 -0.00189633H13.4844C6.24813 -0.00189633 0.359375 5.97048 0.359375 13.3095V57.6808C0.359375 65.0198 6.24813 70.9922 13.4844 70.9922H57.2344C64.4706 70.9922 70.3594 65.0198 70.3594 57.6808V34.0161C70.3594 33.1997 69.706 32.5371 68.901 32.5371ZM13.4844 2.95619H26.6094V30.144L3.27604 41.9763V13.3095C3.27604 7.60039 7.85521 2.95619 13.4844 2.95619ZM3.27604 57.6808V45.2835L27.779 32.8565L43.6748 48.9781L30.6694 68.0311H13.4844C7.85521 68.0311 3.27604 63.3899 3.27604 57.6808ZM57.2344 68.0341H34.216L46.3319 50.2856H67.4427V57.6808C67.4427 63.3899 62.8635 68.0341 57.2344 68.0341ZM54.3177 22.1838C57.5348 22.1838 60.151 19.5304 60.151 16.2676C60.151 13.0048 57.5348 10.3514 54.3177 10.3514C51.1006 10.3514 48.4844 13.0048 48.4844 16.2676C48.4844 19.5304 51.1006 22.1838 54.3177 22.1838ZM54.3177 13.3095C55.9277 13.3095 57.2344 14.6347 57.2344 16.2676C57.2344 17.9004 55.9277 19.2257 54.3177 19.2257C52.7077 19.2257 51.401 17.9004 51.401 16.2676C51.401 14.6347 52.7077 13.3095 54.3177 13.3095ZM43.0185 27.7065L48.7702 33.0666C50.2606 34.5397 52.2323 35.3502 54.3177 35.3502C56.4031 35.3502 58.3777 34.5397 59.839 33.0932L65.6577 27.6621C68.691 24.6005 70.3594 20.5302 70.3594 16.1995C70.3594 11.8689 68.691 7.79858 65.6577 4.73696C62.6302 1.6783 58.6023 -0.0078125 54.3177 -0.0078125C50.0331 -0.0078125 46.0052 1.67534 42.9748 4.73696C39.9444 7.79858 38.276 11.8689 38.276 16.1995C38.276 20.5302 39.9444 24.6035 43.0185 27.7065ZM45.031 6.8372C47.5131 4.3317 50.809 2.95619 54.3177 2.95619C57.8265 2.95619 61.1223 4.33466 63.6015 6.8372C66.0806 9.33974 67.4427 12.6646 67.4427 16.2025C67.4427 19.7404 66.0777 23.0653 63.6394 25.5264L57.8323 30.9456C55.9481 32.8122 52.7194 32.8417 50.771 30.916L45.031 25.5648C42.5548 23.0623 41.1927 19.7374 41.1927 16.1995C41.1927 12.6617 42.5577 9.33974 45.031 6.8372Z" fill="#ef151b"/>
</g>
<defs>
<clipPath id="clip0_474_31">
<rect width="70" height="71" fill="#ffffff" transform="translate(0.359375)"/>
</clipPath>
</defs>
</svg>