<?xml version="1.0" encoding="UTF-8"?>
<!DOCTYPE svg PUBLIC "-//W3C//DTD SVG 1.0//EN" "http://www.w3.org/TR/2001/REC-SVG-20010904/DTD/svg10.dtd">
<!-- Creator: CorelDRAW 2021 (64-Bit) -->
<svg xmlns="http://www.w3.org/2000/svg" xml:space="preserve" width="224px" height="224px" version="1.0" shape-rendering="geometricPrecision" text-rendering="geometricPrecision" image-rendering="optimizeQuality" fill-rule="evenodd" clip-rule="evenodd"
viewBox="0 0 224 224"
 xmlns:xlink="http://www.w3.org/1999/xlink"
 xmlns:xodm="http://www.corel.com/coreldraw/odm/2003">
 <g id="Layer_x0020_1">
  <metadata id="CorelCorpID_0Corel-Layer"/>
  <path fill="#DF1219" d="M134.82 12.89c-3.95,1.39 -5.89,2.88 -10.21,7.88 -1.51,1.75 -3.11,3.13 -4.29,3.72 -1.76,0.88 -2.32,0.94 -8.89,0.95l-7.02 0.01 -2.54 1.22c-4.8,2.32 -8.65,6.9 -9.95,11.85 -0.49,1.89 -0.56,3.43 -0.36,7.58 0.4,8 0.25,8.31 -7.66,15.85 -3.48,3.32 -5.43,7.93 -5.43,12.85l0 2.25 -3.21 -0.19c-4.24,-0.25 -8.15,0.6 -12.38,2.7 -6.17,3.07 -11.32,9.52 -13.09,16.39 -0.82,3.19 -0.81,9.23 0.01,12.45 1.83,7.13 6.75,13.24 13.37,16.62 3.76,1.92 6.94,2.53 12.18,2.33 3.81,-0.15 4.93,-0.35 7.42,-1.35 3.8,-1.52 7.2,-3.89 9.8,-6.82l2.07 -2.35 2.41 2.29c4.33,4.11 9,5.57 15.17,4.74 6.02,-0.82 9.15,0.51 13.34,5.65 4.36,5.36 8.52,7.5 14.53,7.5 6.01,0 10.17,-2.14 14.53,-7.5 4.19,-5.14 7.31,-6.47 13.34,-5.65 6.17,0.83 10.84,-0.63 15.17,-4.75 4.62,-4.39 5.87,-8.11 5.48,-16.3l-0.27 -5.42 1.18 -2.55c0.97,-2.11 1.72,-3.01 4.29,-5.17 3.44,-2.89 4.58,-4.24 6.03,-7.18 3.42,-6.9 1.97,-15.27 -3.57,-20.54 -7.91,-7.54 -8.06,-7.85 -7.66,-15.85 0.21,-4.15 0.13,-5.69 -0.36,-7.58 -1.29,-4.95 -5.14,-9.53 -9.95,-11.85l-2.53 -1.22 -7.02 -0.01c-6.87,-0.01 -7.06,-0.03 -9.03,-1.08 -1.24,-0.65 -2.9,-2.1 -4.29,-3.73 -4.28,-5 -5.98,-6.32 -9.84,-7.65 -3.01,-1.03 -7.98,-1.07 -10.77,-0.09zm2.43 5.24c-3.25,0.83 -5.45,2.57 -8.64,6.85 -1.61,2.15 -4.94,4.44 -7.94,5.46 -2.33,0.79 -3.05,0.84 -7.88,0.61 -6.08,-0.3 -8.09,0.1 -10.83,2.15 -3.43,2.56 -4.96,6 -4.74,10.65 0.08,1.64 0.13,4.41 0.1,6.16 -0.08,5.6 -2.17,9.57 -7.43,14.07 -4.06,3.49 -5.24,5.47 -5.48,9.27 -0.3,4.79 -0.06,5.43 2.71,7.17 5.06,3.17 9.12,8.55 10.92,14.44 0.73,2.41 0.9,3.8 0.86,7.33 -0.02,2.54 -0.28,5.23 -0.63,6.45 -0.57,2.06 -0.56,2.11 0.47,3.77 1.21,1.94 2.94,3.51 5.23,4.76 1.48,0.8 2.06,0.86 7.65,0.77 8.7,-0.14 12.04,1.01 16.25,5.61 1.21,1.32 2.89,3.16 3.73,4.07 2.39,2.61 4.54,3.49 8.49,3.49 3.95,0 6.09,-0.88 8.48,-3.49 0.85,-0.91 2.53,-2.75 3.74,-4.07 4.21,-4.61 7.58,-5.77 16.27,-5.62 5.21,0.09 6.21,0.01 7.47,-0.63 3.71,-1.87 6.75,-6.04 6.99,-9.56 0.06,-0.87 -0.03,-3.28 -0.19,-5.35 -0.59,-7.57 0.89,-11.12 7.11,-16.99 5.35,-5.05 6.06,-6.46 5.82,-11.57 -0.21,-4.37 -1.22,-6.18 -5.5,-9.85 -5.27,-4.51 -7.36,-8.49 -7.42,-14.07 -0.01,-1.75 0.03,-4.69 0.1,-6.54 0.1,-2.87 -0.01,-3.66 -0.8,-5.35 -1.15,-2.5 -3.75,-5.16 -6.12,-6.27 -1.68,-0.78 -2.35,-0.85 -8.07,-0.74 -5.47,0.1 -6.53,0.01 -8.58,-0.7 -3.21,-1.12 -6.1,-3.23 -8.36,-6.11 -2.62,-3.34 -3.82,-4.42 -5.93,-5.37 -2.14,-0.96 -5.77,-1.33 -7.85,-0.8zm-1.1 15.87c-8.7,0.74 -17.99,5.19 -24.36,11.66 -19.66,19.97 -14.12,53.39 10.91,65.76 1.98,0.97 5.34,2.24 7.47,2.82 3.39,0.91 4.63,1.04 9.92,1.04 5.28,0 6.53,-0.13 9.91,-1.04 15.72,-4.23 27.29,-17.27 29.88,-33.65 0.65,-4.1 0.28,-11.82 -0.75,-15.8 -4.53,-17.56 -19.26,-29.9 -36.9,-30.92 -1.5,-0.09 -4.24,-0.03 -6.08,0.13zm-1.65 5.9c-13.88,2.56 -24.7,12.77 -28.03,26.46 -1.18,4.84 -1.16,12.03 0.05,16.69 0.96,3.72 2.58,7.58 4.38,10.42l1.2 1.9 1.14 -2.45c2.98,-6.39 8.03,-11.51 14.34,-14.55l2.33 -1.12 -1.18 -1.14c-0.64,-0.63 -1.8,-2.44 -2.57,-4.02 -6.04,-12.4 5.77,-26.17 18.74,-21.85 9.01,3 13.29,13.27 9.12,21.85 -0.77,1.58 -1.93,3.39 -2.58,4.02l-1.18 1.14 2.33 1.12c6.32,3.04 11.37,8.16 14.34,14.55l1.15 2.45 1.19 -1.9c5.83,-9.22 6.97,-21.46 2.96,-31.84 -2.95,-7.66 -9.36,-14.71 -16.82,-18.51 -4.35,-2.21 -8.7,-3.27 -14.15,-3.43 -2.68,-0.08 -5.73,0.02 -6.76,0.21zm3.58 15.32c-0.56,0.1 -1.96,0.75 -3.11,1.45 -2.37,1.43 -4.37,4.35 -4.78,7 -1.04,6.57 4.99,12.69 11.46,11.64 5.31,-0.86 9.39,-6.78 8.24,-11.96 -1.21,-5.48 -6.42,-9.07 -11.81,-8.13zm-0.33 26.11c-6.64,1.13 -10.73,3.1 -14.59,7.04 -2.88,2.93 -5.21,6.82 -6.07,10.11 -0.42,1.59 -0.38,1.8 0.45,2.71 2.76,3 10.01,6.66 15.56,7.84 3.53,0.76 10.45,0.76 13.98,0 5.55,-1.18 12.79,-4.84 15.55,-7.84 0.84,-0.91 0.87,-1.12 0.45,-2.71 -1.52,-5.81 -6.55,-11.84 -12.11,-14.52 -1.8,-0.87 -4.07,-1.77 -5.03,-1.99 -2.11,-0.5 -6.83,-0.87 -8.19,-0.64zm-66.3 1.37c-6.26,0.82 -12.1,5.11 -14.79,10.88 -3.69,7.88 -2.12,16.71 4.03,22.7 6.19,6.04 14.64,7.28 22.37,3.28 4.55,-2.35 7.99,-6.55 9.5,-11.59 0.67,-2.23 0.79,-3.5 0.67,-6.83 -0.14,-3.87 -0.24,-4.27 -1.79,-7.46 -3.8,-7.79 -11.61,-12.09 -19.99,-10.98zm5.01 15.71c-3.39,3.41 -6.22,6.13 -6.29,6.04 -0.07,-0.1 -0.89,-1.51 -1.83,-3.15 -1.89,-3.29 -2.51,-3.93 -3.82,-3.95 -1.13,-0.01 -2.81,1.66 -2.81,2.8 0,0.92 4.66,9.45 5.98,10.96 0.49,0.56 1.23,0.89 1.98,0.89 1.05,0 2.23,-1.04 8.91,-7.83 6.76,-6.88 7.69,-7.98 7.69,-9.08 0,-1.4 -1.47,-2.9 -2.85,-2.9 -0.51,0 -3.04,2.26 -6.96,6.22zm-0.91 30.45c-3.82,0.94 -5.93,1.69 -8.78,3.15 -6.19,3.15 -13.6,9.4 -20.81,17.55l-4.21 4.75 -2.83 -0.21c-4.63,-0.36 -4.95,-0.16 -13.19,8.14 -6.29,6.34 -7.31,7.53 -7.31,8.57 0,1.06 2.33,3.56 19.6,21.1 16.96,17.23 19.75,19.91 20.74,19.91 0.96,0 2.26,-1.13 8.1,-7.03 8.04,-8.12 8.66,-9.08 8.43,-13.15l-0.15 -2.71 2.15 -0.7c7.04,-2.28 16.87,-2.69 33.44,-1.4 22.01,1.71 30.64,0.86 42.23,-4.17 12.1,-5.25 38.97,-21.64 47.25,-28.82 2.33,-2.03 3.26,-3.16 4.23,-5.17 1.11,-2.28 1.23,-2.87 1.09,-5.16 -0.21,-3.39 -1.59,-5.51 -4.61,-7.08 -1.9,-0.99 -2.48,-1.1 -5.13,-0.99 -2.82,0.12 -3.26,0.27 -7.61,2.62 -10.14,5.49 -23.63,11.94 -34.15,16.34l-4.58 1.92 0 -1.89c0,-2.75 -1.01,-5.33 -2.95,-7.52 -2.67,-3.01 -4.38,-3.57 -12.24,-4 -11.97,-0.66 -19.02,-2.39 -33.13,-8.12 -12.24,-4.96 -15.1,-5.8 -20.51,-5.97 -2.36,-0.08 -4.64,-0.06 -5.07,0.04zm1.36 5.71c-4.05,0.52 -8.2,2.39 -13.25,5.96 -3.04,2.15 -17.55,16.63 -17.55,17.51 0,0.27 5.72,6.31 12.71,13.41l12.71 12.92 2.79 -1.1c8.13,-3.2 17.8,-3.75 36.75,-2.1 10.56,0.92 23.16,0.93 27.6,0.02 7.59,-1.55 13.49,-3.98 24.35,-10.02 16.1,-8.95 32.78,-20.04 35.58,-23.65 1.98,-2.57 1.79,-5.29 -0.45,-6.23 -1.64,-0.69 -3.63,-0.23 -6.98,1.61 -14.15,7.81 -35.69,17.56 -47.38,21.45 -6.76,2.25 -9.52,2.71 -16.31,2.7 -9.4,-0.01 -19.43,-1.76 -25.11,-4.36 -1.89,-0.87 -2.48,-1.35 -2.68,-2.19 -0.65,-2.62 1.4,-4.41 3.85,-3.38 6.34,2.65 14.5,4.09 23.48,4.15 9.61,0.06 13.58,-0.99 15.92,-4.2 0.96,-1.32 1.01,-4.27 0.09,-5.69 -1.3,-2.01 -2.54,-2.4 -8.4,-2.67 -12.8,-0.6 -21.06,-2.65 -37.07,-9.21 -10.94,-4.49 -15.56,-5.59 -20.65,-4.93zm-46.28 30.6l-5.6 5.63 16.88 17.15 16.87 17.15 5.56 -5.68c4.97,-5.08 5.56,-5.82 5.56,-7.03 0,-1.26 -1.14,-2.52 -15.51,-17.11 -14.35,-14.57 -15.61,-15.75 -16.84,-15.75 -1.18,0 -1.92,0.6 -6.92,5.64z"/>
 </g>
</svg>
