<svg width="40" height="40" viewBox="0 0 40 40" fill="none" xmlns="http://www.w3.org/2000/svg">
<g clip-path="url(#clip0_357_16070)">
<path fill-rule="evenodd" clip-rule="evenodd" d="M15.6958 0.181875C15.4698 0.30125 15.2711 0.493594 15.1172 0.742109L14.8828 1.12055V4.64844V8.17633L15.1172 8.55477C15.2711 8.80328 15.4698 8.99562 15.6958 9.115C16.0211 9.2868 16.1218 9.29688 17.5123 9.29688H18.9844V11.5127V13.7284L18.4832 13.7798C17.8075 13.849 16.9189 14.0831 16.1309 14.3995L15.4796 14.661L14.1782 13.3579L12.8767 12.0547L12.8852 9.875C12.8973 6.75547 13.0519 6.91406 9.99999 6.91406C7.64593 6.91406 7.55843 6.93414 7.26397 7.5425C7.12257 7.83453 7.10936 8.02836 7.10952 9.80984C7.1096 11.9888 7.13999 12.1394 7.64827 12.4789C7.90702 12.6518 7.96429 12.6562 9.91897 12.6562H11.9242L13.2066 13.9535L14.4889 15.2509L14.178 15.4948C12.9808 16.4346 12.0573 17.5772 11.4207 18.9062C11.1841 19.4004 10.9844 19.8134 10.9772 19.824C10.9699 19.8346 10.3893 19.6325 9.68686 19.3748C8.98452 19.1171 8.40452 18.9062 8.39812 18.9062C8.39171 18.9062 8.40132 18.805 8.41944 18.6813C8.48726 18.2193 8.28577 17.3166 7.97265 16.6797C6.94413 14.5876 4.51132 13.789 2.40522 14.8521C1.44046 15.3391 0.559209 16.4584 0.318662 17.5022C0.175927 18.1216 0.219131 19.123 0.413037 19.692C0.905146 21.1355 1.9064 22.0638 3.37069 22.4341C5.12507 22.8777 6.98163 22.0509 7.90593 20.4143L8.13522 20.0083L8.96991 20.3089C10.6712 20.9215 10.718 20.9428 10.6615 21.0819C10.6326 21.1529 10.5901 21.672 10.5673 22.2354C10.5277 23.2066 10.5342 23.2686 10.6924 23.4268C10.9112 23.6455 11.2574 23.6416 11.4606 23.418C11.5944 23.2707 11.6281 23.0972 11.6685 22.3487C11.6951 21.8572 11.7436 21.4305 11.7763 21.4006C11.8091 21.3706 12.1787 21.4698 12.5976 21.6212L13.3594 21.8962V22.5887C13.3594 23.3683 13.4791 23.5938 13.8926 23.5938C14.271 23.5938 14.4529 23.3139 14.4544 22.7294C14.4595 20.8649 15.5979 19.0373 17.2666 18.2147C18.7744 17.4713 20.3662 17.4713 21.8741 18.2147C22.8034 18.6728 23.6709 19.5404 24.1291 20.4697C24.491 21.2039 24.6841 21.9784 24.6862 22.7043C24.6872 23.0679 24.7262 23.2312 24.8494 23.3879C25.167 23.7917 25.771 23.5603 25.7905 23.0273C25.8409 21.6557 25.4248 20.218 24.6751 19.1741C24.5266 18.9674 24.4543 18.7991 24.4975 18.7609C25.0069 18.3098 25.7159 17.8112 25.786 17.8545C25.9608 17.9626 26.628 19.0673 26.8711 19.6511C27.2458 20.5513 27.4263 21.3509 27.478 22.3402C27.5195 23.1348 27.5448 23.2551 27.7041 23.4144C28.2134 23.9236 28.7848 23.3161 28.6412 22.4181L28.5919 22.1094H31.1848H33.7777L34.6818 21.543L35.5859 20.9766L37.3437 20.9375C39.8856 20.881 39.8047 20.9633 39.8047 18.4375C39.8047 16.8666 39.7895 16.6574 39.6626 16.4702C39.3463 16.0045 39.2409 15.9788 37.5293 15.9514C35.7726 15.9233 35.4576 15.9729 35.1134 16.3319L34.8828 16.5724L34.8592 18.359L34.8356 20.1455L34.1357 20.5805L33.4357 21.0156H30.9555H28.4752L28.3018 20.3445C28.0964 19.5501 27.5901 18.456 27.0758 17.6953C26.8724 17.3945 26.7001 17.1263 26.6929 17.0994C26.6809 17.0546 28.4191 15.625 28.4856 15.625C28.5014 15.625 28.6689 15.743 28.8579 15.8873C30.4058 17.0688 32.608 16.9813 34.0331 15.6816C34.9482 14.847 35.3962 13.8495 35.398 12.6423C35.3993 11.8636 35.3148 11.4898 34.9842 10.8119C34.5209 9.86164 33.638 9.09437 32.5989 8.73906C31.8587 8.48594 30.7976 8.48594 30.0573 8.73906C29.1184 9.06016 28.27 9.7457 27.7827 10.577C27.1257 11.6982 27.0735 13.3084 27.6569 14.4541L27.7967 14.7284L26.8476 15.4824C26.0562 16.1111 25.8775 16.2213 25.7724 16.1455C25.7031 16.0955 25.4394 15.8857 25.1865 15.6792C23.9386 14.6605 22.1582 13.9211 20.6055 13.7766L20.0781 13.7276V11.5122V9.29688H21.5459C22.913 9.29688 23.0376 9.28484 23.3613 9.12109C23.5644 9.01836 23.8067 8.80453 23.9443 8.60664L24.1797 8.26805L24.2023 4.83742C24.2172 2.58344 24.1964 1.30086 24.1416 1.09766C24.0327 0.692969 23.7162 0.325234 23.3235 0.146875C23.0325 0.0146875 22.735 0.00328125 19.524 0.00171875L16.0402 0L15.6958 0.181875ZM16.1449 1.23664C16.0289 1.36477 16.0156 1.71719 16.0156 4.66203C16.0156 7.74281 16.0244 7.9525 16.1585 8.07383C16.2866 8.18977 16.6348 8.20312 19.523 8.20312C21.5944 8.20312 22.7986 8.17422 22.8958 8.12226C23.0416 8.04422 23.0469 7.92297 23.0469 4.64844C23.0469 1.37391 23.0416 1.25266 22.8958 1.17461C22.7986 1.12258 21.5901 1.09375 19.5094 1.09375C16.4744 1.09375 16.2662 1.10258 16.1449 1.23664ZM8.28124 9.80469V11.5625H10.0391H11.7969V9.80469V8.04688H10.0391H8.28124V9.80469ZM30.3212 9.84453C28.9034 10.3545 28.094 11.8901 28.4698 13.3569C29.1518 16.019 32.7805 16.4027 33.9923 13.9409C34.7874 12.3259 33.9237 10.3116 32.2156 9.7975C31.6943 9.64055 30.8284 9.66211 30.3212 9.84453ZM18.1828 14.9622C15.4822 15.4738 13.3364 17.2033 12.244 19.7489C12.0916 20.1041 12.06 20.2493 12.1299 20.2735C12.183 20.292 12.5233 20.4137 12.886 20.5441C13.2487 20.6745 13.5698 20.7812 13.5996 20.7812C13.6294 20.7812 13.7331 20.5855 13.8302 20.3464C14.5349 18.6102 16.2062 17.1947 18.1239 16.7097C19.0062 16.4866 20.6227 16.5289 21.4037 16.7955C22.0812 17.0268 22.7673 17.3759 23.2437 17.7317L23.6358 18.0247L24.2593 17.5355C24.6022 17.2665 24.8828 17.0019 24.8828 16.9474C24.8828 16.7805 23.829 16.0318 23.0683 15.6584C22.0301 15.1487 21.0558 14.9157 19.8047 14.878C19.118 14.8573 18.5927 14.8845 18.1828 14.9622ZM3.6996 15.5499C2.97085 15.6942 2.22202 16.2124 1.80632 16.8602C0.604131 18.7337 1.86811 21.2578 4.07444 21.3897C4.84155 21.4355 5.35046 21.3108 5.93366 20.9338C6.51632 20.5573 6.90554 20.0367 7.11929 19.3482C7.79272 17.1788 5.92897 15.1088 3.6996 15.5499ZM35.9375 18.4375V19.7656H37.3047H38.6719V18.4375V17.1094H37.3047H35.9375V18.4375ZM4.80116 24.723C4.67468 24.8495 4.6096 25.0024 4.61007 25.1723C4.61147 25.7359 4.77147 27.2388 4.85093 27.4347C4.94882 27.6763 5.04632 27.7199 6.24562 28.0601C7.32585 28.3664 7.67265 28.6018 8.00702 29.2556C8.21108 29.6547 8.24218 29.7989 8.24218 30.346V30.9766L7.67577 31.9811C7.36429 32.5337 7.10936 33.0683 7.10936 33.1692C7.10936 33.6332 9.75437 36.5502 10.5758 36.9922L10.8662 37.1484L11.273 36.9259C12.8741 36.0498 12.9556 36.0156 13.4448 36.0156C14.3433 36.0156 15.5145 36.6588 15.8534 37.3384C15.9299 37.4917 16.1072 38.0391 16.2474 38.5547C16.3876 39.0703 16.5534 39.5504 16.6159 39.6215C16.7918 39.8216 17.5655 39.9317 19.1016 39.9749C20.6493 40.0185 21.6505 39.9297 21.8723 39.7291C21.953 39.656 22.1218 39.2064 22.2636 38.687C22.6605 37.2329 22.8483 36.9979 24.0025 36.5112C25.286 35.9698 25.5765 35.9945 26.9615 36.7624C27.4606 37.0392 27.9407 37.2656 28.0283 37.2656C28.5439 37.2656 31.4444 34.4195 31.6752 33.6872C31.719 33.5483 31.616 33.2984 31.2244 32.5934C30.4316 31.1663 30.4015 30.8905 30.9026 29.6484C31.3926 28.4339 31.5868 28.2716 33.0526 27.8505C33.5866 27.6971 34.0857 27.5098 34.1618 27.4344C34.3169 27.2805 34.4516 26.3493 34.4525 25.4238C34.453 24.9466 34.4284 24.8477 34.2723 24.7011C34.0926 24.5323 34.0716 24.5312 30.8105 24.5312C26.9081 24.5312 27.2394 24.4382 27.1517 25.559C26.905 28.7128 24.8887 31.3361 21.9615 32.3119C17.2134 33.8945 12.313 30.6143 11.9134 25.5859C11.8698 25.0362 11.8223 24.8445 11.6964 24.707L11.5352 24.5312H8.26405H4.99288L4.80116 24.723ZM5.78905 26.0742C5.80374 26.7766 5.8196 26.7944 6.64194 27.027C7.04944 27.1423 7.53554 27.3159 7.72226 27.4128C8.49647 27.8145 9.1264 28.7355 9.34554 29.7865C9.52788 30.661 9.40405 31.1909 8.74366 32.3625C8.40929 32.9556 8.35772 33.0983 8.42468 33.2453C8.59186 33.6121 10.2516 35.3878 10.7605 35.7442C10.9111 35.8498 10.9694 35.833 11.4816 35.5377C12.8861 34.728 13.6313 34.6754 15.0517 35.2855C15.8303 35.6201 16.493 36.179 16.8129 36.7712C16.925 36.9787 17.1154 37.5059 17.2359 37.9428C17.4448 38.6998 17.4663 38.7394 17.6924 38.7854C18.1279 38.8739 19.8754 38.9291 20.4716 38.8731L21.0605 38.8179L21.2457 38.1468C21.7101 36.4637 22.292 35.8934 24.2177 35.234C24.8767 35.0084 25.024 34.985 25.5458 35.0228C26.0697 35.0608 26.2326 35.1166 27.0605 35.5419L27.9883 36.0184L28.3496 35.7253C28.8129 35.3495 29.8011 34.3616 30.1755 33.9L30.4658 33.5422L30.043 32.7772C29.8105 32.3564 29.5784 31.837 29.527 31.6229C29.3673 30.957 29.4653 30.2206 29.8354 29.3055C30.4832 27.7041 31.0111 27.2301 32.6367 26.7905L33.2812 26.6161V26.1596V25.7031H30.786H28.2908L28.2417 26.0742C28.0447 27.5645 27.5576 28.8786 26.7742 30.033C26.3829 30.6097 25.4148 31.63 24.8357 32.0761C22.7148 33.71 19.9051 34.2748 17.3047 33.59C13.921 32.699 11.3312 29.8041 10.8518 26.3766L10.7576 25.7031H8.26937H5.78124L5.78905 26.0742Z" fill="#FFB703"/>
</g>
<defs>
<clipPath id="clip0_357_16070">
<rect width="40" height="40" fill="white"/>
</clipPath>
</defs>
</svg>
