<svg width="58px" height="65px" viewBox="0 0 58 65" fill="none" xmlns="http://www.w3.org/2000/svg" transform="rotate(0) scale(1, 1)">
<path fill-rule="evenodd" clip-rule="evenodd" d="M12.8747 26.2883V14.8521H24.3109V0.500244L46.6304 10.1268V18.8484L56.1312 23.9759V62.683H57.9122V64.8949H53.9194V25.2829L46.6304 21.3619V64.8949H37.8082V14.1232L44.4186 17.6671V11.5846L26.5479 3.86828V14.8521H33.1332V64.8949H24.3109V17.0639H15.0866V26.2883H21.6718V64.8949H12.8747V28.5001H6.33977V64.8949H0.25V62.683H4.12794V26.2883H12.8747ZM30.9213 62.683V17.0639H26.5479V62.683H30.9213ZM19.46 62.683V28.5001H15.0866V62.683H19.46ZM44.4186 20.1806L40.02 17.8179V62.683H44.4186V20.1806Z" fill="#ef151b"/>
</svg>