<svg width="70" height="70" viewBox="0 0 70 70" fill="none" xmlns="http://www.w3.org/2000/svg">
<path d="M65.6375 48.1835C67.6182 46.2027 68.2804 43.4295 67.409 40.765C67.3509 40.5873 67.2482 40.4274 67.1107 40.3007C66.9733 40.1739 66.8056 40.0845 66.6237 40.0411C66.4419 39.9976 66.2519 40.0015 66.072 40.0523C65.892 40.1032 65.7281 40.1994 65.596 40.3316L61.6426 44.2851L59.7452 43.7765L59.2366 41.879L63.1901 37.9256C63.3223 37.7934 63.4185 37.6296 63.4693 37.4496C63.5201 37.2697 63.524 37.0798 63.4805 36.8979C63.4371 36.7161 63.3477 36.5484 63.221 36.4109C63.0943 36.2734 62.9344 36.1707 62.7567 36.1126C60.0925 35.2412 57.319 35.9033 55.3379 37.8842C54.2484 38.9737 53.5583 40.3833 53.3152 41.8677C49.776 38.5331 45.4198 36.1912 40.6862 35.0785C44.7521 33.1084 47.7829 29.2946 48.637 24.6524H48.8416C50.5157 24.6524 51.8777 23.2906 51.8777 21.6165C51.8777 20.1992 50.9017 19.0058 49.5865 18.6729C49.5867 18.6384 49.5869 18.6039 49.5869 18.5694C49.5869 12.1937 45.67 6.56482 39.764 4.32633C39.6768 3.80399 39.4534 3.31388 39.1164 2.90541C38.047 1.60125 35.9743 1.20176 34.4238 1.09621C34.3743 1.09293 34.3246 1.09293 34.2751 1.09621C32.7245 1.20176 30.6519 1.60139 29.5825 2.90541C29.2454 3.31386 29.022 3.80398 28.9348 4.32633C23.029 6.56482 19.112 12.1938 19.112 18.5694L19.1124 18.6729C17.7972 19.0058 16.8211 20.1992 16.8211 21.6165C16.8211 23.2904 18.1831 24.6524 19.8572 24.6524H20.0619C20.9155 29.2917 23.9431 33.1037 28.0051 35.0748C25.2529 35.7209 22.6168 36.7878 20.1899 38.2378L20.0938 37.988C20.0144 37.7817 19.8743 37.6043 19.6921 37.4792C19.5099 37.3541 19.2941 37.2872 19.073 37.2872H15.3157C15.0947 37.2872 14.8789 37.3541 14.6966 37.4792C14.5144 37.6043 14.3744 37.7817 14.295 37.988L13.6107 39.7657C12.6648 40.0365 11.7529 40.4145 10.8929 40.8926L9.1508 40.1187C8.94879 40.0291 8.72436 40.0027 8.50707 40.0431C8.28978 40.0835 8.0898 40.1887 7.93346 40.3449L5.27646 43.0019C5.12018 43.1582 5.01492 43.3582 4.97456 43.5755C4.93419 43.7928 4.96061 44.0172 5.05033 44.2192L5.82402 45.9611C5.34592 46.8212 4.9678 47.7332 4.69705 48.6793L2.91957 49.3634C2.7133 49.4428 2.53592 49.5828 2.41082 49.7651C2.28571 49.9473 2.21875 50.1631 2.21875 50.3841V54.1414C2.21875 54.3625 2.28571 54.5783 2.41082 54.7605C2.53592 54.9427 2.7133 55.0828 2.91957 55.1622L4.69678 55.8463C4.96754 56.7926 5.34566 57.7048 5.82375 58.5651L5.05033 60.3065C4.96063 60.5085 4.93423 60.733 4.97462 60.9503C5.01501 61.1676 5.1203 61.3676 5.2766 61.5238L7.93359 64.1807C8.08989 64.3369 8.28985 64.4422 8.50713 64.4825C8.72441 64.5229 8.94882 64.4965 9.1508 64.4068L10.8929 63.633C11.7529 64.111 12.6648 64.4891 13.6107 64.7598L14.295 66.5376C14.3744 66.7439 14.5144 66.9212 14.6966 67.0463C14.8789 67.1715 15.0947 67.2384 15.3157 67.2384H19.073C19.2941 67.2384 19.5099 67.1715 19.6921 67.0463C19.8743 66.9212 20.0144 66.7439 20.0938 66.5376L20.7779 64.7604C21.7241 64.4896 22.6363 64.1115 23.4966 63.6334L25.2381 64.4068C25.4401 64.4966 25.6646 64.523 25.8819 64.4826C26.0992 64.4422 26.2992 64.3369 26.4554 64.1806L29.1123 61.5236C29.2686 61.3673 29.3738 61.1673 29.4142 60.95C29.4545 60.7328 29.4281 60.5083 29.3384 60.3064L29.3116 60.2461H34.7424C34.5138 61.4359 34.583 62.6869 34.9772 63.8922C35.0353 64.07 35.138 64.2298 35.2755 64.3566C35.413 64.4833 35.5806 64.5727 35.7625 64.6162C35.9444 64.6596 36.1343 64.6558 36.3143 64.6049C36.4942 64.554 36.6581 64.4579 36.7903 64.3256L40.7436 60.3723L42.6412 60.8807L43.1497 62.7784L39.1964 66.7316C39.0642 66.8638 38.968 67.0277 38.9172 67.2076C38.8663 67.3875 38.8624 67.5775 38.9059 67.7593C38.9494 67.9411 39.0387 68.1088 39.1654 68.2463C39.2921 68.3838 39.4519 68.4865 39.6296 68.5446C40.3662 68.7863 41.1363 68.9097 41.9115 68.9102C43.8087 68.9102 45.6555 68.1658 47.048 66.7732C48.7828 65.0382 49.505 62.5908 49.0512 60.2462H60.7724C60.9258 60.2462 61.0775 60.2139 61.2177 60.1514C61.3578 60.0889 61.4833 59.9977 61.5858 59.8835C61.6884 59.7694 61.7658 59.635 61.813 59.489C61.8602 59.343 61.8762 59.1887 61.8598 59.0361C61.5306 55.9598 60.6994 53.0048 59.3881 50.228C61.639 50.5585 63.9995 49.8211 65.6375 48.1835ZM29.0864 6.62717L29.8867 12.7894C29.9051 12.9318 29.9514 13.0693 30.023 13.1938C30.0946 13.3184 30.19 13.4276 30.3038 13.5152C30.4176 13.6029 30.5476 13.6673 30.6863 13.7046C30.825 13.742 30.9698 13.7517 31.1122 13.7331C31.2546 13.7146 31.392 13.6683 31.5166 13.5967C31.6411 13.525 31.7503 13.4296 31.8379 13.3158C31.9256 13.202 31.9899 13.0721 32.0273 12.9334C32.0647 12.7947 32.0745 12.65 32.056 12.5076L31.0892 5.06228C31.0351 4.64584 31.1597 4.43215 31.2741 4.29256C31.7019 3.77098 32.8485 3.39568 34.3496 3.28398C35.8506 3.39568 36.9973 3.77098 37.4251 4.29256C37.5395 4.43215 37.6639 4.6457 37.6099 5.06228L36.6432 12.5076C36.6105 12.793 36.6914 13.0797 36.8684 13.306C37.0454 13.5322 37.3043 13.6798 37.5891 13.7168C37.874 13.7537 38.1619 13.6772 38.3908 13.5036C38.6197 13.3301 38.7712 13.0735 38.8125 12.7892L39.6127 6.62717C44.3194 8.69312 47.3996 13.3373 47.3996 18.5696L47.3995 18.5806H42.7772V11.6428C42.7772 11.3528 42.662 11.0746 42.4568 10.8694C42.2517 10.6643 41.9735 10.5491 41.6834 10.5491C41.3934 10.5491 41.1152 10.6643 40.91 10.8694C40.7049 11.0746 40.5897 11.3528 40.5897 11.6428V18.5806H28.1097V11.6428C28.1097 11.3528 27.9945 11.0746 27.7894 10.8694C27.5843 10.6643 27.3061 10.5491 27.016 10.5491C26.7259 10.5491 26.4477 10.6643 26.2426 10.8694C26.0375 11.0746 25.9222 11.3528 25.9222 11.6428V18.5806H21.3L21.2999 18.5696C21.2995 13.3375 24.3796 8.69312 29.0864 6.62717ZM19.0086 21.6166C19.0089 21.3916 19.0984 21.1759 19.2575 21.0169C19.4166 20.8578 19.6323 20.7683 19.8572 20.7681H48.8415C49.3095 20.7681 49.6901 21.1488 49.6901 21.6166C49.6901 22.0845 49.3095 22.4651 48.8415 22.4651H19.8572C19.6323 22.4649 19.4166 22.3754 19.2575 22.2163C19.0984 22.0573 19.0089 21.8416 19.0086 21.6166ZM22.294 24.6526H46.4049C45.183 30.2549 40.2024 34.3421 34.3494 34.3421C28.4965 34.3421 23.5158 30.2549 22.294 24.6526ZM25.4396 62.1028L23.8721 61.4067C23.7097 61.3346 23.5322 61.3031 23.3549 61.3151C23.1777 61.327 23.006 61.3819 22.8547 61.475C21.8811 62.0752 20.8179 62.5161 19.7052 62.7808C19.5324 62.8219 19.3722 62.9045 19.2384 63.0214C19.1047 63.1383 19.0015 63.2861 18.9377 63.4519L18.322 65.0509H16.0667L15.4509 63.4513C15.3871 63.2855 15.2839 63.1378 15.1502 63.0209C15.0165 62.904 14.8563 62.8214 14.6835 62.7803C13.5711 62.5156 12.5081 62.0749 11.5348 61.4748C11.3835 61.3816 11.2118 61.3267 11.0345 61.3148C10.8572 61.3029 10.6797 61.3343 10.5173 61.4064L8.94914 62.1028L7.35432 60.5082L8.05049 58.9408C8.12258 58.7784 8.15403 58.6009 8.14212 58.4236C8.13021 58.2464 8.0753 58.0746 7.98213 57.9234C7.38196 56.9497 6.94114 55.8865 6.67633 54.7738C6.63526 54.6009 6.55269 54.4407 6.43577 54.307C6.31885 54.1733 6.1711 54.07 6.00531 54.0062L4.40625 53.3906V51.1353L6.00559 50.5196C6.17134 50.4558 6.31906 50.3526 6.43598 50.2189C6.55289 50.0852 6.63548 49.925 6.6766 49.7522C6.94135 48.6397 7.38212 47.5766 7.98227 46.6032C8.07544 46.4519 8.13035 46.2802 8.14226 46.1029C8.15417 45.9256 8.12272 45.7481 8.05063 45.5857L7.35432 44.0178L8.94914 42.423L10.5172 43.1195C10.6796 43.1916 10.8571 43.223 11.0344 43.2111C11.2116 43.1992 11.3833 43.1443 11.5346 43.0511C12.508 42.4511 13.571 42.0104 14.6834 41.7456C14.8562 41.7044 15.0164 41.6219 15.1501 41.5049C15.2838 41.388 15.387 41.2403 15.4508 41.0746L16.0666 39.4749H18.3219L18.9377 41.0746C19.0015 41.2403 19.1047 41.388 19.2384 41.5049C19.3721 41.6219 19.5323 41.7044 19.7051 41.7456C20.8175 42.0103 21.8805 42.451 22.8538 43.0511C23.0052 43.1442 23.1769 43.1991 23.3541 43.211C23.5314 43.2229 23.7089 43.1915 23.8713 43.1195L25.4393 42.423L27.0342 44.0177L26.338 45.585C26.2659 45.7474 26.2345 45.9249 26.2463 46.1021C26.2582 46.2794 26.3131 46.4511 26.4062 46.6024C27.0065 47.5761 27.4473 48.6394 27.7121 49.7522C27.7532 49.9251 27.8358 50.0853 27.9527 50.219C28.0696 50.3527 28.2174 50.456 28.3832 50.5198L29.9822 51.1353V53.3906L28.3826 54.0064C28.2169 54.0702 28.0691 54.1734 27.9522 54.3071C27.8353 54.4408 27.7527 54.601 27.7116 54.7738C27.4469 55.8862 27.0062 56.9492 26.4061 57.9225C26.3129 58.0738 26.258 58.2455 26.2461 58.4228C26.2342 58.6001 26.2656 58.7776 26.3377 58.94L27.0342 60.508L25.4396 62.1028ZM36.7487 56.4737C36.2772 56.9449 35.8721 57.478 35.5445 58.0586H28.8296C29.1843 57.3493 29.4727 56.6088 29.6913 55.8465L31.469 55.1622C31.6753 55.0828 31.8527 54.9427 31.9778 54.7605C32.1029 54.5783 32.1699 54.3625 32.1699 54.1414V50.3841C32.1699 50.1631 32.1029 49.9473 31.9778 49.7651C31.8527 49.5828 31.6753 49.4428 31.469 49.3634L29.6918 48.6794C29.4211 47.7331 29.0429 46.8208 28.5647 45.9605L29.3383 44.2191C29.428 44.0171 29.4544 43.7926 29.414 43.5753C29.3736 43.358 29.2683 43.158 29.112 43.0017L26.455 40.3449C26.2987 40.1887 26.0988 40.0834 25.8815 40.0431C25.6642 40.0027 25.4398 40.0291 25.2378 40.1187L23.4957 40.8926C22.8596 40.5392 22.1948 40.2403 21.5084 39.9988C25.3961 37.7251 29.8049 36.5295 34.3493 36.5295C41.6659 36.5295 48.6011 39.6651 53.4439 45.1434L43.9526 54.6347C42.6974 54.2645 41.3657 54.2399 40.0977 54.5636C38.8298 54.8873 37.6728 55.5472 36.7487 56.4737ZM46.6157 59.6945C46.9967 60.6237 47.0941 61.6448 46.8958 62.6292C46.6974 63.6136 46.2121 64.5173 45.501 65.2263C44.6271 66.1002 43.4982 66.6092 42.3166 66.7048L45.143 63.8786C45.2787 63.7428 45.3764 63.5737 45.426 63.3882C45.4757 63.2027 45.4757 63.0074 45.426 62.822L44.5906 59.7044C44.5409 59.5189 44.4433 59.3498 44.3075 59.2141C44.1718 59.0783 44.0027 58.9807 43.8172 58.931L40.6997 58.0958C40.5143 58.0461 40.319 58.0461 40.1336 58.0958C39.9482 58.1455 39.7791 58.2431 39.6433 58.3789L36.8171 61.2053C36.9128 60.0236 37.4219 58.8945 38.2955 58.0206C39.0047 57.3096 39.9084 56.8243 40.8928 56.626C41.8772 56.4276 42.8983 56.5251 43.8275 56.906C44.0269 56.9874 44.2458 57.0081 44.457 56.9656C44.6681 56.923 44.862 56.8192 45.0143 56.6669L55.5314 46.1498C55.6837 45.9975 55.7876 45.8036 55.8302 45.5925C55.8727 45.3814 55.852 45.1624 55.7705 44.963C55.0045 43.0868 55.4525 40.8637 56.8849 39.4312C57.7766 38.5396 58.8976 38.0298 60.0803 37.9419L57.2434 40.7787C57.1076 40.9145 57.01 41.0836 56.9603 41.2691C56.9107 41.4545 56.9107 41.6498 56.9604 41.8353L57.7957 44.9527C57.8454 45.1382 57.943 45.3073 58.0788 45.443C58.2145 45.5788 58.3836 45.6764 58.569 45.7261L61.6863 46.5615C61.8718 46.6112 62.0671 46.6112 62.2526 46.5615C62.4381 46.5119 62.6072 46.4142 62.743 46.2785L65.5798 43.4416C65.4919 44.6242 64.9822 45.7453 64.0907 46.6365C62.658 48.0692 60.4351 48.5175 58.559 47.7512C58.3596 47.6699 58.1406 47.6492 57.9295 47.6917C57.7183 47.7342 57.5244 47.8381 57.3721 47.9903L46.8548 58.5076C46.7025 58.6599 46.5986 58.8538 46.5561 59.065C46.5135 59.2761 46.5343 59.4951 46.6157 59.6945ZM50.3975 58.0586L57.3734 51.0826C58.4264 53.2909 59.1517 55.6409 59.5263 58.0586H50.3975ZM17.1944 44.6164C12.9781 44.6164 9.54783 48.0467 9.54783 52.2629C9.54783 56.4793 12.9781 59.9096 17.1944 59.9096C21.4106 59.9096 24.8409 56.4793 24.8409 52.2629C24.8408 48.0467 21.4105 44.6164 17.1944 44.6164ZM17.1944 57.722C14.1842 57.722 11.7353 55.2731 11.7353 52.2628C11.7353 49.2527 14.1842 46.8037 17.1944 46.8037C20.2045 46.8037 22.6534 49.2527 22.6534 52.2628C22.6533 55.2731 20.2044 57.722 17.1944 57.722Z" fill="#FFB703"/>
</svg>
