<svg width="70" height="70" viewBox="0 0 70 70" fill="none" xmlns="http://www.w3.org/2000/svg">
<path fill-rule="evenodd" clip-rule="evenodd" d="M33.0175 4.4549C32.7919 4.48634 31.869 4.61049 30.9667 4.7308C28.9454 5.00013 25.681 5.80924 23.8573 6.49297C15.4618 9.64037 9.28979 15.9352 6.29524 24.4042C5.7377 25.9809 5.14257 28.4146 4.83413 30.3792C4.49329 32.5495 4.49507 37.4594 4.83755 39.6484C6.08497 47.624 9.94058 54.4331 15.8244 59.0518C17.9625 60.7301 21.7014 62.7628 24.3557 63.6902C25.948 64.2467 29.1403 65.0231 30.8983 65.2818C39.1315 66.4931 47.5347 64.1929 54.1405 58.9197C55.4754 57.854 58.1376 55.1713 59.1543 53.8671C61.8259 50.4401 63.9166 46.0111 64.8758 41.7467C66.3997 34.9718 65.5449 27.5846 62.5441 21.5949C61.9733 20.4559 61.6106 20.0976 61.0279 20.0976C60.7346 20.0976 60.0194 20.8447 60.0194 21.1511C60.0194 21.2911 60.3519 22.1418 60.7583 23.0415C62.781 27.5209 63.6721 32.2197 63.3041 36.4657C62.9213 40.882 62.0046 44.369 60.293 47.9198C56.2822 56.2404 48.4274 61.7401 38.6913 63.0446C37.0643 63.2627 32.8486 63.2623 31.3085 63.0439C23.6952 61.9648 17.2333 58.4529 12.9243 53.0524C7.47841 46.2271 5.29938 36.154 7.46378 27.8106C9.97175 18.1425 17.8257 10.3301 27.7798 7.60203C30.6444 6.81699 32.0935 6.63228 35.3417 6.63816C38.3889 6.64363 39.5936 6.7891 42.246 7.47228C43.6568 7.83568 46.1471 8.78615 47.6088 9.51924C48.6703 10.0516 49.0502 10.0894 49.4646 9.70312C49.8738 9.32195 49.9635 8.85478 49.7183 8.38064C49.5607 8.0759 49.1633 7.81709 48.0323 7.28279C45.5328 6.10181 42.6267 5.19646 39.7831 4.71275C38.5509 4.50316 33.9323 4.32707 33.0175 4.4549ZM52.0065 10.2689C49.6406 12.6293 47.6722 14.689 47.6322 14.8461C47.5921 15.0032 47.6557 16.3252 47.7734 17.7842L47.9874 20.4366L40.9467 27.482C34.5196 33.9137 33.9061 34.5665 33.9061 34.975C33.9061 35.5754 34.4244 36.0937 35.0248 36.0937C35.4333 36.0937 36.0861 35.4802 42.5178 29.0531L49.5632 22.0125L52.2157 22.2264C53.6746 22.3441 54.9967 22.4077 55.1537 22.3677C55.3108 22.3276 57.3705 20.3593 59.7309 17.9933C63.9549 13.7597 64.021 13.6846 63.9316 13.238C63.7512 12.3354 63.5823 12.2732 60.7071 12.0507L58.1054 11.8495L58.0987 11.4277C58.0948 11.1957 58.0124 10.033 57.9155 8.84398C57.7205 6.45496 57.632 6.24222 56.7618 6.06818C56.3152 5.97877 56.2401 6.04494 52.0065 10.2689ZM52.7847 12.6345L49.8567 15.5655L50.0178 17.6507C50.1064 18.7977 50.1978 19.7551 50.2211 19.7783C50.2442 19.8016 51.2035 19.8914 52.3528 19.9779L54.4423 20.1353L57.3693 17.2112L60.2961 14.287L58.5513 14.1432C56.7635 13.9957 56.3019 13.8616 56.1188 13.4364C56.0614 13.3027 55.9464 12.4081 55.8636 11.4485L55.7128 9.70367L52.7847 12.6345ZM33.3593 14.2969C33.1713 14.3295 32.556 14.4225 31.9921 14.5035C24.1107 15.6352 17.8874 20.7276 15.433 28.0536C14.5803 30.5987 14.4326 31.6269 14.4356 34.9999C14.4381 37.6592 14.479 38.2585 14.7382 39.4214C16.5053 47.3533 21.9286 53.0383 29.5995 55.0001C31.9274 55.5954 32.8916 55.7123 35.41 55.7043C37.3445 55.6983 38.0602 55.6399 39.1477 55.3993C45.3707 54.0221 50.5616 50.1244 53.3694 44.7203C54.3221 42.8867 54.8364 41.4911 55.3177 39.4328C55.6659 37.944 55.6995 37.5654 55.7059 35.0683C55.7118 32.695 55.6712 32.1481 55.3976 30.9269C54.9526 28.9399 54.5045 27.6229 53.7316 26.0302C53.188 24.9102 52.982 24.6156 52.6437 24.4756C52.3081 24.3365 52.1451 24.3364 51.8111 24.4748C50.9491 24.8317 50.9349 25.3529 51.7422 26.9937C53.0494 29.6504 53.5183 31.7092 53.519 34.7948C53.5195 37.2261 53.2585 38.7757 52.4739 40.9993C50.5385 46.4844 46.1645 50.8834 40.9076 52.6313C38.7918 53.3347 37.7306 53.4993 35.2733 53.5051C32.726 53.511 31.3044 53.3055 29.2502 52.6342C26.4461 51.7179 24.1477 50.2856 21.9259 48.0698C19.1508 45.3024 17.491 42.1898 16.7259 38.3181C16.3942 36.6399 16.3952 33.0332 16.7277 31.4452C18.1299 24.7483 22.8662 19.5369 29.5273 17.3618C31.7211 16.6456 32.8166 16.4775 35.2733 16.4808C38.2926 16.4848 40.3759 16.9636 43.0061 18.2576C44.6469 19.0649 45.1681 19.0507 45.525 18.1887C45.6634 17.8547 45.6633 17.6917 45.5242 17.3561C45.3841 17.0176 45.0906 16.8125 43.9696 16.2699C41.2034 14.9308 38.8573 14.3602 35.8202 14.288C34.6547 14.2602 33.5473 14.2642 33.3593 14.2969ZM32.9491 24.2678C30.5837 24.746 28.9129 25.6289 27.2575 27.2753C26.1569 28.37 25.9279 28.6857 25.3207 29.9468C24.3783 31.9039 24.1481 32.8961 24.1481 34.9999C24.1481 37.1037 24.3783 38.0959 25.3207 40.053C25.9266 41.3113 26.1601 41.6339 27.263 42.7368C28.3659 43.8397 28.6885 44.0733 29.9468 44.6791C31.9237 45.6309 32.8932 45.8546 35.0683 45.8606C37.1812 45.8665 38.0601 45.6685 39.8534 44.7821C42.0957 43.6739 43.6752 42.0943 44.7814 39.8534C45.5341 38.3289 45.7951 37.3518 45.8953 35.6835C46.0328 33.3961 45.5729 31.2887 44.8521 30.9029C44.4403 30.6825 43.966 30.7357 43.6407 31.0389C43.2051 31.4445 43.1541 31.8533 43.426 32.7579C43.7443 33.8168 43.7407 35.971 43.4185 37.1874C42.6607 40.0484 40.711 42.1947 37.9815 43.1727C37.0895 43.4922 36.7768 43.5314 35.0683 43.5377C32.8135 43.5461 31.88 43.3057 30.2551 42.2981C27.7445 40.7416 26.3336 38.0624 26.3393 34.8632C26.3415 33.6603 26.4026 33.2505 26.7161 32.3353C27.6601 29.5793 29.5868 27.6536 32.3352 26.7187C33.7459 26.239 35.6244 26.1866 37.2398 26.5823C38.201 26.8177 38.3559 26.8245 38.6735 26.6464C39.4921 26.1869 39.3882 25.1523 38.4727 24.6473C37.4581 24.0876 34.7579 23.902 32.9491 24.2678Z" fill="#FFB703"/>
</svg>
