<?xml version="1.0" encoding="UTF-8"?>
<!DOCTYPE svg PUBLIC "-//W3C//DTD SVG 1.0//EN" "http://www.w3.org/TR/2001/REC-SVG-20010904/DTD/svg10.dtd">
<!-- Creator: CorelDRAW 2021 (64-Bit) -->
<svg xmlns="http://www.w3.org/2000/svg" xml:space="preserve" width="224px" height="224px" version="1.0" shape-rendering="geometricPrecision" text-rendering="geometricPrecision" image-rendering="optimizeQuality" fill-rule="evenodd" clip-rule="evenodd"
viewBox="0 0 224 224"
 xmlns:xlink="http://www.w3.org/1999/xlink"
 xmlns:xodm="http://www.corel.com/coreldraw/odm/2003">
 <g id="Layer_x0020_1">
  <metadata id="CorelCorpID_0Corel-Layer"/>
  <path fill="#DF1219" d="M43.75 9.96c-1.07,0.86 -15.76,18.39 -17.06,20.36 -1.42,2.14 -0.45,5.38 1.9,6.39 0.75,0.32 2.34,0.58 3.54,0.58l2.19 0 0.12 19.51 0.11 19.51 0.93 1.34c1.64,2.36 2.42,2.54 10.64,2.54 8.33,0 9.51,-0.28 10.93,-2.64 0.78,-1.29 0.8,-2 0.8,-20.75l0 -19.42 2.99 -0.15c2.7,-0.15 3.1,-0.28 4.19,-1.4 1.71,-1.74 1.93,-3.64 0.65,-5.56 -1.66,-2.5 -16.58,-20.32 -17.38,-20.76 -1.25,-0.69 -3.41,-0.47 -4.55,0.45zm67.96 -0.26c-0.94,0.3 -3.61,1.96 -5.94,3.7 -2.34,1.73 -4.8,3.38 -5.47,3.67 -0.68,0.28 -3.67,0.69 -6.65,0.91 -4.37,0.32 -5.83,0.6 -7.58,1.42 -4.67,2.19 -6.43,4.85 -8.29,12.57 -0.67,2.79 -1.51,5.54 -1.87,6.11 -0.35,0.58 -2.48,2.89 -4.72,5.13 -5.06,5.06 -5.96,7.01 -5.67,12.26 0.17,3.03 0.37,3.66 2.67,8.38l2.49 5.11 -0.34 4.49c-0.61,8.35 -0.48,10.75 0.77,13.35 1.37,2.87 3.49,4.87 6.97,6.58 1.47,0.72 2.73,1.34 2.8,1.38 0.08,0.04 -2.75,6.43 -6.27,14.21 -6.91,15.25 -7.22,16.27 -5.35,17.78 1.35,1.09 1.71,1.07 9.77,-0.41 3.73,-0.69 6.83,-1.19 6.89,-1.12 0.06,0.07 1.66,2.88 3.56,6.25 3.66,6.47 4.86,7.97 6.41,7.97 1.92,0 2.9,-1.68 9.34,-15.93l6.37 -14.1 2 -0.52c1.68,-0.44 2.42,-0.42 4.59,0.1 5.28,1.25 4.63,0.41 9.69,12.51 2.81,6.71 4.89,11.14 5.5,11.71 1.18,1.1 2.94,1.19 4.03,0.2 0.43,-0.39 2.45,-3.47 4.48,-6.84 2.03,-3.37 3.73,-6.19 3.79,-6.26 0.07,-0.07 3.18,0.53 6.93,1.33 3.75,0.8 7.32,1.46 7.93,1.46 1.42,0 2.99,-1.66 2.98,-3.17 0,-0.62 -2.29,-6.55 -5.09,-13.18 -2.79,-6.63 -5.16,-12.26 -5.26,-12.52 -0.1,-0.26 0.64,-0.89 1.66,-1.41 2.27,-1.17 4.77,-3.89 5.9,-6.43 0.95,-2.15 1.09,-5.68 0.52,-13.14l-0.33 -4.29 2.52 -5.11 2.52 -5.11 0.01 -4.08c0.01,-3.79 -0.08,-4.25 -1.18,-6.3 -0.72,-1.34 -2.56,-3.5 -4.69,-5.51 -1.92,-1.82 -3.84,-3.86 -4.25,-4.54 -0.42,-0.67 -1.33,-3.52 -2.02,-6.33 -1.9,-7.76 -3.64,-10.39 -8.28,-12.57 -1.71,-0.81 -3.19,-1.09 -7.19,-1.38 -2.77,-0.2 -5.66,-0.54 -6.43,-0.75 -0.77,-0.22 -3.31,-1.85 -5.64,-3.63 -2.34,-1.77 -5.11,-3.53 -6.15,-3.89 -2.26,-0.79 -6.07,-0.82 -8.43,-0.06zm70.62 0.72c-2.59,2.53 -16.24,19.32 -16.81,20.68 -0.75,1.78 -0.4,3.33 1.1,4.8 1.05,1.04 1.54,1.19 4.16,1.33l2.97 0.15 0 19.42c0,18.75 0.02,19.46 0.8,20.75 1.42,2.36 2.59,2.64 11.01,2.64 6.73,0 7.63,-0.08 8.78,-0.8 2.8,-1.75 2.69,-0.89 2.82,-22.57l0.11 -19.53 2.19 0c1.21,0 2.8,-0.26 3.55,-0.58 2.34,-1 3.33,-4.28 1.92,-6.38 -1.31,-1.95 -16.09,-19.57 -17.11,-20.4 -1.64,-1.32 -3.83,-1.12 -5.49,0.49zm-68.43 5.61c-0.61,0.2 -2.67,1.55 -4.58,3 -6.37,4.85 -6.85,5.04 -14.35,5.61 -5.7,0.43 -6.93,0.83 -8.57,2.83 -1.16,1.41 -1.13,1.34 -2.28,6.55 -1.37,6.16 -2.57,8.33 -7,12.63 -4,3.88 -5.33,5.89 -5.33,8.03 0,0.73 0.95,3.26 2.18,5.84 3.36,7.02 3.61,8.23 3.01,14.35 -0.67,6.79 -0.62,7.95 0.43,9.69 0.7,1.15 1.64,1.82 4.31,3.08 9.09,4.29 9.24,4.41 13.49,10.84 4.57,6.92 5.42,7.22 13.62,4.8 2.83,-0.84 5.73,-1.43 6.97,-1.43 1.24,0 4.14,0.59 6.97,1.43 8.18,2.41 9.03,2.11 13.73,-4.95 3.79,-5.7 5.3,-7 11.04,-9.53 5.07,-2.24 5.68,-2.64 6.68,-4.3 1.03,-1.7 1.09,-2.95 0.44,-9.42 -0.64,-6.37 -0.42,-7.48 2.97,-14.56 1.23,-2.58 2.18,-5.11 2.18,-5.84 0,-2.14 -1.33,-4.15 -5.32,-8.02 -4.48,-4.35 -5.36,-5.96 -6.98,-12.7 -1.93,-8.07 -2.66,-8.7 -10.88,-9.33 -2.91,-0.22 -5.97,-0.59 -6.78,-0.83 -1.38,-0.41 -4.18,-2.21 -9.47,-6.12 -2.33,-1.72 -4.53,-2.29 -6.48,-1.65zm-73.33 7.78l-5.44 6.53 1.83 0c1.5,0 2.05,0.22 3,1.2l1.17 1.19 0 20.46 0 20.47 5.17 0 5.18 0 0 -20.56c0,-20.09 0.02,-20.58 0.81,-21.45 0.81,-0.89 1.61,-1.19 3.73,-1.4 1.14,-0.11 1.04,-0.26 -4.14,-6.55 -2.92,-3.54 -5.44,-6.43 -5.59,-6.43 -0.16,0 -2.73,2.94 -5.72,6.54zm139.19 -0.11c-5.19,6.27 -5.3,6.44 -4.18,6.55 2.12,0.21 2.92,0.51 3.73,1.4 0.79,0.87 0.81,1.36 0.81,21.45l0 20.56 5.18 0 5.17 0 0 -20.41 0 -20.41 0.95 -1.13c0.73,-0.86 1.42,-1.18 2.93,-1.35l1.99 -0.22 -5.35 -6.44c-2.94,-3.54 -5.47,-6.43 -5.62,-6.43 -0.16,0 -2.68,2.89 -5.61,6.43zm-70.13 5.23c-10.62,2.32 -19.4,10.14 -23.11,20.57 -2.9,8.17 -2.42,16.78 1.39,24.77 5.34,11.19 15.73,17.83 27.89,17.83 21.62,0 36.53,-21.65 29.31,-42.57 -1.47,-4.26 -3.26,-7.24 -6.61,-10.93 -7.41,-8.2 -18.55,-11.93 -28.87,-9.67zm3.49 6.38c-10.21,1.05 -18.86,8.92 -21.24,19.35 -0.93,4.06 -0.61,10.09 0.72,13.78 1.38,3.83 3.3,6.93 5.92,9.62 11.89,12.13 31.57,8.85 39.22,-6.55 3.57,-7.18 3.37,-16.4 -0.5,-23.56 -0.82,-1.52 -2.68,-3.93 -4.28,-5.55 -5.43,-5.5 -12.09,-7.88 -19.84,-7.09zm5.97 20.93l-8.52 7.93 -2.98 -2.99c-1.64,-1.65 -3.5,-3.13 -4.13,-3.29 -2.38,-0.61 -4.71,2.03 -3.8,4.31 0.65,1.59 8.76,9.7 10.04,10.03 0.58,0.15 1.43,0.06 1.89,-0.19 1.25,-0.69 19.66,-17.95 20.23,-18.97 0.73,-1.31 0.61,-2.11 -0.52,-3.49 -0.77,-0.94 -1.37,-1.26 -2.36,-1.26 -1.16,0 -2.37,0.97 -9.85,7.92zm26.32 41.22c-0.58,0.5 -2.31,2.86 -3.85,5.24 -3.51,5.44 -5.38,7.11 -9.28,8.31l-1.44 0.44 2.44 5.82c1.34,3.2 2.58,5.77 2.76,5.71 0.18,-0.06 1.54,-2.13 3.02,-4.59 1.6,-2.66 3.1,-4.69 3.7,-4.99 0.84,-0.43 1.86,-0.33 6.25,0.57 2.88,0.59 5.32,0.99 5.42,0.89 0.23,-0.24 -7.39,-18.32 -7.72,-18.32 -0.14,0 -0.72,0.41 -1.3,0.92zm-63.52 11.44c-2.66,5.9 -4.8,10.77 -4.75,10.83 0.05,0.05 2.05,-0.27 4.44,-0.71 4.89,-0.92 6.66,-1.01 7.73,-0.42 0.4,0.22 1.94,2.53 3.41,5.13 1.47,2.6 2.82,4.58 2.99,4.4 0.18,-0.18 1.94,-3.92 3.93,-8.3l3.6 -7.97 -2.37 -0.5c-4.88,-1.02 -6.9,-2.64 -10.83,-8.71 -1.59,-2.46 -2.98,-4.48 -3.1,-4.47 -0.12,0 -2.39,4.83 -5.05,10.72zm-11.29 32.77c-3.51,0.92 -6.3,2.36 -17.55,9.03 -5.84,3.46 -10.86,6.38 -11.17,6.49 -0.35,0.12 -1.07,-0.66 -1.99,-2.16 -1.71,-2.82 -3.58,-3.94 -6.53,-3.92 -1.71,0.01 -2.67,0.41 -6.77,2.79 -5.34,3.09 -7.14,4.64 -7.81,6.71 -1,3.11 -0.67,3.86 11.02,25.1 13.55,24.62 13.28,24.17 15.28,25.22 2.91,1.53 4.77,1.19 10.18,-1.86 6.22,-3.49 7.51,-4.73 8.19,-7.82 0.39,-1.79 -0.17,-4.13 -1.59,-6.6l-1.17 -2.05 1.86 -1.07 1.87 -1.08 12.95 3.56c26.4,7.27 24.38,6.81 29.07,6.62 3.26,-0.13 4.72,-0.4 6.59,-1.18 3.86,-1.61 54.29,-33.61 56.01,-35.54 1.83,-2.03 2.81,-4.97 2.79,-8.32 -0.04,-7.19 -5.61,-12.14 -13,-11.53 -5.33,0.44 -7.43,1.45 -26.11,12.62 -13.95,8.34 -15.91,9.47 -16.13,9.25 -0.07,-0.08 0.07,-1 0.3,-2.07 0.88,-3.92 -0.94,-8.2 -4.76,-11.18 -1.27,-1 -2.72,-1.55 -6.29,-2.4 -4.85,-1.16 -11.05,-3.15 -21.04,-6.75 -6.7,-2.41 -10.32,-2.89 -14.2,-1.86zm0 7.1c-1.21,0.41 -2.82,1.08 -3.59,1.49 -1.13,0.61 -21.81,12.8 -22.22,13.11 -0.07,0.05 2.77,5.33 6.3,11.74l6.42 11.64 2.65 -1.59c1.46,-0.87 3.13,-1.59 3.71,-1.59 0.57,0 9.38,2.29 19.56,5.1 10.19,2.8 19.51,5.21 20.72,5.36 2.41,0.29 5.59,-0.31 7.87,-1.49 0.76,-0.39 12.77,-7.91 26.68,-16.7 26.61,-16.82 26.68,-16.88 26.68,-19.76 0,-1.7 -0.99,-3.82 -2.16,-4.61 -1.47,-0.98 -6.01,-0.63 -9.21,0.73 -1.33,0.56 -9.27,5.11 -17.66,10.12 -8.38,5.01 -16.34,9.58 -17.69,10.15 -3.45,1.46 -9.31,1.68 -14.66,0.55 -7.6,-1.6 -19.21,-5.1 -20.16,-6.07 -1.82,-1.86 -0.43,-5.44 2.12,-5.44 0.58,0 4.63,1 9,2.23 9.28,2.62 11.39,2.98 13.09,2.25 2.49,-1.06 3.18,-4.79 1.28,-6.93 -0.96,-1.08 -1.9,-1.45 -7.27,-2.83 -3.4,-0.88 -10.12,-3.02 -14.93,-4.76 -9.98,-3.62 -12.59,-4.04 -16.53,-2.7zm-41.42 11.33c-2.08,1.22 -3.84,2.49 -3.91,2.83 -0.12,0.57 21.74,40.68 22.76,41.78 0.37,0.39 1.37,-0.01 4.62,-1.87 2.29,-1.29 4.22,-2.55 4.29,-2.78 0.22,-0.66 -22.77,-42.02 -23.4,-42.11 -0.32,-0.04 -2.28,0.92 -4.36,2.15zm1.12 3.35c-0.33,0.39 -0.72,1.04 -0.86,1.45 -0.34,0.99 0.72,3.02 1.75,3.36 2.94,0.95 5.11,-2.66 2.94,-4.89 -0.84,-0.86 -3.09,-0.82 -3.83,0.08z"/>
 </g>
</svg>
