<svg width="40" height="40" viewBox="0 0 40 40" fill="none" xmlns="http://www.w3.org/2000/svg">
<g clip-path="url(#clip0_357_16064)">
<path fill-rule="evenodd" clip-rule="evenodd" d="M19.7465 0.0976172C19.6748 0.153086 19.3287 1.1398 18.945 2.38277C18.5735 3.5859 18.1298 5.01848 17.9591 5.56637L17.6486 6.56246H15.125C12.7794 6.56246 12.5923 6.57254 12.4722 6.70535C12.3647 6.82402 12.3429 7.03442 12.3429 7.94973C12.3429 9.13824 12.3927 9.29684 12.766 9.29684C13.1151 9.29684 13.2022 9.08113 13.2022 8.21645V7.42184H15.2787H17.3553L17.3061 7.63668C17.2792 7.75488 15.7871 12.5976 13.9904 18.3984L10.7237 28.9453L5.4902 28.9654C0.436921 28.9847 0.251999 28.9906 0.120593 29.1359C-0.00932883 29.2793 0.0113743 29.5289 0.56864 34.5399C1.07598 39.1021 1.17145 39.8071 1.29403 39.8968C1.40848 39.9804 2.71098 40 8.16598 40C14.599 40 14.9025 39.9936 15.0267 39.8564C15.1307 39.7414 15.2694 38.6967 15.724 34.6039L16.2915 29.495L18.1258 28.4207C19.1743 27.8066 20.0103 27.3646 20.0772 27.389C20.1685 27.4221 26.4498 31.0596 26.5455 31.1346C26.5582 31.1446 26.4515 31.7634 26.3085 32.5099L26.0485 33.8671L22.9261 33.9085C21.2089 33.9312 19.7941 33.9575 19.7823 33.9671C19.7705 33.9765 19.7257 34.077 19.6826 34.1902C19.6231 34.3467 19.6334 34.4404 19.7254 34.5808L19.8465 34.7656H29.7935C39.3308 34.7656 39.7458 34.7597 39.8698 34.6227C40.035 34.4402 40.0352 34.1898 39.8704 34.0525C39.7984 33.9926 39.482 33.928 39.1542 33.9062L38.5668 33.8671L37.0182 25.8593L35.4695 17.8515L35.4686 16.1969C35.468 14.7977 35.449 14.5234 35.3451 14.4196C35.2379 14.3124 34.8534 14.2968 32.3104 14.2968C29.5885 14.2968 29.3899 14.3061 29.269 14.4397C29.1574 14.5631 29.1398 14.8053 29.1403 16.2171L29.1408 17.8515L28.5504 20.9375C28.2257 22.6347 27.934 24.0891 27.9021 24.1693C27.8628 24.2682 27.0069 21.61 25.2483 15.9271C23.8206 11.3137 22.6532 7.51262 22.654 7.48043C22.6547 7.44824 23.587 7.42184 24.7257 7.42184H26.796V8.23004C26.796 8.91379 26.818 9.05817 26.9389 9.16754C27.1189 9.33051 27.3734 9.33332 27.5326 9.1741C27.6327 9.07395 27.6554 8.84574 27.6554 7.93621C27.6554 6.95512 27.6382 6.80551 27.5125 6.69176C27.3857 6.57707 27.0856 6.56246 24.8596 6.56246H22.3496L22.0391 5.56637C21.8684 5.01848 21.4247 3.5859 21.0533 2.38277C20.6695 1.1398 20.3234 0.153086 20.2517 0.0976172C20.091 -0.0266797 19.9072 -0.0266797 19.7465 0.0976172ZM19.2694 4.23824C18.8956 5.45207 18.5904 6.47168 18.5913 6.50387C18.5922 6.53606 19.2257 6.56246 19.9991 6.56246C20.7725 6.56246 21.4061 6.53606 21.4069 6.50387C21.4105 6.36965 20.0449 2.03121 19.9991 2.03121C19.9716 2.03121 19.6432 3.02434 19.2694 4.23824ZM34.9011 5.54871C33.8432 5.81535 32.9045 6.81457 32.7631 7.82481C32.7201 8.13199 32.6779 8.18613 32.3167 8.3984C32.0511 8.55449 31.8387 8.76121 31.6811 9.01731C31.4689 9.36207 31.4444 9.46699 31.4444 10.0329C31.4444 10.7571 31.563 11.0669 32.016 11.5258C32.4257 11.9409 32.8297 12.1059 33.4366 12.1059C34.1297 12.1059 34.5849 11.8897 34.9861 11.3703C35.1465 11.1625 35.2146 11.1371 35.6554 11.1199C36.7108 11.0788 37.5927 10.5028 38.0631 9.54731C38.2955 9.07527 38.3194 8.96074 38.3194 8.32027C38.3194 7.67981 38.2955 7.56527 38.0631 7.09324C37.5993 6.15098 36.7343 5.57793 35.6683 5.50652C35.4077 5.4891 35.0625 5.50809 34.9011 5.54871ZM34.921 6.44356C34.1567 6.69082 33.5929 7.4609 33.5929 8.25746C33.5929 8.69981 33.4172 8.98402 33.1436 8.98465C33.0685 8.98481 32.8943 9.05356 32.7568 9.13746C32.0661 9.55856 32.1073 10.6532 32.8304 11.0941C33.3731 11.425 34.1906 11.2089 34.4133 10.6756C34.5775 10.2829 34.6739 10.2395 35.3549 10.252C35.8306 10.2607 36.0591 10.2259 36.3327 10.1032C37.8111 9.44012 37.8992 7.37957 36.4821 6.60832C36.0038 6.34801 35.41 6.28535 34.921 6.44356ZM18.9204 7.5634C19.1618 7.89801 19.9564 8.82809 20.0009 8.82809C20.0578 8.82809 21.171 7.5327 21.171 7.46652C21.171 7.44192 20.6416 7.42184 19.9947 7.42184C18.8736 7.42184 18.8232 7.42848 18.9204 7.5634ZM17.3583 10.3999C16.9587 11.6937 16.6431 12.7638 16.6571 12.7778C16.6711 12.7917 17.3047 12.0679 18.065 11.1693L19.4476 9.53535L18.8169 8.79106C18.4701 8.38176 18.1635 8.04699 18.1357 8.04715C18.1079 8.04731 17.758 9.10606 17.3583 10.3999ZM21.22 8.76324C20.8888 9.15731 20.628 9.51895 20.6404 9.56684C20.6682 9.67301 23.3092 12.8097 23.3428 12.7761C23.3809 12.7379 21.9179 8.04746 21.8677 8.04715C21.8427 8.04699 21.5512 8.36926 21.22 8.76324ZM12.421 10.3906C12.0851 10.7264 12.3322 11.3281 12.8059 11.3281C13.0529 11.3281 13.3585 11.0257 13.3585 10.7812C13.3585 10.7068 13.2856 10.5534 13.1965 10.4402C12.9985 10.1883 12.6458 10.1657 12.421 10.3906ZM18.2413 12.2761C17.296 13.396 16.4474 14.406 16.3554 14.5206L16.1884 14.7289L18.0499 16.0363C19.0737 16.7554 19.9514 17.3437 20.0001 17.3437C20.071 17.3437 22.9477 15.3694 23.6449 14.8423C23.8125 14.7155 23.7962 14.6931 21.9422 12.4939C20.9126 11.2726 20.0454 10.2659 20.0151 10.2567C19.9848 10.2475 19.1866 11.1562 18.2413 12.2761ZM26.8915 10.356C26.5193 10.6167 26.7664 11.3281 27.2292 11.3281C27.4629 11.3281 27.8116 11.0091 27.8116 10.7953C27.8116 10.7132 27.7387 10.5534 27.6497 10.4402C27.4633 10.2033 27.1579 10.1693 26.8915 10.356ZM29.9991 16.3671V17.5781H32.3038H34.6085V16.3671V15.1562H32.3038H29.9991V16.3671ZM15.74 15.6445C15.5522 16.1622 13.9048 21.5879 13.9282 21.6114C13.9556 21.6387 19.002 18.1332 19.1641 17.9743C19.218 17.9215 15.9464 15.5468 15.8197 15.5468C15.7954 15.5468 15.7595 15.5908 15.74 15.6445ZM22.5025 16.6854C21.6235 17.3059 20.8737 17.8441 20.8362 17.8816C20.7976 17.9202 21.909 18.7487 23.4094 19.7997C24.8622 20.8172 26.0591 21.6214 26.0693 21.5866C26.1023 21.4743 24.2474 15.5956 24.1728 15.5761C24.1331 15.5658 23.3815 16.065 22.5025 16.6854ZM4.60848 18.0094C3.29223 18.2149 1.74755 18.9141 0.753327 19.7543C0.265046 20.1671 0.178562 20.325 0.297702 20.5866C0.450749 20.9224 0.780437 20.8494 1.38794 20.3454C2.05161 19.7945 3.26864 19.1957 4.1788 18.9721C5.07309 18.7524 6.63551 18.7323 7.4395 18.9302C8.73348 19.2487 9.84794 19.8416 10.8317 20.735C11.3492 21.2049 11.6472 21.2935 11.7932 21.0207C11.9461 20.735 11.8729 20.5705 11.3858 20.105C9.6063 18.4043 7.08083 17.6234 4.60848 18.0094ZM17.0137 20.5404C15.3932 21.6826 14.0332 22.6523 13.9914 22.6953C13.9411 22.7468 14.9525 23.3789 16.9638 24.5533L20.0123 26.3332L23.0481 24.5581C24.7178 23.5818 26.0688 22.7586 26.0504 22.7289C26.0173 22.6754 20.1878 18.5776 20.0382 18.5027C19.9952 18.4812 18.6342 19.3982 17.0137 20.5404ZM29.885 18.534C29.8331 18.6946 26.9511 33.7018 26.9517 33.8086C26.9522 33.8857 28.0797 33.9062 32.3275 33.9062H37.7029L36.2112 26.1914L34.7195 18.4765L32.3182 18.4559C30.4369 18.4396 29.91 18.4566 29.885 18.534ZM4.63645 20.2771C3.36551 20.5561 1.79598 21.5211 1.79598 22.0237C1.79598 22.5307 2.17559 22.5447 2.83091 22.0619C3.48723 21.5784 3.96114 21.3474 4.66755 21.1668C6.24911 20.7622 7.93794 21.1755 9.16895 22.2682C9.72583 22.7625 9.89614 22.8214 10.1042 22.5914C10.3374 22.3338 10.2629 22.1036 9.80989 21.6826C8.47208 20.4395 6.42778 19.8841 4.63645 20.2771ZM4.73864 22.5796C3.98098 22.8472 3.28036 23.3675 3.28036 23.6625C3.28036 23.8731 3.48614 24.0625 3.71497 24.0625C3.81895 24.0625 4.06075 23.9429 4.25231 23.7966C4.76841 23.4026 5.27481 23.2601 6.03895 23.2937C6.75801 23.3254 7.18012 23.4898 7.71278 23.9457C8.18341 24.3486 8.59286 24.2912 8.59286 23.8224C8.59286 23.5359 8.02364 23.0236 7.35692 22.7098C6.89208 22.4911 6.74544 22.4618 6.01473 22.4414C5.3452 22.4229 5.11067 22.4482 4.73864 22.5796ZM32.6368 22.7929C32.4318 23.0249 30.555 25.9251 30.5408 26.0321C30.5157 26.2208 30.5459 26.3168 30.6687 26.4397C30.7672 26.5382 30.984 26.5625 31.7625 26.5625C32.2965 26.5625 32.7335 26.5782 32.7335 26.5975C32.7335 26.6168 32.4355 27.0879 32.0714 27.6443C31.2515 28.8969 31.2059 28.9921 31.3215 29.2079C31.4297 29.4101 31.7572 29.5043 31.9103 29.3774C32.1283 29.1965 33.9835 26.2754 33.9835 26.1131C33.9835 25.7598 33.8097 25.7031 32.7272 25.7031H31.7164L32.5375 24.473C33.3468 23.2604 33.474 22.9592 33.2647 22.75C33.1267 22.6119 32.7756 22.636 32.6368 22.7929ZM12.5067 26.0744C12.0597 27.5245 11.6777 28.7725 11.6578 28.8476C11.624 28.9751 11.7515 28.9843 13.5467 28.9843H15.4718L17.1691 27.9954C18.1025 27.4514 18.9296 26.9635 19.007 26.911C19.1298 26.8277 18.7809 26.6014 16.2544 25.1265C14.6631 24.1975 13.3518 23.4375 13.3403 23.4377C13.3288 23.4379 12.9537 24.6244 12.5067 26.0744ZM23.7634 25.135C22.0043 26.1607 20.8964 26.851 20.9557 26.8843C21.0097 26.9146 22.3194 27.6783 23.8663 28.5814C25.4132 29.4846 26.7011 30.1997 26.7282 30.1704C26.7554 30.1411 26.9457 29.2366 27.1512 28.1604L27.5249 26.2038L27.11 24.8401C26.8818 24.0901 26.6893 23.4685 26.6822 23.4586C26.675 23.4488 25.3615 24.2032 23.7634 25.135ZM5.42528 24.6449C4.98676 25.0834 5.28661 25.8125 5.90551 25.8125C6.50583 25.8125 6.7688 25.117 6.33325 24.6814C6.04184 24.39 5.69403 24.3761 5.42528 24.6449ZM0.936296 29.9804C0.935906 30.1547 1.85973 38.547 1.91676 38.8867L1.95934 39.1406H8.16669C11.5807 39.1406 14.3741 39.1114 14.3741 39.0758C14.3741 39.0402 14.6026 36.96 14.8819 34.4531C15.1612 31.9462 15.3897 29.8836 15.3897 29.8694C15.3897 29.8553 12.1378 29.8437 8.16317 29.8437C1.33294 29.8437 0.936609 29.8512 0.936296 29.9804ZM17.5048 33.9558C17.3199 34.1908 17.3158 34.2155 17.4172 34.4823C17.5858 34.9257 18.2136 34.9422 18.3962 34.508C18.4522 34.3749 18.4788 34.2114 18.4554 34.1446C18.302 33.7075 17.7815 33.6041 17.5048 33.9558ZM6.84716 34.2835C6.67755 34.4709 6.68309 34.7099 6.86075 34.8707C6.97997 34.9786 7.19286 35 8.14981 35C9.19184 35 9.3102 34.9857 9.45223 34.8437C9.64028 34.6557 9.64762 34.5437 9.48684 34.3143C9.3702 34.1477 9.31653 34.1406 8.17083 34.1406C7.11294 34.1406 6.96169 34.1569 6.84716 34.2835Z" fill="#FFB703"/>
</g>
<defs>
<clipPath id="clip0_357_16064">
<rect width="40" height="40" fill="white"/>
</clipPath>
</defs>
</svg>
