<?xml version="1.0" encoding="UTF-8"?>
<!DOCTYPE svg PUBLIC "-//W3C//DTD SVG 1.0//EN" "http://www.w3.org/TR/2001/REC-SVG-20010904/DTD/svg10.dtd">
<!-- Creator: CorelDRAW 2021 (64-Bit) -->
<svg xmlns="http://www.w3.org/2000/svg" xml:space="preserve" width="224px" height="224px" version="1.0" shape-rendering="geometricPrecision" text-rendering="geometricPrecision" image-rendering="optimizeQuality" fill-rule="evenodd" clip-rule="evenodd"
viewBox="0 0 224 224"
 xmlns:xlink="http://www.w3.org/1999/xlink"
 xmlns:xodm="http://www.corel.com/coreldraw/odm/2003">
 <g id="Layer_x0020_1">
  <metadata id="CorelCorpID_0Corel-Layer"/>
  <path fill="#DF1219" stroke="#DF1219" stroke-width="0.9" stroke-miterlimit="22.9256" d="M109.49 13.28c-1.1,1.08 -1.11,1.16 -1.11,9.6 0,8.44 0.01,8.52 1.11,9.6 0.7,0.69 1.63,1.1 2.51,1.1 0.88,0 1.81,-0.41 2.51,-1.1 1.1,-1.08 1.11,-1.16 1.11,-9.6 0,-8.44 -0.01,-8.52 -1.11,-9.6 -0.7,-0.69 -1.63,-1.1 -2.51,-1.1 -0.88,0 -1.81,0.41 -2.51,1.1zm-61.3 25.17c-2.32,2.28 -1.82,3.31 4.91,9.96 3.16,3.14 6.22,5.82 6.78,5.96 2.45,0.62 5.1,-1.99 4.47,-4.4 -0.15,-0.56 -2.86,-3.57 -6.05,-6.69 -6.75,-6.62 -7.79,-7.12 -10.11,-4.83zm123.74 -0.88c-1.64,0.68 -12.44,11.84 -12.44,12.85 0,2.5 2.37,4.52 4.63,3.95 0.56,-0.14 3.62,-2.82 6.78,-5.96 6.69,-6.62 7.22,-7.68 4.96,-9.91 -1.4,-1.38 -2.31,-1.6 -3.93,-0.93zm-66.26 3.42c-14.74,1.85 -27.09,7.69 -37.09,17.55 -8.74,8.61 -14.57,19.39 -17.06,31.56 -1.11,5.46 -1.08,17.12 0.06,22.59 3.65,17.46 14.15,32.07 29.38,40.89l2.09 1.21 0 18.53c0,20.6 0,20.54 2.97,22.78 1.6,1.2 2.02,1.29 6.61,1.43l4.9 0.15 0 4.21c0,4.99 0.59,6.68 2.96,8.47l1.71 1.28 9.19 0.14c10.35,0.16 11.41,-0.07 13.64,-2.95 1.12,-1.44 1.23,-1.96 1.37,-6.36l0.15 -4.79 4.86 -0.15c4.46,-0.14 4.99,-0.25 6.46,-1.35 3.1,-2.33 3.08,-2.17 3.08,-22.84l0 -18.57 1.41 -0.76c3.34,-1.8 9.3,-6.29 12.63,-9.52 12.54,-12.16 19.3,-29.1 18.38,-46.05 -0.83,-15.23 -7.13,-29.25 -17.93,-39.88 -11.51,-11.32 -25.37,-17.21 -41.41,-17.61 -3.73,-0.09 -7.49,-0.07 -8.36,0.04zm-2.36 7.54c-7.91,1.22 -17.07,5.05 -23.66,9.9 -21.18,15.59 -27.93,43.76 -16.04,66.97 4.92,9.61 13.96,18.63 23.38,23.33 1.3,0.65 2.57,1.57 2.83,2.04 0.26,0.48 0.47,3.19 0.47,6.02l0 5.16 9.05 0 9.04 0 0 -8.15 0 -8.14 -5.17 -5.08c-2.84,-2.79 -5.3,-5.58 -5.45,-6.19 -0.64,-2.5 1.92,-5.03 4.37,-4.31 0.58,0.17 3.03,2.24 5.46,4.6l4.41 4.29 4.41 -4.29c2.43,-2.36 4.88,-4.43 5.46,-4.6 2.45,-0.72 5.01,1.81 4.37,4.31 -0.15,0.61 -2.61,3.4 -5.45,6.19l-5.17 5.08 0 8.14 0 8.15 9.04 0 9.05 0 0 -5.16c0,-2.83 0.2,-5.52 0.44,-5.97 0.25,-0.45 1.96,-1.64 3.8,-2.63 12.06,-6.53 21.4,-17.59 25.58,-30.31 1.99,-6.05 2.52,-9.53 2.52,-16.55 0,-3.72 -0.27,-7.79 -0.63,-9.59 -5.8,-28.89 -32.85,-47.7 -62.11,-43.21zm-80.66 50.33c-0.7,0.69 -1.11,1.6 -1.11,2.47 0,0.87 0.41,1.78 1.11,2.47 1.1,1.09 1.18,1.09 9.75,1.09 8.56,0 8.64,0 9.74,-1.09 0.7,-0.69 1.11,-1.6 1.11,-2.47 0,-0.87 -0.41,-1.78 -1.11,-2.47 -1.1,-1.09 -1.18,-1.1 -9.74,-1.1 -8.57,0 -8.65,0.01 -9.75,1.1zm159.21 0c-0.7,0.69 -1.11,1.6 -1.11,2.47 0,0.87 0.41,1.78 1.11,2.47 1.1,1.09 1.18,1.09 9.74,1.09 8.57,0 8.65,0 9.75,-1.09 0.7,-0.69 1.11,-1.6 1.11,-2.47 0,-0.87 -0.41,-1.78 -1.11,-2.47 -1.1,-1.09 -1.18,-1.1 -9.75,-1.1 -8.56,0 -8.64,0.01 -9.74,1.1zm-123 50.11c-0.75,0.47 -3.65,3.12 -6.44,5.91 -6,5.97 -6.5,7.09 -4.23,9.33 2.29,2.26 3.39,1.76 9.68,-4.39 7.13,-6.98 7.69,-8.05 5.32,-10.39 -1.55,-1.52 -2.47,-1.61 -4.33,-0.46zm101.95 0.46c-1.48,1.46 -1.61,2.21 -0.68,3.96 0.89,1.66 11.12,11.49 12.36,11.87 2.25,0.68 5.08,-2.11 4.39,-4.32 -0.39,-1.23 -10.36,-11.31 -12.05,-12.18 -1.77,-0.92 -2.53,-0.79 -4.02,0.67zm-70.52 23.21l0 3.57 21.71 0 21.71 0 0 -3.57 0 -3.56 -21.71 0 -21.71 0 0 3.56zm0 14.27l0 3.56 21.71 0 21.71 0 0 -3.56 0 -3.57 -21.71 0 -21.71 0 0 3.57zm14.47 14.26l0 3.57 7.24 0 7.24 0 0 -3.57 0 -3.57 -7.24 0 -7.24 0 0 3.57z"/>
 </g>
</svg>
