<svg width="50" height="55" viewBox="0 0 50 55" fill="none" xmlns="http://www.w3.org/2000/svg">
<path fill-rule="evenodd" clip-rule="evenodd" d="M10.9472 22.0258V12.258H20.8637V0L40.2173 8.22209V15.6714L48.4557 20.0507V53.1109H50V55H46.5378V21.1671L40.2173 17.8181V55H32.5674V11.6354L38.2994 14.6624V9.46722L22.8034 2.87666V12.258H28.5136V55H20.8637V14.1472H12.8651V22.0258H18.5753V55H10.9472V23.9149H5.28056V55H0V53.1109H3.36263V22.0258H10.9472ZM26.5957 53.1109V14.1472H22.8034V53.1109H26.5957ZM16.6574 53.1109V23.9149H12.8651V53.1109H16.6574ZM38.2994 16.8091L34.4854 14.7912V53.1109H38.2994V16.8091Z" fill="white"/>
</svg>
