<svg width="165" height="47" viewBox="0 0 165 47" fill="none" xmlns="http://www.w3.org/2000/svg">
<path fill-rule="evenodd" clip-rule="evenodd" d="M9.69593 18.4969V10.2941H17.8987V0L33.9077 6.90478V13.1605L40.7224 16.8383V44.6016H41.9998V46.1881H39.1359V17.7758L33.9077 14.9634V46.1881H27.5798V9.77125L32.3212 12.3132V7.95042L19.5032 2.41578V10.2941H24.2266V46.1881H17.8987V11.8805H11.2824V18.4969H16.0058V46.1881H9.69593V20.0834H5.00861V46.1881H0.640625V44.6016H3.42214V18.4969H9.69593ZM22.6401 44.6016V11.8805H19.5032V44.6016H22.6401ZM14.4193 44.6016V20.0834H11.2824V44.6016H14.4193ZM32.3212 14.116L29.1663 12.4214V44.6016H32.3212V14.116Z" fill="#FFB703"/>
<path d="M58.24 35V11.96H67.456C69.0987 11.96 70.4267 12.2907 71.44 12.952C72.4533 13.6027 73.1947 14.424 73.664 15.416C74.1333 16.408 74.368 17.4107 74.368 18.424C74.368 19.7147 74.0747 20.7867 73.488 21.64C72.912 22.4933 72.1173 23.064 71.104 23.352V22.552C72.544 22.8507 73.6213 23.5173 74.336 24.552C75.0613 25.5867 75.424 26.744 75.424 28.024C75.424 29.4 75.168 30.6107 74.656 31.656C74.1547 32.7013 73.3867 33.5227 72.352 34.12C71.3173 34.7067 70.016 35 68.448 35H58.24ZM62.656 30.904H68C68.5867 30.904 69.1093 30.7813 69.568 30.536C70.0267 30.28 70.384 29.928 70.64 29.48C70.9067 29.0213 71.04 28.4827 71.04 27.864C71.04 27.32 70.928 26.8347 70.704 26.408C70.48 25.9813 70.1387 25.6453 69.68 25.4C69.232 25.144 68.672 25.016 68 25.016H62.656V30.904ZM62.656 20.952H67.392C67.8827 20.952 68.32 20.8667 68.704 20.696C69.088 20.5253 69.392 20.264 69.616 19.912C69.84 19.5493 69.952 19.0853 69.952 18.52C69.952 17.816 69.7333 17.224 69.296 16.744C68.8587 16.264 68.224 16.024 67.392 16.024H62.656V20.952ZM84.087 35.512C82.7323 35.512 81.6283 35.2827 80.775 34.824C79.9217 34.3653 79.255 33.784 78.775 33.08C78.3057 32.376 77.9697 31.6453 77.767 30.888C77.5643 30.12 77.4417 29.4213 77.399 28.792C77.3563 28.1627 77.335 27.704 77.335 27.416V17.72H81.751V25.88C81.751 26.2747 81.7723 26.7813 81.815 27.4C81.8577 28.008 81.991 28.6213 82.215 29.24C82.439 29.8587 82.8017 30.376 83.303 30.792C83.815 31.208 84.535 31.416 85.463 31.416C85.8363 31.416 86.2363 31.3573 86.663 31.24C87.0897 31.1227 87.4897 30.8987 87.863 30.568C88.2363 30.2267 88.5403 29.7307 88.775 29.08C89.0203 28.4187 89.143 27.5547 89.143 26.488L91.639 27.672C91.639 29.0373 91.3617 30.3173 90.807 31.512C90.2523 32.7067 89.415 33.672 88.295 34.408C87.1857 35.144 85.783 35.512 84.087 35.512ZM89.687 35V29.272H89.143V17.72H93.527V35H89.687ZM97.3588 15.32V11.48H101.711V15.32H97.3588ZM97.3588 35V17.72H101.711V35H97.3588ZM105.867 35V11.48H110.219V35H105.867ZM124.424 35C123.23 35.224 122.056 35.32 120.904 35.288C119.763 35.2667 118.739 35.0693 117.832 34.696C116.936 34.312 116.254 33.6987 115.784 32.856C115.358 32.0667 115.134 31.2667 115.112 30.456C115.091 29.6347 115.08 28.7067 115.08 27.672V12.92H119.432V27.416C119.432 28.088 119.438 28.696 119.448 29.24C119.47 29.7733 119.582 30.2 119.784 30.52C120.168 31.128 120.782 31.4587 121.624 31.512C122.467 31.5653 123.4 31.5227 124.424 31.384V35ZM112.136 21.08V17.72H124.424V21.08H112.136Z" fill="white"/>
<path d="M133.747 35.512C132.392 35.512 131.288 35.2827 130.435 34.824C129.582 34.3653 128.915 33.784 128.435 33.08C127.966 32.376 127.63 31.6453 127.427 30.888C127.224 30.12 127.102 29.4213 127.059 28.792C127.016 28.1627 126.995 27.704 126.995 27.416V17.72H131.411V25.88C131.411 26.2747 131.432 26.7813 131.475 27.4C131.518 28.008 131.651 28.6213 131.875 29.24C132.099 29.8587 132.462 30.376 132.963 30.792C133.475 31.208 134.195 31.416 135.123 31.416C135.496 31.416 135.896 31.3573 136.323 31.24C136.75 31.1227 137.15 30.8987 137.523 30.568C137.896 30.2267 138.2 29.7307 138.435 29.08C138.68 28.4187 138.803 27.5547 138.803 26.488L141.299 27.672C141.299 29.0373 141.022 30.3173 140.467 31.512C139.912 32.7067 139.075 33.672 137.955 34.408C136.846 35.144 135.443 35.512 133.747 35.512ZM139.347 35V29.272H138.803V17.72H143.187V35H139.347ZM155.179 35.48C153.461 35.48 152.027 35.08 150.875 34.28C149.723 33.48 148.853 32.392 148.267 31.016C147.691 29.64 147.403 28.088 147.403 26.36C147.403 24.632 147.691 23.08 148.267 21.704C148.843 20.328 149.691 19.24 150.811 18.44C151.931 17.64 153.312 17.24 154.955 17.24C156.608 17.24 158.048 17.6347 159.275 18.424C160.501 19.2133 161.451 20.296 162.123 21.672C162.805 23.0373 163.147 24.6 163.147 26.36C163.147 28.088 162.811 29.64 162.139 31.016C161.477 32.392 160.549 33.48 159.355 34.28C158.16 35.08 156.768 35.48 155.179 35.48ZM146.667 42.68V17.72H150.507V29.56H151.051V42.68H146.667ZM154.475 31.608C155.413 31.608 156.181 31.3733 156.779 30.904C157.376 30.4347 157.819 29.8053 158.107 29.016C158.395 28.216 158.539 27.3307 158.539 26.36C158.539 25.4 158.389 24.5253 158.091 23.736C157.792 22.936 157.328 22.3013 156.699 21.832C156.08 21.352 155.285 21.112 154.315 21.112C153.408 21.112 152.672 21.3307 152.107 21.768C151.552 22.2053 151.147 22.8187 150.891 23.608C150.635 24.3973 150.507 25.3147 150.507 26.36C150.507 27.4053 150.635 28.3227 150.891 29.112C151.147 29.9013 151.563 30.5147 152.139 30.952C152.725 31.3893 153.504 31.608 154.475 31.608Z" fill="#FFB703"/>
</svg>
