<svg width="32" height="32" viewBox="0 0 32 32" fill="none" xmlns="http://www.w3.org/2000/svg">
<g clip-path="url(#clip0_263_1413)">
<path fill-rule="evenodd" clip-rule="evenodd" d="M7.93794 22.4683L8.62581 21.7826L11.7662 24.9225C13.4935 26.6495 14.9277 28.0625 14.9534 28.0625C14.979 28.0625 15 21.7484 15 14.0312V0L16 0L17 0V14.0312C17 21.7484 17.021 28.0625 17.0466 28.0625C17.0723 28.0625 18.5065 26.6495 20.2337 24.9225L23.3742 21.7826L24.0621 22.4683C24.4404 22.8455 24.75 23.1828 24.75 23.2179C24.75 23.2529 22.795 25.2362 20.4055 27.6252L16.0611 31.9688L16.5149 32.0044C16.8031 32.027 16.5924 32.0398 15.9375 32.0396C15.2101 32.0393 15.0584 32.0288 15.4225 32.004L15.9388 31.9688L11.5944 27.6252C9.205 25.2362 7.25 23.2529 7.25 23.2179C7.25 23.1828 7.55956 22.8455 7.93794 22.4683ZM16 0.0254375C16.5672 0.0254375 16.7992 0.0349375 16.5156 0.0465C16.232 0.0580625 15.7679 0.0580625 15.4844 0.0465C15.2008 0.0349375 15.4328 0.0254375 16 0.0254375Z" fill="#FFB703"/>
</g>
<defs>
<clipPath id="clip0_263_1413">
<rect width="32" height="32" fill="white" transform="matrix(0 1 1 0 0 0)"/>
</clipPath>
</defs>
</svg>
