<?xml version="1.0" encoding="UTF-8"?>
<!DOCTYPE svg PUBLIC "-//W3C//DTD SVG 1.0//EN" "http://www.w3.org/TR/2001/REC-SVG-20010904/DTD/svg10.dtd">
<!-- Creator: CorelDRAW 2021 (64-Bit) -->
<svg xmlns="http://www.w3.org/2000/svg" xml:space="preserve" width="165px" height="47px" version="1.0" shape-rendering="geometricPrecision" text-rendering="geometricPrecision" image-rendering="optimizeQuality" fill-rule="evenodd" clip-rule="evenodd"
viewBox="0 0 165 47"
 xmlns:xlink="http://www.w3.org/1999/xlink"
 xmlns:xodm="http://www.corel.com/coreldraw/odm/2003">
 <g id="Layer_x0020_1">
  <metadata id="CorelCorpID_0Corel-Layer"/>
  <g id="_2268429686736">
   <path fill="#DF1219" d="M13.33 19.63l0 -7.81 7.8 0 0 -9.79 15.23 6.57 0 5.95 6.48 3.5 0 26.41 1.21 0 0 1.51 -2.72 0 0 -27.03 -4.97 -2.68 0 29.71 -6.02 0 0 -34.64 4.51 2.41 0 -4.15 -12.2 -5.26 0 7.49 4.5 0 0 34.15 -6.02 0 0 -32.64 -6.3 0 0 6.3 4.5 0 0 26.34 -6 0 0 -24.84 -4.46 0 0 24.84 -4.16 0 0 -1.51 2.65 0 0 -24.83 5.97 0zm12.31 24.83l0 -31.13 -2.99 0 0 31.13 2.99 0zm-7.82 0l0 -23.33 -2.99 0 0 23.33 2.99 0zm17.03 -29l-3 -1.61 0 30.61 3 0 0 -29z"/>
   <path fill="white" fill-rule="nonzero" d="M59.5 35.32l0 -21.91 8.77 0c1.56,0 2.82,0.31 3.79,0.94 0.96,0.62 1.67,1.4 2.11,2.34 0.45,0.95 0.67,1.9 0.67,2.87 0,1.23 -0.28,2.24 -0.83,3.06 -0.55,0.81 -1.31,1.35 -2.27,1.62l0 -0.76c1.37,0.29 2.39,0.92 3.07,1.91 0.69,0.98 1.04,2.08 1.04,3.3 0,1.31 -0.25,2.46 -0.73,3.45 -0.48,1 -1.21,1.78 -2.2,2.35 -0.98,0.55 -2.22,0.83 -3.71,0.83l-9.71 0zm4.2 -3.89l5.09 0c0.55,0 1.05,-0.12 1.49,-0.35 0.43,-0.25 0.77,-0.58 1.02,-1.01 0.25,-0.43 0.38,-0.95 0.38,-1.53 0,-0.52 -0.11,-0.98 -0.32,-1.39 -0.22,-0.41 -0.54,-0.72 -0.98,-0.96 -0.42,-0.24 -0.96,-0.36 -1.59,-0.36l-5.09 0 0 5.6zm0 -9.47l4.51 0c0.46,0 0.88,-0.08 1.24,-0.24 0.37,-0.16 0.66,-0.41 0.87,-0.75 0.22,-0.34 0.32,-0.78 0.32,-1.32 0,-0.67 -0.21,-1.23 -0.62,-1.69 -0.42,-0.46 -1.02,-0.69 -1.81,-0.69l-4.51 0 0 4.69zm20.39 13.85c-1.29,0 -2.34,-0.22 -3.15,-0.65 -0.82,-0.44 -1.45,-0.99 -1.91,-1.66 -0.44,-0.67 -0.76,-1.37 -0.95,-2.09 -0.2,-0.73 -0.31,-1.39 -0.35,-1.99 -0.05,-0.6 -0.07,-1.04 -0.07,-1.31l0 -9.22 4.2 0 0 7.76c0,0.37 0.03,0.86 0.07,1.44 0.04,0.58 0.16,1.17 0.38,1.76 0.21,0.58 0.55,1.08 1.03,1.47 0.49,0.4 1.17,0.59 2.06,0.59 0.35,0 0.73,-0.05 1.14,-0.16 0.4,-0.11 0.78,-0.33 1.14,-0.64 0.35,-0.33 0.64,-0.8 0.87,-1.42 0.23,-0.63 0.35,-1.45 0.35,-2.46l2.37 1.12c0,1.3 -0.26,2.52 -0.79,3.66 -0.53,1.13 -1.32,2.05 -2.39,2.75 -1.06,0.7 -2.39,1.05 -4,1.05zm5.32 -0.49l0 -5.44 -0.51 0 0 -10.99 4.17 0 0 16.43 -3.66 0zm7.3 -18.72l0 -3.65 4.14 0 0 3.65 -4.14 0zm0 18.72l0 -16.43 4.14 0 0 16.43 -4.14 0zm8.09 0l0 -22.37 4.14 0 0 22.37 -4.14 0zm17.66 0c-1.14,0.22 -2.26,0.31 -3.35,0.28 -1.09,-0.02 -2.06,-0.21 -2.92,-0.56 -0.86,-0.37 -1.51,-0.95 -1.95,-1.76 -0.41,-0.75 -0.62,-1.51 -0.64,-2.28 -0.02,-0.78 -0.03,-1.66 -0.03,-2.65l0 -14.03 4.14 0 0 13.79c0,0.64 0,1.22 0.01,1.74 0.02,0.5 0.13,0.91 0.32,1.21 0.37,0.58 0.95,0.89 1.75,0.95 0.8,0.05 1.69,0.01 2.67,-0.13l0 3.44zm-11.69 -13.24l0 -3.19 11.69 0 0 3.19 -11.69 0z"/>
   <path fill="#DF1219" fill-rule="nonzero" d="M131.32 35.81c-1.29,0 -2.34,-0.22 -3.15,-0.65 -0.81,-0.44 -1.44,-0.99 -1.9,-1.66 -0.44,-0.67 -0.76,-1.37 -0.96,-2.09 -0.19,-0.73 -0.31,-1.39 -0.35,-1.99 -0.04,-0.6 -0.06,-1.04 -0.06,-1.31l0 -9.22 4.2 0 0 7.76c0,0.37 0.02,0.86 0.06,1.44 0.04,0.58 0.17,1.17 0.38,1.76 0.22,0.58 0.56,1.08 1.04,1.47 0.48,0.4 1.17,0.59 2.05,0.59 0.36,0 0.74,-0.05 1.14,-0.16 0.41,-0.11 0.79,-0.33 1.15,-0.64 0.35,-0.33 0.64,-0.8 0.86,-1.42 0.24,-0.63 0.35,-1.45 0.35,-2.46l2.38 1.12c0,1.3 -0.27,2.52 -0.79,3.66 -0.53,1.13 -1.33,2.05 -2.39,2.75 -1.06,0.7 -2.39,1.05 -4.01,1.05zm5.33 -0.49l0 -5.44 -0.52 0 0 -10.99 4.17 0 0 16.43 -3.65 0zm15.06 0.46c-1.63,0 -3,-0.38 -4.09,-1.14 -1.1,-0.76 -1.93,-1.8 -2.48,-3.11 -0.55,-1.3 -0.83,-2.78 -0.83,-4.42 0,-1.65 0.28,-3.12 0.83,-4.43 0.54,-1.31 1.35,-2.35 2.42,-3.11 1.06,-0.76 2.37,-1.14 3.94,-1.14 1.57,0 2.94,0.38 4.11,1.13 1.16,0.75 2.07,1.78 2.7,3.09 0.65,1.29 0.98,2.78 0.98,4.46 0,1.64 -0.32,3.12 -0.96,4.42 -0.63,1.31 -1.51,2.35 -2.65,3.11 -1.13,0.76 -2.46,1.14 -3.97,1.14zm-8.1 6.85l0 -23.74 3.66 0 0 11.26 0.51 0 0 12.48 -4.17 0zm7.43 -10.53c0.89,0 1.62,-0.23 2.19,-0.67 0.57,-0.45 0.99,-1.05 1.27,-1.8 0.27,-0.76 0.41,-1.6 0.41,-2.52 0,-0.92 -0.15,-1.75 -0.43,-2.5 -0.28,-0.76 -0.73,-1.37 -1.32,-1.81 -0.59,-0.46 -1.35,-0.69 -2.27,-0.69 -0.86,0 -1.56,0.21 -2.1,0.63 -0.53,0.41 -0.91,1 -1.16,1.75 -0.24,0.75 -0.36,1.62 -0.36,2.62 0,0.99 0.12,1.86 0.36,2.61 0.25,0.75 0.64,1.34 1.19,1.75 0.56,0.42 1.3,0.63 2.22,0.63z"/>
  </g>
 </g>
</svg>
