<?xml version="1.0" encoding="UTF-8"?>
<!DOCTYPE svg PUBLIC "-//W3C//DTD SVG 1.0//EN" "http://www.w3.org/TR/2001/REC-SVG-20010904/DTD/svg10.dtd">
<!-- Creator: CorelDRAW 2021 (64-Bit) -->
<svg xmlns="http://www.w3.org/2000/svg" xml:space="preserve" width="2480px" height="3508px" version="1.0" shape-rendering="geometricPrecision" text-rendering="geometricPrecision" image-rendering="optimizeQuality" fill-rule="evenodd" clip-rule="evenodd"
viewBox="0 0 2480 3507.43"
 xmlns:xlink="http://www.w3.org/1999/xlink"
 xmlns:xodm="http://www.corel.com/coreldraw/odm/2003">
 <defs>
   <clipPath id="id0">
    <path d="M1083.8 1909.93l312.4 0 0 -312.43 -312.4 0 0 312.43z"/>
   </clipPath>
 </defs>
 <g id="Layer_x0020_1">
  <metadata id="CorelCorpID_0Corel-Layer"/>
  <polygon fill="white" points="1083.8,1909.93 1396.2,1909.93 1396.2,1597.5 1083.8,1597.5 "/>
  <g>
  </g>
  <g clip-path="url(#id0)">
   <g>
   </g>
  </g>
  <polygon fill="none" points="1083.8,1909.93 1396.2,1909.93 1396.2,1597.5 1083.8,1597.5 "/>
  <polygon id="_1" fill="none" stroke="white" stroke-width="7.37" stroke-linecap="round" stroke-linejoin="round" stroke-miterlimit="22.9256" points="1083.8,1909.93 1396.2,1909.93 1396.2,1597.5 1083.8,1597.5 "/>
  <path fill="#DF1219" d="M1161.29 1816.88l6.72 -6.72 30.65 30.65c16.88,16.88 30.87,30.66 31.12,30.66 0.25,0 0.47,-61.62 0.47,-136.99l0 -136.98 9.75 0 9.75 0 0 136.98c0,75.37 0.22,136.99 0.47,136.99 0.25,0 14.25,-13.78 31.12,-30.66l30.65 -30.65 6.72 6.72c3.69,3.65 6.72,6.97 6.72,7.31 0,0.34 -19.09,19.69 -42.4,43.03l-42.43 42.4 4.43 0.34c2.82,0.22 0.75,0.34 -5.62,0.34 -7.13,0 -8.59,-0.09 -5.03,-0.34l5.03 -0.34 -42.43 -42.4c-23.31,-23.34 -42.4,-42.69 -42.4,-43.03 0,-0.34 3.03,-3.66 6.72,-7.31l-0.01 0zm78.71 -219.13c5.53,0 7.81,0.09 5.03,0.22 -2.75,0.09 -7.31,0.09 -10.06,0 -2.78,-0.13 -0.5,-0.22 5.03,-0.22z"/>
 </g>
</svg>
