<?xml version="1.0" encoding="UTF-8"?>
<!DOCTYPE svg PUBLIC "-//W3C//DTD SVG 1.0//EN" "http://www.w3.org/TR/2001/REC-SVG-20010904/DTD/svg10.dtd">
<!-- Creator: CorelDRAW 2021 (64-Bit) -->
<svg xmlns="http://www.w3.org/2000/svg" xml:space="preserve" width="2480px" height="3508px" version="1.0" shape-rendering="geometricPrecision" text-rendering="geometricPrecision" image-rendering="optimizeQuality" fill-rule="evenodd" clip-rule="evenodd"
viewBox="0 0 2480 3507.43"
 xmlns:xlink="http://www.w3.org/1999/xlink"
 xmlns:xodm="http://www.corel.com/coreldraw/odm/2003">
 <g id="Layer_x0020_1">
  <metadata id="CorelCorpID_0Corel-Layer"/>
  <path fill="#DF1219" d="M1269.13 1655.12c-0.36,0.36 -0.51,2.85 -0.51,8.48 0,7.17 0.08,8.03 0.78,8.67 1.04,0.94 2.03,0.89 3.07,-0.15 0.78,-0.79 0.85,-1.42 0.85,-8.23 0,-5.99 -0.13,-7.56 -0.66,-8.33 -0.74,-1.05 -2.68,-1.29 -3.53,-0.44zm-39.96 10.95c-0.39,0.43 -0.7,1.09 -0.7,1.48 0,1.22 7.37,13.61 8.31,13.96 1.24,0.46 2.52,-0.12 2.95,-1.35 0.32,-0.88 -0.18,-2.02 -3.15,-7.21 -1.94,-3.4 -3.82,-6.51 -4.18,-6.92 -0.84,-0.97 -2.33,-0.95 -3.23,0.04zm80.38 -0.25c-1.13,0.9 -7.61,12.49 -7.61,13.62 0,0.58 0.23,1.28 0.51,1.57 0.68,0.67 2.68,0.65 3.25,-0.02 1.29,-1.57 7.35,-12.62 7.35,-13.42 0,-1.87 -2.05,-2.9 -3.5,-1.75zm-63.14 23.7c-1.59,0.61 -25.22,17.86 -25.45,18.58 -0.14,0.44 0.03,1.22 0.37,1.74 1.04,1.55 48.1,51.03 48.8,51.29 0.35,0.14 1.07,0.04 1.59,-0.22 0.53,-0.26 11.72,-11.84 24.88,-25.73 20.62,-21.78 23.92,-25.44 23.92,-26.54 0,-1.18 -0.8,-1.85 -10.25,-8.64 -5.64,-4.05 -11.39,-8.13 -12.77,-9.08l-2.53 -1.71 -23.96 0.03c-13.18,0.02 -24.25,0.15 -24.6,0.28zm-6.72 10.29c-4.51,3.24 -8.34,6.02 -8.5,6.19 -0.17,0.16 4.13,0.3 9.55,0.3l9.84 0 3.9 -6c2.14,-3.3 3.89,-6.09 3.89,-6.2 0,-0.11 -2.36,-0.19 -5.23,-0.18l-5.24 0.01 -8.21 5.88zm24.32 -5.37c-0.24,0.3 -2.08,3.03 -4.09,6.09l-3.66 5.55 14.36 0.12c7.9,0.06 14.44,0.03 14.53,-0.06 0.09,-0.09 -1.61,-2.88 -3.78,-6.2l-3.95 -6.03 -6.48 0c-4.67,0 -6.61,0.15 -6.93,0.53zm19.84 0.69c0.44,0.67 2.23,3.46 3.99,6.19l3.21 4.98 10 0 10 0 -8.68 -6.2 -8.68 -6.19 -5.32 0 -5.31 0 0.79 1.22zm-84.26 0.7c-0.63,0.96 -0.64,1.17 -0.05,2.06 0.82,1.25 12.43,7.98 13.77,7.98 1.96,0 3.04,-2.22 1.73,-3.54 -1.28,-1.28 -12.64,-7.57 -13.67,-7.57 -0.68,0 -1.34,0.4 -1.78,1.07zm135.06 1.53c-8.26,4.87 -8.36,4.94 -8.36,6.27 0,1.48 0.69,2.24 2.03,2.24 1.09,0 12.81,-6.52 13.67,-7.6 1.21,-1.54 0.08,-3.54 -1.95,-3.46 -0.63,0.02 -3.06,1.17 -5.39,2.55zm-103.56 16.18c3.31,3.68 33.03,34.96 33.14,34.87 0.05,-0.04 -3.11,-8.48 -7.01,-18.74l-7.1 -18.68 -10.65 0 -10.66 0 2.28 2.55zm24.38 -1.8c0.35,1.34 14.96,39.61 15.23,39.92 0.15,0.17 3.53,-8.29 7.51,-18.79 3.99,-10.51 7.5,-19.72 7.8,-20.49l0.56 -1.39 -15.64 0c-14.7,0 -15.64,0.05 -15.46,0.75zm35.56 0.73c-1.73,4.15 -13.46,35.38 -13.34,35.51 0.16,0.16 34.63,-36.06 34.86,-36.63 0.08,-0.2 -4.59,-0.36 -10.38,-0.36l-10.52 0 -0.62 1.48zm-81.06 53.42c-4.74,1.2 -11.7,4.23 -23.28,10.11 -6.41,3.27 -11.84,5.82 -12.06,5.69 -0.23,-0.14 -0.98,-1.08 -1.68,-2.1 -0.69,-1.01 -1.96,-2.17 -2.81,-2.57 -1.81,-0.86 -4.82,-0.96 -6.25,-0.21 -2.69,1.41 -23.39,16.03 -24.59,17.36 -1.53,1.69 -2.07,3.62 -1.64,5.88 0.18,0.98 5.88,9.59 16.75,25.31 9.07,13.11 16.99,24.38 17.61,25.06 2.14,2.34 5.65,3.07 8.26,1.72 1.23,-0.64 21.04,-14.25 23.4,-16.07 1.57,-1.22 2.51,-2.87 2.82,-4.92 0.22,-1.47 0.06,-2.28 -0.84,-4.11 -0.62,-1.26 -1.12,-2.46 -1.12,-2.68 0,-0.76 2.63,-3.58 3.34,-3.58 0.4,0 10.71,3.12 22.93,6.92 21.01,6.54 22.4,6.91 25.64,6.9 10.09,-0.03 25.12,-7.88 50.19,-26.23 4.58,-3.35 11.02,-8.02 14.31,-10.37 9.13,-6.51 11.03,-8.59 12.22,-13.29 1.37,-5.45 -2.59,-11.52 -8.8,-13.5 -2.51,-0.8 -7.25,-0.62 -10.47,0.41 -1.8,0.57 -9.16,4.62 -20.93,11.51l-18.15 10.63 -0.46 -1.97c-0.68,-2.91 -2.01,-5.21 -4.15,-7.18 -2.55,-2.36 -2.4,-2.29 -13.22,-5.87 -5.23,-1.74 -13.65,-4.83 -18.7,-6.87 -14.71,-5.96 -15.72,-6.27 -21.14,-6.45 -3.19,-0.1 -5.5,0.05 -7.18,0.47zm1.13 4.72c-4.34,0.95 -9.18,3.02 -21.08,9.02 -6.23,3.13 -11.59,5.87 -11.92,6.08 -0.47,0.3 2.02,4.17 11.28,17.56l11.88 17.18 1.32 -1.54c1.39,-1.61 3.77,-2.83 5.54,-2.83 0.58,0 11.3,3.19 23.84,7.08 21.78,6.77 22.9,7.07 25.55,6.87 3.92,-0.3 8.93,-2 15.03,-5.11 9.48,-4.81 18.11,-10.56 40.57,-27.02 4.15,-3.04 8.8,-6.42 10.34,-7.53 3.69,-2.64 5.14,-4.83 5.17,-7.83 0.02,-1.66 -0.22,-2.6 -0.87,-3.48 -2.95,-3.99 -8.99,-4.9 -14.49,-2.18 -0.94,0.46 -10.11,5.75 -20.38,11.74 -17.43,10.17 -18.75,11.02 -19.78,12.78 -2.6,4.44 -6.64,7 -11.53,7.32 -2.82,0.19 -4.08,-0.11 -22.37,-5.29 -20.58,-5.83 -21.06,-6.02 -20.34,-8.28 0.66,-2.11 1.13,-2.02 21.02,3.62 19.26,5.46 21.49,5.9 24.16,4.78 5.11,-2.15 7.41,-8.32 4.89,-13.1 -1.64,-3.1 -3.15,-3.92 -13.58,-7.38 -5.3,-1.76 -14.26,-5.05 -19.91,-7.31 -14.61,-5.84 -17.95,-6.55 -24.34,-5.15zm-45 10.33c-1.04,0.41 -22.82,15.56 -23.39,16.27 -0.3,0.37 -0.53,1.06 -0.51,1.55 0.01,0.48 7.56,11.74 16.77,25.01 15.39,22.18 16.85,24.15 18.03,24.24 1.04,0.09 3.39,-1.37 12.79,-7.9 8.35,-5.8 11.64,-8.32 11.93,-9.14 0.36,-1.04 -0.95,-3.08 -15.95,-24.78 -8.99,-13 -16.82,-24.07 -17.39,-24.6 -1.1,-1.01 -1.25,-1.05 -2.28,-0.65zm12.22 42.99c-4.39,2.65 -5.01,9.11 -1.19,12.32 2.82,2.37 6.45,2.61 9.45,0.62 1.84,-1.22 3.44,-4.1 3.44,-6.2 0,-1.58 -0.99,-4.15 -2.05,-5.32 -2.25,-2.5 -6.77,-3.16 -9.65,-1.42zm1.73 4.47c-1.7,1.88 -0.26,5.2 2.25,5.2 1.43,0 3.02,-1.68 3.02,-3.18 0,-2.36 -3.69,-3.77 -5.27,-2.02z"/>
 </g>
</svg>
