<?xml version="1.0" encoding="UTF-8"?>
<!DOCTYPE svg PUBLIC "-//W3C//DTD SVG 1.0//EN" "http://www.w3.org/TR/2001/REC-SVG-20010904/DTD/svg10.dtd">
<!-- Creator: CorelDRAW 2021 (64-Bit) -->
<svg xmlns="http://www.w3.org/2000/svg" xml:space="preserve" width="2480px" height="3508px" version="1.0" shape-rendering="geometricPrecision" text-rendering="geometricPrecision" image-rendering="optimizeQuality" fill-rule="evenodd" clip-rule="evenodd"
viewBox="0 0 2480 3507.43"
 xmlns:xlink="http://www.w3.org/1999/xlink"
 xmlns:xodm="http://www.corel.com/coreldraw/odm/2003">
 <g id="Layer_x0020_1">
  <metadata id="CorelCorpID_0Corel-Layer"/>
  <path fill="white" stroke="#DF1219" stroke-width="14.65" stroke-linecap="round" stroke-linejoin="round" stroke-miterlimit="22.9256" d="M1269.15 1805.41c0,21.15 4.16,42.12 12.25,61.65 8.09,19.56 19.97,37.31 34.93,52.27 14.97,14.94 32.72,26.81 52.25,34.91 19.56,8.09 40.49,12.27 61.65,12.27 21.15,0 42.12,-4.18 61.64,-12.27 19.56,-8.1 37.31,-19.97 52.28,-34.91 14.97,-14.96 26.81,-32.71 34.93,-52.27 8.09,-19.53 12.25,-40.5 12.25,-61.65 0,-42.71 -16.97,-83.71 -47.18,-113.92 -30.22,-30.19 -71.18,-47.18 -113.92,-47.18 -42.72,0 -83.68,16.99 -113.9,47.18 -30.21,30.21 -47.18,71.21 -47.18,113.92l0 0z"/>
  <line fill="none" stroke="#DF1219" stroke-width="14.65" stroke-linecap="round" stroke-linejoin="round" stroke-miterlimit="22.9256" x1="1363.11" y1="1805.41" x2="1497.37" y2= "1805.41" />
  <line fill="none" stroke="#DF1219" stroke-width="14.65" stroke-linecap="round" stroke-linejoin="round" stroke-miterlimit="22.9256" x1="1363.11" y1="1805.41" x2="1416.82" y2= "1751.73" />
  <line fill="none" stroke="#DF1219" stroke-width="14.65" stroke-linecap="round" stroke-linejoin="round" stroke-miterlimit="22.9256" x1="1416.82" y1="1859.12" x2="1363.11" y2= "1805.41" />
 </g>
</svg>
