<?xml version="1.0" encoding="UTF-8"?>
<!DOCTYPE svg PUBLIC "-//W3C//DTD SVG 1.0//EN" "http://www.w3.org/TR/2001/REC-SVG-20010904/DTD/svg10.dtd">
<!-- Creator: CorelDRAW 2021 (64-Bit) -->
<svg xmlns="http://www.w3.org/2000/svg" xml:space="preserve" width="2480px" height="3508px" version="1.0" shape-rendering="geometricPrecision" text-rendering="geometricPrecision" image-rendering="optimizeQuality" fill-rule="evenodd" clip-rule="evenodd"
viewBox="0 0 2480 3507.43"
 xmlns:xlink="http://www.w3.org/1999/xlink"
 xmlns:xodm="http://www.corel.com/coreldraw/odm/2003">
 <g id="Layer_x0020_1">
  <metadata id="CorelCorpID_0Corel-Layer"/>
  <path fill="#DF1219" d="M1245.86 1694.03c9.87,1.69 18.4,7.19 23.94,15.45 2.7,4.02 4.32,7.83 5.42,12.69 0.45,2 0.53,3.12 0.52,7.13 0,4.22 -0.08,5.11 -0.65,7.81 -3.12,14.64 -14.74,37 -31.75,61.1 -3.17,4.49 -3.43,4.48 -6.8,-0.02 -5.19,-6.94 -11.13,-15.82 -15.63,-23.38 -8.65,-14.51 -13.96,-26.94 -16.11,-37.7 -0.79,-3.96 -0.8,-11.42 -0.03,-14.89 1.09,-4.82 2.78,-8.79 5.44,-12.76 5.63,-8.41 14.52,-14.02 24.59,-15.53 2.33,-0.35 8.77,-0.3 11.06,0.1zm-1.47 3.2c7.49,1.32 12.92,3.96 18.02,8.76 7.81,7.34 11.42,18.26 9.58,28.96 -2.17,12.65 -11.9,32.4 -26.98,54.77 -4.57,6.79 -4.86,7.19 -5.07,7.13 -0.58,-0.16 -9.99,-13.91 -14.15,-20.68 -9.13,-14.86 -15.3,-28.53 -17.41,-38.58 -0.87,-4.18 -1.08,-9.65 -0.5,-13.19 1.89,-11.49 9.75,-21.14 20.65,-25.35 3.44,-1.34 5.98,-1.77 10.74,-1.85 2.48,-0.05 4.79,-0.03 5.12,0.03zm-0.66 11.96c4.33,0.78 8.1,2.88 11.37,6.33 1.58,1.67 2.23,2.6 3.21,4.58 1.74,3.53 2.25,5.68 2.25,9.45 0,3.66 -0.51,5.86 -2.11,9.15 -2.7,5.54 -7.78,9.51 -14.06,10.97 -2.34,0.55 -6.71,0.5 -9.27,-0.12 -7.38,-1.76 -13.16,-7.51 -15.18,-15.1 -0.7,-2.61 -0.7,-7.2 0.01,-9.91 2.06,-7.9 8.59,-13.99 16.48,-15.36 2.61,-0.46 4.75,-0.46 7.3,0.01zm-0.99 3.26c10.66,1.95 17.02,12.65 13.51,22.74 -1.67,4.83 -5.65,8.8 -10.61,10.57 -1.98,0.71 -2.3,0.75 -5.64,0.75 -3.34,0 -3.66,-0.04 -5.64,-0.75 -4.94,-1.77 -8.95,-5.75 -10.59,-10.52 -2.87,-8.29 0.75,-17.22 8.54,-21.09 1.07,-0.54 2.56,-1.14 3.3,-1.34 1.65,-0.44 5.58,-0.64 7.13,-0.36zm-18.79 78.05c0.23,0.27 0.43,0.82 0.43,1.24 0,1.11 -0.85,1.66 -2.86,1.86 -2.58,0.26 -8.58,1.53 -11.23,2.37 -4.02,1.29 -6.66,2.86 -6.66,3.98 0,1.98 6.44,4.51 15.25,5.98 7.12,1.19 9.68,1.36 21.12,1.36 11.44,0 14.01,-0.17 21.12,-1.36 8.73,-1.46 15.25,-4.01 15.25,-5.96 0,-1.65 -5,-3.9 -11.84,-5.32 -1.61,-0.34 -3.52,-0.69 -4.25,-0.79 -2.22,-0.29 -3.05,-1.59 -1.88,-2.96l0.58 -0.67 2.78 0.42c3.55,0.53 8.81,1.85 11.32,2.85 4.65,1.85 6.71,3.84 6.71,6.5 0,4.9 -8.62,8.38 -25.39,10.24 -4.81,0.53 -18.65,0.75 -24.06,0.37 -19.08,-1.33 -30.13,-5.23 -30.13,-10.64 0,-4.07 5.54,-7.05 16.99,-9.15 1.43,-0.27 3.44,-0.55 4.46,-0.64 1.65,-0.13 1.91,-0.1 2.29,0.32z"/>
 </g>
</svg>
