<?xml version="1.0" encoding="UTF-8"?>
<!DOCTYPE svg PUBLIC "-//W3C//DTD SVG 1.0//EN" "http://www.w3.org/TR/2001/REC-SVG-20010904/DTD/svg10.dtd">
<!-- Creator: CorelDRAW 2021 (64-Bit) -->
<svg xmlns="http://www.w3.org/2000/svg" xml:space="preserve" width="2480px" height="3508px" version="1.0" shape-rendering="geometricPrecision" text-rendering="geometricPrecision" image-rendering="optimizeQuality" fill-rule="evenodd" clip-rule="evenodd"
viewBox="0 0 2480 3507.43"
 xmlns:xlink="http://www.w3.org/1999/xlink"
 xmlns:xodm="http://www.corel.com/coreldraw/odm/2003">
 <g id="Layer_x0020_1">
  <metadata id="CorelCorpID_0Corel-Layer"/>
  <path fill="#DF1219" fill-rule="nonzero" d="M1344.36 1744.46c-2.51,0 -4.55,2.07 -4.55,4.62l0 41.59 -66.47 0 -52.01 -52.75 0 -85.89 22.79 0c2.51,0 4.55,-2.07 4.55,-4.62 0,-2.55 -2.04,-4.62 -4.55,-4.62l-72.91 0c-22.61,0 -41.01,18.66 -41.01,41.59l0 138.64c0,22.93 18.4,41.59 41.01,41.59l136.7 0c22.61,0 41.01,-18.66 41.01,-41.59l0 -73.94c0,-2.55 -2.04,-4.62 -4.56,-4.62zm-173.15 -92.43l41.01 0 0 84.95 -72.91 36.97 0 -89.57c0,-17.84 14.31,-32.35 31.9,-32.35zm-31.9 170.99l0 -38.74 76.57 -38.83 49.66 50.38 -40.63 59.53 -53.7 0c-17.59,0 -31.9,-14.5 -31.9,-32.34zm168.6 32.35l-71.92 0 37.85 -55.46 65.97 0 0 23.11c0,17.84 -14.31,32.35 -31.9,32.35zm-9.11 -143.26c10.05,0 18.22,-8.29 18.22,-18.49 0,-10.19 -8.17,-18.49 -18.22,-18.49 -10.05,0 -18.23,8.3 -18.23,18.49 0,10.2 8.18,18.49 18.23,18.49zm0 -27.73c5.03,0 9.11,4.14 9.11,9.24 0,5.1 -4.08,9.24 -9.11,9.24 -5.03,0 -9.12,-4.14 -9.12,-9.24 0,-5.1 4.09,-9.24 9.12,-9.24zm-35.31 44.98l17.97 16.75c4.66,4.6 10.82,7.14 17.34,7.14 6.51,0 12.68,-2.54 17.25,-7.06l18.18 -16.97c9.48,-9.56 14.69,-22.28 14.69,-35.81 0,-13.53 -5.21,-26.25 -14.69,-35.82 -9.46,-9.56 -22.04,-14.82 -35.43,-14.82 -13.39,0 -25.98,5.26 -35.44,14.82 -9.47,9.57 -14.69,22.29 -14.69,35.82 0,13.53 5.22,26.26 14.82,35.95zm6.29 -65.21c7.76,-7.82 18.05,-12.12 29.02,-12.12 10.96,0 21.26,4.31 29.01,12.12 7.74,7.82 12,18.21 12,29.27 0,11.05 -4.27,21.44 -11.89,29.13l-18.14 16.93c-5.89,5.84 -15.98,5.93 -22.06,-0.09l-17.94 -16.72c-7.74,-7.82 -11.99,-18.21 -11.99,-29.26 0,-11.06 4.26,-21.44 11.99,-29.26z"/>
 </g>
</svg>
