<?xml version="1.0" encoding="UTF-8"?>
<!DOCTYPE svg PUBLIC "-//W3C//DTD SVG 1.0//EN" "http://www.w3.org/TR/2001/REC-SVG-20010904/DTD/svg10.dtd">
<!-- Creator: CorelDRAW 2021 (64-Bit) -->
<svg xmlns="http://www.w3.org/2000/svg" xml:space="preserve" width="2480px" height="3508px" version="1.0" shape-rendering="geometricPrecision" text-rendering="geometricPrecision" image-rendering="optimizeQuality" fill-rule="evenodd" clip-rule="evenodd"
viewBox="0 0 2480 3507.43"
 xmlns:xlink="http://www.w3.org/1999/xlink"
 xmlns:xodm="http://www.corel.com/coreldraw/odm/2003">
 <g id="Layer_x0020_1">
  <metadata id="CorelCorpID_0Corel-Layer"/>
  <path fill="#DF1219" fill-rule="nonzero" d="M1344.8 1744.6c-2.51,0 -4.55,-2.04 -4.55,-4.56 0,-47.73 -38.84,-86.57 -86.58,-86.57 -2.51,0 -4.56,-2.05 -4.56,-4.56 0,-2.52 2.05,-4.56 4.56,-4.56 52.77,0 95.69,42.93 95.69,95.69 0,2.52 -2.04,4.56 -4.56,4.56zm-31.89 -4.56c0,-32.66 -26.58,-59.23 -59.24,-59.23 -2.51,0 -4.56,2.04 -4.56,4.55 0,2.52 2.05,4.56 4.56,4.56 27.64,0 50.12,22.48 50.12,50.12 0,2.52 2.05,4.56 4.56,4.56 2.52,0 4.56,-2.04 4.56,-4.56zm20.36 107.28l8.91 -10.25c4.63,-4.63 7.18,-10.79 7.18,-17.34 0,-6.54 -2.55,-12.71 -7.63,-17.72l-22.29 -17.07c-9.55,-9.55 -25.09,-9.56 -34.66,-0.03l-13.96 13.62c-33.54,-13.67 -60.86,-41.02 -75.59,-75.67l13.57 -13.9c9.56,-9.56 9.56,-25.12 0.39,-34.23l-17.86 -23.18c-9.26,-9.27 -25.63,-9.05 -34.44,-0.21l-10.7 9.34c-10.04,9.97 -15.55,23.53 -15.55,38.14 0,70.62 93.64,164.26 164.26,164.26 14.61,0 28.15,-5.52 38.37,-15.76zm-148.78 -189.79l17.85 23.18c6.01,6 6.01,15.78 -0.03,21.83l-15.7 16.1c-1.25,1.29 -1.64,3.21 -0.96,4.88 15.75,39.23 46.59,70.07 84.62,84.57 1.66,0.64 3.54,0.25 4.81,-0.98l16.09 -15.69c0,0 0.03,-0.03 0.04,-0.05 5.82,-5.83 15.53,-6.21 22.23,0.39l22.3 17.07c6,6.01 6,15.78 -0.21,22.02l-8.92 10.25c-8.28,8.3 -19.54,12.86 -31.71,12.86 -65.25,0 -155.15,-89.89 -155.15,-155.14 0,-12.17 4.57,-23.44 12.64,-31.5l10.71 -9.34c3.06,-3.06 7.1,-4.56 11.07,-4.56 3.82,0 7.58,1.39 10.33,4.12l-0.01 -0.01z"/>
 </g>
</svg>
