<?xml version="1.0" encoding="UTF-8"?>
<!DOCTYPE svg PUBLIC "-//W3C//DTD SVG 1.0//EN" "http://www.w3.org/TR/2001/REC-SVG-20010904/DTD/svg10.dtd">
<!-- Creator: CorelDRAW 2021 (64-Bit) -->
<svg xmlns="http://www.w3.org/2000/svg" xml:space="preserve" width="2480px" height="3508px" version="1.0" shape-rendering="geometricPrecision" text-rendering="geometricPrecision" image-rendering="optimizeQuality" fill-rule="evenodd" clip-rule="evenodd"
viewBox="0 0 2480 3507.43"
 xmlns:xlink="http://www.w3.org/1999/xlink"
 xmlns:xodm="http://www.corel.com/coreldraw/odm/2003">
 <g id="Layer_x0020_1">
  <metadata id="CorelCorpID_0Corel-Layer"/>
  <g>
   <path fill="white" d="M1244.3 1770.9l17.18 -17.19 -17.18 17.19zm17.18 -17.19l-17.18 -17.18 17.18 17.18zm0 0l-42.96 0 42.96 0zm30.08 0c0,6.77 -1.34,13.48 -3.93,19.73 -2.59,6.26 -6.39,11.94 -11.17,16.73 -4.79,4.79 -10.48,8.58 -16.73,11.18 -6.26,2.59 -12.96,3.92 -19.73,3.92 -6.77,0 -13.47,-1.33 -19.73,-3.92 -6.25,-2.6 -11.94,-6.39 -16.73,-11.18 -4.78,-4.79 -8.58,-10.47 -11.17,-16.73 -2.59,-6.25 -3.93,-12.96 -3.93,-19.73 0,-13.67 5.44,-26.78 15.1,-36.45 9.67,-9.67 22.79,-15.1 36.46,-15.1 13.67,0 26.79,5.43 36.46,15.1 9.66,9.67 15.1,22.78 15.1,36.45z"/>
   <path id="_1" fill="none" stroke="#DF1219" stroke-width="4.69" stroke-linecap="round" stroke-linejoin="round" stroke-miterlimit="22.9256" d="M1244.3 1770.9l17.18 -17.19m0 0l-17.18 -17.18m17.18 17.18l-42.96 0m73.04 0c0,6.77 -1.34,13.48 -3.93,19.73 -2.59,6.26 -6.39,11.94 -11.17,16.73 -4.79,4.79 -10.48,8.58 -16.73,11.18 -6.26,2.59 -12.96,3.92 -19.73,3.92 -6.77,0 -13.47,-1.33 -19.73,-3.92 -6.25,-2.6 -11.94,-6.39 -16.73,-11.18 -4.78,-4.79 -8.58,-10.47 -11.17,-16.73 -2.59,-6.25 -3.93,-12.96 -3.93,-19.73 0,-13.67 5.44,-26.78 15.1,-36.45 9.67,-9.67 22.79,-15.1 36.46,-15.1 13.67,0 26.79,5.43 36.46,15.1 9.66,9.67 15.1,22.78 15.1,36.45z"/>
  </g>
 </g>
</svg>
