<?xml version="1.0" encoding="UTF-8"?>
<!DOCTYPE svg PUBLIC "-//W3C//DTD SVG 1.0//EN" "http://www.w3.org/TR/2001/REC-SVG-20010904/DTD/svg10.dtd">
<!-- Creator: CorelDRAW 2021 (64-Bit) -->
<svg xmlns="http://www.w3.org/2000/svg" xml:space="preserve" width="2480px" height="3508px" version="1.0" shape-rendering="geometricPrecision" text-rendering="geometricPrecision" image-rendering="optimizeQuality" fill-rule="evenodd" clip-rule="evenodd"
viewBox="0 0 2480 3507.43"
 xmlns:xlink="http://www.w3.org/1999/xlink"
 xmlns:xodm="http://www.corel.com/coreldraw/odm/2003">
 <g id="Layer_x0020_1">
  <metadata id="CorelCorpID_0Corel-Layer"/>
  <path fill="#DF1219" d="M1233.85 1645.05c-4.72,1.02 -7.73,2.66 -17.12,9.33 -4.85,3.45 -9.51,6.73 -10.35,7.3l-1.53 1.04 -17.99 0.01c-17.87,0.01 -18,0.01 -19.69,0.97 -0.95,0.54 -2.12,1.71 -2.66,2.66 -0.93,1.65 -0.96,2.04 -0.97,13.71l-0.01 12.01 -15.91 11.26c-8.75,6.2 -16.14,11.56 -16.43,11.92 -0.81,1.01 -0.74,137.98 0.07,140.25 0.96,2.7 2.71,4.82 5.06,6.12l2.22 1.23 101.46 0 101.46 0 2.25 -1.25c2.37,-1.31 4.65,-4.15 5.1,-6.34 0.13,-0.65 0.4,-1.29 0.61,-1.41 0.21,-0.13 0.37,-30.61 0.37,-69.44 0,-43.01 -0.15,-69.11 -0.4,-68.96 -0.22,0.14 -0.56,0 -0.75,-0.31 -0.19,-0.32 -7.51,-5.64 -16.26,-11.83l-15.91 -11.27 -0.01 -11.99c0,-11.65 -0.03,-12.05 -0.97,-13.7 -0.54,-0.95 -1.71,-2.12 -2.66,-2.66 -1.69,-0.96 -1.82,-0.96 -19.7,-0.97l-18 -0.01 -7.85 -5.55c-12.24,-8.66 -13.82,-9.69 -16.47,-10.68 -5.7,-2.15 -11.39,-2.63 -16.96,-1.44zm2.73 6.86c-2,0.33 -6.19,1.87 -7.7,2.82 -2.41,1.51 -10.21,7.18 -10.48,7.6 -0.14,0.23 8.76,0.39 21.86,0.39 12.16,0 22.02,-0.07 21.92,-0.15 -2.31,-1.95 -11.68,-8.28 -13.36,-9.02 -3.65,-1.62 -8.49,-2.27 -12.24,-1.64zm-65.78 54.51l0 36.43 25.47 21.13c14.01,11.62 26.65,22.15 28.08,23.39 5.3,4.58 9.52,6.27 15.65,6.27 6.52,0 10.09,-1.57 17.19,-7.54 1.48,-1.25 13.79,-11.48 27.36,-22.73l24.66 -20.47 0 -36.46 0 -36.46 -69.21 0 -69.2 0 0 36.44zm70.06 -22.07c-12.39,1.28 -21.1,5.18 -30.07,13.44 -6.31,5.8 -11.81,14.6 -14.01,22.39 -0.79,2.8 -0.97,4.5 -0.97,9.4 -0.01,7.19 0.62,10.05 3.6,16.23 5.4,11.19 14.53,17.71 28.93,20.66 20.59,4.22 38.65,0.63 50.54,-10.06 4.56,-4.11 5.8,-7.08 3.73,-8.99 -0.91,-0.85 -1.82,-1.13 -3.37,-1.02 -0.39,0.03 -2.23,1.56 -4.09,3.4 -6.99,6.94 -15.86,10.47 -27.67,11.03 -8.09,0.38 -16.91,-0.8 -24.57,-3.29 -11.3,-3.67 -19.32,-14.33 -19.96,-26.52 -0.28,-5.24 0.6,-9.47 3.06,-14.69 5.43,-11.51 16.57,-20.74 28.65,-23.72 4.74,-1.17 12.08,-1.28 16.84,-0.26 10.26,2.21 18.75,10.55 21.16,20.78 0.84,3.58 0.85,10.62 0.02,13.9 -1.52,6 -5.74,12.08 -9.61,13.83 -2.66,1.21 -6.93,1.23 -8.12,0.04 -1.06,-1.07 -1.06,-0.92 0.19,-5.9 1.27,-5.02 5.79,-27.39 5.79,-28.63 0,-0.48 -0.45,-1.41 -1.01,-2.06 -0.77,-0.89 -1.39,-1.18 -2.62,-1.18 -2.05,0 -3.46,1.54 -3.86,4.24l-0.3 1.94 -2.02 -1.9c-10.14,-9.48 -25.17,-4.39 -32.71,11.06 -2.28,4.68 -3.17,8.28 -3.18,12.88 -0.02,10 5.96,16.99 15.31,17.93 4.55,0.45 10.95,-1.54 15.05,-4.69l1.84 -1.41 1.31 1.74c0.76,1.02 2.29,2.25 3.65,2.95 2.2,1.13 2.62,1.2 6.62,1.06 3.71,-0.13 4.65,-0.33 7.1,-1.48 3.39,-1.59 5.78,-3.67 8.31,-7.22 2.49,-3.49 4.25,-7.33 5.36,-11.71 0.78,-3.11 0.88,-4.41 0.69,-9.6 -0.24,-6.32 -0.92,-9.49 -3.02,-14.09 -3.53,-7.71 -10.9,-14.74 -18.77,-17.89 -4.34,-1.73 -13.39,-3.05 -17.82,-2.59zm-88.94 24.83c-6.27,4.41 -11.36,8.15 -11.32,8.32 0.04,0.17 5.17,4.55 11.4,9.73l11.32 9.43 0.12 -9.02c0.06,-4.96 0.06,-12.94 0,-17.74l-0.12 -8.73 -11.4 8.01zm164.55 9.72c0,17.08 0.03,17.75 0.77,17.22 2.1,-1.52 22.3,-18.44 22.27,-18.67 -0.02,-0.23 -20.9,-15.1 -22.44,-15.98 -0.51,-0.29 -0.6,2.33 -0.6,17.43zm-80.22 -8.58c-5.34,1.74 -11.03,8.58 -13.13,15.8 -1.01,3.47 -0.74,8.33 0.61,11.09 1.95,3.99 6.46,5.67 11.63,4.35 3.58,-0.92 6.32,-2.75 9.2,-6.14 3.8,-4.48 4.32,-5.49 5.33,-10.37l0.94 -4.52 -1.29 -2.76c-2.33,-4.96 -5.36,-7.48 -9.46,-7.86 -1.1,-0.1 -2.82,0.08 -3.83,0.41zm-105.4 74.58c0,38.18 0.05,53.8 0.11,34.71 0.06,-19.09 0.06,-50.33 0,-69.42 -0.06,-19.09 -0.11,-3.47 -0.11,34.71zm7.05 3.4c0,59.48 0.05,63.31 0.73,62.76 10.01,-8.11 75.1,-62.46 75.1,-62.7 0,-0.2 -16.72,-14.25 -37.17,-31.23 -20.44,-16.98 -37.5,-31.16 -37.91,-31.52 -0.71,-0.62 -0.75,2.4 -0.75,62.69zm166.1 -31.65c-20.85,17.3 -37.86,31.58 -37.81,31.74 0.05,0.16 17.1,14.43 37.89,31.7l37.81 31.41 0.11 -31.59c0.06,-17.38 0.06,-45.8 0,-63.16l-0.11 -31.56 -37.89 31.46zm-121.83 67.72l-37.55 31.23 47.69 0.11c26.23,0.06 69.16,0.06 95.4,0l47.71 -0.11 -35.21 -29.24c-19.37,-16.08 -36.28,-30.14 -37.57,-31.25l-2.36 -2.01 -2.56 1.94c-6.24,4.75 -14.58,6.9 -22,5.67 -5.36,-0.88 -9.47,-2.73 -14.7,-6.61l-1.31 -0.97 -37.54 31.24z"/>
 </g>
</svg>
