<?xml version="1.0" encoding="UTF-8"?>
<!DOCTYPE svg PUBLIC "-//W3C//DTD SVG 1.0//EN" "http://www.w3.org/TR/2001/REC-SVG-20010904/DTD/svg10.dtd">
<!-- Creator: CorelDRAW 2021 (64-Bit) -->
<svg xmlns="http://www.w3.org/2000/svg" xml:space="preserve" width="2480px" height="3508px" version="1.0" shape-rendering="geometricPrecision" text-rendering="geometricPrecision" image-rendering="optimizeQuality" fill-rule="evenodd" clip-rule="evenodd"
viewBox="0 0 2480 3507.43"
 xmlns:xlink="http://www.w3.org/1999/xlink"
 xmlns:xodm="http://www.corel.com/coreldraw/odm/2003">
 <g id="Layer_x0020_1">
  <metadata id="CorelCorpID_0Corel-Layer"/>
  <path fill="#DF1219" d="M1171.64 1651.5c-1.07,0.86 -15.79,18.43 -17.09,20.39 -1.42,2.15 -0.46,5.39 1.9,6.41 0.75,0.32 2.34,0.58 3.55,0.58l2.19 0 0.12 19.54 0.11 19.55 0.93 1.33c1.65,2.37 2.42,2.55 10.66,2.55 8.34,0 9.52,-0.28 10.95,-2.65 0.77,-1.29 0.8,-1.99 0.8,-20.78l0 -19.45 2.99 -0.16c2.7,-0.14 3.11,-0.27 4.2,-1.39 1.71,-1.75 1.93,-3.65 0.65,-5.58 -1.66,-2.5 -16.61,-20.35 -17.41,-20.79 -1.25,-0.69 -3.41,-0.48 -4.55,0.45zm68.07 -0.26c-0.94,0.3 -3.62,1.96 -5.95,3.7 -2.34,1.74 -4.8,3.39 -5.48,3.68 -0.68,0.28 -3.67,0.69 -6.66,0.91 -4.38,0.33 -5.84,0.6 -7.6,1.43 -4.67,2.19 -6.43,4.86 -8.29,12.58 -0.68,2.8 -1.52,5.56 -1.88,6.13 -0.35,0.58 -2.48,2.89 -4.73,5.14 -5.06,5.07 -5.96,7.02 -5.68,12.28 0.17,3.03 0.37,3.66 2.67,8.39l2.5 5.12 -0.34 4.5c-0.62,8.36 -0.48,10.77 0.77,13.37 1.37,2.87 3.5,4.88 6.98,6.59 1.47,0.72 2.74,1.35 2.81,1.39 0.07,0.04 -2.75,6.44 -6.28,14.23 -6.93,15.28 -7.23,16.3 -5.37,17.8 1.36,1.1 1.72,1.09 9.79,-0.4 3.74,-0.69 6.85,-1.19 6.9,-1.12 0.06,0.06 1.67,2.88 3.57,6.26 3.66,6.48 4.87,7.98 6.42,7.98 1.92,0 2.91,-1.68 9.36,-15.96l6.38 -14.12 2.01 -0.52c1.68,-0.44 2.42,-0.42 4.59,0.09 5.29,1.26 4.64,0.42 9.71,12.54 2.81,6.72 4.89,11.16 5.51,11.73 1.18,1.1 2.94,1.19 4.03,0.21 0.44,-0.4 2.45,-3.48 4.49,-6.86 2.03,-3.38 3.74,-6.2 3.8,-6.27 0.06,-0.07 3.18,0.52 6.94,1.33 3.76,0.8 7.33,1.46 7.95,1.46 1.42,0 2.98,-1.66 2.98,-3.17 0,-0.62 -2.3,-6.56 -5.1,-13.2 -2.8,-6.64 -5.17,-12.29 -5.27,-12.55 -0.1,-0.25 0.65,-0.89 1.66,-1.41 2.28,-1.17 4.78,-3.89 5.91,-6.43 0.96,-2.16 1.1,-5.7 0.53,-13.17l-0.33 -4.3 2.52 -5.12 2.52 -5.11 0.01 -4.1c0.01,-3.79 -0.08,-4.25 -1.18,-6.3 -0.73,-1.35 -2.57,-3.51 -4.7,-5.53 -1.93,-1.82 -3.84,-3.86 -4.26,-4.54 -0.42,-0.67 -1.32,-3.53 -2.02,-6.34 -1.91,-7.78 -3.64,-10.41 -8.3,-12.6 -1.71,-0.8 -3.19,-1.08 -7.2,-1.37 -2.77,-0.2 -5.67,-0.54 -6.44,-0.76 -0.76,-0.21 -3.31,-1.85 -5.65,-3.63 -2.34,-1.78 -5.11,-3.54 -6.16,-3.9 -2.26,-0.79 -6.08,-0.82 -8.44,-0.06zm70.74 0.73c-2.6,2.53 -16.27,19.34 -16.84,20.71 -0.75,1.78 -0.4,3.33 1.1,4.8 1.06,1.04 1.54,1.2 4.17,1.33l2.97 0.16 0 19.45c0,18.79 0.03,19.49 0.81,20.78 1.42,2.37 2.59,2.65 11.02,2.65 6.75,0 7.65,-0.08 8.8,-0.8 2.81,-1.75 2.7,-0.89 2.82,-22.61l0.12 -19.56 2.19 0c1.21,0 2.8,-0.26 3.55,-0.58 2.35,-1.01 3.34,-4.29 1.93,-6.39 -1.31,-1.96 -16.12,-19.61 -17.14,-20.44 -1.64,-1.32 -3.84,-1.12 -5.5,0.5zm-68.55 5.61c-0.61,0.2 -2.67,1.55 -4.59,3.01 -6.37,4.86 -6.86,5.05 -14.37,5.61 -5.71,0.43 -6.94,0.84 -8.58,2.84 -1.16,1.41 -1.14,1.34 -2.29,6.56 -1.37,6.17 -2.57,8.34 -7,12.65 -4.01,3.89 -5.35,5.9 -5.35,8.05 0,0.73 0.95,3.26 2.19,5.85 3.36,7.03 3.61,8.24 3.01,14.37 -0.67,6.8 -0.62,7.96 0.43,9.7 0.7,1.16 1.64,1.83 4.31,3.1 9.11,4.29 9.26,4.41 13.52,10.85 4.58,6.94 5.43,7.24 13.64,4.81 2.84,-0.84 5.74,-1.43 6.99,-1.43 1.24,0 4.14,0.59 6.98,1.43 8.19,2.42 9.04,2.11 13.75,-4.96 3.8,-5.7 5.31,-7.01 11.06,-9.55 5.08,-2.24 5.69,-2.64 6.69,-4.3 1.03,-1.71 1.09,-2.96 0.44,-9.44 -0.64,-6.38 -0.42,-7.49 2.98,-14.58 1.23,-2.59 2.18,-5.12 2.18,-5.85 0,-2.15 -1.33,-4.16 -5.33,-8.03 -4.48,-4.36 -5.37,-5.97 -6.99,-12.73 -1.93,-8.09 -2.67,-8.72 -10.9,-9.34 -2.92,-0.22 -5.97,-0.6 -6.79,-0.84 -1.39,-0.4 -4.18,-2.21 -9.49,-6.13 -2.33,-1.72 -4.54,-2.29 -6.49,-1.65zm-73.46 7.79l-5.44 6.55 1.84 0c1.49,0 2.05,0.22 3,1.2l1.16 1.19 0 20.5 0 20.49 5.19 0 5.19 0 0 -20.59c0,-20.12 0.02,-20.61 0.81,-21.48 0.81,-0.9 1.61,-1.2 3.74,-1.4 1.13,-0.11 1.04,-0.26 -4.16,-6.56 -2.92,-3.55 -5.44,-6.45 -5.6,-6.45 -0.15,0 -2.73,2.95 -5.73,6.55zm139.44 -0.1c-5.21,6.28 -5.31,6.45 -4.19,6.56 2.13,0.2 2.92,0.5 3.74,1.4 0.79,0.87 0.81,1.36 0.81,21.48l0 20.59 5.18 0 5.19 0 0 -20.44 0 -20.44 0.95 -1.13c0.72,-0.87 1.42,-1.19 2.93,-1.35l1.99 -0.23 -5.35 -6.44c-2.95,-3.55 -5.48,-6.45 -5.64,-6.45 -0.15,0 -2.68,2.9 -5.61,6.45zm-70.26 5.24c-10.63,2.32 -19.43,10.15 -23.14,20.59 -2.91,8.19 -2.43,16.81 1.39,24.82 5.35,11.21 15.75,17.86 27.94,17.86 21.66,0 36.59,-21.69 29.36,-42.65 -1.47,-4.26 -3.27,-7.24 -6.62,-10.94 -7.43,-8.21 -18.58,-11.95 -28.93,-9.68zm3.5 6.39c-10.23,1.04 -18.89,8.93 -21.27,19.37 -0.93,4.08 -0.62,10.12 0.72,13.81 1.38,3.84 3.3,6.95 5.93,9.63 11.9,12.16 31.62,8.87 39.28,-6.55 3.57,-7.19 3.38,-16.43 -0.49,-23.6 -0.83,-1.53 -2.69,-3.94 -4.29,-5.57 -5.44,-5.5 -12.12,-7.89 -19.88,-7.09zm5.98 20.96l-8.53 7.94 -2.99 -3c-1.64,-1.65 -3.5,-3.12 -4.13,-3.29 -2.39,-0.61 -4.73,2.04 -3.81,4.31 0.65,1.6 8.77,9.73 10.05,10.06 0.58,0.14 1.43,0.06 1.9,-0.2 1.25,-0.68 19.69,-17.98 20.26,-18.99 0.73,-1.32 0.61,-2.12 -0.52,-3.5 -0.77,-0.94 -1.37,-1.26 -2.36,-1.26 -1.17,0 -2.37,0.97 -9.87,7.93zm26.37 41.29c-0.58,0.5 -2.32,2.87 -3.86,5.25 -3.51,5.45 -5.39,7.12 -9.29,8.32l-1.44 0.45 2.44 5.82c1.34,3.21 2.58,5.78 2.76,5.72 0.18,-0.06 1.55,-2.13 3.03,-4.6 1.6,-2.66 3.11,-4.7 3.7,-5 0.84,-0.42 1.87,-0.32 6.26,0.58 2.89,0.59 5.33,0.99 5.43,0.89 0.23,-0.24 -7.4,-18.36 -7.73,-18.35 -0.14,0 -0.72,0.41 -1.3,0.92zm-63.63 11.46c-2.67,5.91 -4.81,10.79 -4.76,10.84 0.05,0.06 2.06,-0.26 4.45,-0.71 4.9,-0.91 6.67,-1.01 7.74,-0.42 0.41,0.23 1.94,2.54 3.42,5.15 1.47,2.6 2.82,4.58 3,4.4 0.17,-0.18 1.94,-3.92 3.92,-8.31l3.62 -7.99 -2.38 -0.49c-4.89,-1.03 -6.91,-2.66 -10.84,-8.74 -1.6,-2.46 -3,-4.47 -3.11,-4.47 -0.12,0 -2.4,4.84 -5.06,10.74zm-11.31 32.82c-3.51,0.93 -6.31,2.37 -17.58,9.05 -5.85,3.47 -10.88,6.39 -11.18,6.5 -0.36,0.12 -1.09,-0.66 -2,-2.17 -1.72,-2.82 -3.59,-3.94 -6.54,-3.92 -1.72,0.02 -2.68,0.41 -6.79,2.79 -5.34,3.1 -7.15,4.65 -7.82,6.72 -1,3.12 -0.67,3.87 11.04,25.15 13.57,24.66 13.3,24.22 15.3,25.26 2.93,1.53 4.78,1.2 10.21,-1.86 6.22,-3.5 7.51,-4.73 8.2,-7.83 0.39,-1.8 -0.17,-4.14 -1.59,-6.62l-1.18 -2.05 1.87 -1.07 1.87 -1.08 12.97 3.56c26.44,7.29 24.43,6.83 29.12,6.63 3.26,-0.13 4.72,-0.39 6.6,-1.18 3.87,-1.61 54.38,-33.66 56.11,-35.59 1.83,-2.04 2.81,-4.98 2.79,-8.34 -0.04,-7.21 -5.62,-12.16 -13.02,-11.55 -5.34,0.44 -7.44,1.45 -26.16,12.64 -13.97,8.36 -15.94,9.48 -16.15,9.26 -0.07,-0.07 0.06,-1 0.3,-2.06 0.88,-3.94 -0.94,-8.22 -4.77,-11.21 -1.27,-1 -2.72,-1.55 -6.3,-2.4 -4.86,-1.16 -11.07,-3.15 -21.08,-6.76 -6.71,-2.42 -10.33,-2.89 -14.22,-1.87zm0 7.12c-1.21,0.41 -2.83,1.08 -3.59,1.49 -1.14,0.61 -21.85,12.82 -22.27,13.13 -0.06,0.05 2.78,5.34 6.31,11.76l6.44 11.66 2.66 -1.59c1.46,-0.88 3.13,-1.59 3.71,-1.59 0.57,0 9.39,2.29 19.59,5.1 10.21,2.81 19.55,5.23 20.76,5.37 2.41,0.3 5.6,-0.31 7.88,-1.48 0.76,-0.4 12.79,-7.93 26.73,-16.74 26.65,-16.85 26.72,-16.91 26.72,-19.79 0,-1.71 -0.99,-3.83 -2.16,-4.62 -1.47,-0.98 -6.02,-0.63 -9.23,0.73 -1.33,0.56 -9.29,5.12 -17.68,10.14 -8.4,5.02 -16.38,9.6 -17.73,10.17 -3.46,1.46 -9.33,1.68 -14.69,0.55 -7.61,-1.6 -19.24,-5.11 -20.19,-6.08 -1.83,-1.87 -0.43,-5.46 2.12,-5.46 0.58,0 4.64,1.01 9.02,2.25 9.3,2.61 11.41,2.97 13.11,2.25 2.5,-1.06 3.19,-4.8 1.28,-6.95 -0.95,-1.08 -1.9,-1.45 -7.28,-2.83 -3.4,-0.88 -10.13,-3.03 -14.96,-4.77 -9.99,-3.62 -12.6,-4.05 -16.55,-2.7zm-41.49 11.34c-2.09,1.23 -3.85,2.5 -3.92,2.84 -0.12,0.57 21.78,40.75 22.81,41.85 0.36,0.39 1.36,-0.01 4.62,-1.87 2.29,-1.3 4.22,-2.55 4.3,-2.78 0.21,-0.67 -22.81,-42.09 -23.45,-42.18 -0.31,-0.05 -2.28,0.92 -4.36,2.14zm1.12 3.36c-0.33,0.39 -0.72,1.05 -0.86,1.46 -0.34,0.99 0.72,3.02 1.76,3.36 2.93,0.95 5.11,-2.66 2.93,-4.9 -0.84,-0.86 -3.08,-0.82 -3.83,0.08z"/>
 </g>
</svg>
