<?xml version="1.0" encoding="UTF-8"?>
<!DOCTYPE svg PUBLIC "-//W3C//DTD SVG 1.0//EN" "http://www.w3.org/TR/2001/REC-SVG-20010904/DTD/svg10.dtd">
<!-- Creator: CorelDRAW 2021 (64-Bit) -->
<svg xmlns="http://www.w3.org/2000/svg" xml:space="preserve" width="2480px" height="3508px" version="1.0" shape-rendering="geometricPrecision" text-rendering="geometricPrecision" image-rendering="optimizeQuality" fill-rule="evenodd" clip-rule="evenodd"
viewBox="0 0 2480 3507.43"
 xmlns:xlink="http://www.w3.org/1999/xlink"
 xmlns:xodm="http://www.corel.com/coreldraw/odm/2003">
 <g id="Layer_x0020_1">
  <metadata id="CorelCorpID_0Corel-Layer"/>
  <path fill="#DF1219" fill-rule="nonzero" d="M1271.44 1750.98c-0.75,0 -1.37,-0.61 -1.37,-1.37 0,-14.32 -11.65,-25.97 -25.97,-25.97 -0.75,0 -1.37,-0.61 -1.37,-1.37 0,-0.75 0.62,-1.36 1.37,-1.36 15.83,0 28.71,12.87 28.71,28.7 0,0.76 -0.61,1.37 -1.37,1.37zm-9.57 -1.37c0,-9.8 -7.97,-17.77 -17.77,-17.77 -0.75,0 -1.37,0.61 -1.37,1.37 0,0.75 0.62,1.37 1.37,1.37 8.29,0 15.04,6.74 15.04,15.03 0,0.76 0.61,1.37 1.36,1.37 0.76,0 1.37,-0.61 1.37,-1.37zm6.11 32.18l2.67 -3.07c1.39,-1.39 2.16,-3.24 2.16,-5.2 0,-1.96 -0.77,-3.81 -2.29,-5.32l-6.69 -5.12c-2.86,-2.86 -7.52,-2.87 -10.4,-0.01l-4.18 4.09c-10.06,-4.1 -18.26,-12.31 -22.68,-22.7l4.07 -4.17c2.87,-2.87 2.87,-7.54 0.12,-10.27l-5.36 -6.95c-2.78,-2.78 -7.69,-2.72 -10.33,-0.07l-3.21 2.8c-3.01,3 -4.67,7.06 -4.67,11.44 0,21.19 28.09,49.28 49.28,49.28 4.38,0 8.45,-1.65 11.51,-4.73zm-44.63 -56.93l5.35 6.95c1.81,1.8 1.81,4.74 -0.01,6.55l-4.71 4.83c-0.37,0.39 -0.49,0.96 -0.29,1.47 4.73,11.77 13.98,21.02 25.39,25.37 0.5,0.19 1.06,0.07 1.44,-0.3l4.83 -4.7c0,0 0.01,-0.01 0.01,-0.02 1.75,-1.75 4.66,-1.86 6.67,0.12l6.69 5.12c1.8,1.8 1.8,4.73 -0.06,6.61l-2.68 3.07c-2.48,2.49 -5.86,3.86 -9.51,3.86 -19.58,0 -46.54,-26.97 -46.54,-46.55 0,-3.65 1.37,-7.02 3.79,-9.44l3.21 -2.81c0.92,-0.92 2.13,-1.36 3.32,-1.36 1.15,0 2.27,0.41 3.1,1.23l0 0z"/>
 </g>
</svg>
