<?xml version="1.0" encoding="UTF-8"?>
<!DOCTYPE svg PUBLIC "-//W3C//DTD SVG 1.0//EN" "http://www.w3.org/TR/2001/REC-SVG-20010904/DTD/svg10.dtd">
<!-- Creator: CorelDRAW 2021 (64-Bit) -->
<svg xmlns="http://www.w3.org/2000/svg" xml:space="preserve" width="2480px" height="3508px" version="1.0" shape-rendering="geometricPrecision" text-rendering="geometricPrecision" image-rendering="optimizeQuality" fill-rule="evenodd" clip-rule="evenodd"
viewBox="0 0 2480 3507.43"
 xmlns:xlink="http://www.w3.org/1999/xlink"
 xmlns:xodm="http://www.corel.com/coreldraw/odm/2003">
 <g id="Layer_x0020_1">
  <metadata id="CorelCorpID_0Corel-Layer"/>
  <path fill="#DF1219" stroke="#DF1219" stroke-width="0.9" stroke-miterlimit="22.9256" d="M1233.81 1658.27c-0.71,0.1 -3.59,0.49 -6.41,0.87 -6.32,0.84 -16.52,3.36 -22.22,5.5 -26.23,9.84 -45.51,29.5 -54.87,55.97 -1.74,4.92 -3.6,12.53 -4.57,18.67 -1.06,6.78 -1.06,22.12 0.01,28.96 3.9,24.92 15.95,46.2 34.33,60.63 6.69,5.24 18.37,11.59 26.66,14.49 4.98,1.74 14.95,4.16 20.44,4.97 25.73,3.79 51.99,-3.4 72.63,-19.88 4.17,-3.33 12.49,-11.71 15.66,-15.78 8.35,-10.71 14.88,-24.55 17.88,-37.87 4.76,-21.17 2.09,-44.26 -7.29,-62.97 -1.78,-3.56 -2.91,-4.68 -4.73,-4.68 -0.92,0 -3.15,2.33 -3.15,3.29 0,0.44 1.03,3.1 2.3,5.91 6.32,14 9.11,28.68 7.96,41.94 -1.2,13.8 -4.06,24.7 -9.41,35.79 -12.53,26 -37.07,43.19 -67.5,47.26 -5.08,0.68 -18.25,0.68 -23.06,0 -23.79,-3.37 -43.98,-14.35 -57.45,-31.22 -17.01,-21.33 -23.82,-52.8 -17.06,-78.87 7.84,-30.21 32.38,-54.62 63.48,-63.14 8.95,-2.46 13.48,-3.03 23.63,-3.02 9.52,0.02 13.28,0.48 21.57,2.61 4.41,1.14 12.19,4.11 16.76,6.4 3.31,1.66 4.5,1.78 5.8,0.57 1.28,-1.19 1.56,-2.65 0.79,-4.13 -0.49,-0.95 -1.73,-1.76 -5.27,-3.43 -7.81,-3.69 -16.89,-6.52 -25.78,-8.03 -3.84,-0.66 -18.28,-1.21 -21.13,-0.81zm59.33 18.17c-7.39,7.37 -13.54,13.81 -13.67,14.3 -0.12,0.49 0.07,4.62 0.44,9.18l0.67 8.29 -22 22.01c-20.08,20.1 -22,22.14 -22,23.42 0,1.87 1.62,3.49 3.5,3.49 1.27,0 3.31,-1.91 23.41,-22l22.01 -22 8.29 0.67c4.56,0.37 8.69,0.57 9.18,0.44 0.49,-0.12 6.93,-6.27 14.3,-13.67 13.2,-13.22 13.41,-13.46 13.13,-14.85 -0.56,-2.82 -1.09,-3.02 -10.08,-3.71l-8.12 -0.63 -0.03 -1.32c-0.01,-0.72 -0.27,-4.36 -0.57,-8.07 -0.61,-7.47 -0.88,-8.13 -3.6,-8.68 -1.4,-0.28 -1.63,-0.07 -14.86,13.13zm2.43 7.39l-9.15 9.16 0.51 6.52c0.27,3.58 0.56,6.57 0.63,6.64 0.07,0.08 3.07,0.36 6.66,0.63l6.53 0.49 9.14 -9.14 9.15 -9.14 -5.45 -0.45c-5.59,-0.46 -7.03,-0.88 -7.6,-2.2 -0.18,-0.42 -0.54,-3.22 -0.8,-6.21l-0.47 -5.46 -9.15 9.16zm-60.7 5.2c-0.58,0.1 -2.51,0.39 -4.27,0.64 -24.62,3.54 -44.07,19.45 -51.74,42.34 -2.66,7.95 -3.13,11.16 -3.12,21.7 0.01,8.31 0.14,10.19 0.95,13.82 5.52,24.78 22.47,42.55 46.44,48.68 7.27,1.86 10.28,2.22 18.15,2.2 6.05,-0.02 8.28,-0.2 11.68,-0.96 19.44,-4.3 35.66,-16.48 44.44,-33.36 2.97,-5.73 4.58,-10.09 6.08,-16.53 1.09,-4.65 1.2,-5.83 1.22,-13.63 0.02,-7.42 -0.11,-9.13 -0.97,-12.94 -1.39,-6.21 -2.79,-10.33 -5.2,-15.3 -1.7,-3.5 -2.34,-4.42 -3.4,-4.86 -1.05,-0.44 -1.56,-0.44 -2.6,0 -2.69,1.11 -2.74,2.74 -0.22,7.87 4.09,8.3 5.55,14.73 5.55,24.37 0.01,7.6 -0.81,12.44 -3.26,19.39 -6.05,17.14 -19.72,30.88 -36.14,36.34 -6.61,2.2 -9.93,2.72 -17.61,2.73 -7.96,0.02 -12.4,-0.62 -18.82,-2.72 -8.76,-2.86 -15.94,-7.33 -22.88,-14.26 -8.67,-8.65 -13.86,-18.37 -16.25,-30.47 -1.04,-5.24 -1.03,-16.51 0.01,-21.47 4.38,-20.93 19.18,-37.21 39.99,-44.01 6.86,-2.24 10.28,-2.76 17.95,-2.75 9.44,0.01 15.95,1.51 24.17,5.55 5.12,2.52 6.75,2.48 7.87,-0.21 0.43,-1.05 0.43,-1.56 -0.01,-2.61 -0.43,-1.05 -1.35,-1.69 -4.85,-3.39 -8.65,-4.18 -15.98,-5.97 -25.47,-6.19 -3.64,-0.09 -7.1,-0.08 -7.69,0.03zm-1.28 31.15c-7.39,1.5 -12.61,4.25 -17.78,9.4 -3.44,3.42 -4.16,4.4 -6.05,8.34 -2.95,6.12 -3.67,9.22 -3.67,15.79 0,6.58 0.72,9.68 3.67,15.79 1.89,3.94 2.62,4.94 6.06,8.39 3.45,3.44 4.46,4.17 8.39,6.07 6.18,2.97 9.21,3.67 16,3.69 6.61,0.02 9.35,-0.6 14.95,-3.37 7.01,-3.46 11.95,-8.4 15.4,-15.4 2.35,-4.76 3.17,-7.82 3.48,-13.03 0.43,-7.15 -1,-13.73 -3.26,-14.94 -1.28,-0.69 -2.76,-0.52 -3.78,0.43 -1.36,1.27 -1.52,2.54 -0.67,5.37 0.99,3.31 0.98,10.04 -0.03,13.84 -2.36,8.94 -8.46,15.64 -16.98,18.7 -2.79,1 -3.77,1.12 -9.11,1.14 -7.04,0.03 -9.96,-0.72 -15.04,-3.87 -7.84,-4.87 -12.25,-13.24 -12.23,-23.23 0.01,-3.76 0.2,-5.04 1.18,-7.9 2.95,-8.61 8.97,-14.63 17.55,-17.55 4.41,-1.5 10.28,-1.66 15.33,-0.43 3,0.74 3.49,0.76 4.48,0.2 2.56,-1.43 2.23,-4.67 -0.63,-6.24 -3.17,-1.75 -11.61,-2.33 -17.26,-1.19z"/>
 </g>
</svg>
