<?xml version="1.0" encoding="UTF-8"?>
<!DOCTYPE svg PUBLIC "-//W3C//DTD SVG 1.0//EN" "http://www.w3.org/TR/2001/REC-SVG-20010904/DTD/svg10.dtd">
<!-- Creator: CorelDRAW 2021 (64-Bit) -->
<svg xmlns="http://www.w3.org/2000/svg" xml:space="preserve" width="2480px" height="3508px" version="1.0" shape-rendering="geometricPrecision" text-rendering="geometricPrecision" image-rendering="optimizeQuality" fill-rule="evenodd" clip-rule="evenodd"
viewBox="0 0 2480 3507.43"
 xmlns:xlink="http://www.w3.org/1999/xlink"
 xmlns:xodm="http://www.corel.com/coreldraw/odm/2003">
 <g id="Layer_x0020_1">
  <metadata id="CorelCorpID_0Corel-Layer"/>
  <path fill="#FFB703" d="M1243.13 1692.82c-0.99,0.47 -11.04,5.16 -22.33,10.41 -11.29,5.25 -20.62,9.63 -20.73,9.73 -0.25,0.22 -6.5,23.33 -6.5,24.03 0,0.27 1.97,4.72 4.39,9.9l4.39 9.42 0 5.93c0,5.56 -0.02,5.92 -0.42,5.74 -0.24,-0.1 -1.25,-0.23 -2.26,-0.29 -1.7,-0.09 -1.92,-0.04 -2.95,0.62 -0.66,0.42 -1.29,1.08 -1.54,1.6l-0.42 0.89 -0.74 -0.38c-1.04,-0.54 -3.56,-0.52 -4.72,0.03 -0.92,0.43 -2.33,2.08 -2.33,2.71 0,0.29 -0.1,0.29 -0.67,0 -1.7,-0.85 -4.37,-0.61 -5.71,0.52 -1.65,1.39 -1.66,1.43 -1.67,13.3 0,9.1 0.05,10.82 0.38,11.59 0.67,1.63 1.81,2.52 3.59,2.85l0.91 0.16 0 4.03c0,2.82 0.1,4.26 0.33,4.81 0.4,0.95 1.86,2.29 2.79,2.55 0.36,0.1 4.34,0.19 8.84,0.19 8.04,0 8.2,-0.01 9.22,-0.56 0.57,-0.3 1.33,-1 1.7,-1.56 0.6,-0.91 0.67,-1.26 0.79,-4 0.14,-3.31 0.35,-3.84 1.96,-4.93 0.78,-0.53 0.99,-0.55 6.81,-0.55 3.31,-0.01 6.26,-0.07 6.56,-0.15 0.48,-0.13 0.62,0.02 1.13,1.16 2.29,5.18 3.61,7.56 5.02,9.07 3.4,3.63 7.91,4.67 12.03,2.77 0.71,-0.32 7.19,-3.35 14.42,-6.72l13.13 -6.13 2.03 0c1.7,0 2.15,0.09 2.83,0.55 1.61,1.09 1.82,1.62 1.96,4.93 0.12,2.74 0.19,3.09 0.79,4 0.37,0.56 1.13,1.26 1.7,1.56 1.02,0.55 1.18,0.56 9.22,0.56 4.5,0 8.48,-0.09 8.84,-0.19 0.93,-0.26 2.4,-1.6 2.79,-2.55 0.23,-0.55 0.33,-1.99 0.33,-4.81l0 -4.03 0.92 -0.16c1.81,-0.33 2.8,-1.14 3.69,-3.02 0.5,-1.05 0.52,-1.4 0.52,-11.79 0,-5.89 -0.09,-10.65 -0.2,-10.59 -0.11,0.07 -0.34,-0.25 -0.5,-0.7 -0.84,-2.32 -4.41,-3.43 -6.93,-2.16 -0.57,0.29 -0.67,0.29 -0.67,0 0,-0.63 -1.41,-2.28 -2.33,-2.71 -1.16,-0.56 -3.68,-0.57 -4.73,-0.03 -0.74,0.39 -0.77,0.38 -0.97,-0.16 -0.3,-0.78 -1.28,-1.78 -2.23,-2.27 -0.61,-0.31 -1.22,-0.39 -2.53,-0.3 -0.96,0.06 -1.92,0.19 -2.15,0.28 -0.37,0.17 -0.41,-0.32 -0.48,-5.88 -0.07,-5.07 -0.15,-6.18 -0.49,-6.79 -0.91,-1.65 -2.56,-2.56 -4.65,-2.56l-1.3 0 -14 -30.09c-7.71,-16.55 -14.18,-30.22 -14.39,-30.39 -0.5,-0.41 -0.41,-0.43 -2.47,0.56zm-19.78 11.36c-11.47,5.37 -20.94,9.83 -21.03,9.93 -0.09,0.1 1.53,3.82 3.6,8.27 2.1,4.51 3.7,8.24 3.62,8.45 -0.07,0.2 -3.16,1.78 -6.85,3.5 -3.7,1.72 -6.75,3.19 -6.79,3.26 -0.07,0.12 2.91,6.61 6.58,14.36l1.07 2.26 0.89 -0.61c1.09,-0.74 2.21,-0.97 3.8,-0.78 1.14,0.13 1.19,0.12 0.94,-0.35 -0.15,-0.26 -0.2,-0.68 -0.13,-0.92 0.18,-0.54 44.68,-21.34 45.27,-21.16 0.41,0.13 7.11,14.18 7.11,14.9 0,0.48 -0.4,0.7 -5.28,2.95l-4.18 1.93 1.62 1.09c0.89,0.59 2.4,1.88 3.35,2.86l1.75 1.78 2.97 -1.39c2.33,-1.09 3.06,-1.33 3.38,-1.13 0.53,0.33 0.66,1.15 0.24,1.48 -0.22,0.18 -5.04,2.49 -5.48,2.63 -0.02,0 0.44,0.99 1.03,2.19 1.11,2.26 2.06,5.7 2.06,7.42l0 0.99 1.26 0.07c2.28,0.14 2.33,1.68 0.06,1.91l-1.2 0.12 -0.16 1.47c-0.2,1.82 -0.78,4.12 -1.43,5.63 -0.27,0.63 -0.46,1.17 -0.43,1.2 0.04,0.03 2.21,-0.95 4.83,-2.18l4.76 -2.24 0.12 -9.28 0.13 -9.28 0.67 -0.88c0.37,-0.49 0.67,-0.97 0.66,-1.08 -0.01,-0.46 -27.47,-59 -27.7,-59.06 -0.13,-0.03 -9.63,4.33 -21.11,9.69zm7.14 15.04c-14.53,6.78 -14.95,7 -14.95,7.66 0,0.47 0.15,0.73 0.49,0.84 0.36,0.11 4.73,-1.81 15.22,-6.71 8.1,-3.77 14.85,-6.99 15,-7.14 0.44,-0.44 0.34,-1.12 -0.18,-1.4 -0.26,-0.14 -0.51,-0.25 -0.55,-0.24 -0.05,0 -6.81,3.15 -15.03,6.99zm-31.97 6.73c-1.35,5 -2.42,9.13 -2.37,9.18 0.09,0.1 10.62,-4.8 10.92,-5.08 0.19,-0.19 -5.67,-13.17 -5.96,-13.19 -0.08,0 -1.24,4.09 -2.59,9.09zm43.64 -1.2c-4.08,1.91 -7.54,3.66 -7.68,3.89 -0.31,0.48 0.04,1.23 0.61,1.34 0.19,0.04 3.75,-1.52 7.91,-3.46 6.15,-2.87 7.58,-3.62 7.65,-4.05 0.08,-0.56 -0.35,-1.23 -0.79,-1.21 -0.15,0.01 -3.61,1.58 -7.7,3.49zm-26.5 12.34c-7.41,3.49 -10.77,5.19 -10.83,5.48 -0.1,0.54 0.39,1.14 0.92,1.14 0.22,0 5.29,-2.29 11.26,-5.08 10.73,-5.01 10.85,-5.08 10.85,-5.8 0,-1.4 -0.77,-1.13 -12.2,4.26zm16.88 5.25c-11.26,5.27 -20.65,9.69 -20.86,9.82 -0.33,0.21 0,1.06 2.38,6.15 1.52,3.24 2.85,5.9 2.96,5.9 0.11,0 1,-0.37 1.98,-0.82l1.78 -0.82 0.69 -1.74c1.77,-4.47 5.72,-8.75 10.1,-10.99 2.37,-1.2 5.94,-2.22 7.81,-2.23l1.03 0 0.07 -1.26c0.14,-2.31 1.72,-2.33 1.86,-0.03l0.07 1.22 1.64 0.14c0.9,0.08 2.54,0.43 3.64,0.78l2.01 0.64 3.49 -1.63c1.91,-0.9 4.04,-1.89 4.73,-2.21l1.25 -0.59 -2.75 -5.91c-1.52,-3.26 -2.91,-5.93 -3.09,-5.96 -0.18,-0.02 -9.54,4.28 -20.79,9.54zm3.99 7.73c-6.5,1.7 -11.83,6.74 -13.8,13.04 -0.33,1.08 -0.7,2.64 -0.81,3.48l-0.2 1.53 2.37 0 2.36 0 0.16 -1.35c0.71,-6 6.46,-11.77 12.45,-12.47l1.37 -0.17 0 -2.28 0 -2.29 -1.03 0.02c-0.57,0.01 -1.86,0.23 -2.87,0.49zm5.86 1.78l0 2.28 1.37 0.17c5.42,0.63 10.72,5.45 12.18,11.06 0.2,0.77 0.36,1.7 0.36,2.08l0 0.68 2.32 0 2.32 0 0 -0.94c0,-1.33 -0.86,-4.53 -1.7,-6.32 -1.94,-4.15 -5.45,-7.66 -9.61,-9.6 -1.78,-0.84 -4.98,-1.7 -6.31,-1.7l-0.93 0 0 2.29zm-36.77 3.31c-0.42,0.25 -0.89,0.82 -1.04,1.25 -0.18,0.53 -0.27,3.42 -0.27,8.56l0 7.78 -0.65 0.16c-0.75,0.19 -1.31,-0.37 -1.31,-1.32 0,-0.32 -0.32,-0.9 -0.71,-1.3 -0.62,-0.61 -0.9,-0.71 -2.07,-0.71 -1.16,0 -1.48,0.11 -2.16,0.71l-0.79 0.71 -0.08 3.62c-0.08,3.67 -0.22,4.24 -1.04,4.24 -0.72,0 -0.96,-0.79 -0.96,-3.13 0,-1.83 -0.08,-2.28 -0.5,-2.81 -0.89,-1.14 -2.93,-1.36 -4.3,-0.48 -0.75,0.49 -0.89,0.92 -1.04,3.22 -0.11,1.59 -0.24,2.11 -0.57,2.32 -0.63,0.4 -1.23,-0.1 -1.46,-1.21 -0.25,-1.21 -0.76,-1.76 -1.93,-2.07 -1.38,-0.37 -2.78,0.06 -3.39,1.06 -0.45,0.74 -0.48,1.3 -0.48,11.27 0,9.97 0.03,10.54 0.48,11.28 0.49,0.81 1.63,1.29 3.07,1.29 1.29,0.01 1.33,0.19 1.33,5.32l0 4.73 0.7 0.7c0.95,0.95 1.68,1.02 10.04,0.93 9.18,-0.1 8.81,0.09 9.03,-4.74 0.12,-2.74 0.18,-3.03 0.87,-4.14 0.45,-0.74 1.19,-1.47 1.93,-1.93l1.19 -0.74 6.74 -0.12c7.25,-0.13 7.53,-0.18 8.19,-1.46 0.5,-0.97 0.5,-4.42 0,-5.39 -0.7,-1.36 -1.2,-1.45 -7.78,-1.45 -4.52,0 -6.03,-0.08 -6.18,-0.31 -0.1,-0.17 -0.22,-7.94 -0.25,-17.27 -0.03,-9.33 -0.12,-17.22 -0.19,-17.52 -0.32,-1.34 -2.93,-1.96 -4.42,-1.05zm68.2 -0.09c-1.32,0.72 -1.28,0.15 -1.32,18.59 -0.03,9.42 -0.11,17.25 -0.2,17.39 -0.11,0.17 -2.23,0.26 -6.14,0.26 -6.58,0 -7.07,0.09 -7.78,1.45 -0.51,0.99 -0.5,4.42 0.01,5.41 0.68,1.31 1.39,1.44 8.13,1.42 5.03,-0.01 6.25,0.06 7.02,0.38 1.49,0.62 2.44,1.49 3.12,2.85 0.56,1.12 0.63,1.58 0.63,3.69 0,1.65 0.12,2.67 0.37,3.19 0.7,1.48 0.77,1.49 8.67,1.58 8.36,0.09 9.09,0.02 10.05,-0.93l0.69 -0.7 0 -4.73c0,-5.13 0.04,-5.31 1.33,-5.32 1.44,0 2.58,-0.48 3.07,-1.29 0.45,-0.74 0.48,-1.31 0.48,-11.28 0,-9.97 -0.03,-10.53 -0.48,-11.27 -0.6,-1 -2.01,-1.43 -3.39,-1.06 -1.16,0.31 -1.68,0.86 -1.93,2.07 -0.23,1.11 -0.83,1.61 -1.46,1.21 -0.33,-0.21 -0.46,-0.73 -0.56,-2.32 -0.16,-2.3 -0.29,-2.73 -1.05,-3.22 -1.37,-0.88 -3.41,-0.66 -4.3,0.48 -0.42,0.53 -0.5,0.98 -0.5,2.81 0,2.34 -0.24,3.13 -0.96,3.13 -0.82,0 -0.95,-0.57 -1.03,-4.24l-0.09 -3.62 -0.79 -0.71c-0.68,-0.6 -1,-0.71 -2.16,-0.71 -1.17,0 -1.45,0.1 -2.07,0.71 -0.39,0.4 -0.71,0.98 -0.71,1.3 0,0.95 -0.55,1.51 -1.31,1.32l-0.64 -0.16 0 -7.82c0,-8.62 -0.08,-9.16 -1.44,-9.86 -0.92,-0.47 -2.38,-0.47 -3.26,0zm-36.56 1.66c-2.87,1.01 -5.24,2.87 -6.88,5.39 -0.98,1.51 -1.91,4.08 -1.91,5.29l0 0.71 2.29 0 2.3 0 0.17 -0.91c0.53,-2.86 3.43,-5.76 6.3,-6.3l0.9 -0.17 0 -2.29 0 -2.29 -0.79 0c-0.43,0 -1.51,0.26 -2.38,0.57zm5.13 1.72l0 2.29 0.91 0.17c2.82,0.52 5.76,3.47 6.3,6.3l0.17 0.91 2.29 0 2.29 0 0 -0.71c0,-1.21 -0.93,-3.78 -1.91,-5.29 -1.09,-1.67 -2.87,-3.4 -4.44,-4.32 -1.37,-0.79 -3.89,-1.64 -4.87,-1.64l-0.74 0 0 2.29zm-30.27 7.48l0 6.7 3.86 8.3 3.86 8.3 1.81 0.14c3.67,0.28 5.12,1.94 5.11,5.9 0,2.38 -0.29,3.58 -1.08,4.52l-0.58 0.69 1.78 3.81c1.85,3.96 2.77,5.49 3.95,6.58 1.91,1.76 4.83,2.84 6.88,2.53 3.2,-0.48 5.49,-2.89 6.14,-6.47 0.33,-1.79 0.19,-3.08 -0.55,-5.43 -0.46,-1.44 -0.48,-1.7 -0.17,-1.98 0.2,-0.18 3.18,-1.63 6.64,-3.23 5.91,-2.74 6.3,-2.96 6.55,-3.71 0.15,-0.44 0.55,-1.13 0.89,-1.53 1.06,-1.27 1.87,-1.54 5.07,-1.7l2.93 -0.15 2.69 -1.33 2.68 -1.32 0.07 -5.07c0.04,-3.57 -0.02,-5.06 -0.21,-5.06 -0.14,0 -2.63,1.1 -5.51,2.44 -2.88,1.34 -5.33,2.44 -5.43,2.44 -0.11,0 -0.73,0.66 -1.38,1.47 -3.39,4.23 -8.74,7.17 -14.14,7.76l-1.47 0.17 -0.12 1.19c-0.08,0.78 -0.27,1.29 -0.55,1.47 -0.73,0.45 -1.27,-0.11 -1.41,-1.47l-0.12 -1.19 -1.47 -0.17c-9.73,-1.07 -17.8,-9.14 -18.87,-18.87l-0.16 -1.47 -1.2 -0.12c-2.25,-0.23 -2.22,-1.77 0.04,-1.9l1.23 -0.08 0.1 -1.39c0.05,-0.76 0.06,-1.44 0.01,-1.5 -0.04,-0.06 -0.79,0.24 -1.66,0.67 -0.87,0.43 -1.73,0.78 -1.91,0.78 -0.53,0 -0.87,-0.55 -2.41,-3.86 -0.79,-1.7 -1.54,-3.2 -1.67,-3.33 -0.13,-0.14 -0.22,2.36 -0.22,6.47zm26.61 -2.68c-1.43,0.65 -2.35,1.54 -3.08,2.97 -0.87,1.71 -0.81,1.86 0.79,1.95 0.99,0.05 1.46,0.19 1.65,0.5 0.49,0.78 -0.1,1.27 -1.65,1.35 -1.58,0.08 -1.64,0.22 -0.87,1.88 0.6,1.26 2.03,2.64 3.3,3.17 1.42,0.59 1.53,0.52 1.61,-1.01 0.09,-1.54 0.57,-2.14 1.36,-1.65 0.31,0.2 0.45,0.66 0.5,1.65 0.08,1.53 0.19,1.6 1.59,1.01 1.29,-0.53 2.56,-1.74 3.23,-3.08 0.88,-1.74 0.83,-1.88 -0.78,-1.97 -1.55,-0.08 -2.14,-0.57 -1.65,-1.35 0.2,-0.31 0.66,-0.45 1.65,-0.5 1.6,-0.09 1.66,-0.24 0.79,-1.95 -0.73,-1.43 -1.65,-2.32 -3.07,-2.97 -1.6,-0.72 -1.68,-0.68 -1.76,0.87 -0.05,1 -0.19,1.46 -0.5,1.65 -0.79,0.49 -1.27,-0.1 -1.36,-1.65 -0.08,-1.55 -0.16,-1.59 -1.75,-0.87zm-16.85 7.76c0,1.59 0.92,4.69 2.11,7.11 0.99,2.01 1.47,2.65 3.61,4.78 1.93,1.92 2.88,2.66 4.41,3.44 2.45,1.25 4.68,1.99 6.79,2.24l1.63 0.2 0 -2.4 0 -2.4 -0.82 0c-2.43,0 -6.47,-1.98 -8.79,-4.3 -2.32,-2.31 -4.3,-6.36 -4.3,-8.78l0 -0.83 -2.32 0 -2.32 0 0 0.94zm6.59 -0.23c0,2 1.57,5.28 3.5,7.32 1.99,2.08 5.63,3.93 7.76,3.93l0.7 0 0 -2.32c0,-2.24 -0.01,-2.32 -0.54,-2.32 -0.94,0 -3.18,-1.19 -4.3,-2.27 -1.17,-1.13 -2.11,-2.77 -2.36,-4.15l-0.17 -0.9 -2.3 0 -2.29 0 0 0.71zm21.13 0.19c-0.26,1.38 -1.2,3.02 -2.37,4.15 -1.11,1.08 -3.36,2.27 -4.29,2.27 -0.53,0 -0.55,0.08 -0.55,2.32l0 2.32 0.7 0c2.01,0 5.29,-1.57 7.32,-3.5 2.09,-1.98 3.94,-5.62 3.94,-7.75l0 -0.71 -2.29 0 -2.29 0 -0.17 0.9zm6.61 0.44c-0.48,4.1 -3.39,8.37 -7.23,10.62 -1.75,1.03 -4.47,1.95 -5.76,1.95l-0.83 0 0 2.4 0 2.4 1.62 -0.2c6.19,-0.74 12,-4.88 14.86,-10.58 1.15,-2.29 2.07,-5.4 2.07,-6.99l0 -0.94 -2.29 0 -2.28 0 -0.16 1.34zm-77.18 15.62c0,6.05 0.03,8.48 0.07,5.42 0.04,-3.06 0.04,-8.01 0,-10.99 -0.04,-2.97 -0.07,-0.47 -0.07,5.57zm33.09 -3.58l0 5.9 2.8 0 2.8 0 -0.22 -0.54c-0.34,-0.89 -5.12,-11 -5.26,-11.13 -0.07,-0.07 -0.12,2.53 -0.12,5.77zm57.61 5.66c-0.29,0.18 -0.22,0.24 0.3,0.24 0.37,0 0.67,-0.11 0.67,-0.24 0,-0.31 -0.49,-0.31 -0.97,0zm-19.13 8.94c-2.93,1.37 -5.37,2.54 -5.42,2.59 -0.05,0.05 0.08,0.63 0.29,1.3 0.57,1.78 0.53,5.25 -0.09,7.02 -0.31,0.9 -0.38,1.37 -0.2,1.3 0.16,-0.06 4.39,-2.01 9.4,-4.34l9.11 -4.24 -2.19 -0.15c-2.29,-0.17 -3.26,-0.51 -4.13,-1.47 -0.82,-0.91 -1.14,-1.69 -1.29,-3.15l-0.15 -1.35 -5.33 2.49z"/>
  <path fill="#DF1219" stroke="#DF1219" stroke-width="0.62" stroke-miterlimit="22.9256" d="M1243.13 1692.82c-0.99,0.47 -11.04,5.16 -22.33,10.41 -11.29,5.25 -20.62,9.63 -20.73,9.73 -0.25,0.22 -6.5,23.33 -6.5,24.03 0,0.27 1.97,4.72 4.39,9.9l4.39 9.42 0 5.93c0,5.56 -0.02,5.92 -0.42,5.74 -0.24,-0.1 -1.25,-0.23 -2.26,-0.29 -1.7,-0.09 -1.92,-0.04 -2.95,0.62 -0.66,0.42 -1.29,1.08 -1.54,1.6l-0.42 0.89 -0.74 -0.38c-1.04,-0.54 -3.56,-0.52 -4.72,0.03 -0.92,0.43 -2.33,2.08 -2.33,2.71 0,0.29 -0.1,0.29 -0.67,0 -1.7,-0.85 -4.37,-0.61 -5.71,0.52 -1.65,1.39 -1.66,1.43 -1.67,13.3 0,9.1 0.05,10.82 0.38,11.59 0.67,1.63 1.81,2.52 3.59,2.85l0.91 0.16 0 4.03c0,2.82 0.1,4.26 0.33,4.81 0.4,0.95 1.86,2.29 2.79,2.55 0.36,0.1 4.34,0.19 8.84,0.19 8.04,0 8.2,-0.01 9.22,-0.56 0.57,-0.3 1.33,-1 1.7,-1.56 0.6,-0.91 0.67,-1.26 0.79,-4 0.14,-3.31 0.35,-3.84 1.96,-4.93 0.78,-0.53 0.99,-0.55 6.81,-0.55 3.31,-0.01 6.26,-0.07 6.56,-0.15 0.48,-0.13 0.62,0.02 1.13,1.16 2.29,5.18 3.61,7.56 5.02,9.07 3.4,3.63 7.91,4.67 12.03,2.77 0.71,-0.32 7.19,-3.35 14.42,-6.72l13.13 -6.13 2.03 0c1.7,0 2.15,0.09 2.83,0.55 1.61,1.09 1.82,1.62 1.96,4.93 0.12,2.74 0.19,3.09 0.79,4 0.37,0.56 1.13,1.26 1.7,1.56 1.02,0.55 1.18,0.56 9.22,0.56 4.5,0 8.48,-0.09 8.84,-0.19 0.93,-0.26 2.4,-1.6 2.79,-2.55 0.23,-0.55 0.33,-1.99 0.33,-4.81l0 -4.03 0.92 -0.16c1.81,-0.33 2.8,-1.14 3.69,-3.02 0.5,-1.05 0.52,-1.4 0.52,-11.79 0,-5.89 -0.09,-10.65 -0.2,-10.59 -0.11,0.07 -0.34,-0.25 -0.5,-0.7 -0.84,-2.32 -4.41,-3.43 -6.93,-2.16 -0.57,0.29 -0.67,0.29 -0.67,0 0,-0.63 -1.41,-2.28 -2.33,-2.71 -1.16,-0.56 -3.68,-0.57 -4.73,-0.03 -0.74,0.39 -0.77,0.38 -0.97,-0.16 -0.3,-0.78 -1.28,-1.78 -2.23,-2.27 -0.61,-0.31 -1.22,-0.39 -2.53,-0.3 -0.96,0.06 -1.92,0.19 -2.15,0.28 -0.37,0.17 -0.41,-0.32 -0.48,-5.88 -0.07,-5.07 -0.15,-6.18 -0.49,-6.79 -0.91,-1.65 -2.56,-2.56 -4.65,-2.56l-1.3 0 -14 -30.09c-7.71,-16.55 -14.18,-30.22 -14.39,-30.39 -0.5,-0.41 -0.41,-0.43 -2.47,0.56zm-19.78 11.36c-11.47,5.37 -20.94,9.83 -21.03,9.93 -0.09,0.1 1.53,3.82 3.6,8.27 2.1,4.51 3.7,8.24 3.62,8.45 -0.07,0.2 -3.16,1.78 -6.85,3.5 -3.7,1.72 -6.75,3.19 -6.79,3.26 -0.07,0.12 2.91,6.61 6.58,14.36l1.07 2.26 0.89 -0.61c1.09,-0.74 2.21,-0.97 3.8,-0.78 1.14,0.13 1.19,0.12 0.94,-0.35 -0.15,-0.26 -0.2,-0.68 -0.13,-0.92 0.18,-0.54 44.68,-21.34 45.27,-21.16 0.41,0.13 7.11,14.18 7.11,14.9 0,0.48 -0.4,0.7 -5.28,2.95l-4.18 1.93 1.62 1.09c0.89,0.59 2.4,1.88 3.35,2.86l1.75 1.78 2.97 -1.39c2.33,-1.09 3.06,-1.33 3.38,-1.13 0.53,0.33 0.66,1.15 0.24,1.48 -0.22,0.18 -5.04,2.49 -5.48,2.63 -0.02,0 0.44,0.99 1.03,2.19 1.11,2.26 2.06,5.7 2.06,7.42l0 0.99 1.26 0.07c2.28,0.14 2.33,1.68 0.06,1.91l-1.2 0.12 -0.16 1.47c-0.2,1.82 -0.78,4.12 -1.43,5.63 -0.27,0.63 -0.46,1.17 -0.43,1.2 0.04,0.03 2.21,-0.95 4.83,-2.18l4.76 -2.24 0.12 -9.28 0.13 -9.28 0.67 -0.88c0.37,-0.49 0.67,-0.97 0.66,-1.08 -0.01,-0.46 -27.47,-59 -27.7,-59.06 -0.13,-0.03 -9.63,4.33 -21.11,9.69zm7.14 15.04c-14.53,6.78 -14.95,7 -14.95,7.66 0,0.47 0.15,0.73 0.49,0.84 0.36,0.11 4.73,-1.81 15.22,-6.71 8.1,-3.77 14.85,-6.99 15,-7.14 0.44,-0.44 0.34,-1.12 -0.18,-1.4 -0.26,-0.14 -0.51,-0.25 -0.55,-0.24 -0.05,0 -6.81,3.15 -15.03,6.99zm-31.97 6.73c-1.35,5 -2.42,9.13 -2.37,9.18 0.09,0.1 10.62,-4.8 10.92,-5.08 0.19,-0.19 -5.67,-13.17 -5.96,-13.19 -0.08,0 -1.24,4.09 -2.59,9.09zm43.64 -1.2c-4.08,1.91 -7.54,3.66 -7.68,3.89 -0.31,0.48 0.04,1.23 0.61,1.34 0.19,0.04 3.75,-1.52 7.91,-3.46 6.15,-2.87 7.58,-3.62 7.65,-4.05 0.08,-0.56 -0.35,-1.23 -0.79,-1.21 -0.15,0.01 -3.61,1.58 -7.7,3.49zm-26.5 12.34c-7.41,3.49 -10.77,5.19 -10.83,5.48 -0.1,0.54 0.39,1.14 0.92,1.14 0.22,0 5.29,-2.29 11.26,-5.08 10.73,-5.01 10.85,-5.08 10.85,-5.8 0,-1.4 -0.77,-1.13 -12.2,4.26zm16.88 5.25c-11.26,5.27 -20.65,9.69 -20.86,9.82 -0.33,0.21 0,1.06 2.38,6.15 1.52,3.24 2.85,5.9 2.96,5.9 0.11,0 1,-0.37 1.98,-0.82l1.78 -0.82 0.69 -1.74c1.77,-4.47 5.72,-8.75 10.1,-10.99 2.37,-1.2 5.94,-2.22 7.81,-2.23l1.03 0 0.07 -1.26c0.14,-2.31 1.72,-2.33 1.86,-0.03l0.07 1.22 1.64 0.14c0.9,0.08 2.54,0.43 3.64,0.78l2.01 0.64 3.49 -1.63c1.91,-0.9 4.04,-1.89 4.73,-2.21l1.25 -0.59 -2.75 -5.91c-1.52,-3.26 -2.91,-5.93 -3.09,-5.96 -0.18,-0.02 -9.54,4.28 -20.79,9.54zm3.99 7.73c-6.5,1.7 -11.83,6.74 -13.8,13.04 -0.33,1.08 -0.7,2.64 -0.81,3.48l-0.2 1.53 2.37 0 2.36 0 0.16 -1.35c0.71,-6 6.46,-11.77 12.45,-12.47l1.37 -0.17 0 -2.28 0 -2.29 -1.03 0.02c-0.57,0.01 -1.86,0.23 -2.87,0.49zm5.86 1.78l0 2.28 1.37 0.17c5.42,0.63 10.72,5.45 12.18,11.06 0.2,0.77 0.36,1.7 0.36,2.08l0 0.68 2.32 0 2.32 0 0 -0.94c0,-1.33 -0.86,-4.53 -1.7,-6.32 -1.94,-4.15 -5.45,-7.66 -9.61,-9.6 -1.78,-0.84 -4.98,-1.7 -6.31,-1.7l-0.93 0 0 2.29zm-36.77 3.31c-0.42,0.25 -0.89,0.82 -1.04,1.25 -0.18,0.53 -0.27,3.42 -0.27,8.56l0 7.78 -0.65 0.16c-0.75,0.19 -1.31,-0.37 -1.31,-1.32 0,-0.32 -0.32,-0.9 -0.71,-1.3 -0.62,-0.61 -0.9,-0.71 -2.07,-0.71 -1.16,0 -1.48,0.11 -2.16,0.71l-0.79 0.71 -0.08 3.62c-0.08,3.67 -0.22,4.24 -1.04,4.24 -0.72,0 -0.96,-0.79 -0.96,-3.13 0,-1.83 -0.08,-2.28 -0.5,-2.81 -0.89,-1.14 -2.93,-1.36 -4.3,-0.48 -0.75,0.49 -0.89,0.92 -1.04,3.22 -0.11,1.59 -0.24,2.11 -0.57,2.32 -0.63,0.4 -1.23,-0.1 -1.46,-1.21 -0.25,-1.21 -0.76,-1.76 -1.93,-2.07 -1.38,-0.37 -2.78,0.06 -3.39,1.06 -0.45,0.74 -0.48,1.3 -0.48,11.27 0,9.97 0.03,10.54 0.48,11.28 0.49,0.81 1.63,1.29 3.07,1.29 1.29,0.01 1.33,0.19 1.33,5.32l0 4.73 0.7 0.7c0.95,0.95 1.68,1.02 10.04,0.93 9.18,-0.1 8.81,0.09 9.03,-4.74 0.12,-2.74 0.18,-3.03 0.87,-4.14 0.45,-0.74 1.19,-1.47 1.93,-1.93l1.19 -0.74 6.74 -0.12c7.25,-0.13 7.53,-0.18 8.19,-1.46 0.5,-0.97 0.5,-4.42 0,-5.39 -0.7,-1.36 -1.2,-1.45 -7.78,-1.45 -4.52,0 -6.03,-0.08 -6.18,-0.31 -0.1,-0.17 -0.22,-7.94 -0.25,-17.27 -0.03,-9.33 -0.12,-17.22 -0.19,-17.52 -0.32,-1.34 -2.93,-1.96 -4.42,-1.05zm68.2 -0.09c-1.32,0.72 -1.28,0.15 -1.32,18.59 -0.03,9.42 -0.11,17.25 -0.2,17.39 -0.11,0.17 -2.23,0.26 -6.14,0.26 -6.58,0 -7.07,0.09 -7.78,1.45 -0.51,0.99 -0.5,4.42 0.01,5.41 0.68,1.31 1.39,1.44 8.13,1.42 5.03,-0.01 6.25,0.06 7.02,0.38 1.49,0.62 2.44,1.49 3.12,2.85 0.56,1.12 0.63,1.58 0.63,3.69 0,1.65 0.12,2.67 0.37,3.19 0.7,1.48 0.77,1.49 8.67,1.58 8.36,0.09 9.09,0.02 10.05,-0.93l0.69 -0.7 0 -4.73c0,-5.13 0.04,-5.31 1.33,-5.32 1.44,0 2.58,-0.48 3.07,-1.29 0.45,-0.74 0.48,-1.31 0.48,-11.28 0,-9.97 -0.03,-10.53 -0.48,-11.27 -0.6,-1 -2.01,-1.43 -3.39,-1.06 -1.16,0.31 -1.68,0.86 -1.93,2.07 -0.23,1.11 -0.83,1.61 -1.46,1.21 -0.33,-0.21 -0.46,-0.73 -0.56,-2.32 -0.16,-2.3 -0.29,-2.73 -1.05,-3.22 -1.37,-0.88 -3.41,-0.66 -4.3,0.48 -0.42,0.53 -0.5,0.98 -0.5,2.81 0,2.34 -0.24,3.13 -0.96,3.13 -0.82,0 -0.95,-0.57 -1.03,-4.24l-0.09 -3.62 -0.79 -0.71c-0.68,-0.6 -1,-0.71 -2.16,-0.71 -1.17,0 -1.45,0.1 -2.07,0.71 -0.39,0.4 -0.71,0.98 -0.71,1.3 0,0.95 -0.55,1.51 -1.31,1.32l-0.64 -0.16 0 -7.82c0,-8.62 -0.08,-9.16 -1.44,-9.86 -0.92,-0.47 -2.38,-0.47 -3.26,0zm-36.56 1.66c-2.87,1.01 -5.24,2.87 -6.88,5.39 -0.98,1.51 -1.91,4.08 -1.91,5.29l0 0.71 2.29 0 2.3 0 0.17 -0.91c0.53,-2.86 3.43,-5.76 6.3,-6.3l0.9 -0.17 0 -2.29 0 -2.29 -0.79 0c-0.43,0 -1.51,0.26 -2.38,0.57zm5.13 1.72l0 2.29 0.91 0.17c2.82,0.52 5.76,3.47 6.3,6.3l0.17 0.91 2.29 0 2.29 0 0 -0.71c0,-1.21 -0.93,-3.78 -1.91,-5.29 -1.09,-1.67 -2.87,-3.4 -4.44,-4.32 -1.37,-0.79 -3.89,-1.64 -4.87,-1.64l-0.74 0 0 2.29zm-30.27 7.48l0 6.7 3.86 8.3 3.86 8.3 1.81 0.14c3.67,0.28 5.12,1.94 5.11,5.9 0,2.38 -0.29,3.58 -1.08,4.52l-0.58 0.69 1.78 3.81c1.85,3.96 2.77,5.49 3.95,6.58 1.91,1.76 4.83,2.84 6.88,2.53 3.2,-0.48 5.49,-2.89 6.14,-6.47 0.33,-1.79 0.19,-3.08 -0.55,-5.43 -0.46,-1.44 -0.48,-1.7 -0.17,-1.98 0.2,-0.18 3.18,-1.63 6.64,-3.23 5.91,-2.74 6.3,-2.96 6.55,-3.71 0.15,-0.44 0.55,-1.13 0.89,-1.53 1.06,-1.27 1.87,-1.54 5.07,-1.7l2.93 -0.15 2.69 -1.33 2.68 -1.32 0.07 -5.07c0.04,-3.57 -0.02,-5.06 -0.21,-5.06 -0.14,0 -2.63,1.1 -5.51,2.44 -2.88,1.34 -5.33,2.44 -5.43,2.44 -0.11,0 -0.73,0.66 -1.38,1.47 -3.39,4.23 -8.74,7.17 -14.14,7.76l-1.47 0.17 -0.12 1.19c-0.08,0.78 -0.27,1.29 -0.55,1.47 -0.73,0.45 -1.27,-0.11 -1.41,-1.47l-0.12 -1.19 -1.47 -0.17c-9.73,-1.07 -17.8,-9.14 -18.87,-18.87l-0.16 -1.47 -1.2 -0.12c-2.25,-0.23 -2.22,-1.77 0.04,-1.9l1.23 -0.08 0.1 -1.39c0.05,-0.76 0.06,-1.44 0.01,-1.5 -0.04,-0.06 -0.79,0.24 -1.66,0.67 -0.87,0.43 -1.73,0.78 -1.91,0.78 -0.53,0 -0.87,-0.55 -2.41,-3.86 -0.79,-1.7 -1.54,-3.2 -1.67,-3.33 -0.13,-0.14 -0.22,2.36 -0.22,6.47zm26.61 -2.68c-1.43,0.65 -2.35,1.54 -3.08,2.97 -0.87,1.71 -0.81,1.86 0.79,1.95 0.99,0.05 1.46,0.19 1.65,0.5 0.49,0.78 -0.1,1.27 -1.65,1.35 -1.58,0.08 -1.64,0.22 -0.87,1.88 0.6,1.26 2.03,2.64 3.3,3.17 1.42,0.59 1.53,0.52 1.61,-1.01 0.09,-1.54 0.57,-2.14 1.36,-1.65 0.31,0.2 0.45,0.66 0.5,1.65 0.08,1.53 0.19,1.6 1.59,1.01 1.29,-0.53 2.56,-1.74 3.23,-3.08 0.88,-1.74 0.83,-1.88 -0.78,-1.97 -1.55,-0.08 -2.14,-0.57 -1.65,-1.35 0.2,-0.31 0.66,-0.45 1.65,-0.5 1.6,-0.09 1.66,-0.24 0.79,-1.95 -0.73,-1.43 -1.65,-2.32 -3.07,-2.97 -1.6,-0.72 -1.68,-0.68 -1.76,0.87 -0.05,1 -0.19,1.46 -0.5,1.65 -0.79,0.49 -1.27,-0.1 -1.36,-1.65 -0.08,-1.55 -0.16,-1.59 -1.75,-0.87zm-16.85 7.76c0,1.59 0.92,4.69 2.11,7.11 0.99,2.01 1.47,2.65 3.61,4.78 1.93,1.92 2.88,2.66 4.41,3.44 2.45,1.25 4.68,1.99 6.79,2.24l1.63 0.2 0 -2.4 0 -2.4 -0.82 0c-2.43,0 -6.47,-1.98 -8.79,-4.3 -2.32,-2.31 -4.3,-6.36 -4.3,-8.78l0 -0.83 -2.32 0 -2.32 0 0 0.94zm6.59 -0.23c0,2 1.57,5.28 3.5,7.32 1.99,2.08 5.63,3.93 7.76,3.93l0.7 0 0 -2.32c0,-2.24 -0.01,-2.32 -0.54,-2.32 -0.94,0 -3.18,-1.19 -4.3,-2.27 -1.17,-1.13 -2.11,-2.77 -2.36,-4.15l-0.17 -0.9 -2.3 0 -2.29 0 0 0.71zm21.13 0.19c-0.26,1.38 -1.2,3.02 -2.37,4.15 -1.11,1.08 -3.36,2.27 -4.29,2.27 -0.53,0 -0.55,0.08 -0.55,2.32l0 2.32 0.7 0c2.01,0 5.29,-1.57 7.32,-3.5 2.09,-1.98 3.94,-5.62 3.94,-7.75l0 -0.71 -2.29 0 -2.29 0 -0.17 0.9zm6.61 0.44c-0.48,4.1 -3.39,8.37 -7.23,10.62 -1.75,1.03 -4.47,1.95 -5.76,1.95l-0.83 0 0 2.4 0 2.4 1.62 -0.2c6.19,-0.74 12,-4.88 14.86,-10.58 1.15,-2.29 2.07,-5.4 2.07,-6.99l0 -0.94 -2.29 0 -2.28 0 -0.16 1.34zm-77.18 15.62c0,6.05 0.03,8.48 0.07,5.42 0.04,-3.06 0.04,-8.01 0,-10.99 -0.04,-2.97 -0.07,-0.47 -0.07,5.57zm33.09 -3.58l0 5.9 2.8 0 2.8 0 -0.22 -0.54c-0.34,-0.89 -5.12,-11 -5.26,-11.13 -0.07,-0.07 -0.12,2.53 -0.12,5.77zm57.61 5.66c-0.29,0.18 -0.22,0.24 0.3,0.24 0.37,0 0.67,-0.11 0.67,-0.24 0,-0.31 -0.49,-0.31 -0.97,0zm-19.13 8.94c-2.93,1.37 -5.37,2.54 -5.42,2.59 -0.05,0.05 0.08,0.63 0.29,1.3 0.57,1.78 0.53,5.25 -0.09,7.02 -0.31,0.9 -0.38,1.37 -0.2,1.3 0.16,-0.06 4.39,-2.01 9.4,-4.34l9.11 -4.24 -2.19 -0.15c-2.29,-0.17 -3.26,-0.51 -4.13,-1.47 -0.82,-0.91 -1.14,-1.69 -1.29,-3.15l-0.15 -1.35 -5.33 2.49z"/>
 </g>
</svg>
