<?xml version="1.0" encoding="UTF-8"?>
<!DOCTYPE svg PUBLIC "-//W3C//DTD SVG 1.0//EN" "http://www.w3.org/TR/2001/REC-SVG-20010904/DTD/svg10.dtd">
<!-- Creator: CorelDRAW 2021 (64-Bit) -->
<svg xmlns="http://www.w3.org/2000/svg" xml:space="preserve" width="2480px" height="3508px" version="1.0" shape-rendering="geometricPrecision" text-rendering="geometricPrecision" image-rendering="optimizeQuality" fill-rule="evenodd" clip-rule="evenodd"
viewBox="0 0 2480 3507.43"
 xmlns:xlink="http://www.w3.org/1999/xlink"
 xmlns:xodm="http://www.corel.com/coreldraw/odm/2003">
 <g id="Layer_x0020_1">
  <metadata id="CorelCorpID_0Corel-Layer"/>
  <path fill="#DF1219" stroke="#DF1219" stroke-width="0.9" stroke-miterlimit="22.9256" d="M1239.21 1691.53c-0.23,0.17 -1.31,3.25 -2.51,7.14 -1.16,3.76 -2.54,8.23 -3.08,9.94l-0.97 3.12 -7.88 0c-7.33,0 -7.92,0.03 -8.29,0.44 -0.34,0.38 -0.4,1.03 -0.4,3.89 0,3.72 0.15,4.21 1.32,4.21 1.09,0 1.36,-0.67 1.36,-3.37l0 -2.49 6.49 0 6.49 0 -0.16 0.67c-0.08,0.37 -4.74,15.5 -10.36,33.63l-10.21 32.96 -16.35 0.06c-15.79,0.06 -16.36,0.08 -16.78,0.53 -0.4,0.45 -0.34,1.23 1.4,16.89 1.59,14.25 1.89,16.45 2.27,16.73 0.36,0.27 4.43,0.33 21.47,0.33 20.1,0 21.05,-0.02 21.44,-0.45 0.33,-0.36 0.76,-3.63 2.18,-16.41l1.77 -15.97 5.73 -3.35c3.28,-1.92 5.89,-3.3 6.1,-3.23 0.29,0.11 19.91,11.47 20.21,11.71 0.04,0.03 -0.29,1.96 -0.74,4.29l-0.81 4.24 -9.76 0.13c-5.36,0.07 -9.78,0.16 -9.82,0.19 -0.04,0.02 -0.18,0.34 -0.31,0.69 -0.19,0.49 -0.16,0.78 0.13,1.22l0.38 0.58 31.08 0c29.8,0 31.1,-0.02 31.49,-0.45 0.51,-0.57 0.51,-1.35 0,-1.78 -0.23,-0.18 -1.22,-0.39 -2.24,-0.45l-1.84 -0.13 -4.84 -25.02 -4.83 -25.02 -0.01 -5.17c0,-4.37 -0.06,-5.23 -0.38,-5.55 -0.34,-0.34 -1.54,-0.39 -9.49,-0.39 -8.5,0 -9.12,0.03 -9.5,0.45 -0.35,0.39 -0.4,1.14 -0.4,5.55l0 5.11 -1.84 9.64c-1.02,5.31 -1.93,9.85 -2.03,10.1 -0.12,0.31 -2.8,-7.99 -8.29,-25.75 -4.46,-14.42 -8.11,-26.29 -8.11,-26.39 0.01,-0.11 2.92,-0.19 6.48,-0.19l6.46 0 0 2.53c0,2.13 0.07,2.59 0.45,2.93 0.56,0.51 1.36,0.52 1.86,0.02 0.31,-0.32 0.38,-1.03 0.38,-3.87 0,-3.07 -0.05,-3.53 -0.45,-3.89 -0.39,-0.36 -1.33,-0.4 -8.29,-0.4l-7.84 0 -0.97 -3.12c-0.53,-1.71 -1.92,-6.18 -3.08,-9.94 -1.2,-3.89 -2.28,-6.97 -2.5,-7.14 -0.51,-0.39 -1.08,-0.39 -1.58,0zm-1.49 12.94c-1.17,3.79 -2.12,6.97 -2.12,7.07 0,0.11 1.98,0.19 4.4,0.19 2.41,0 4.39,-0.08 4.4,-0.19 0.01,-0.42 -4.26,-13.97 -4.4,-13.97 -0.09,0 -1.11,3.1 -2.28,6.9zm48.84 4.09c-3.31,0.83 -6.24,3.96 -6.68,7.11 -0.14,0.96 -0.27,1.13 -1.4,1.79 -0.83,0.49 -1.49,1.14 -1.98,1.94 -0.66,1.08 -0.74,1.4 -0.74,3.17 0,2.26 0.37,3.23 1.78,4.67 1.28,1.29 2.55,1.81 4.44,1.81 2.17,0 3.59,-0.68 4.85,-2.3 0.5,-0.65 0.71,-0.73 2.09,-0.78 3.29,-0.13 6.05,-1.93 7.52,-4.92 0.73,-1.47 0.8,-1.83 0.8,-3.83 0,-2 -0.07,-2.36 -0.8,-3.83 -1.45,-2.95 -4.15,-4.74 -7.48,-4.96 -0.82,-0.06 -1.9,0 -2.4,0.13zm0.06 2.8c-2.39,0.77 -4.15,3.18 -4.15,5.66 0,1.39 -0.55,2.27 -1.4,2.28 -0.24,0 -0.78,0.21 -1.21,0.47 -2.16,1.32 -2.03,4.74 0.23,6.12 1.7,1.03 4.25,0.36 4.95,-1.31 0.51,-1.23 0.81,-1.36 2.94,-1.32 1.48,0.02 2.2,-0.09 3.05,-0.47 4.62,-2.07 4.9,-8.51 0.47,-10.92 -1.49,-0.81 -3.35,-1.01 -4.88,-0.51zm-49.99 3.5c0.75,1.04 3.23,3.95 3.37,3.95 0.18,0 3.66,-4.05 3.66,-4.26 0,-0.08 -1.65,-0.14 -3.68,-0.14 -3.5,0 -3.66,0.02 -3.35,0.45zm-4.88 8.86c-1.25,4.04 -2.24,7.38 -2.2,7.43 0.05,0.04 2.03,-2.22 4.4,-5.03l4.32 -5.1 -1.97 -2.33c-1.08,-1.28 -2.04,-2.32 -2.13,-2.32 -0.08,0 -1.18,3.3 -2.42,7.35zm12.06 -5.12c-1.03,1.24 -1.85,2.37 -1.81,2.52 0.09,0.33 8.34,10.13 8.44,10.02 0.12,-0.12 -4.45,-14.77 -4.6,-14.77 -0.08,0 -0.99,1 -2.03,2.23zm-27.49 5.09c-1.05,1.05 -0.28,2.93 1.2,2.93 0.77,0 1.73,-0.95 1.73,-1.71 0,-0.23 -0.23,-0.71 -0.51,-1.07 -0.62,-0.78 -1.72,-0.85 -2.42,-0.15zm18.19 5.89c-2.96,3.5 -5.61,6.66 -5.9,7.01l-0.52 0.65 5.82 4.09c3.2,2.25 5.94,4.08 6.09,4.08 0.22,0 9.21,-6.16 11.39,-7.81 0.52,-0.4 0.47,-0.47 -5.32,-7.34 -3.22,-3.82 -5.93,-6.96 -6.02,-6.99 -0.1,-0.03 -2.59,2.81 -5.54,6.31zm27.02 -6c-1.16,0.81 -0.39,3.04 1.06,3.04 0.73,0 1.82,-1 1.82,-1.67 0,-0.25 -0.23,-0.75 -0.51,-1.11 -0.58,-0.74 -1.53,-0.84 -2.37,-0.26zm9.71 18.78l0 3.79 7.2 0 7.21 0 0 -3.79 0 -3.78 -7.21 0 -7.2 0 0 3.78zm-44.55 -2.26c-0.59,1.62 -5.74,18.58 -5.66,18.65 0.08,0.08 15.85,-10.87 16.36,-11.37 0.17,-0.16 -10.06,-7.58 -10.45,-7.58 -0.08,0 -0.19,0.14 -0.25,0.3zm21.13 3.26c-2.75,1.94 -5.09,3.62 -5.21,3.74 -0.12,0.12 3.35,2.7 8.04,5.99 4.54,3.18 8.28,5.69 8.31,5.58 0.11,-0.35 -5.69,-18.72 -5.92,-18.78 -0.13,-0.03 -2.47,1.53 -5.22,3.47zm-55.91 4.13c-4.12,0.65 -8.94,2.83 -12.05,5.46 -1.52,1.29 -1.79,1.78 -1.42,2.6 0.48,1.05 1.51,0.82 3.41,-0.76 2.07,-1.72 5.87,-3.59 8.72,-4.29 2.79,-0.68 7.67,-0.75 10.18,-0.13 4.05,1 7.53,2.85 10.6,5.64 1.62,1.47 2.55,1.75 3.01,0.89 0.48,-0.89 0.25,-1.4 -1.28,-2.86 -5.56,-5.31 -13.45,-7.75 -21.17,-6.55zm38.76 7.91c-5.06,3.57 -9.31,6.6 -9.44,6.74 -0.16,0.16 3,2.13 9.28,5.8l9.53 5.56 9.48 -5.54c5.22,-3.05 9.44,-5.63 9.38,-5.72 -0.1,-0.17 -18.31,-12.97 -18.78,-13.2 -0.14,-0.07 -4.39,2.79 -9.45,6.36zm40.22 -6.27c-0.17,0.51 -9.17,47.4 -9.17,47.73 0,0.24 3.53,0.31 16.8,0.31l16.79 0 -4.66 -24.11 -4.66 -24.11 -7.5 -0.06c-5.88,-0.05 -7.53,0 -7.6,0.24zm-78.89 5.45c-3.98,0.87 -8.88,3.89 -8.88,5.46 0,1.58 1.19,1.63 3.23,0.12 2.05,-1.51 3.54,-2.24 5.74,-2.8 4.94,-1.26 10.22,0.03 14.07,3.44 1.74,1.55 2.27,1.73 2.92,1.01 0.73,-0.8 0.5,-1.52 -0.92,-2.84 -4.18,-3.88 -10.57,-5.62 -16.16,-4.39zm0.31 7.19c-2.36,0.84 -4.55,2.47 -4.55,3.39 0,0.66 0.64,1.25 1.36,1.25 0.32,0 1.08,-0.38 1.67,-0.83 1.62,-1.23 3.2,-1.68 5.59,-1.57 2.24,0.09 3.56,0.61 5.23,2.03 1.47,1.26 2.75,1.08 2.75,-0.38 0,-0.9 -1.78,-2.5 -3.86,-3.48 -1.46,-0.68 -1.91,-0.77 -4.2,-0.84 -2.09,-0.05 -2.82,0.02 -3.99,0.43zm87.18 0.67c-0.65,0.73 -6.51,9.79 -6.55,10.12 -0.08,0.59 0.01,0.89 0.4,1.28 0.3,0.3 0.98,0.38 3.41,0.38 1.67,0 3.04,0.05 3.04,0.11 0,0.06 -0.93,1.53 -2.07,3.27 -2.56,3.91 -2.71,4.21 -2.34,4.89 0.33,0.63 1.36,0.92 1.84,0.52 0.68,-0.56 6.47,-9.69 6.47,-10.19 0,-1.11 -0.54,-1.29 -3.92,-1.29l-3.16 0 2.56 -3.84c2.53,-3.79 2.93,-4.73 2.28,-5.38 -0.43,-0.43 -1.53,-0.36 -1.96,0.13zm-62.9 10.25c-1.4,4.54 -2.59,8.44 -2.66,8.67 -0.1,0.4 0.3,0.43 5.91,0.43l6.01 0 5.3 -3.09c2.92,-1.7 5.51,-3.23 5.75,-3.39 0.38,-0.26 -0.71,-0.97 -8.6,-5.58 -4.98,-2.9 -9.07,-5.27 -9.11,-5.27 -0.03,0 -1.21,3.7 -2.6,8.23zm35.17 -2.93c-5.5,3.2 -8.96,5.36 -8.77,5.47 0.16,0.09 4.26,2.48 9.09,5.3 4.83,2.82 8.86,5.05 8.94,4.96 0.09,-0.09 0.68,-2.91 1.32,-6.28l1.17 -6.11 -1.29 -4.26c-0.72,-2.35 -1.32,-4.29 -1.34,-4.32 -0.02,-0.03 -4.13,2.33 -9.12,5.24zm-57.3 -1.53c-1.37,1.37 -0.43,3.65 1.5,3.65 1.88,0 2.7,-2.18 1.34,-3.54 -0.91,-0.91 -2,-0.95 -2.84,-0.11zm-14.03 16.67c0,0.54 2.89,26.77 3.07,27.83l0.13 0.79 19.4 0c10.66,0 19.39,-0.09 19.39,-0.2 0,-0.11 0.71,-6.61 1.59,-14.45 0.87,-7.83 1.58,-14.27 1.58,-14.32 0,-0.04 -10.16,-0.08 -22.58,-0.08 -21.34,0 -22.58,0.03 -22.58,0.43zm51.77 12.42c-0.57,0.73 -0.59,0.81 -0.27,1.65 0.53,1.38 2.49,1.43 3.06,0.08 0.17,-0.42 0.26,-0.93 0.18,-1.14 -0.48,-1.36 -2.1,-1.69 -2.97,-0.59zm-33.3 1.02c-0.53,0.59 -0.51,1.34 0.05,1.84 0.37,0.34 1.03,0.4 4.02,0.4 3.26,0 3.63,-0.04 4.07,-0.48 0.59,-0.59 0.61,-0.94 0.11,-1.66 -0.36,-0.52 -0.53,-0.54 -4.11,-0.54 -3.31,0 -3.78,0.05 -4.14,0.44z"/>
 </g>
</svg>
