<?xml version="1.0" encoding="UTF-8"?>
<!DOCTYPE svg PUBLIC "-//W3C//DTD SVG 1.0//EN" "http://www.w3.org/TR/2001/REC-SVG-20010904/DTD/svg10.dtd">
<!-- Creator: CorelDRAW 2021 (64-Bit) -->
<svg xmlns="http://www.w3.org/2000/svg" xml:space="preserve" width="2480px" height="3508px" version="1.0" shape-rendering="geometricPrecision" text-rendering="geometricPrecision" image-rendering="optimizeQuality" fill-rule="evenodd" clip-rule="evenodd"
viewBox="0 0 2480 3507.43"
 xmlns:xlink="http://www.w3.org/1999/xlink"
 xmlns:xodm="http://www.corel.com/coreldraw/odm/2003">
 <g id="Layer_x0020_1">
  <metadata id="CorelCorpID_0Corel-Layer"/>
  <path fill="#DF1219" d="M1189.61 1734.31l0 -35.74 35.74 0 0 -44.84 69.74 30.08 0 27.25 29.68 16.02 0 120.94 5.57 0 0 6.92 -12.48 0 0 -123.78 -22.77 -12.25 0 136.03 -27.57 0 0 -158.65 20.66 11.08 0 -19.01 -55.84 -24.11 0 34.32 20.57 0 0 156.37 -27.56 0 0 -149.46 -28.82 0 0 28.83 20.57 0 0 120.63 -27.49 0 0 -113.72 -20.41 0 0 113.72 -19.03 0 0 -6.92 12.12 0 0 -113.71 27.32 0zm56.39 113.71l0 -142.54 -13.66 0 0 142.54 13.66 0zm-35.81 0l0 -106.8 -13.66 0 0 106.8 13.66 0zm77.99 -132.8l-13.75 -7.38 0 140.18 13.75 0 0 -132.8z"/>
 </g>
</svg>
