<?xml version="1.0" encoding="UTF-8"?>
<!DOCTYPE svg PUBLIC "-//W3C//DTD SVG 1.0//EN" "http://www.w3.org/TR/2001/REC-SVG-20010904/DTD/svg10.dtd">
<!-- Creator: CorelDRAW 2021 (64-Bit) -->
<svg xmlns="http://www.w3.org/2000/svg" xml:space="preserve" width="2480px" height="3508px" version="1.0" shape-rendering="geometricPrecision" text-rendering="geometricPrecision" image-rendering="optimizeQuality" fill-rule="evenodd" clip-rule="evenodd"
viewBox="0 0 2480 3507.43"
 xmlns:xlink="http://www.w3.org/1999/xlink"
 xmlns:xodm="http://www.corel.com/coreldraw/odm/2003">
 <g id="Layer_x0020_1">
  <metadata id="CorelCorpID_0Corel-Layer"/>
  <path fill="#DF1219" d="M1262.86 1654.44c-3.96,1.39 -5.9,2.88 -10.23,7.89 -1.51,1.75 -3.12,3.14 -4.29,3.72 -1.77,0.88 -2.33,0.94 -8.92,0.95l-7.03 0.01 -2.54 1.23c-4.81,2.32 -8.66,6.91 -9.96,11.87 -0.5,1.89 -0.57,3.44 -0.36,7.59 0.4,8.02 0.25,8.32 -7.68,15.88 -3.48,3.32 -5.43,7.94 -5.43,12.87l0 2.26 -3.23 -0.2c-4.24,-0.25 -8.16,0.61 -12.4,2.71 -6.17,3.08 -11.33,9.54 -13.1,16.42 -0.83,3.19 -0.82,9.24 0.01,12.47 1.82,7.14 6.75,13.26 13.38,16.65 3.77,1.92 6.96,2.53 12.21,2.33 3.81,-0.14 4.94,-0.35 7.43,-1.35 3.8,-1.52 7.22,-3.9 9.81,-6.84l2.08 -2.35 2.42 2.3c4.33,4.12 9.01,5.58 15.19,4.74 6.03,-0.81 9.16,0.51 13.36,5.67 4.37,5.36 8.54,7.51 14.56,7.51 6.01,0 10.18,-2.15 14.55,-7.51 4.2,-5.16 7.33,-6.48 13.36,-5.67 6.19,0.84 10.86,-0.62 15.2,-4.75 4.63,-4.4 5.88,-8.13 5.49,-16.33l-0.27 -5.43 1.18 -2.56c0.97,-2.11 1.73,-3.01 4.3,-5.17 3.44,-2.9 4.58,-4.26 6.04,-7.2 3.43,-6.91 1.97,-15.29 -3.57,-20.57 -7.93,-7.56 -8.08,-7.86 -7.68,-15.88 0.21,-4.15 0.14,-5.7 -0.36,-7.59 -1.3,-4.96 -5.15,-9.55 -9.96,-11.87l-2.54 -1.23 -7.03 0c-6.88,-0.01 -7.08,-0.03 -9.05,-1.08 -1.24,-0.66 -2.9,-2.11 -4.3,-3.74 -4.28,-5.01 -5.99,-6.34 -9.85,-7.66 -3.02,-1.03 -8,-1.08 -10.79,-0.09zm2.44 5.25c-3.26,0.83 -5.47,2.57 -8.67,6.85 -1.61,2.16 -4.94,4.46 -7.94,5.47 -2.34,0.79 -3.06,0.85 -7.9,0.61 -6.09,-0.29 -8.11,0.11 -10.85,2.16 -3.44,2.57 -4.97,6.01 -4.74,10.67 0.08,1.64 0.12,4.42 0.1,6.17 -0.08,5.6 -2.18,9.58 -7.44,14.09 -4.08,3.5 -5.26,5.49 -5.5,9.29 -0.3,4.79 -0.05,5.44 2.72,7.18 5.06,3.17 9.14,8.56 10.94,14.47 0.73,2.41 0.9,3.8 0.86,7.34 -0.03,2.54 -0.29,5.24 -0.63,6.46 -0.57,2.06 -0.57,2.12 0.47,3.78 1.21,1.94 2.94,3.51 5.24,4.76 1.48,0.81 2.06,0.86 7.66,0.77 8.72,-0.14 12.06,1.01 16.27,5.62 1.22,1.33 2.9,3.17 3.74,4.08 2.4,2.61 4.55,3.5 8.51,3.5 3.95,0 6.1,-0.89 8.5,-3.5 0.84,-0.91 2.52,-2.75 3.74,-4.08 4.22,-4.61 7.6,-5.78 16.3,-5.62 5.22,0.09 6.22,0 7.48,-0.63 3.71,-1.88 6.76,-6.06 7,-9.58 0.06,-0.88 -0.03,-3.29 -0.19,-5.36 -0.59,-7.59 0.89,-11.14 7.12,-17.02 5.36,-5.06 6.07,-6.47 5.83,-11.59 -0.21,-4.38 -1.22,-6.19 -5.51,-9.87 -5.27,-4.52 -7.37,-8.5 -7.43,-14.09 -0.01,-1.75 0.03,-4.7 0.1,-6.55 0.1,-2.88 -0.01,-3.67 -0.8,-5.36 -1.16,-2.5 -3.76,-5.17 -6.13,-6.28 -1.68,-0.79 -2.36,-0.85 -8.09,-0.75 -5.48,0.11 -6.53,0.02 -8.59,-0.7 -3.21,-1.12 -6.1,-3.23 -8.37,-6.11 -2.63,-3.35 -3.83,-4.43 -5.95,-5.38 -2.14,-0.96 -5.77,-1.33 -7.85,-0.8zm-1.11 15.89c-8.71,0.75 -18.02,5.2 -24.4,11.68 -19.7,20.01 -14.14,53.48 10.93,65.87 1.98,0.98 5.35,2.25 7.48,2.82 3.39,0.92 4.64,1.05 9.94,1.05 5.29,0 6.54,-0.13 9.93,-1.05 15.74,-4.23 27.33,-17.29 29.92,-33.7 0.65,-4.11 0.29,-11.84 -0.74,-15.83 -4.54,-17.59 -19.3,-29.95 -36.97,-30.97 -1.5,-0.09 -4.24,-0.03 -6.09,0.13zm-1.66 5.91c-13.9,2.57 -24.73,12.79 -28.07,26.51 -1.18,4.85 -1.16,12.05 0.05,16.71 0.96,3.74 2.59,7.6 4.39,10.45l1.2 1.9 1.14 -2.46c2.98,-6.4 8.04,-11.53 14.37,-14.57l2.33 -1.12 -1.18 -1.15c-0.65,-0.63 -1.81,-2.44 -2.58,-4.02 -6.04,-12.43 5.78,-26.22 18.77,-21.89 9.03,3.01 13.32,13.29 9.14,21.89 -0.77,1.58 -1.93,3.39 -2.58,4.02l-1.18 1.15 2.33 1.12c6.33,3.04 11.39,8.17 14.37,14.57l1.14 2.46 1.2 -1.9c5.84,-9.25 6.98,-21.5 2.97,-31.9 -2.96,-7.68 -9.38,-14.73 -16.85,-18.54 -4.36,-2.22 -8.72,-3.27 -14.18,-3.44 -2.69,-0.08 -5.74,0.02 -6.78,0.21zm3.6 15.35c-0.57,0.1 -1.97,0.75 -3.12,1.45 -2.38,1.43 -4.37,4.36 -4.79,7.01 -1.04,6.59 5,12.72 11.48,11.66 5.32,-0.86 9.41,-6.79 8.26,-11.98 -1.21,-5.49 -6.43,-9.08 -11.83,-8.14zm-0.34 26.16c-6.65,1.12 -10.75,3.1 -14.61,7.04 -2.88,2.94 -5.22,6.83 -6.08,10.13 -0.42,1.59 -0.39,1.8 0.45,2.71 2.77,3.02 10.02,6.67 15.58,7.86 3.54,0.76 10.47,0.76 14.01,0 5.56,-1.19 12.81,-4.84 15.58,-7.86 0.84,-0.91 0.87,-1.12 0.45,-2.71 -1.52,-5.82 -6.56,-11.86 -12.14,-14.54 -1.8,-0.88 -4.07,-1.77 -5.04,-2 -2.1,-0.5 -6.84,-0.87 -8.2,-0.63zm-66.4 1.36c-6.28,0.83 -12.13,5.13 -14.83,10.9 -3.69,7.9 -2.12,16.74 4.04,22.75 6.2,6.04 14.66,7.28 22.41,3.28 4.56,-2.35 8.01,-6.56 9.52,-11.62 0.67,-2.23 0.79,-3.5 0.67,-6.84 -0.14,-3.87 -0.24,-4.27 -1.8,-7.46 -3.81,-7.81 -11.63,-12.11 -20.01,-11.01zm5.01 15.74c-3.39,3.42 -6.23,6.14 -6.3,6.05 -0.07,-0.1 -0.9,-1.51 -1.83,-3.15 -1.9,-3.3 -2.51,-3.94 -3.84,-3.96 -1.13,-0.01 -2.81,1.66 -2.81,2.8 0,0.92 4.67,9.47 5.99,10.98 0.5,0.56 1.24,0.89 1.99,0.89 1.05,0 2.23,-1.04 8.92,-7.84 6.77,-6.89 7.71,-7.99 7.71,-9.1 0,-1.4 -1.48,-2.9 -2.86,-2.9 -0.51,0 -3.04,2.27 -6.97,6.23zm-0.91 30.51c-3.83,0.93 -5.95,1.69 -8.8,3.15 -6.19,3.15 -13.62,9.42 -20.84,17.57l-4.22 4.77 -2.83 -0.22c-4.64,-0.35 -4.96,-0.15 -13.21,8.16 -6.31,6.35 -7.33,7.54 -7.33,8.58 0,1.06 2.33,3.57 19.63,21.15 16.99,17.25 19.79,19.93 20.78,19.93 0.96,0 2.26,-1.12 8.11,-7.04 8.06,-8.13 8.67,-9.1 8.45,-13.17l-0.15 -2.71 2.16 -0.7c7.04,-2.29 16.89,-2.7 33.49,-1.41 22.05,1.72 30.69,0.86 42.3,-4.17 12.12,-5.27 39.03,-21.68 47.33,-28.87 2.34,-2.04 3.26,-3.17 4.24,-5.18 1.11,-2.29 1.23,-2.88 1.09,-5.17 -0.21,-3.39 -1.6,-5.52 -4.62,-7.09 -1.9,-0.99 -2.49,-1.11 -5.14,-0.99 -2.82,0.12 -3.26,0.27 -7.62,2.62 -10.15,5.49 -23.67,11.96 -34.21,16.37l-4.59 1.92 0 -1.89c0,-2.76 -1.01,-5.34 -2.95,-7.54 -2.67,-3.01 -4.39,-3.57 -12.26,-4.01 -11.99,-0.66 -19.05,-2.39 -33.19,-8.13 -12.26,-4.97 -15.12,-5.8 -20.54,-5.98 -2.37,-0.08 -4.65,-0.06 -5.08,0.05zm1.36 5.71c-4.05,0.53 -8.22,2.4 -13.28,5.97 -3.04,2.15 -17.57,16.66 -17.57,17.54 0,0.28 5.73,6.32 12.73,13.44l12.73 12.94 2.8 -1.1c8.14,-3.21 17.83,-3.76 36.81,-2.11 10.58,0.93 23.19,0.93 27.65,0.02 7.6,-1.55 13.5,-3.99 24.39,-10.04 16.12,-8.96 32.83,-20.07 35.63,-23.69 1.99,-2.57 1.8,-5.29 -0.44,-6.23 -1.65,-0.7 -3.64,-0.24 -6.99,1.61 -14.18,7.82 -35.76,17.58 -47.46,21.48 -6.77,2.26 -9.54,2.72 -16.35,2.71 -9.41,-0.02 -19.46,-1.76 -25.14,-4.37 -1.9,-0.87 -2.49,-1.35 -2.7,-2.2 -0.64,-2.61 1.41,-4.41 3.87,-3.38 6.35,2.66 14.52,4.1 23.52,4.16 9.62,0.06 13.6,-0.99 15.94,-4.2 0.97,-1.33 1.01,-4.28 0.09,-5.71 -1.3,-2.01 -2.54,-2.41 -8.42,-2.68 -12.81,-0.59 -21.08,-2.64 -37.12,-9.22 -10.96,-4.49 -15.59,-5.6 -20.69,-4.94zm-46.36 30.65l-5.6 5.65 16.9 17.17 16.9 17.18 5.57 -5.69c4.98,-5.09 5.56,-5.83 5.56,-7.04 0,-1.26 -1.14,-2.52 -15.53,-17.14 -14.37,-14.6 -15.63,-15.77 -16.86,-15.77 -1.19,0 -1.93,0.6 -6.94,5.64z"/>
 </g>
</svg>
