<?xml version="1.0" encoding="UTF-8"?>
<!DOCTYPE svg PUBLIC "-//W3C//DTD SVG 1.0//EN" "http://www.w3.org/TR/2001/REC-SVG-20010904/DTD/svg10.dtd">
<!-- Creator: CorelDRAW 2021 (64-Bit) -->
<svg xmlns="http://www.w3.org/2000/svg" xml:space="preserve" width="2480px" height="3508px" version="1.0" shape-rendering="geometricPrecision" text-rendering="geometricPrecision" image-rendering="optimizeQuality" fill-rule="evenodd" clip-rule="evenodd"
viewBox="0 0 2480 3507.43"
 xmlns:xlink="http://www.w3.org/1999/xlink"
 xmlns:xodm="http://www.corel.com/coreldraw/odm/2003">
 <g id="Layer_x0020_1">
  <metadata id="CorelCorpID_0Corel-Layer"/>
  <path fill="#DF1219" d="M1166.76 1698.52c-0.7,0.37 -1.32,0.97 -1.8,1.75l-0.74 1.18 0 11.02 0 11.03 0.74 1.18c0.48,0.78 1.1,1.38 1.8,1.75 1.02,0.54 1.33,0.57 5.68,0.57l4.6 0 0 6.92 0 6.92 -1.57 0.16c-2.11,0.22 -4.89,0.95 -7.35,1.94l-2.03 0.82 -4.07 -4.07 -4.07 -4.07 0.03 -6.82c0.04,-9.74 0.52,-9.25 -9.01,-9.25 -7.36,0 -7.63,0.07 -8.55,1.97 -0.45,0.91 -0.49,1.51 -0.49,7.08 0,6.81 0.1,7.28 1.69,8.34 0.81,0.54 0.99,0.56 7.09,0.56l6.27 0 4.01 4.05 4 4.05 -0.97 0.76c-3.74,2.94 -6.63,6.51 -8.61,10.66 -0.74,1.55 -1.37,2.84 -1.39,2.87 -0.02,0.03 -1.84,-0.6 -4.03,-1.4 -2.2,-0.81 -4.01,-1.47 -4.03,-1.47 -0.02,0 0.01,-0.31 0.07,-0.7 0.21,-1.44 -0.42,-4.26 -1.4,-6.25 -3.21,-6.54 -10.81,-9.04 -17.39,-5.71 -3.02,1.52 -5.77,5.02 -6.52,8.28 -0.45,1.93 -0.32,5.06 0.29,6.84 1.54,4.51 4.67,7.41 9.24,8.57 5.48,1.38 11.29,-1.2 14.17,-6.31l0.72 -1.27 2.61 0.94c5.31,1.91 5.46,1.98 5.28,2.41 -0.09,0.22 -0.22,1.85 -0.29,3.61 -0.13,3.03 -0.11,3.22 0.39,3.72 0.68,0.68 1.77,0.67 2.4,-0.03 0.42,-0.46 0.52,-1 0.65,-3.34 0.08,-1.54 0.23,-2.87 0.34,-2.96 0.1,-0.1 1.25,0.21 2.56,0.69l2.38 0.86 0 2.16c0,2.44 0.38,3.14 1.67,3.14 1.18,0 1.75,-0.87 1.75,-2.7 0.02,-5.83 3.58,-11.54 8.79,-14.11 4.71,-2.32 9.69,-2.32 14.4,0 2.9,1.43 5.61,4.14 7.04,7.05 1.13,2.29 1.74,4.71 1.74,6.98 0.01,1.14 0.13,1.65 0.51,2.14 1,1.26 2.88,0.54 2.95,-1.13 0.15,-4.29 -1.15,-8.78 -3.49,-12.04 -0.46,-0.65 -0.69,-1.17 -0.55,-1.29 1.59,-1.41 3.8,-2.97 4.02,-2.83 0.55,0.33 2.63,3.79 3.39,5.61 1.17,2.81 1.74,5.31 1.9,8.4 0.13,2.49 0.21,2.86 0.7,3.36 1.6,1.59 3.38,-0.31 2.93,-3.11l-0.15 -0.97 8.1 0 8.1 0 2.83 -1.77 2.82 -1.77 5.49 -0.12c7.95,-0.18 7.69,0.08 7.69,-7.81 0,-4.91 -0.04,-5.56 -0.44,-6.15 -0.99,-1.45 -1.32,-1.53 -6.67,-1.62 -5.48,-0.09 -6.47,0.07 -7.54,1.19l-0.73 0.75 -0.07 5.58 -0.07 5.59 -2.19 1.35 -2.19 1.36 -7.75 0 -7.75 0 -0.54 -2.09c-0.64,-2.48 -2.22,-5.9 -3.83,-8.28 -0.63,-0.94 -1.17,-1.78 -1.2,-1.86 -0.03,-0.14 5.4,-4.61 5.61,-4.61 0.05,0 0.57,0.37 1.16,0.82 4.84,3.69 11.72,3.42 16.17,-0.64 2.86,-2.61 4.26,-5.73 4.27,-9.5 0,-2.43 -0.27,-3.6 -1.3,-5.72 -1.45,-2.97 -4.2,-5.36 -7.45,-6.48 -2.31,-0.79 -5.63,-0.79 -7.94,0 -2.94,1.01 -5.59,3.15 -7.11,5.75 -2.05,3.5 -2.22,8.53 -0.39,12.11l0.43 0.86 -2.96 2.36c-2.47,1.96 -3.03,2.3 -3.36,2.07 -0.22,-0.16 -1.04,-0.81 -1.83,-1.46 -3.9,-3.18 -9.46,-5.49 -14.32,-5.94l-1.64 -0.16 0 -6.92 0 -6.92 4.58 0c4.27,0 4.66,-0.04 5.67,-0.55 0.64,-0.32 1.4,-0.99 1.83,-1.61l0.73 -1.06 0.07 -10.72c0.05,-7.04 -0.02,-11.05 -0.19,-11.68 -0.34,-1.27 -1.33,-2.41 -2.55,-2.97 -0.91,-0.42 -1.84,-0.45 -11.87,-0.46l-10.89 0 -1.08 0.57zm1.41 3.29c-0.37,0.4 -0.41,1.5 -0.41,10.71 0,9.62 0.03,10.28 0.45,10.66 0.4,0.36 1.49,0.4 10.51,0.4 6.47,0 10.24,-0.09 10.54,-0.25 0.46,-0.25 0.47,-0.63 0.47,-10.86 0,-10.23 -0.01,-10.61 -0.47,-10.85 -0.3,-0.16 -4.08,-0.25 -10.58,-0.25 -9.48,0 -10.13,0.02 -10.51,0.44zm-24.57 26.77l0 5.5 5.49 0 5.49 0 0 -5.5 0 -5.49 -5.49 0 -5.49 0 0 5.49zm68.86 0.13c-4.43,1.59 -6.96,6.39 -5.78,10.97 2.13,8.32 13.47,9.52 17.25,1.83 2.49,-5.05 -0.21,-11.34 -5.55,-12.95 -1.63,-0.49 -4.33,-0.42 -5.92,0.15zm-37.93 15.99c-8.43,1.6 -15.14,7 -18.55,14.96 -0.48,1.11 -0.58,1.56 -0.36,1.64 0.17,0.05 1.23,0.43 2.36,0.84 1.14,0.41 2.14,0.74 2.23,0.74 0.1,0 0.42,-0.61 0.72,-1.36 2.21,-5.42 7.43,-9.84 13.42,-11.36 2.76,-0.7 7.81,-0.56 10.25,0.27 2.12,0.72 4.26,1.81 5.75,2.92l1.22 0.92 1.95 -1.53c1.07,-0.84 1.95,-1.67 1.95,-1.84 0,-0.52 -3.29,-2.86 -5.67,-4.02 -3.25,-1.6 -6.29,-2.33 -10.2,-2.44 -2.14,-0.07 -3.78,0.02 -5.07,0.26zm-45.25 1.84c-2.28,0.45 -4.62,2.07 -5.92,4.09 -3.75,5.85 0.2,13.74 7.09,14.15 2.4,0.15 3.99,-0.24 5.81,-1.42 1.82,-1.18 3.04,-2.8 3.71,-4.96 2.1,-6.77 -3.72,-13.24 -10.69,-11.86zm100.73 9.02l0 4.15 4.27 0 4.27 0 0 -4.15 0 -4.15 -4.27 0 -4.27 0 0 4.15zm-97.29 19.64c-0.39,0.39 -0.6,0.87 -0.6,1.4 0.01,1.76 0.51,6.46 0.76,7.07 0.3,0.76 0.61,0.89 4.35,1.96 3.38,0.95 4.46,1.69 5.51,3.73 0.64,1.25 0.73,1.7 0.73,3.41l0 1.97 -1.77 3.14c-0.97,1.72 -1.77,3.39 -1.77,3.71 0,1.45 8.27,10.56 10.83,11.95l0.91 0.48 1.27 -0.69c5.01,-2.74 5.26,-2.85 6.79,-2.85 2.81,0 6.47,2.01 7.53,4.14 0.23,0.48 0.79,2.19 1.23,3.8 0.43,1.61 0.95,3.11 1.15,3.33 0.55,0.63 2.97,0.97 7.76,1.1 4.84,0.14 7.97,-0.14 8.66,-0.76 0.25,-0.23 0.78,-1.64 1.22,-3.26 1.24,-4.54 1.83,-5.28 5.44,-6.8 4.01,-1.69 4.92,-1.61 9.24,0.79 1.56,0.86 3.06,1.57 3.34,1.57 1.61,0 10.67,-8.89 11.39,-11.18 0.14,-0.44 -0.18,-1.22 -1.41,-3.42 -2.47,-4.46 -2.57,-5.32 -1,-9.2 1.53,-3.8 2.14,-4.3 6.72,-5.62 1.66,-0.48 3.22,-1.06 3.46,-1.3 0.49,-0.48 0.91,-3.39 0.91,-6.28 0,-1.49 -0.08,-1.8 -0.56,-2.26 -0.56,-0.53 -0.63,-0.53 -10.82,-0.53 -12.19,0 -11.16,-0.29 -11.43,3.21 -0.77,9.86 -7.07,18.05 -16.22,21.1 -14.84,4.95 -30.15,-5.3 -31.4,-21.02 -0.13,-1.71 -0.28,-2.31 -0.67,-2.74l-0.51 -0.55 -10.22 0 -10.22 0 -0.6 0.6zm3.09 4.22c0.04,2.2 0.09,2.25 2.66,2.98 1.28,0.36 2.8,0.9 3.38,1.2 2.42,1.26 4.39,4.14 5.07,7.42 0.57,2.73 0.18,4.39 -1.88,8.05 -1.04,1.85 -1.21,2.3 -1,2.76 0.53,1.14 5.71,6.69 7.3,7.81 0.47,0.33 0.66,0.27 2.26,-0.65 4.38,-2.53 6.71,-2.69 11.15,-0.79 2.43,1.05 4.5,2.79 5.5,4.64 0.35,0.65 0.95,2.3 1.33,3.67 0.65,2.36 0.71,2.48 1.42,2.63 1.36,0.27 6.82,0.45 8.69,0.27l1.84 -0.17 0.57 -2.1c1.46,-5.26 3.27,-7.04 9.29,-9.1 2.06,-0.7 2.52,-0.78 4.15,-0.66 1.64,0.12 2.15,0.29 4.73,1.62l2.9 1.49 1.13 -0.91c1.45,-1.18 4.54,-4.27 5.71,-5.71l0.9 -1.12 -1.32 -2.39c-0.72,-1.31 -1.45,-2.93 -1.61,-3.6 -0.5,-2.08 -0.19,-4.38 0.96,-7.24 2.03,-5.01 3.68,-6.49 8.76,-7.86l2.01 -0.55 0 -1.42 0 -1.43 -7.8 0 -7.79 0 -0.16 1.16c-0.61,4.66 -2.13,8.76 -4.58,12.37 -1.22,1.8 -4.25,4.99 -6.06,6.38 -6.63,5.11 -15.4,6.87 -23.53,4.73 -10.57,-2.78 -18.66,-11.83 -20.16,-22.54l-0.3 -2.1 -7.77 0 -7.78 0 0.03 1.16z"/>
 </g>
</svg>
