<?xml version="1.0" encoding="UTF-8"?>
<!DOCTYPE svg PUBLIC "-//W3C//DTD SVG 1.0//EN" "http://www.w3.org/TR/2001/REC-SVG-20010904/DTD/svg10.dtd">
<!-- Creator: CorelDRAW 2021 (64-Bit) -->
<svg xmlns="http://www.w3.org/2000/svg" xml:space="preserve" width="2480px" height="3508px" version="1.0" shape-rendering="geometricPrecision" text-rendering="geometricPrecision" image-rendering="optimizeQuality" fill-rule="evenodd" clip-rule="evenodd"
viewBox="0 0 2480 3507.43"
 xmlns:xlink="http://www.w3.org/1999/xlink"
 xmlns:xodm="http://www.corel.com/coreldraw/odm/2003">
 <g id="Layer_x0020_1">
  <metadata id="CorelCorpID_0Corel-Layer"/>
  <path fill="#DF1219" d="M1237.49 1654.82c-1.1,1.09 -1.11,1.17 -1.11,9.62 0,8.46 0.01,8.53 1.11,9.62 0.7,0.69 1.63,1.1 2.51,1.1 0.88,0 1.81,-0.41 2.51,-1.1 1.1,-1.09 1.11,-1.16 1.11,-9.62 0,-8.45 -0.01,-8.53 -1.11,-9.62 -0.7,-0.69 -1.63,-1.09 -2.51,-1.09 -0.88,0 -1.81,0.4 -2.51,1.09zm-61.41 25.21c-2.32,2.3 -1.82,3.32 4.92,9.99 3.17,3.14 6.23,5.82 6.79,5.97 2.46,0.61 5.11,-1.99 4.48,-4.42 -0.15,-0.55 -2.87,-3.57 -6.06,-6.69 -6.76,-6.64 -7.8,-7.14 -10.13,-4.85zm123.95 -0.87c-1.64,0.68 -12.46,11.86 -12.46,12.87 0,2.51 2.37,4.53 4.64,3.96 0.56,-0.15 3.62,-2.83 6.79,-5.97 6.7,-6.63 7.24,-7.7 4.97,-9.93 -1.4,-1.38 -2.32,-1.6 -3.94,-0.93zm-66.37 3.42c-14.77,1.85 -27.14,7.71 -37.16,17.58 -8.75,8.63 -14.59,19.43 -17.08,31.62 -1.12,5.47 -1.09,17.14 0.06,22.63 3.66,17.48 14.17,32.12 29.42,40.95l2.1 1.22 0 18.55c0,20.64 0,20.58 2.98,22.82 1.6,1.21 2.02,1.3 6.61,1.44l4.91 0.15 0 4.22c0,4.99 0.6,6.69 2.98,8.48l1.71 1.29 9.2 0.14c10.37,0.15 11.43,-0.08 13.66,-2.96 1.12,-1.44 1.23,-1.97 1.37,-6.37l0.16 -4.8 4.86 -0.15c4.47,-0.14 5,-0.25 6.47,-1.35 3.11,-2.34 3.09,-2.17 3.09,-22.89l0 -18.59 1.41 -0.76c3.34,-1.8 9.32,-6.31 12.66,-9.54 12.56,-12.18 19.33,-29.15 18.41,-46.13 -0.83,-15.26 -7.15,-29.3 -17.97,-39.94 -11.53,-11.34 -25.41,-17.25 -41.47,-17.64 -3.74,-0.09 -7.51,-0.08 -8.38,0.03zm-2.37 7.56c-7.92,1.21 -17.09,5.05 -23.7,9.91 -21.21,15.62 -27.97,43.84 -16.07,67.09 4.93,9.63 13.99,18.66 23.43,23.37 1.3,0.65 2.58,1.57 2.83,2.04 0.26,0.48 0.47,3.19 0.47,6.03l0 5.17 9.06 0 9.07 0 0 -8.16 0 -8.16 -5.19 -5.09c-2.84,-2.8 -5.3,-5.59 -5.46,-6.2 -0.64,-2.5 1.93,-5.03 4.38,-4.31 0.58,0.17 3.04,2.24 5.47,4.6l4.42 4.3 4.42 -4.3c2.43,-2.36 4.89,-4.43 5.47,-4.6 2.45,-0.72 5.02,1.81 4.38,4.31 -0.16,0.61 -2.62,3.4 -5.46,6.2l-5.19 5.09 0 8.16 0 8.16 9.07 0 9.06 0 0 -5.17c0,-2.84 0.2,-5.53 0.44,-5.98 0.25,-0.45 1.96,-1.64 3.81,-2.64 12.08,-6.53 21.43,-17.61 25.62,-30.35 1.99,-6.07 2.52,-9.56 2.52,-16.59 0,-3.72 -0.27,-7.8 -0.63,-9.6 -5.81,-28.94 -32.9,-47.78 -62.22,-43.28zm-80.79 50.41c-0.7,0.69 -1.11,1.6 -1.11,2.47 0,0.87 0.41,1.79 1.11,2.48 1.1,1.09 1.18,1.1 9.76,1.1 8.58,0 8.66,-0.01 9.76,-1.1 0.7,-0.69 1.11,-1.61 1.11,-2.48 0,-0.87 -0.41,-1.78 -1.11,-2.47 -1.1,-1.09 -1.18,-1.1 -9.76,-1.1 -8.58,0 -8.66,0.01 -9.76,1.1zm159.48 0c-0.7,0.69 -1.11,1.6 -1.11,2.47 0,0.87 0.41,1.79 1.11,2.48 1.1,1.09 1.18,1.1 9.76,1.1 8.58,0 8.66,-0.01 9.76,-1.1 0.7,-0.69 1.11,-1.61 1.11,-2.48 0,-0.87 -0.41,-1.78 -1.11,-2.47 -1.1,-1.09 -1.18,-1.1 -9.76,-1.1 -8.58,0 -8.66,0.01 -9.76,1.1zm-123.21 50.2c-0.75,0.47 -3.65,3.13 -6.45,5.92 -6.01,5.98 -6.51,7.1 -4.24,9.34 2.3,2.26 3.4,1.76 9.7,-4.4 7.14,-6.98 7.7,-8.06 5.32,-10.4 -1.54,-1.52 -2.47,-1.62 -4.33,-0.46zm102.13 0.46c-1.49,1.46 -1.62,2.21 -0.69,3.96 0.89,1.67 11.14,11.52 12.38,11.89 2.25,0.69 5.09,-2.11 4.4,-4.33 -0.39,-1.22 -10.38,-11.32 -12.07,-12.19 -1.78,-0.92 -2.54,-0.79 -4.02,0.67zm-70.65 23.25l0 3.57 21.75 0 21.75 0 0 -3.57 0 -3.57 -21.75 0 -21.75 0 0 3.57zm0 14.29l0 3.57 21.75 0 21.75 0 0 -3.57 0 -3.57 -21.75 0 -21.75 0 0 3.57zm14.5 14.29l0 3.57 7.25 0 7.25 0 0 -3.57 0 -3.58 -7.25 0 -7.25 0 0 3.58z"/>
 </g>
</svg>
