<?xml version="1.0" encoding="UTF-8"?>
<!DOCTYPE svg PUBLIC "-//W3C//DTD SVG 1.0//EN" "http://www.w3.org/TR/2001/REC-SVG-20010904/DTD/svg10.dtd">
<!-- Creator: CorelDRAW 2021 (64-Bit) -->
<svg xmlns="http://www.w3.org/2000/svg" xml:space="preserve" width="2480px" height="3508px" version="1.0" shape-rendering="geometricPrecision" text-rendering="geometricPrecision" image-rendering="optimizeQuality" fill-rule="evenodd" clip-rule="evenodd"
viewBox="0 0 2480 3507.43"
 xmlns:xlink="http://www.w3.org/1999/xlink"
 xmlns:xodm="http://www.corel.com/coreldraw/odm/2003">
 <g id="Layer_x0020_1">
  <metadata id="CorelCorpID_0Corel-Layer"/>
  <path fill="#DF1219" d="M1216.24 1691.44c-1.83,0.6 -3.36,1.94 -4.06,3.57 -0.3,0.69 -0.45,1.88 -0.53,4.09l-0.11 3.11 -9.94 0c-5.63,0 -10.52,0.1 -11.26,0.24 -3.22,0.6 -5.92,2.73 -7.38,5.81l-0.77 1.64 -0.07 48.68c-0.07,53.09 -0.14,50.21 1.28,52.63 0.76,1.3 2.32,2.85 3.66,3.64 2.47,1.44 -0.52,1.37 52.75,1.3l48.81 -0.07 1.34 -0.54c2.57,-1.05 4.9,-3.47 5.78,-5.98 0.42,-1.23 0.44,-3.4 0.44,-50.47l0 -49.19 -0.77 -1.64c-1.46,-3.08 -4.16,-5.21 -7.38,-5.81 -0.74,-0.14 -5.63,-0.24 -11.26,-0.24l-9.94 0 -0.11 -3.11c-0.12,-3.47 -0.43,-4.53 -1.73,-5.88 -1.3,-1.36 -2.5,-1.86 -4.44,-1.86 -1.95,0 -3.17,0.51 -4.43,1.86 -1.43,1.51 -1.64,2.22 -1.75,5.75l-0.11 3.24 -15.07 0 -15.08 0 -0.11 -3.24c-0.08,-2.49 -0.2,-3.43 -0.54,-4.09 -0.61,-1.19 -1.8,-2.39 -2.93,-2.97 -1.05,-0.54 -3.32,-0.79 -4.29,-0.47zm0.18 3.63c-1.33,0.82 -1.4,1.31 -1.4,9.03 0,6.96 0.01,7.08 0.56,7.9 1.01,1.51 2.98,1.66 4.31,0.33l0.62 -0.61 0.07 -7.44c0.06,-6.34 0.02,-7.54 -0.31,-8.16 -0.71,-1.37 -2.53,-1.87 -3.85,-1.05zm42.64 0.03c-1.29,0.79 -1.35,1.19 -1.27,9.25l0.07 7.37 0.62 0.61c1.33,1.33 3.3,1.18 4.31,-0.33 0.55,-0.82 0.56,-0.94 0.56,-7.9 0,-6.04 -0.06,-7.19 -0.4,-7.91 -0.7,-1.48 -2.45,-1.97 -3.89,-1.09zm-69.07 10.96c-1.69,0.59 -2.84,1.54 -3.68,3.04l-0.71 1.29 -0.07 8.97 -0.07 8.97 53.73 0 53.72 0 -0.07 -8.97c-0.07,-8.72 -0.09,-9 -0.61,-9.98 -0.73,-1.37 -1.92,-2.51 -3.24,-3.12 -1.06,-0.49 -1.55,-0.52 -11.66,-0.58l-10.56 -0.07 0 2.51c-0.01,3.29 -0.16,4.1 -1.07,5.62 -2.08,3.46 -7.19,3.89 -9.81,0.83 -1.19,-1.39 -1.57,-2.89 -1.57,-6.18l0 -2.77 -15.13 0 -15.14 0 0 2.77c0,1.72 -0.13,3.21 -0.36,3.96 -1.54,5.17 -8.81,5.81 -11.29,1.01 -0.58,-1.14 -0.66,-1.58 -0.75,-4.5l-0.11 -3.24 -10.16 0.01c-8.99,0.01 -10.3,0.06 -11.39,0.43zm-4.51 63.48c0,42.77 -0.17,39.23 1.99,41.33 2.11,2.05 -0.08,1.92 31.01,1.92l27.55 0 3.72 -1.9c11.53,-5.88 20.44,-14.7 25.93,-25.67 1.81,-3.61 2.2,-3.8 4.65,-2.21 2.49,1.63 3.96,2.05 7.07,2.05 2.08,0 2.98,-0.11 4.02,-0.49l1.35 -0.5 0.06 -26.16 0.06 -26.16 -53.7 0 -53.71 0 0 37.79zm9.89 -29.29c-1.76,1.09 -1.7,0.82 -1.78,8.43 -0.07,6.84 -0.07,6.89 0.49,7.73 1.08,1.61 1.5,1.7 8.61,1.7 7.12,0 7.57,-0.09 8.54,-1.74 0.46,-0.77 0.49,-1.26 0.49,-7.42 0,-9.58 0.43,-9.15 -9.15,-9.15 -5.87,0 -6.54,0.04 -7.2,0.45zm24.39 0.01c-0.42,0.25 -0.99,0.76 -1.29,1.13 -0.51,0.65 -0.52,0.87 -0.52,7.58l0 6.9 0.64 0.76c1.21,1.44 1.41,1.48 8.39,1.48 7.14,0 7.69,-0.11 8.67,-1.75 0.45,-0.76 0.48,-1.25 0.48,-7.41 0,-9.57 0.42,-9.15 -9.19,-9.15 -5.87,0 -6.5,0.04 -7.18,0.46zm24.37 -0.06c-0.44,0.22 -1.04,0.79 -1.34,1.28 -0.54,0.86 -0.55,1.06 -0.55,7.47 0,7.42 0.04,7.64 1.84,8.65 0.86,0.48 1.26,0.51 7.29,0.51 6.89,0 7.1,-0.04 8.32,-1.34l0.61 -0.65 0 -7.17 0 -7.16 -0.61 -0.65c-1.22,-1.31 -1.43,-1.34 -8.35,-1.33 -5.38,0 -6.55,0.06 -7.21,0.39zm24.34 0.05c-0.52,0.27 -1.05,0.85 -1.4,1.51 -0.52,1.03 -0.54,1.33 -0.54,7.19 0,5.87 0.02,6.17 0.54,7.2 0.97,1.89 1.29,1.96 8.61,1.96 7.1,0 7.53,-0.09 8.6,-1.69 0.54,-0.81 0.55,-0.97 0.55,-7.44 0,-6.17 -0.03,-6.67 -0.48,-7.41 -0.27,-0.44 -0.85,-1.02 -1.28,-1.28 -0.74,-0.45 -1.24,-0.49 -7.27,-0.49 -5.79,0 -6.56,0.05 -7.33,0.45zm-71.52 8.7l0 5.74 5.74 0 5.74 0 0 -5.74 0 -5.73 -5.74 0 -5.74 0 0 5.73zm24.28 -5.42c-0.07,0.17 -0.09,2.72 -0.05,5.67l0.06 5.37 5.8 0.06 5.8 0.07 0 -5.74 0 -5.74 -5.75 0c-4.42,0 -5.77,0.07 -5.86,0.31zm24.3 5.42l0 5.74 5.74 0 5.73 0 0 -5.74 0 -5.73 -5.73 0 -5.74 0 0 5.73zm24.41 0l0 5.74 5.74 0 5.74 0 0 -5.74 0 -5.73 -5.74 0 -5.74 0 0 5.73zm-74.57 15.72c-1.76,1.08 -1.7,0.81 -1.78,8.42 -0.07,6.85 -0.07,6.89 0.49,7.73 1.08,1.61 1.52,1.7 8.47,1.7 5.69,0 6.3,-0.04 7.21,-0.48 1.88,-0.91 1.95,-1.22 2.03,-8.43 0.07,-6.2 0.06,-6.37 -0.48,-7.45 -0.96,-1.88 -1.26,-1.95 -8.74,-1.95 -5.87,0 -6.54,0.04 -7.2,0.46zm24.35 -0.06c-0.44,0.22 -1.02,0.76 -1.29,1.2 -0.48,0.78 -0.5,1.11 -0.43,7.77l0.07 6.95 0.72 0.76c0.4,0.41 1.11,0.87 1.59,1.01 0.53,0.15 3.26,0.22 7.13,0.18 6.9,-0.09 6.87,-0.08 8.12,-1.76 0.48,-0.65 0.5,-0.99 0.5,-7.31 0,-9.64 0.44,-9.2 -9.15,-9.19 -5.43,0 -6.6,0.06 -7.26,0.39zm24.34 0.06c-0.46,0.25 -1.07,0.82 -1.34,1.28 -0.45,0.77 -0.48,1.26 -0.48,7.46 0,6.32 0.02,6.66 0.5,7.31 0.28,0.37 0.81,0.9 1.18,1.17 0.63,0.48 1.04,0.51 7.18,0.57 7.3,0.08 7.68,0.01 8.77,-1.62 0.54,-0.82 0.55,-0.97 0.55,-7.54 0,-9.59 0.51,-9.09 -9.07,-9.09 -5.81,0 -6.52,0.05 -7.29,0.46zm-47.11 8.7l0 5.73 5.74 0 5.74 0 0 -5.73 0 -5.74 -5.74 0 -5.74 0 0 5.74zm24.28 -5.43c-0.07,0.17 -0.09,2.72 -0.05,5.68l0.06 5.36 5.8 0.07 5.8 0.06 0 -5.74 0 -5.74 -5.75 0c-4.42,0 -5.77,0.07 -5.86,0.31zm24.3 5.43l0 5.73 5.74 0 5.73 0 0 -5.73 0 -5.74 -5.73 0 -5.74 0 0 5.74zm32.21 15.25c-4.48,8.06 -10.51,14.78 -18.38,20.47 -1.33,0.96 -2.29,1.75 -2.14,1.75 0.5,0 5.95,-1.9 8.08,-2.81 4.55,-1.94 9.61,-4.89 13.43,-7.82 3.64,-2.79 8.23,-7.41 10.83,-10.89l0.67 -0.9 -1.92 0.13c-2.43,0.17 -5.45,-0.41 -7.66,-1.47l-1.62 -0.78 -1.29 2.32zm-82.48 0.45c-1.64,0.88 -1.72,1.32 -1.72,8.65 0,7.23 0.04,7.46 1.52,8.52 0.79,0.56 0.87,0.57 7.55,0.57 6.44,0 6.79,-0.02 7.43,-0.5 0.37,-0.28 0.9,-0.81 1.18,-1.18 0.48,-0.65 0.5,-0.99 0.5,-7.44 0,-7.51 -0.01,-7.59 -1.66,-8.59 -0.72,-0.44 -1.27,-0.48 -7.37,-0.48 -5.93,0 -6.68,0.05 -7.43,0.45zm24.23 0.03c-1.48,0.9 -1.54,1.23 -1.54,8.6 0,9.64 -0.53,9.11 9.06,9.11 6.46,0 6.8,-0.02 7.44,-0.5 0.37,-0.28 0.9,-0.81 1.18,-1.18 0.48,-0.64 0.5,-0.99 0.5,-7.31 0,-7.38 -0.07,-7.75 -1.66,-8.72 -0.72,-0.44 -1.26,-0.48 -7.49,-0.48 -6.23,0 -6.77,0.04 -7.49,0.48zm71.53 3.84c-2.14,2.63 -6.33,6.79 -9.12,9.06 -4.53,3.68 -11.19,7.57 -16.6,9.7 -1.27,0.5 -2.36,0.95 -2.42,1 -0.06,0.06 5.6,0.07 12.57,0.03l12.68 -0.06 1.19 -0.61c0.65,-0.34 1.56,-1.04 2.01,-1.56 1.5,-1.76 1.57,-2.29 1.5,-11.47l-0.06 -8.24 -1.75 2.15zm-94.07 4.84l0 5.73 5.74 0 5.74 0 0 -5.73 0 -5.74 -5.74 0 -5.74 0 0 5.74zm24.23 -0.06l0.06 5.67 5.74 0 5.74 0 0.06 -5.67 0.07 -5.68 -5.87 0 -5.87 0 0.07 5.68z"/>
 </g>
</svg>
