<?xml version="1.0" encoding="UTF-8"?>
<!DOCTYPE svg PUBLIC "-//W3C//DTD SVG 1.0//EN" "http://www.w3.org/TR/2001/REC-SVG-20010904/DTD/svg10.dtd">
<!-- Creator: CorelDRAW 2021 (64-Bit) -->
<svg xmlns="http://www.w3.org/2000/svg" xml:space="preserve" width="2480px" height="3508px" version="1.0" shape-rendering="geometricPrecision" text-rendering="geometricPrecision" image-rendering="optimizeQuality" fill-rule="evenodd" clip-rule="evenodd"
viewBox="0 0 2480 3507.43"
 xmlns:xlink="http://www.w3.org/1999/xlink"
 xmlns:xodm="http://www.corel.com/coreldraw/odm/2003">
 <g id="Layer_x0020_1">
  <metadata id="CorelCorpID_0Corel-Layer"/>
  <path fill="#DF1219" d="M1237.63 1682.14l-1.05 1.05 0 9.98c0,9.89 0.01,10 0.99,10.92 1.36,1.27 3.69,1.24 4.92,-0.06 0.9,-0.96 0.93,-1.32 0.93,-10.92l0 -9.92 -1.05 -1.05c-0.66,-0.66 -1.54,-1.05 -2.37,-1.05 -0.83,0 -1.71,0.39 -2.37,1.05zm-67.48 13.14c-1.87,1.07 -2.41,2.89 -1.42,4.74 0.66,1.24 9.14,12.57 10.54,14.07 2.16,2.35 6.05,1 6.05,-2.09 0,-0.99 -1.3,-3.02 -5.58,-8.73 -6.39,-8.53 -7.31,-9.29 -9.59,-7.99zm136.62 0.03c-0.51,0.29 -3.44,3.87 -6.51,7.96 -5.96,7.95 -6.33,8.8 -4.69,10.87 1.25,1.6 3.66,1.57 5.16,-0.05 1.4,-1.5 9.88,-12.83 10.54,-14.07 1.01,-1.89 0.43,-3.73 -1.5,-4.76 -1.17,-0.62 -1.81,-0.61 -3,0.05zm-77.88 18.94c-4.61,0.55 -10.99,1.63 -14.74,2.51 -21.23,4.98 -41.02,16.64 -55.68,32.81 -6.75,7.45 -14.16,18.21 -14.16,20.57 0,2.53 8.75,14.76 15.99,22.34 17.35,18.18 39.71,29.42 65.82,33.09 5.03,0.71 22.73,0.71 27.76,0 26.01,-3.66 48.15,-14.71 65.37,-32.63 7.57,-7.88 16.44,-20.18 16.44,-22.8 0,-1.42 -3.22,-6.8 -7.41,-12.39 -15,-20.01 -35.99,-34.12 -60.06,-40.38 -9.61,-2.5 -14.14,-3.05 -26.51,-3.18 -6.23,-0.06 -11.99,-0.04 -12.82,0.06zm0.86 7c-25.78,2.69 -49.19,14.32 -65.97,32.8 -3.81,4.2 -9.59,11.8 -11.01,14.47l-0.95 1.78 2.38 3.56c14.32,21.5 37.25,37.22 62.5,42.86 8.06,1.8 13.73,2.38 23.16,2.38 13.32,0.01 22.08,-1.35 33.59,-5.19 20.96,-7.01 39.5,-21.08 51.9,-39.39l2.84 -4.19 -0.95 -1.79c-1.38,-2.59 -7.13,-10.18 -10.87,-14.35 -15.33,-17.06 -37.61,-28.86 -61.02,-32.32 -5.31,-0.78 -20.49,-1.15 -25.6,-0.62zm3.41 8.31c-9.29,1.72 -16.97,5.93 -23.37,12.81 -5.3,5.69 -9.2,13.79 -10.41,21.6 -0.67,4.32 -0.27,12.17 0.84,16.35 3.02,11.42 10.93,21.19 21.31,26.33 7.03,3.47 11.95,4.5 20.07,4.2 8.55,-0.33 13.99,-2.02 20.83,-6.48 8.43,-5.49 14.8,-14.29 17.33,-23.96 1.13,-4.27 1.53,-12.09 0.86,-16.44 -2.49,-16.09 -14.66,-29.57 -30.34,-33.61 -5.11,-1.32 -12.46,-1.66 -17.12,-0.8zm-0.69 7.25c-9.73,2.21 -18.45,9.07 -22.96,18.05 -0.61,1.22 -1.62,3.92 -2.24,5.98 -0.94,3.14 -1.13,4.62 -1.15,8.89 -0.01,3.38 0.23,6.11 0.69,8.01 2.84,11.57 10.96,20.62 21.91,24.42 19.2,6.66 39.59,-4.53 44.47,-24.42 0.46,-1.9 0.7,-4.63 0.69,-8.01 -0.03,-7.55 -1.94,-13.46 -6.37,-19.71 -3.85,-5.43 -9.97,-9.9 -16.75,-12.23 -3.29,-1.13 -4.39,-1.3 -9.69,-1.43 -4.07,-0.1 -6.82,0.05 -8.6,0.45zm3.3 13.09c-3.18,0.63 -7.2,2.8 -9.83,5.31 -7.25,6.92 -8.53,17.7 -3.1,26.1 2.13,3.31 4.65,5.46 8.62,7.38 3.16,1.53 3.27,1.55 8.56,1.55l5.36 0 3.4 -1.67c7.36,-3.63 11.73,-10.58 11.72,-18.61 -0.02,-12.83 -12.01,-22.55 -24.73,-20.06zm-1.54 8.02c-4.93,2.34 -7.63,6.6 -7.66,12.08 -0.01,2.9 0.15,3.58 1.47,6.18 4.05,7.94 13.97,9.83 21.03,4 0.9,-0.74 2.17,-2.51 2.97,-4.14 3.42,-6.94 0.69,-14.82 -6.27,-18.12 -2.11,-1 -3.14,-1.21 -5.77,-1.21 -2.63,0 -3.66,0.21 -5.77,1.21z"/>
 </g>
</svg>
