<?xml version="1.0" encoding="UTF-8"?>
<!DOCTYPE svg PUBLIC "-//W3C//DTD SVG 1.0//EN" "http://www.w3.org/TR/2001/REC-SVG-20010904/DTD/svg10.dtd">
<!-- Creator: CorelDRAW 2021 (64-Bit) -->
<svg xmlns="http://www.w3.org/2000/svg" xml:space="preserve" width="2480px" height="3508px" version="1.0" shape-rendering="geometricPrecision" text-rendering="geometricPrecision" image-rendering="optimizeQuality" fill-rule="evenodd" clip-rule="evenodd"
viewBox="0 0 2480 3507.43"
 xmlns:xlink="http://www.w3.org/1999/xlink"
 xmlns:xodm="http://www.corel.com/coreldraw/odm/2003">
 <g id="Layer_x0020_1">
  <metadata id="CorelCorpID_0Corel-Layer"/>
  <path fill="#DF1219" d="M1238.16 1721.12c-1.42,0.3 -2.32,0.79 -5.14,2.79 -1.45,1.04 -2.85,2.02 -3.1,2.19l-0.46 0.32 -5.4 0c-5.36,0 -5.4,0 -5.91,0.29 -0.28,0.16 -0.63,0.51 -0.79,0.8 -0.29,0.49 -0.29,0.61 -0.3,4.11l0 3.6 -4.77 3.38c-2.63,1.86 -4.85,3.47 -4.93,3.58 -0.24,0.3 -0.22,41.39 0.02,42.07 0.29,0.81 0.81,1.45 1.52,1.84l0.66 0.37 30.44 0 30.44 0 0.67 -0.38c0.71,-0.39 1.4,-1.24 1.53,-1.9 0.04,-0.19 0.13,-0.39 0.19,-0.42 0.06,-0.04 0.11,-9.18 0.11,-20.83 0,-12.91 -0.05,-20.74 -0.12,-20.69 -0.07,0.04 -0.17,0 -0.23,-0.1 -0.05,-0.09 -2.25,-1.69 -4.87,-3.55l-4.78 -3.38 0 -3.59c0,-3.5 -0.01,-3.62 -0.29,-4.11 -0.16,-0.29 -0.51,-0.64 -0.8,-0.8 -0.51,-0.29 -0.55,-0.29 -5.91,-0.29l-5.4 0 -2.35 -1.67c-3.68,-2.6 -4.15,-2.9 -4.95,-3.2 -1.71,-0.65 -3.41,-0.79 -5.08,-0.43zm0.82 2.05c-0.6,0.1 -1.86,0.56 -2.31,0.85 -0.73,0.45 -3.07,2.15 -3.15,2.28 -0.04,0.07 2.63,0.12 6.56,0.12 3.65,0 6.6,-0.02 6.58,-0.05 -0.7,-0.58 -3.51,-2.48 -4.01,-2.71 -1.1,-0.48 -2.55,-0.68 -3.67,-0.49zm-19.74 16.36l0 10.92 7.64 6.34c4.2,3.49 8,6.65 8.43,7.02 1.59,1.37 2.85,1.88 4.69,1.88 1.96,0 3.03,-0.47 5.16,-2.26 0.44,-0.38 4.14,-3.44 8.2,-6.82l7.4 -6.14 0 -10.94 0 -10.94 -20.76 0 -20.76 0 0 10.94zm21.02 -6.63c-3.72,0.39 -6.33,1.56 -9.02,4.04 -1.89,1.74 -3.55,4.38 -4.2,6.71 -0.24,0.84 -0.3,1.35 -0.3,2.82 0,2.16 0.19,3.02 1.09,4.87 1.61,3.36 4.35,5.32 8.67,6.2 6.18,1.27 11.6,0.19 15.17,-3.02 1.36,-1.23 1.73,-2.12 1.11,-2.7 -0.27,-0.25 -0.54,-0.33 -1.01,-0.3 -0.12,0.01 -0.67,0.47 -1.22,1.02 -2.1,2.08 -4.76,3.14 -8.31,3.31 -2.42,0.11 -5.07,-0.24 -7.36,-0.99 -3.39,-1.1 -5.8,-4.3 -6,-7.96 -0.08,-1.57 0.19,-2.83 0.92,-4.4 1.63,-3.46 4.97,-6.22 8.6,-7.12 1.42,-0.35 3.62,-0.38 5.05,-0.07 3.08,0.66 5.63,3.16 6.35,6.23 0.25,1.07 0.25,3.18 0,4.17 -0.45,1.8 -1.72,3.62 -2.88,4.15 -0.8,0.36 -2.08,0.37 -2.43,0.01 -0.32,-0.32 -0.32,-0.28 0.05,-1.77 0.38,-1.51 1.74,-8.22 1.74,-8.59 0,-0.14 -0.14,-0.42 -0.3,-0.62 -0.23,-0.27 -0.42,-0.35 -0.79,-0.35 -0.61,0 -1.04,0.46 -1.16,1.27l-0.09 0.58 -0.6 -0.57c-3.04,-2.84 -7.55,-1.32 -9.82,3.32 -0.68,1.4 -0.95,2.49 -0.95,3.86 -0.01,3 1.79,5.1 4.59,5.38 1.37,0.14 3.29,-0.46 4.52,-1.4l0.55 -0.42 0.39 0.52c0.23,0.3 0.69,0.67 1.1,0.88 0.66,0.34 0.79,0.36 1.99,0.32 1.11,-0.04 1.39,-0.1 2.13,-0.45 1.01,-0.47 1.73,-1.1 2.49,-2.16 0.74,-1.05 1.27,-2.2 1.6,-3.51 0.24,-0.94 0.27,-1.33 0.21,-2.88 -0.07,-1.9 -0.27,-2.85 -0.9,-4.23 -1.06,-2.32 -3.27,-4.42 -5.64,-5.37 -1.3,-0.52 -4.01,-0.91 -5.34,-0.78zm-26.68 7.45c-1.88,1.32 -3.41,2.45 -3.4,2.5 0.01,0.05 1.55,1.36 3.42,2.92l3.4 2.83 0.03 -2.71c0.02,-1.49 0.02,-3.88 0,-5.32l-0.03 -2.62 -3.42 2.4zm49.36 2.92c0,5.12 0.01,5.32 0.23,5.16 0.63,-0.45 6.69,-5.53 6.69,-5.59 -0.01,-0.07 -6.28,-4.53 -6.74,-4.8 -0.15,-0.09 -0.18,0.7 -0.18,5.23zm-24.06 -2.58c-1.61,0.53 -3.31,2.58 -3.94,4.75 -0.31,1.04 -0.22,2.49 0.18,3.32 0.59,1.2 1.94,1.7 3.49,1.31 1.07,-0.28 1.9,-0.83 2.76,-1.84 1.14,-1.35 1.29,-1.65 1.6,-3.12l0.28 -1.35 -0.39 -0.83c-0.69,-1.49 -1.6,-2.24 -2.84,-2.36 -0.32,-0.03 -0.84,0.03 -1.14,0.12zm-31.62 22.38c0,11.45 0.01,16.14 0.03,10.41 0.02,-5.73 0.02,-15.1 0,-20.82 -0.02,-5.73 -0.03,-1.05 -0.03,10.41zm2.11 1.02c0,17.84 0.01,18.99 0.22,18.83 3,-2.44 22.53,-18.74 22.53,-18.81 0,-0.06 -5.02,-4.28 -11.15,-9.37 -6.13,-5.09 -11.25,-9.35 -11.37,-9.46 -0.22,-0.18 -0.23,0.72 -0.23,18.81zm49.83 -9.5c-6.25,5.19 -11.36,9.48 -11.34,9.53 0.01,0.05 5.13,4.33 11.37,9.51l11.34 9.42 0.03 -9.48c0.02,-5.21 0.02,-13.74 0,-18.94l-0.03 -9.47 -11.37 9.43zm-36.55 20.32l-11.26 9.37 14.3 0.03c7.87,0.02 20.75,0.02 28.63,0l14.31 -0.03 -10.57 -8.77c-5.81,-4.83 -10.88,-9.04 -11.27,-9.38l-0.71 -0.6 -0.76 0.58c-1.88,1.43 -4.38,2.07 -6.6,1.7 -1.61,-0.26 -2.84,-0.82 -4.41,-1.98l-0.4 -0.29 -11.26 9.37z"/>
 </g>
</svg>
