<?xml version="1.0" encoding="UTF-8"?>
<!DOCTYPE svg PUBLIC "-//W3C//DTD SVG 1.0//EN" "http://www.w3.org/TR/2001/REC-SVG-20010904/DTD/svg10.dtd">
<!-- Creator: CorelDRAW 2021 (64-Bit) -->
<svg xmlns="http://www.w3.org/2000/svg" xml:space="preserve" width="2480px" height="3508px" version="1.0" shape-rendering="geometricPrecision" text-rendering="geometricPrecision" image-rendering="optimizeQuality" fill-rule="evenodd" clip-rule="evenodd"
viewBox="0 0 2480 3507.43"
 xmlns:xlink="http://www.w3.org/1999/xlink"
 xmlns:xodm="http://www.corel.com/coreldraw/odm/2003">
 <g id="Layer_x0020_1">
  <metadata id="CorelCorpID_0Corel-Layer"/>
  <path fill="#DF1219" fill-rule="nonzero" d="M1335.73 1794.91c6.19,-6.19 8.26,-14.86 5.54,-23.18 -0.19,-0.56 -0.51,-1.06 -0.94,-1.45 -0.43,-0.4 -0.95,-0.68 -1.52,-0.81 -0.57,-0.14 -1.16,-0.13 -1.72,0.03 -0.56,0.16 -1.08,0.46 -1.49,0.87l-12.35 12.36 -5.93 -1.59 -1.59 -5.93 12.35 -12.35c0.42,-0.42 0.72,-0.93 0.88,-1.49 0.15,-0.56 0.17,-1.16 0.03,-1.72 -0.14,-0.57 -0.42,-1.1 -0.81,-1.53 -0.4,-0.43 -0.9,-0.75 -1.45,-0.93 -8.33,-2.72 -16.99,-0.65 -23.18,5.54 -3.41,3.4 -5.56,7.8 -6.32,12.44 -11.06,-10.42 -24.67,-17.73 -39.46,-21.21 12.7,-6.16 22.17,-18.07 24.84,-32.58l0.64 0c5.23,0 9.49,-4.25 9.49,-9.48 0,-4.43 -3.05,-8.16 -7.16,-9.2 0,-0.11 0,-0.22 0,-0.33 0,-19.92 -12.24,-37.5 -30.69,-44.5 -0.28,-1.63 -0.97,-3.16 -2.03,-4.44 -3.34,-4.07 -9.82,-5.32 -14.66,-5.65 -0.15,-0.01 -0.31,-0.01 -0.47,0 -4.84,0.33 -11.32,1.58 -14.66,5.65 -1.05,1.28 -1.75,2.81 -2.02,4.44 -18.45,7 -30.69,24.58 -30.69,44.5l0 0.33c-4.11,1.04 -7.16,4.77 -7.16,9.2 0,5.23 4.25,9.48 9.49,9.48l0.63 0c2.67,14.5 12.13,26.41 24.82,32.57 -8.6,2.02 -16.83,5.35 -24.42,9.88l-0.3 -0.78c-0.24,-0.64 -0.68,-1.2 -1.25,-1.59 -0.57,-0.39 -1.24,-0.6 -1.94,-0.6l-11.74 0c-0.69,0 -1.36,0.21 -1.93,0.6 -0.57,0.39 -1.01,0.95 -1.25,1.59l-2.14 5.55c-2.96,0.85 -5.81,2.03 -8.49,3.53l-5.45 -2.42c-0.63,-0.28 -1.33,-0.36 -2.01,-0.24 -0.68,0.13 -1.3,0.46 -1.79,0.95l-8.3 8.3c-0.49,0.49 -0.82,1.11 -0.95,1.79 -0.12,0.68 -0.04,1.38 0.24,2.01l2.42 5.44c-1.5,2.69 -2.68,5.54 -3.53,8.5l-5.55 2.13c-0.64,0.25 -1.2,0.69 -1.59,1.26 -0.39,0.57 -0.6,1.24 -0.6,1.93l0 11.74c0,0.69 0.21,1.37 0.6,1.94 0.39,0.57 0.95,1.01 1.59,1.25l5.55 2.14c0.85,2.96 2.03,5.81 3.53,8.5l-2.42 5.44c-0.28,0.63 -0.36,1.33 -0.24,2.01 0.13,0.68 0.46,1.3 0.95,1.79l8.3 8.3c0.49,0.49 1.11,0.82 1.79,0.95 0.68,0.12 1.38,0.04 2.01,-0.24l5.45 -2.42c2.68,1.49 5.53,2.68 8.49,3.52l2.14 5.56c0.24,0.64 0.68,1.2 1.25,1.59 0.57,0.39 1.24,0.6 1.93,0.6l11.74 0c0.7,0 1.37,-0.21 1.94,-0.6 0.57,-0.39 1.01,-0.95 1.25,-1.59l2.14 -5.56c2.96,-0.84 5.81,-2.02 8.5,-3.52l5.44 2.42c0.63,0.28 1.33,0.36 2.01,0.24 0.68,-0.13 1.3,-0.46 1.79,-0.95l8.3 -8.3c0.49,-0.49 0.82,-1.11 0.95,-1.79 0.12,-0.68 0.04,-1.38 -0.24,-2.01l-0.08 -0.19 16.96 0c-0.71,3.72 -0.49,7.62 0.74,11.39 0.18,0.56 0.5,1.06 0.93,1.45 0.43,0.4 0.95,0.68 1.52,0.81 0.57,0.14 1.16,0.13 1.73,-0.03 0.56,-0.16 1.07,-0.46 1.48,-0.87l12.36 -12.36 5.93 1.59 1.58 5.93 -12.35 12.35c-0.41,0.42 -0.71,0.93 -0.87,1.49 -0.16,0.56 -0.17,1.16 -0.04,1.72 0.14,0.57 0.42,1.1 0.82,1.53 0.39,0.43 0.89,0.75 1.45,0.93 2.3,0.75 4.7,1.14 7.13,1.14 5.92,0 11.69,-2.33 16.05,-6.68 5.42,-5.42 7.67,-13.07 6.25,-20.39l36.63 0c0.48,0 0.95,-0.1 1.39,-0.3 0.44,-0.19 0.83,-0.48 1.15,-0.83 0.32,-0.36 0.56,-0.78 0.71,-1.24 0.15,-0.45 0.2,-0.94 0.15,-1.41 -1.03,-9.61 -3.63,-18.85 -7.73,-27.52 7.04,1.03 14.41,-1.28 19.53,-6.39zm-114.21 -129.85l2.5 19.25c0.06,0.45 0.2,0.88 0.43,1.27 0.22,0.39 0.52,0.73 0.88,1 0.35,0.28 0.76,0.48 1.19,0.59 0.44,0.12 0.89,0.15 1.33,0.09 0.45,-0.05 0.88,-0.2 1.27,-0.42 0.38,-0.23 0.73,-0.53 1,-0.88 0.27,-0.36 0.47,-0.76 0.59,-1.2 0.12,-0.43 0.15,-0.88 0.09,-1.33l-3.02 -23.26c-0.17,-1.3 0.22,-1.97 0.58,-2.4 1.34,-1.63 4.92,-2.81 9.61,-3.16 4.69,0.35 8.27,1.53 9.61,3.16 0.35,0.43 0.74,1.1 0.57,2.4l-3.02 23.26c-0.1,0.9 0.15,1.79 0.71,2.5 0.55,0.71 1.36,1.17 2.25,1.28 0.89,0.12 1.79,-0.12 2.5,-0.66 0.72,-0.55 1.19,-1.35 1.32,-2.24l2.5 -19.25c14.71,6.46 24.33,20.97 24.33,37.32l0 0.03 -14.44 0 0 -21.68c0,-0.9 -0.36,-1.77 -1,-2.41 -0.64,-0.64 -1.51,-1.01 -2.42,-1.01 -0.9,0 -1.77,0.37 -2.41,1.01 -0.64,0.64 -1,1.51 -1,2.41l0 21.68 -39 0 0 -21.68c0,-0.9 -0.36,-1.77 -1,-2.41 -0.64,-0.64 -1.51,-1.01 -2.42,-1.01 -0.9,0 -1.77,0.37 -2.41,1.01 -0.64,0.64 -1,1.51 -1,2.41l0 21.68 -14.45 0 0 -0.03c0,-16.35 9.63,-30.86 24.33,-37.32zm-31.49 46.84c0,-0.71 0.28,-1.38 0.78,-1.88 0.5,-0.49 1.17,-0.77 1.88,-0.77l90.56 0c1.46,0 2.65,1.18 2.65,2.65 0,1.46 -1.19,2.65 -2.65,2.65l-90.56 0c-0.71,0 -1.38,-0.28 -1.88,-0.78 -0.5,-0.5 -0.78,-1.17 -0.78,-1.87zm10.27 9.48l75.34 0c-3.82,17.51 -19.38,30.28 -37.67,30.28 -18.29,0 -33.85,-12.77 -37.67,-30.28zm9.83 117.02l-4.9 -2.17c-0.51,-0.23 -1.06,-0.33 -1.62,-0.29 -0.55,0.04 -1.09,0.21 -1.56,0.5 -3.04,1.87 -6.36,3.25 -9.84,4.08 -0.54,0.13 -1.04,0.39 -1.46,0.75 -0.42,0.37 -0.74,0.83 -0.94,1.35l-1.92 4.99 -7.05 0 -1.92 -5c-0.2,-0.51 -0.53,-0.98 -0.94,-1.34 -0.42,-0.37 -0.92,-0.62 -1.46,-0.75 -3.48,-0.83 -6.8,-2.21 -9.84,-4.08 -0.47,-0.29 -1.01,-0.47 -1.56,-0.5 -0.56,-0.04 -1.11,0.06 -1.62,0.28l-4.9 2.18 -4.98 -4.98 2.17 -4.9c0.23,-0.51 0.33,-1.06 0.29,-1.62 -0.04,-0.55 -0.21,-1.09 -0.5,-1.56 -1.88,-3.04 -3.25,-6.36 -4.08,-9.84 -0.13,-0.54 -0.39,-1.04 -0.75,-1.46 -0.37,-0.42 -0.83,-0.74 -1.35,-0.94l-4.99 -1.92 0 -7.05 4.99 -1.92c0.52,-0.2 0.98,-0.53 1.35,-0.94 0.36,-0.42 0.62,-0.92 0.75,-1.46 0.83,-3.48 2.21,-6.8 4.08,-9.84 0.29,-0.47 0.46,-1.01 0.5,-1.56 0.04,-0.56 -0.06,-1.11 -0.29,-1.62l-2.17 -4.9 4.98 -4.98 4.9 2.17c0.51,0.23 1.06,0.33 1.62,0.29 0.55,-0.04 1.09,-0.21 1.56,-0.5 3.04,-1.87 6.36,-3.25 9.84,-4.08 0.54,-0.13 1.04,-0.39 1.46,-0.75 0.41,-0.37 0.74,-0.83 0.94,-1.35l1.92 -4.99 7.05 0 1.92 4.99c0.2,0.52 0.52,0.98 0.94,1.35 0.42,0.36 0.92,0.62 1.46,0.75 3.47,0.83 6.8,2.21 9.84,4.08 0.47,0.29 1.01,0.46 1.56,0.5 0.56,0.04 1.11,-0.06 1.62,-0.29l4.9 -2.17 4.98 4.98 -2.18 4.9c-0.22,0.51 -0.32,1.06 -0.28,1.61 0.04,0.56 0.21,1.09 0.5,1.57 1.87,3.04 3.25,6.36 4.08,9.84 0.13,0.54 0.39,1.04 0.75,1.46 0.36,0.42 0.83,0.74 1.35,0.94l4.99 1.92 0 7.05 -5 1.92c-0.51,0.2 -0.98,0.52 -1.34,0.94 -0.37,0.42 -0.62,0.92 -0.75,1.46 -0.83,3.47 -2.21,6.8 -4.08,9.84 -0.29,0.47 -0.47,1.01 -0.5,1.56 -0.04,0.56 0.06,1.11 0.28,1.62l2.18 4.9 -4.98 4.98zm35.33 -17.59c-1.47,1.47 -2.74,3.14 -3.76,4.95l-20.98 0c1.11,-2.21 2.01,-4.53 2.69,-6.91l5.56 -2.14c0.64,-0.24 1.2,-0.68 1.59,-1.25 0.39,-0.57 0.6,-1.25 0.6,-1.94l0 -11.74c0,-0.69 -0.21,-1.36 -0.6,-1.93 -0.39,-0.57 -0.95,-1.01 -1.59,-1.26l-5.56 -2.13c-0.84,-2.96 -2.02,-5.81 -3.52,-8.5l2.42 -5.44c0.28,-0.63 0.36,-1.33 0.24,-2.01 -0.13,-0.68 -0.46,-1.3 -0.95,-1.79l-8.3 -8.3c-0.49,-0.49 -1.11,-0.82 -1.79,-0.95 -0.68,-0.12 -1.38,-0.04 -2.01,0.24l-5.45 2.42c-1.98,-1.11 -4.06,-2.04 -6.21,-2.8 12.15,-7.1 25.93,-10.84 40.13,-10.84 22.86,0 44.53,9.8 59.66,26.92l-29.66 29.65c-3.92,-1.15 -8.08,-1.23 -12.04,-0.22 -3.96,1.01 -7.58,3.08 -10.47,5.97zm30.83 10.07c1.19,2.9 1.5,6.09 0.88,9.16 -0.62,3.08 -2.14,5.9 -4.36,8.12 -2.73,2.73 -6.26,4.32 -9.95,4.62l8.83 -8.83c0.43,-0.43 0.73,-0.95 0.89,-1.53 0.15,-0.58 0.15,-1.19 0,-1.77l-2.61 -9.74c-0.16,-0.58 -0.46,-1.11 -0.89,-1.54 -0.42,-0.42 -0.95,-0.73 -1.53,-0.88l-9.74 -2.61c-0.58,-0.16 -1.19,-0.16 -1.77,0 -0.58,0.15 -1.11,0.46 -1.53,0.88l-8.83 8.84c0.3,-3.7 1.89,-7.22 4.62,-9.96 2.21,-2.22 5.04,-3.73 8.11,-4.35 3.08,-0.62 6.27,-0.32 9.17,0.87 0.63,0.26 1.31,0.32 1.97,0.19 0.66,-0.13 1.26,-0.46 1.74,-0.94l32.86 -32.86c0.48,-0.47 0.8,-1.08 0.94,-1.74 0.13,-0.66 0.06,-1.34 -0.19,-1.97 -2.39,-5.86 -0.99,-12.8 3.48,-17.28 2.79,-2.79 6.29,-4.38 9.99,-4.65l-8.87 8.86c-0.42,0.43 -0.73,0.95 -0.88,1.53 -0.16,0.58 -0.16,1.19 0,1.77l2.61 9.74c0.15,0.58 0.46,1.11 0.88,1.53 0.43,0.43 0.95,0.73 1.53,0.89l9.74 2.61c0.58,0.15 1.19,0.15 1.77,0 0.58,-0.16 1.11,-0.46 1.54,-0.88l8.86 -8.87c-0.28,3.7 -1.87,7.2 -4.65,9.98 -4.48,4.48 -11.43,5.88 -17.29,3.49 -0.62,-0.26 -1.31,-0.32 -1.96,-0.19 -0.66,0.13 -1.27,0.46 -1.75,0.93l-32.86 32.87c-0.47,0.47 -0.8,1.08 -0.93,1.74 -0.13,0.66 -0.07,1.34 0.18,1.97zm11.82 -5.12l21.8 -21.79c3.29,6.9 5.55,14.24 6.73,21.79l-28.53 0zm-103.75 -42c-13.17,0 -23.89,10.72 -23.89,23.89 0,13.18 10.72,23.9 23.89,23.9 13.18,0 23.9,-10.72 23.9,-23.9 0,-13.17 -10.72,-23.89 -23.9,-23.89zm0 40.95c-9.4,0 -17.05,-7.65 -17.05,-17.06 0,-9.4 7.65,-17.05 17.05,-17.05 9.41,0 17.06,7.65 17.06,17.05 0,9.41 -7.65,17.06 -17.06,17.06z"/>
 </g>
</svg>
