<?xml version="1.0" encoding="UTF-8"?>
<!DOCTYPE svg PUBLIC "-//W3C//DTD SVG 1.0//EN" "http://www.w3.org/TR/2001/REC-SVG-20010904/DTD/svg10.dtd">
<!-- Creator: CorelDRAW 2021 (64-Bit) -->
<svg xmlns="http://www.w3.org/2000/svg" xml:space="preserve" width="2480px" height="3508px" version="1.0" shape-rendering="geometricPrecision" text-rendering="geometricPrecision" image-rendering="optimizeQuality" fill-rule="evenodd" clip-rule="evenodd"
viewBox="0 0 2480 3507.43"
 xmlns:xlink="http://www.w3.org/1999/xlink"
 xmlns:xodm="http://www.corel.com/coreldraw/odm/2003">
 <g id="Layer_x0020_1">
  <metadata id="CorelCorpID_0Corel-Layer"/>
  <path fill="#DF1219" d="M1196.09 1736.61l0 -30.52 30.99 0 0 -38.3 60.47 25.69 0 23.27 25.74 13.69 0 103.3 4.83 0 0 5.9 -10.82 0 0 -105.71 -19.75 -10.47 0 116.18 -23.9 0 0 -135.5 17.91 9.46 0 -16.23 -48.42 -20.59 0 29.31 17.84 0 0 133.55 -23.9 0 0 -127.65 -25 0 0 24.62 17.84 0 0 103.03 -23.83 0 0 -97.13 -17.71 0 0 97.13 -16.5 0 0 -5.9 10.51 0 0 -97.13 23.7 0zm48.9 97.13l0 -121.75 -11.85 0 0 121.75 11.85 0zm-31.06 0l0 -91.23 -11.85 0 0 91.23 11.85 0zm67.63 -113.43l-11.92 -6.31 0 119.74 11.92 0 0 -113.43z"/>
 </g>
</svg>
