<?xml version="1.0" encoding="UTF-8"?>
<!DOCTYPE svg PUBLIC "-//W3C//DTD SVG 1.0//EN" "http://www.w3.org/TR/2001/REC-SVG-20010904/DTD/svg10.dtd">
<!-- Creator: CorelDRAW 2021 (64-Bit) -->
<svg xmlns="http://www.w3.org/2000/svg" xml:space="preserve" width="2480px" height="3508px" version="1.0" shape-rendering="geometricPrecision" text-rendering="geometricPrecision" image-rendering="optimizeQuality" fill-rule="evenodd" clip-rule="evenodd"
viewBox="0 0 2480 3507.43"
 xmlns:xlink="http://www.w3.org/1999/xlink"
 xmlns:xodm="http://www.corel.com/coreldraw/odm/2003">
 <g id="Layer_x0020_1">
  <metadata id="CorelCorpID_0Corel-Layer"/>
  <path fill="#DF1219" d="M1012.52 1738.08l0 -25.63 25.63 0 0 -32.16 50.02 21.57 0 19.55 21.29 11.49 0 86.75 3.99 0 0 4.96 -8.95 0 0 -88.78 -16.33 -8.79 0 97.57 -19.77 0 0 -113.79 14.81 7.94 0 -13.63 -40.05 -17.3 0 24.62 14.76 0 0 112.16 -19.77 0 0 -107.2 -20.68 0 0 20.67 14.76 0 0 86.53 -19.71 0 0 -81.57 -14.65 0 0 81.57 -13.65 0 0 -4.96 8.69 0 0 -81.57 19.61 0zm40.44 81.57l0 -102.24 -9.8 0 0 102.24 9.8 0zm-25.68 0l0 -76.61 -9.81 0 0 76.61 9.81 0zm55.93 -95.26l-9.86 -5.29 0 100.55 9.86 0 0 -95.26z"/>
  <path fill="white" fill-rule="nonzero" d="M1164.2 1789.65l0 -71.99 28.79 0c5.14,0 9.29,1.03 12.45,3.1 3.17,2.03 5.48,4.59 6.95,7.69 1.47,3.1 2.2,6.24 2.2,9.4 0,4.04 -0.92,7.39 -2.75,10.05 -1.8,2.67 -4.28,4.45 -7.45,5.35l0 -2.5c4.5,0.94 7.87,3.02 10.1,6.25 2.27,3.23 3.4,6.85 3.4,10.85 0,4.3 -0.8,8.08 -2.4,11.35 -1.57,3.26 -3.97,5.83 -7.2,7.7 -3.23,1.83 -7.3,2.75 -12.2,2.75l-31.89 0zm13.8 -12.8l16.69 0c1.84,0 3.47,-0.38 4.9,-1.15 1.44,-0.8 2.55,-1.9 3.35,-3.3 0.84,-1.43 1.25,-3.12 1.25,-5.05 0,-1.7 -0.35,-3.22 -1.05,-4.55 -0.7,-1.33 -1.76,-2.38 -3.2,-3.15 -1.4,-0.8 -3.15,-1.2 -5.25,-1.2l-16.69 0 0 18.4zm0 -31.1l14.79 0c1.54,0 2.9,-0.26 4.1,-0.8 1.2,-0.53 2.15,-1.35 2.85,-2.45 0.7,-1.13 1.05,-2.58 1.05,-4.35 0,-2.2 -0.68,-4.05 -2.05,-5.55 -1.36,-1.5 -3.35,-2.24 -5.95,-2.24l-14.79 0 0 15.39zm66.96 45.5c-4.23,0 -7.68,-0.72 -10.35,-2.15 -2.67,-1.44 -4.75,-3.25 -6.25,-5.45 -1.47,-2.2 -2.51,-4.49 -3.15,-6.85 -0.63,-2.4 -1.01,-4.58 -1.15,-6.55 -0.13,-1.97 -0.2,-3.4 -0.2,-4.3l0 -30.3 13.8 0 0 25.5c0,1.23 0.07,2.82 0.2,4.75 0.13,1.9 0.55,3.82 1.25,5.75 0.7,1.93 1.83,3.55 3.4,4.85 1.6,1.3 3.85,1.95 6.75,1.95 1.16,0 2.41,-0.18 3.75,-0.55 1.33,-0.37 2.58,-1.07 3.75,-2.1 1.16,-1.07 2.11,-2.62 2.85,-4.65 0.76,-2.07 1.15,-4.77 1.15,-8.1l7.8 3.7c0,4.27 -0.87,8.27 -2.6,12 -1.74,3.73 -4.35,6.75 -7.85,9.05 -3.47,2.3 -7.85,3.45 -13.15,3.45zm17.5 -1.6l0 -17.9 -1.7 0 0 -36.1 13.7 0 0 54 -12 0zm23.97 -61.5l0 -11.99 13.6 0 0 11.99 -13.6 0zm0 61.5l0 -54 13.6 0 0 54 -13.6 0zm26.58 0l0 -73.49 13.6 0 0 73.49 -13.6 0zm57.99 0c-3.73,0.7 -7.4,1 -11,0.9 -3.57,-0.07 -6.77,-0.69 -9.6,-1.85 -2.8,-1.2 -4.93,-3.12 -6.4,-5.75 -1.33,-2.47 -2.03,-4.97 -2.1,-7.5 -0.07,-2.57 -0.1,-5.47 -0.1,-8.7l0 -46.09 13.6 0 0 45.29c0,2.1 0.02,4 0.05,5.7 0.07,1.67 0.42,3 1.05,4 1.2,1.9 3.12,2.93 5.75,3.1 2.63,0.16 5.55,0.03 8.75,-0.4l0 11.3zm-38.4 -43.5l0 -10.5 38.4 0 0 10.5 -38.4 0z"/>
  <path fill="#DF1219" fill-rule="nonzero" d="M1400.13 1791.25c-4.24,0 -7.69,-0.72 -10.35,-2.15 -2.67,-1.44 -4.75,-3.25 -6.25,-5.45 -1.47,-2.2 -2.52,-4.49 -3.15,-6.85 -0.64,-2.4 -1.02,-4.58 -1.15,-6.55 -0.14,-1.97 -0.2,-3.4 -0.2,-4.3l0 -30.3 13.8 0 0 25.5c0,1.23 0.06,2.82 0.2,4.75 0.13,1.9 0.55,3.82 1.25,5.75 0.7,1.93 1.83,3.55 3.4,4.85 1.6,1.3 3.85,1.95 6.75,1.95 1.16,0 2.41,-0.18 3.75,-0.55 1.33,-0.37 2.58,-1.07 3.75,-2.1 1.16,-1.07 2.11,-2.62 2.85,-4.65 0.76,-2.07 1.14,-4.77 1.14,-8.1l7.8 3.7c0,4.27 -0.86,8.27 -2.6,12 -1.73,3.73 -4.35,6.75 -7.84,9.05 -3.47,2.3 -7.85,3.45 -13.15,3.45zm17.49 -1.6l0 -17.9 -1.7 0 0 -36.1 13.7 0 0 54 -12 0zm49.47 1.5c-5.37,0 -9.85,-1.25 -13.45,-3.75 -3.59,-2.5 -6.31,-5.9 -8.14,-10.2 -1.8,-4.3 -2.7,-9.15 -2.7,-14.55 0,-5.4 0.9,-10.25 2.7,-14.55 1.8,-4.3 4.44,-7.7 7.95,-10.2 3.49,-2.5 7.81,-3.75 12.94,-3.75 5.17,0 9.67,1.24 13.5,3.7 3.83,2.47 6.8,5.85 8.9,10.15 2.13,4.27 3.2,9.15 3.2,14.65 0,5.4 -1.05,10.25 -3.15,14.55 -2.07,4.3 -4.97,7.7 -8.7,10.2 -3.73,2.5 -8.08,3.75 -13.05,3.75zm-26.59 22.49l0 -77.99 11.99 0 0 37 1.71 0 0 40.99 -13.7 0zm24.39 -34.59c2.93,0 5.33,-0.74 7.2,-2.2 1.87,-1.47 3.25,-3.43 4.15,-5.9 0.9,-2.5 1.35,-5.27 1.35,-8.3 0,-3 -0.47,-5.73 -1.4,-8.2 -0.93,-2.5 -2.38,-4.48 -4.35,-5.95 -1.93,-1.5 -4.42,-2.25 -7.45,-2.25 -2.83,0 -5.13,0.69 -6.9,2.05 -1.73,1.37 -2.99,3.29 -3.8,5.75 -0.79,2.47 -1.2,5.33 -1.2,8.6 0,3.27 0.41,6.13 1.2,8.6 0.81,2.47 2.1,4.38 3.9,5.75 1.84,1.37 4.27,2.05 7.3,2.05z"/>
 </g>
</svg>
