<?xml version="1.0" encoding="UTF-8"?>
<!DOCTYPE svg PUBLIC "-//W3C//DTD SVG 1.0//EN" "http://www.w3.org/TR/2001/REC-SVG-20010904/DTD/svg10.dtd">
<!-- Creator: CorelDRAW 2021 (64-Bit) -->
<svg xmlns="http://www.w3.org/2000/svg" xml:space="preserve" width="2480px" height="3508px" version="1.0" shape-rendering="geometricPrecision" text-rendering="geometricPrecision" image-rendering="optimizeQuality" fill-rule="evenodd" clip-rule="evenodd"
viewBox="0 0 2480 3507.43"
 xmlns:xlink="http://www.w3.org/1999/xlink"
 xmlns:xodm="http://www.corel.com/coreldraw/odm/2003">
 <g id="Layer_x0020_1">
  <metadata id="CorelCorpID_0Corel-Layer"/>
  <path fill="#DF1219" d="M1213.97 1773.93l2.15 -2.15 9.81 9.81c5.4,5.4 9.88,9.81 9.96,9.81 0.08,0 0.14,-19.72 0.14,-43.84l0 -43.84 3.13 0 3.12 0 0 43.84c0,24.12 0.07,43.84 0.15,43.84 0.08,0 4.56,-4.41 9.96,-9.81l9.81 -9.81 2.15 2.15c1.18,1.17 2.15,2.23 2.15,2.34 0,0.11 -6.11,6.3 -13.58,13.77l-13.57 13.57 1.42 0.11c0.9,0.07 0.24,0.11 -1.81,0.11 -2.27,0 -2.74,-0.03 -1.61,-0.11l1.62 -0.11 -13.58 -13.57c-7.46,-7.47 -13.57,-13.66 -13.57,-13.77 0,-0.11 0.96,-1.17 2.15,-2.34zm25.19 -70.13c1.77,0 2.5,0.03 1.61,0.07 -0.89,0.03 -2.34,0.03 -3.22,0 -0.89,-0.04 -0.16,-0.07 1.61,-0.07z"/>
 </g>
</svg>
