<?xml version="1.0" encoding="UTF-8"?>
<!DOCTYPE svg PUBLIC "-//W3C//DTD SVG 1.0//EN" "http://www.w3.org/TR/2001/REC-SVG-20010904/DTD/svg10.dtd">
<!-- Creator: CorelDRAW 2021 (64-Bit) -->
<svg xmlns="http://www.w3.org/2000/svg" xml:space="preserve" width="2480px" height="3508px" version="1.0" shape-rendering="geometricPrecision" text-rendering="geometricPrecision" image-rendering="optimizeQuality" fill-rule="evenodd" clip-rule="evenodd"
viewBox="0 0 2480 3507.43"
 xmlns:xlink="http://www.w3.org/1999/xlink"
 xmlns:xodm="http://www.corel.com/coreldraw/odm/2003">
 <g id="Layer_x0020_1">
  <metadata id="CorelCorpID_0Corel-Layer"/>
  <path fill="none" stroke="#DF1219" stroke-width="4.69" stroke-linecap="round" stroke-linejoin="round" stroke-miterlimit="22.9256" d="M1242.34 1763.09l9.38 -9.38m0 0l-9.38 -9.37m9.38 9.37l-23.44 0m39.84 0c0,3.7 -0.73,7.35 -2.14,10.77 -1.41,3.41 -3.48,6.51 -6.1,9.12 -2.61,2.61 -5.71,4.68 -9.12,6.1 -3.41,1.41 -7.07,2.14 -10.76,2.14 -3.69,0 -7.35,-0.73 -10.76,-2.14 -3.41,-1.42 -6.51,-3.49 -9.12,-6.1 -2.62,-2.61 -4.69,-5.71 -6.1,-9.12 -1.41,-3.42 -2.14,-7.07 -2.14,-10.77 0,-7.45 2.96,-14.61 8.24,-19.88 5.27,-5.27 12.42,-8.24 19.88,-8.24 7.46,0 14.61,2.97 19.88,8.24 5.28,5.27 8.24,12.43 8.24,19.88z"/>
 </g>
</svg>
